G04 #@! TF.GenerationSoftware,KiCad,Pcbnew,(5.0.0)*
G04 #@! TF.CreationDate,2019-04-13T21:59:49-05:00*
G04 #@! TF.ProjectId,Placa_PIC18F4550,506C6163615F50494331384634353530,rev?*
G04 #@! TF.SameCoordinates,Original*
G04 #@! TF.FileFunction,Copper,L2,Bot,Signal*
G04 #@! TF.FilePolarity,Positive*
%FSLAX46Y46*%
G04 Gerber Fmt 4.6, Leading zero omitted, Abs format (unit mm)*
G04 Created by KiCad (PCBNEW (5.0.0)) date 04/13/19 21:59:49*
%MOMM*%
%LPD*%
G01*
G04 APERTURE LIST*
G04 #@! TA.AperFunction,ComponentPad*
%ADD10R,1.700000X1.700000*%
G04 #@! TD*
G04 #@! TA.AperFunction,ComponentPad*
%ADD11C,1.700000*%
G04 #@! TD*
G04 #@! TA.AperFunction,ComponentPad*
%ADD12C,3.500000*%
G04 #@! TD*
G04 #@! TA.AperFunction,ComponentPad*
%ADD13C,1.600000*%
G04 #@! TD*
G04 #@! TA.AperFunction,ComponentPad*
%ADD14R,1.800000X1.800000*%
G04 #@! TD*
G04 #@! TA.AperFunction,ComponentPad*
%ADD15C,1.800000*%
G04 #@! TD*
G04 #@! TA.AperFunction,ComponentPad*
%ADD16R,1.600000X1.600000*%
G04 #@! TD*
G04 #@! TA.AperFunction,ComponentPad*
%ADD17O,1.600000X1.600000*%
G04 #@! TD*
G04 #@! TA.AperFunction,ComponentPad*
%ADD18O,1.700000X1.700000*%
G04 #@! TD*
G04 #@! TA.AperFunction,Conductor*
%ADD19C,0.150000*%
G04 #@! TD*
G04 #@! TA.AperFunction,ComponentPad*
%ADD20C,3.000000*%
G04 #@! TD*
G04 #@! TA.AperFunction,ComponentPad*
%ADD21R,4.800000X3.000000*%
G04 #@! TD*
G04 #@! TA.AperFunction,ComponentPad*
%ADD22C,2.000000*%
G04 #@! TD*
G04 #@! TA.AperFunction,ComponentPad*
%ADD23R,1.905000X2.000000*%
G04 #@! TD*
G04 #@! TA.AperFunction,ComponentPad*
%ADD24O,1.905000X2.000000*%
G04 #@! TD*
G04 #@! TA.AperFunction,ComponentPad*
%ADD25C,2.300000*%
G04 #@! TD*
G04 #@! TA.AperFunction,ComponentPad*
%ADD26C,1.500000*%
G04 #@! TD*
G04 #@! TA.AperFunction,ComponentPad*
%ADD27R,1.500000X1.500000*%
G04 #@! TD*
G04 #@! TA.AperFunction,ViaPad*
%ADD28C,0.800000*%
G04 #@! TD*
G04 #@! TA.AperFunction,Conductor*
%ADD29C,0.254000*%
G04 #@! TD*
G04 #@! TA.AperFunction,Conductor*
%ADD30C,0.508000*%
G04 #@! TD*
G04 #@! TA.AperFunction,Conductor*
%ADD31C,0.250000*%
G04 #@! TD*
G04 APERTURE END LIST*
D10*
G04 #@! TO.P,J10,1*
G04 #@! TO.N,/VUSB*
X64770000Y-71120000D03*
D11*
G04 #@! TO.P,J10,2*
G04 #@! TO.N,/RC4*
X67270000Y-71120000D03*
G04 #@! TO.P,J10,3*
G04 #@! TO.N,/RC5*
X67270000Y-69120000D03*
G04 #@! TO.P,J10,4*
G04 #@! TO.N,GND*
X64770000Y-69120000D03*
D12*
G04 #@! TO.P,J10,5*
X60000000Y-66410000D03*
X72040000Y-66410000D03*
G04 #@! TD*
D13*
G04 #@! TO.P,C2,2*
G04 #@! TO.N,/OS1*
X81240000Y-147320000D03*
G04 #@! TO.P,C2,1*
G04 #@! TO.N,GND*
X78740000Y-147320000D03*
G04 #@! TD*
G04 #@! TO.P,C3,1*
G04 #@! TO.N,GND*
X100330000Y-147320000D03*
G04 #@! TO.P,C3,2*
G04 #@! TO.N,/OS2*
X97830000Y-147320000D03*
G04 #@! TD*
G04 #@! TO.P,C4,1*
G04 #@! TO.N,Net-(C4-Pad1)*
X101600000Y-67310000D03*
G04 #@! TO.P,C4,2*
G04 #@! TO.N,GND*
X104100000Y-67310000D03*
G04 #@! TD*
D14*
G04 #@! TO.P,D1,1*
G04 #@! TO.N,GND*
X104140000Y-142240000D03*
D15*
G04 #@! TO.P,D1,2*
G04 #@! TO.N,Net-(D1-Pad2)*
X106680000Y-142240000D03*
G04 #@! TD*
D16*
G04 #@! TO.P,D2,1*
G04 #@! TO.N,GND*
X93980000Y-73660000D03*
D17*
G04 #@! TO.P,D2,2*
G04 #@! TO.N,Net-(D2-Pad2)*
X86360000Y-73660000D03*
G04 #@! TD*
G04 #@! TO.P,D3,2*
G04 #@! TO.N,Net-(C4-Pad1)*
X105410000Y-73660000D03*
D16*
G04 #@! TO.P,D3,1*
G04 #@! TO.N,/Vc*
X97790000Y-73660000D03*
G04 #@! TD*
D15*
G04 #@! TO.P,D4,2*
G04 #@! TO.N,Net-(D4-Pad2)*
X95250000Y-67310000D03*
D14*
G04 #@! TO.P,D4,1*
G04 #@! TO.N,GND*
X92710000Y-67310000D03*
G04 #@! TD*
D10*
G04 #@! TO.P,J1,1*
G04 #@! TO.N,/RD0*
X118110000Y-135890000D03*
D18*
G04 #@! TO.P,J1,2*
G04 #@! TO.N,/RD1*
X118110000Y-133350000D03*
G04 #@! TO.P,J1,3*
G04 #@! TO.N,/RD2*
X118110000Y-130810000D03*
G04 #@! TO.P,J1,4*
G04 #@! TO.N,/RD3*
X118110000Y-128270000D03*
G04 #@! TO.P,J1,5*
G04 #@! TO.N,/RD4*
X118110000Y-125730000D03*
G04 #@! TO.P,J1,6*
G04 #@! TO.N,/RD5*
X118110000Y-123190000D03*
G04 #@! TO.P,J1,7*
G04 #@! TO.N,/RD6*
X118110000Y-120650000D03*
G04 #@! TO.P,J1,8*
G04 #@! TO.N,/RD7*
X118110000Y-118110000D03*
G04 #@! TD*
G04 #@! TO.P,J2,7*
G04 #@! TO.N,/OS2*
X58420000Y-110490000D03*
G04 #@! TO.P,J2,6*
G04 #@! TO.N,/RA5*
X58420000Y-107950000D03*
G04 #@! TO.P,J2,5*
G04 #@! TO.N,/RA4*
X58420000Y-105410000D03*
G04 #@! TO.P,J2,4*
G04 #@! TO.N,/RA3*
X58420000Y-102870000D03*
G04 #@! TO.P,J2,3*
G04 #@! TO.N,/RA2*
X58420000Y-100330000D03*
G04 #@! TO.P,J2,2*
G04 #@! TO.N,/RA1*
X58420000Y-97790000D03*
D10*
G04 #@! TO.P,J2,1*
G04 #@! TO.N,/RA0*
X58420000Y-95250000D03*
G04 #@! TD*
G04 #@! TO.P,J3,1*
G04 #@! TO.N,/RE0*
X58420000Y-116840000D03*
D18*
G04 #@! TO.P,J3,2*
G04 #@! TO.N,/RE1*
X58420000Y-119380000D03*
G04 #@! TO.P,J3,3*
G04 #@! TO.N,/RE2*
X58420000Y-121920000D03*
G04 #@! TD*
G04 #@! TO.P,J4,8*
G04 #@! TO.N,/RB7*
X118110000Y-92710000D03*
G04 #@! TO.P,J4,7*
G04 #@! TO.N,/RB6*
X118110000Y-95250000D03*
G04 #@! TO.P,J4,6*
G04 #@! TO.N,/RB5*
X118110000Y-97790000D03*
G04 #@! TO.P,J4,5*
G04 #@! TO.N,/RB4*
X118110000Y-100330000D03*
G04 #@! TO.P,J4,4*
G04 #@! TO.N,/RB3*
X118110000Y-102870000D03*
G04 #@! TO.P,J4,3*
G04 #@! TO.N,/RB2*
X118110000Y-105410000D03*
G04 #@! TO.P,J4,2*
G04 #@! TO.N,/RB1*
X118110000Y-107950000D03*
D10*
G04 #@! TO.P,J4,1*
G04 #@! TO.N,/RB0*
X118110000Y-110490000D03*
G04 #@! TD*
G04 #@! TO.P,J5,1*
G04 #@! TO.N,/RC0*
X58420000Y-128270000D03*
D18*
G04 #@! TO.P,J5,2*
G04 #@! TO.N,/RC1*
X58420000Y-130810000D03*
G04 #@! TO.P,J5,3*
G04 #@! TO.N,/RC2*
X58420000Y-133350000D03*
G04 #@! TO.P,J5,4*
G04 #@! TO.N,/RC4*
X58420000Y-135890000D03*
G04 #@! TO.P,J5,5*
G04 #@! TO.N,/RC5*
X58420000Y-138430000D03*
G04 #@! TO.P,J5,6*
G04 #@! TO.N,/RC6*
X58420000Y-140970000D03*
G04 #@! TO.P,J5,7*
G04 #@! TO.N,/RC7*
X58420000Y-143510000D03*
G04 #@! TD*
D10*
G04 #@! TO.P,J6,1*
G04 #@! TO.N,GND*
X66040000Y-147320000D03*
D18*
G04 #@! TO.P,J6,2*
X68580000Y-147320000D03*
G04 #@! TO.P,J6,3*
X71120000Y-147320000D03*
G04 #@! TD*
G04 #@! TO.P,J7,3*
G04 #@! TO.N,VCC*
X115570000Y-147320000D03*
G04 #@! TO.P,J7,2*
X113030000Y-147320000D03*
D10*
G04 #@! TO.P,J7,1*
X110490000Y-147320000D03*
G04 #@! TD*
G04 #@! TO.P,J8,1*
G04 #@! TO.N,/V+*
X77470000Y-153670000D03*
D18*
G04 #@! TO.P,J8,2*
G04 #@! TO.N,VCC*
X80010000Y-153670000D03*
G04 #@! TO.P,J8,3*
G04 #@! TO.N,/Vc*
X82550000Y-153670000D03*
G04 #@! TD*
D19*
G04 #@! TO.N,GND*
G04 #@! TO.C,J9*
G36*
X117293513Y-64793611D02*
X117366318Y-64804411D01*
X117437714Y-64822295D01*
X117507013Y-64847090D01*
X117573548Y-64878559D01*
X117636678Y-64916398D01*
X117695795Y-64960242D01*
X117750330Y-65009670D01*
X117799758Y-65064205D01*
X117843602Y-65123322D01*
X117881441Y-65186452D01*
X117912910Y-65252987D01*
X117937705Y-65322286D01*
X117955589Y-65393682D01*
X117966389Y-65466487D01*
X117970000Y-65540000D01*
X117970000Y-67040000D01*
X117966389Y-67113513D01*
X117955589Y-67186318D01*
X117937705Y-67257714D01*
X117912910Y-67327013D01*
X117881441Y-67393548D01*
X117843602Y-67456678D01*
X117799758Y-67515795D01*
X117750330Y-67570330D01*
X117695795Y-67619758D01*
X117636678Y-67663602D01*
X117573548Y-67701441D01*
X117507013Y-67732910D01*
X117437714Y-67757705D01*
X117366318Y-67775589D01*
X117293513Y-67786389D01*
X117220000Y-67790000D01*
X113920000Y-67790000D01*
X113846487Y-67786389D01*
X113773682Y-67775589D01*
X113702286Y-67757705D01*
X113632987Y-67732910D01*
X113566452Y-67701441D01*
X113503322Y-67663602D01*
X113444205Y-67619758D01*
X113389670Y-67570330D01*
X113340242Y-67515795D01*
X113296398Y-67456678D01*
X113258559Y-67393548D01*
X113227090Y-67327013D01*
X113202295Y-67257714D01*
X113184411Y-67186318D01*
X113173611Y-67113513D01*
X113170000Y-67040000D01*
X113170000Y-65540000D01*
X113173611Y-65466487D01*
X113184411Y-65393682D01*
X113202295Y-65322286D01*
X113227090Y-65252987D01*
X113258559Y-65186452D01*
X113296398Y-65123322D01*
X113340242Y-65064205D01*
X113389670Y-65009670D01*
X113444205Y-64960242D01*
X113503322Y-64916398D01*
X113566452Y-64878559D01*
X113632987Y-64847090D01*
X113702286Y-64822295D01*
X113773682Y-64804411D01*
X113846487Y-64793611D01*
X113920000Y-64790000D01*
X117220000Y-64790000D01*
X117293513Y-64793611D01*
X117293513Y-64793611D01*
G37*
D20*
G04 #@! TD*
G04 #@! TO.P,J9,2*
G04 #@! TO.N,GND*
X115570000Y-66290000D03*
D21*
G04 #@! TO.P,J9,1*
G04 #@! TO.N,Net-(J9-Pad1)*
X115570000Y-72390000D03*
D19*
G04 #@! TD*
G04 #@! TO.N,GND*
G04 #@! TO.C,J9*
G36*
X111313513Y-66183611D02*
X111386318Y-66194411D01*
X111457714Y-66212295D01*
X111527013Y-66237090D01*
X111593548Y-66268559D01*
X111656678Y-66306398D01*
X111715795Y-66350242D01*
X111770330Y-66399670D01*
X111819758Y-66454205D01*
X111863602Y-66513322D01*
X111901441Y-66576452D01*
X111932910Y-66642987D01*
X111957705Y-66712286D01*
X111975589Y-66783682D01*
X111986389Y-66856487D01*
X111990000Y-66930000D01*
X111990000Y-70230000D01*
X111986389Y-70303513D01*
X111975589Y-70376318D01*
X111957705Y-70447714D01*
X111932910Y-70517013D01*
X111901441Y-70583548D01*
X111863602Y-70646678D01*
X111819758Y-70705795D01*
X111770330Y-70760330D01*
X111715795Y-70809758D01*
X111656678Y-70853602D01*
X111593548Y-70891441D01*
X111527013Y-70922910D01*
X111457714Y-70947705D01*
X111386318Y-70965589D01*
X111313513Y-70976389D01*
X111240000Y-70980000D01*
X109740000Y-70980000D01*
X109666487Y-70976389D01*
X109593682Y-70965589D01*
X109522286Y-70947705D01*
X109452987Y-70922910D01*
X109386452Y-70891441D01*
X109323322Y-70853602D01*
X109264205Y-70809758D01*
X109209670Y-70760330D01*
X109160242Y-70705795D01*
X109116398Y-70646678D01*
X109078559Y-70583548D01*
X109047090Y-70517013D01*
X109022295Y-70447714D01*
X109004411Y-70376318D01*
X108993611Y-70303513D01*
X108990000Y-70230000D01*
X108990000Y-66930000D01*
X108993611Y-66856487D01*
X109004411Y-66783682D01*
X109022295Y-66712286D01*
X109047090Y-66642987D01*
X109078559Y-66576452D01*
X109116398Y-66513322D01*
X109160242Y-66454205D01*
X109209670Y-66399670D01*
X109264205Y-66350242D01*
X109323322Y-66306398D01*
X109386452Y-66268559D01*
X109452987Y-66237090D01*
X109522286Y-66212295D01*
X109593682Y-66194411D01*
X109666487Y-66183611D01*
X109740000Y-66180000D01*
X111240000Y-66180000D01*
X111313513Y-66183611D01*
X111313513Y-66183611D01*
G37*
D20*
G04 #@! TO.P,J9,3*
G04 #@! TO.N,GND*
X110490000Y-68580000D03*
G04 #@! TD*
D17*
G04 #@! TO.P,R1,2*
G04 #@! TO.N,/MCLR*
X85090000Y-86360000D03*
D13*
G04 #@! TO.P,R1,1*
G04 #@! TO.N,VCC*
X92710000Y-86360000D03*
G04 #@! TD*
G04 #@! TO.P,R2,1*
G04 #@! TO.N,Net-(J12-Pad1)*
X118110000Y-142240000D03*
D17*
G04 #@! TO.P,R2,2*
G04 #@! TO.N,Net-(D1-Pad2)*
X110490000Y-142240000D03*
G04 #@! TD*
G04 #@! TO.P,R3,2*
G04 #@! TO.N,GND*
X105410000Y-81280000D03*
D13*
G04 #@! TO.P,R3,1*
G04 #@! TO.N,/VUSB*
X97790000Y-81280000D03*
G04 #@! TD*
G04 #@! TO.P,R4,1*
G04 #@! TO.N,GND*
X74930000Y-81280000D03*
D17*
G04 #@! TO.P,R4,2*
G04 #@! TO.N,Net-(C4-Pad1)*
X82550000Y-81280000D03*
G04 #@! TD*
D13*
G04 #@! TO.P,R5,1*
G04 #@! TO.N,Net-(Q1-Pad2)*
X86360000Y-81280000D03*
D17*
G04 #@! TO.P,R5,2*
G04 #@! TO.N,Net-(C4-Pad1)*
X93980000Y-81280000D03*
G04 #@! TD*
G04 #@! TO.P,R6,2*
G04 #@! TO.N,/VUSB*
X86360000Y-77470000D03*
D13*
G04 #@! TO.P,R6,1*
G04 #@! TO.N,GND*
X93980000Y-77470000D03*
G04 #@! TD*
G04 #@! TO.P,R7,1*
G04 #@! TO.N,/Vc*
X97790000Y-77470000D03*
D17*
G04 #@! TO.P,R7,2*
G04 #@! TO.N,Net-(D4-Pad2)*
X105410000Y-77470000D03*
G04 #@! TD*
D22*
G04 #@! TO.P,SW1,2*
G04 #@! TO.N,/MCLR*
X111760000Y-83240000D03*
G04 #@! TO.P,SW1,1*
G04 #@! TO.N,GND*
X111760000Y-78740000D03*
G04 #@! TO.P,SW1,2*
G04 #@! TO.N,/MCLR*
X118260000Y-83240000D03*
G04 #@! TO.P,SW1,1*
G04 #@! TO.N,GND*
X118260000Y-78740000D03*
G04 #@! TD*
D16*
G04 #@! TO.P,U1,1*
G04 #@! TO.N,/MCLR*
X82550000Y-92710000D03*
D17*
G04 #@! TO.P,U1,21*
G04 #@! TO.N,/RD2*
X97790000Y-140970000D03*
G04 #@! TO.P,U1,2*
G04 #@! TO.N,/RA0*
X82550000Y-95250000D03*
G04 #@! TO.P,U1,22*
G04 #@! TO.N,/RD3*
X97790000Y-138430000D03*
G04 #@! TO.P,U1,3*
G04 #@! TO.N,/RA1*
X82550000Y-97790000D03*
G04 #@! TO.P,U1,23*
G04 #@! TO.N,/RC4*
X97790000Y-135890000D03*
G04 #@! TO.P,U1,4*
G04 #@! TO.N,/RA2*
X82550000Y-100330000D03*
G04 #@! TO.P,U1,24*
G04 #@! TO.N,/RC5*
X97790000Y-133350000D03*
G04 #@! TO.P,U1,5*
G04 #@! TO.N,/RA3*
X82550000Y-102870000D03*
G04 #@! TO.P,U1,25*
G04 #@! TO.N,/RC6*
X97790000Y-130810000D03*
G04 #@! TO.P,U1,6*
G04 #@! TO.N,/RA4*
X82550000Y-105410000D03*
G04 #@! TO.P,U1,26*
G04 #@! TO.N,/RC7*
X97790000Y-128270000D03*
G04 #@! TO.P,U1,7*
G04 #@! TO.N,/RA5*
X82550000Y-107950000D03*
G04 #@! TO.P,U1,27*
G04 #@! TO.N,/RD4*
X97790000Y-125730000D03*
G04 #@! TO.P,U1,8*
G04 #@! TO.N,/RE0*
X82550000Y-110490000D03*
G04 #@! TO.P,U1,28*
G04 #@! TO.N,/RD5*
X97790000Y-123190000D03*
G04 #@! TO.P,U1,9*
G04 #@! TO.N,/RE1*
X82550000Y-113030000D03*
G04 #@! TO.P,U1,29*
G04 #@! TO.N,/RD6*
X97790000Y-120650000D03*
G04 #@! TO.P,U1,10*
G04 #@! TO.N,/RE2*
X82550000Y-115570000D03*
G04 #@! TO.P,U1,30*
G04 #@! TO.N,/RD7*
X97790000Y-118110000D03*
G04 #@! TO.P,U1,11*
G04 #@! TO.N,VCC*
X82550000Y-118110000D03*
G04 #@! TO.P,U1,31*
G04 #@! TO.N,GND*
X97790000Y-115570000D03*
G04 #@! TO.P,U1,12*
X82550000Y-120650000D03*
G04 #@! TO.P,U1,32*
G04 #@! TO.N,VCC*
X97790000Y-113030000D03*
G04 #@! TO.P,U1,13*
G04 #@! TO.N,/OS1*
X82550000Y-123190000D03*
G04 #@! TO.P,U1,33*
G04 #@! TO.N,/RB0*
X97790000Y-110490000D03*
G04 #@! TO.P,U1,14*
G04 #@! TO.N,/OS2*
X82550000Y-125730000D03*
G04 #@! TO.P,U1,34*
G04 #@! TO.N,/RB1*
X97790000Y-107950000D03*
G04 #@! TO.P,U1,15*
G04 #@! TO.N,/RC0*
X82550000Y-128270000D03*
G04 #@! TO.P,U1,35*
G04 #@! TO.N,/RB2*
X97790000Y-105410000D03*
G04 #@! TO.P,U1,16*
G04 #@! TO.N,/RC1*
X82550000Y-130810000D03*
G04 #@! TO.P,U1,36*
G04 #@! TO.N,/RB3*
X97790000Y-102870000D03*
G04 #@! TO.P,U1,17*
G04 #@! TO.N,/RC2*
X82550000Y-133350000D03*
G04 #@! TO.P,U1,37*
G04 #@! TO.N,/RB4*
X97790000Y-100330000D03*
G04 #@! TO.P,U1,18*
G04 #@! TO.N,Net-(C1-Pad1)*
X82550000Y-135890000D03*
G04 #@! TO.P,U1,38*
G04 #@! TO.N,/RB5*
X97790000Y-97790000D03*
G04 #@! TO.P,U1,19*
G04 #@! TO.N,/RD0*
X82550000Y-138430000D03*
G04 #@! TO.P,U1,39*
G04 #@! TO.N,/RB6*
X97790000Y-95250000D03*
G04 #@! TO.P,U1,20*
G04 #@! TO.N,/RD1*
X82550000Y-140970000D03*
G04 #@! TO.P,U1,40*
G04 #@! TO.N,/RB7*
X97790000Y-92710000D03*
G04 #@! TD*
D23*
G04 #@! TO.P,U2,1*
G04 #@! TO.N,Net-(J9-Pad1)*
X81280000Y-67310000D03*
D24*
G04 #@! TO.P,U2,2*
G04 #@! TO.N,Net-(D2-Pad2)*
X83820000Y-67310000D03*
G04 #@! TO.P,U2,3*
G04 #@! TO.N,Net-(C4-Pad1)*
X86360000Y-67310000D03*
G04 #@! TD*
D25*
G04 #@! TO.P,Y1,1*
G04 #@! TO.N,/OS1*
X87810000Y-147320000D03*
G04 #@! TO.P,Y1,2*
G04 #@! TO.N,/OS2*
X92710000Y-147320000D03*
G04 #@! TD*
D16*
G04 #@! TO.P,C5,1*
G04 #@! TO.N,/Vc*
X67310000Y-80010000D03*
D13*
G04 #@! TO.P,C5,2*
G04 #@! TO.N,GND*
X64810000Y-80010000D03*
G04 #@! TD*
D10*
G04 #@! TO.P,J11,1*
G04 #@! TO.N,/MCLR*
X88900000Y-153670000D03*
D18*
G04 #@! TO.P,J11,2*
G04 #@! TO.N,/V+*
X91440000Y-153670000D03*
G04 #@! TO.P,J11,3*
G04 #@! TO.N,GND*
X93980000Y-153670000D03*
G04 #@! TO.P,J11,4*
G04 #@! TO.N,/RB7*
X96520000Y-153670000D03*
G04 #@! TO.P,J11,5*
G04 #@! TO.N,/RB6*
X99060000Y-153670000D03*
G04 #@! TO.P,J11,6*
G04 #@! TO.N,/RB5*
X101600000Y-153670000D03*
G04 #@! TD*
D16*
G04 #@! TO.P,C1,1*
G04 #@! TO.N,Net-(C1-Pad1)*
X76835000Y-135890000D03*
D13*
G04 #@! TO.P,C1,2*
G04 #@! TO.N,GND*
X74335000Y-135890000D03*
G04 #@! TD*
D26*
G04 #@! TO.P,Q1,2*
G04 #@! TO.N,Net-(Q1-Pad2)*
X80010000Y-73660000D03*
G04 #@! TO.P,Q1,3*
G04 #@! TO.N,/Vc*
X82550000Y-73660000D03*
D27*
G04 #@! TO.P,Q1,1*
G04 #@! TO.N,/VUSB*
X77470000Y-73660000D03*
G04 #@! TD*
D10*
G04 #@! TO.P,J12,1*
G04 #@! TO.N,Net-(J12-Pad1)*
X114300000Y-138430000D03*
D18*
G04 #@! TO.P,J12,2*
G04 #@! TO.N,/RD0*
X114300000Y-135890000D03*
G04 #@! TD*
D28*
G04 #@! TO.N,/OS2*
X92710000Y-125730000D03*
X68580000Y-110490000D03*
G04 #@! TO.N,VCC*
X80010000Y-149860000D03*
X74930000Y-121920000D03*
G04 #@! TD*
D29*
G04 #@! TO.N,/OS1*
X87810000Y-147320000D02*
X81240000Y-147320000D01*
G04 #@! TO.N,/OS2*
X97830000Y-147320000D02*
X92710000Y-147320000D01*
X82550000Y-125730000D02*
X92710000Y-125730000D01*
X68580000Y-110490000D02*
X58420000Y-110490000D01*
D30*
G04 #@! TO.N,Net-(C4-Pad1)*
X105410000Y-71120000D02*
X101600000Y-67310000D01*
X105410000Y-73660000D02*
X105410000Y-71120000D01*
X93180001Y-82079999D02*
X93980000Y-81280000D01*
X91440000Y-83820000D02*
X93180001Y-82079999D01*
X85090000Y-83820000D02*
X91440000Y-83820000D01*
X82550000Y-81280000D02*
X85090000Y-83820000D01*
X106209999Y-74459999D02*
X105410000Y-73660000D01*
X106664001Y-74914001D02*
X106209999Y-74459999D01*
X106664001Y-81881921D02*
X106664001Y-74914001D01*
X106011921Y-82534001D02*
X106664001Y-81881921D01*
X95234001Y-82534001D02*
X106011921Y-82534001D01*
X93980000Y-81280000D02*
X95234001Y-82534001D01*
X100800001Y-66510001D02*
X101600000Y-67310000D01*
X100092000Y-65802000D02*
X100800001Y-66510001D01*
X87820500Y-65802000D02*
X100092000Y-65802000D01*
X86360000Y-67262500D02*
X87820500Y-65802000D01*
X86360000Y-67310000D02*
X86360000Y-67262500D01*
G04 #@! TO.N,/Vc*
X97790000Y-77470000D02*
X97790000Y-73660000D01*
X78740000Y-69850000D02*
X82550000Y-73660000D01*
X71120000Y-69850000D02*
X78740000Y-69850000D01*
X67310000Y-78702000D02*
X62230000Y-73622000D01*
X67310000Y-80010000D02*
X67310000Y-78702000D01*
X62230000Y-73622000D02*
X62230000Y-68580000D01*
X62230000Y-68580000D02*
X63500000Y-67310000D01*
X63500000Y-67310000D02*
X68580000Y-67310000D01*
X68580000Y-67310000D02*
X71120000Y-69850000D01*
D31*
G04 #@! TO.N,Net-(D1-Pad2)*
X110490000Y-142240000D02*
X106680000Y-142240000D01*
D30*
G04 #@! TO.N,Net-(D2-Pad2)*
X83820000Y-67357500D02*
X83820000Y-67310000D01*
X85280500Y-68818000D02*
X83820000Y-67357500D01*
X85328000Y-68818000D02*
X85280500Y-68818000D01*
X86360000Y-69850000D02*
X85328000Y-68818000D01*
X86360000Y-73660000D02*
X86360000Y-69850000D01*
G04 #@! TO.N,Net-(D4-Pad2)*
X95250000Y-67310000D02*
X97790000Y-67310000D01*
X97790000Y-69850000D02*
X105410000Y-77470000D01*
X97790000Y-67310000D02*
X97790000Y-69850000D01*
D29*
G04 #@! TO.N,/RD0*
X82550000Y-138430000D02*
X80010000Y-140970000D01*
X80010000Y-140970000D02*
X80010000Y-143510000D01*
X80010000Y-143510000D02*
X81280000Y-144780000D01*
D31*
X118110000Y-135890000D02*
X114300000Y-135890000D01*
X113030000Y-137160000D02*
X114300000Y-135890000D01*
X113030000Y-142240000D02*
X113030000Y-137160000D01*
X81280000Y-144780000D02*
X110490000Y-144780000D01*
X110490000Y-144780000D02*
X113030000Y-142240000D01*
D29*
G04 #@! TO.N,/RD1*
X116907919Y-133350000D02*
X118110000Y-133350000D01*
X109371398Y-133350000D02*
X116907919Y-133350000D01*
X100481398Y-142240000D02*
X109371398Y-133350000D01*
X83820000Y-142240000D02*
X100481398Y-142240000D01*
X82550000Y-140970000D02*
X83820000Y-142240000D01*
G04 #@! TO.N,/RD2*
X107950000Y-130810000D02*
X118110000Y-130810000D01*
X97790000Y-140970000D02*
X107950000Y-130810000D01*
G04 #@! TO.N,/RD3*
X107950000Y-128270000D02*
X97790000Y-138430000D01*
X118110000Y-128270000D02*
X107950000Y-128270000D01*
G04 #@! TO.N,/RD4*
X97790000Y-125730000D02*
X118110000Y-125730000D01*
G04 #@! TO.N,/RD5*
X97790000Y-123190000D02*
X118110000Y-123190000D01*
X97790000Y-123190000D02*
X118110000Y-123190000D01*
G04 #@! TO.N,/RD6*
X97790000Y-120650000D02*
X118110000Y-120650000D01*
D31*
G04 #@! TO.N,/RD7*
X118110000Y-118110000D02*
X97790000Y-118110000D01*
D29*
G04 #@! TO.N,/RA5*
X82550000Y-107950000D02*
X58420000Y-107950000D01*
G04 #@! TO.N,/RA4*
X82550000Y-105410000D02*
X58420000Y-105410000D01*
G04 #@! TO.N,/RA3*
X82550000Y-102870000D02*
X58420000Y-102870000D01*
G04 #@! TO.N,/RA2*
X82550000Y-100330000D02*
X58420000Y-100330000D01*
G04 #@! TO.N,/RA1*
X82550000Y-97790000D02*
X58420000Y-97790000D01*
G04 #@! TO.N,/RA0*
X82550000Y-95250000D02*
X58420000Y-95250000D01*
G04 #@! TO.N,/RE0*
X58420000Y-116840000D02*
X63500000Y-116840000D01*
X63500000Y-116840000D02*
X69850000Y-110490000D01*
X69850000Y-110490000D02*
X82550000Y-110490000D01*
G04 #@! TO.N,/RE1*
X58420000Y-119380000D02*
X64770000Y-119380000D01*
X64770000Y-119380000D02*
X71120000Y-113030000D01*
X71120000Y-113030000D02*
X82550000Y-113030000D01*
G04 #@! TO.N,/RE2*
X58420000Y-121920000D02*
X66040000Y-121920000D01*
X66040000Y-121920000D02*
X72390000Y-115570000D01*
X72390000Y-115570000D02*
X82550000Y-115570000D01*
G04 #@! TO.N,/RB7*
X97790000Y-92710000D02*
X118110000Y-92710000D01*
G04 #@! TO.N,/RB6*
X97790000Y-95250000D02*
X118110000Y-95250000D01*
G04 #@! TO.N,/RB5*
X97790000Y-97790000D02*
X118110000Y-97790000D01*
G04 #@! TO.N,/RB4*
X97790000Y-100330000D02*
X118110000Y-100330000D01*
G04 #@! TO.N,/RB3*
X97790000Y-102870000D02*
X118110000Y-102870000D01*
G04 #@! TO.N,/RB2*
X97790000Y-105410000D02*
X118110000Y-105410000D01*
G04 #@! TO.N,/RB1*
X97790000Y-107950000D02*
X118110000Y-107950000D01*
G04 #@! TO.N,/RB0*
X97790000Y-110490000D02*
X118110000Y-110490000D01*
G04 #@! TO.N,/RC0*
X58420000Y-128270000D02*
X82550000Y-128270000D01*
G04 #@! TO.N,/RC1*
X58420000Y-130810000D02*
X82550000Y-130810000D01*
G04 #@! TO.N,/RC2*
X58420000Y-133350000D02*
X82550000Y-133350000D01*
G04 #@! TO.N,/RC4*
X96990001Y-135090001D02*
X97790000Y-135890000D01*
X96520000Y-134620000D02*
X96990001Y-135090001D01*
X59690000Y-134620000D02*
X96520000Y-134620000D01*
X58420000Y-135890000D02*
X59690000Y-134620000D01*
G04 #@! TO.N,/RC5*
X58420000Y-138430000D02*
X78740000Y-138430000D01*
X98589999Y-134149999D02*
X97790000Y-133350000D01*
X98917001Y-134477001D02*
X98589999Y-134149999D01*
X98917001Y-136430961D02*
X98917001Y-134477001D01*
X98330961Y-137017001D02*
X98917001Y-136430961D01*
X80152999Y-137017001D02*
X98330961Y-137017001D01*
X78740000Y-138430000D02*
X80152999Y-137017001D01*
G04 #@! TO.N,/RC6*
X58420000Y-140970000D02*
X55880000Y-138430000D01*
X55880000Y-138430000D02*
X55880000Y-127000000D01*
X55880000Y-127000000D02*
X57150000Y-125730000D01*
X57150000Y-125730000D02*
X78740000Y-125730000D01*
X96990001Y-130010001D02*
X97790000Y-130810000D01*
X94122999Y-127142999D02*
X96990001Y-130010001D01*
X80152999Y-127142999D02*
X94122999Y-127142999D01*
X78740000Y-125730000D02*
X80152999Y-127142999D01*
G04 #@! TO.N,/RC7*
X58420000Y-143510000D02*
X55880000Y-143510000D01*
X55880000Y-143510000D02*
X54610000Y-142240000D01*
X54610000Y-142240000D02*
X54610000Y-125730000D01*
X54610000Y-125730000D02*
X55880000Y-124460000D01*
X93980000Y-124460000D02*
X97790000Y-128270000D01*
X55880000Y-124460000D02*
X93980000Y-124460000D01*
G04 #@! TO.N,VCC*
X115570000Y-147320000D02*
X113030000Y-147320000D01*
X110490000Y-147320000D02*
X113030000Y-147320000D01*
X82550000Y-118110000D02*
X86360000Y-118110000D01*
X91440000Y-113030000D02*
X97790000Y-113030000D01*
X86360000Y-118110000D02*
X91440000Y-113030000D01*
X92710000Y-86360000D02*
X92710000Y-111760000D01*
X92710000Y-111760000D02*
X91440000Y-113030000D01*
X110490000Y-148424000D02*
X110490000Y-147320000D01*
X109054000Y-149860000D02*
X110490000Y-148424000D01*
X80010000Y-149860000D02*
X109054000Y-149860000D01*
X74930000Y-121920000D02*
X78740000Y-118110000D01*
X78740000Y-118110000D02*
X82550000Y-118110000D01*
G04 #@! TO.N,/V+*
X91440000Y-153670000D02*
X90170000Y-152400000D01*
X77470000Y-152566000D02*
X78906000Y-151130000D01*
X77470000Y-153670000D02*
X77470000Y-152566000D01*
X88900000Y-151130000D02*
X91440000Y-153670000D01*
X78906000Y-151130000D02*
X88900000Y-151130000D01*
D30*
G04 #@! TO.N,Net-(J9-Pad1)*
X81280000Y-67262500D02*
X83772500Y-64770000D01*
X81280000Y-67310000D02*
X81280000Y-67262500D01*
X112662000Y-72390000D02*
X115570000Y-72390000D01*
X110197272Y-72390000D02*
X112662000Y-72390000D01*
X108535990Y-70728718D02*
X110197272Y-72390000D01*
X108535990Y-69890068D02*
X108535990Y-70728718D01*
X103415922Y-64770000D02*
X108535990Y-69890068D01*
X83772500Y-64770000D02*
X103415922Y-64770000D01*
G04 #@! TO.N,/VUSB*
X87159999Y-78269999D02*
X86360000Y-77470000D01*
X88900000Y-80010000D02*
X87159999Y-78269999D01*
X96520000Y-80010000D02*
X88900000Y-80010000D01*
X97790000Y-81280000D02*
X96520000Y-80010000D01*
X77470000Y-74918000D02*
X77470000Y-73660000D01*
X80022000Y-77470000D02*
X77470000Y-74918000D01*
X86360000Y-77470000D02*
X80022000Y-77470000D01*
X64770000Y-72478000D02*
X64770000Y-71120000D01*
X77470000Y-73660000D02*
X65952000Y-73660000D01*
X65952000Y-73660000D02*
X64770000Y-72478000D01*
G04 #@! TO.N,/MCLR*
X83858000Y-92710000D02*
X82550000Y-92710000D01*
X85090000Y-91478000D02*
X83858000Y-92710000D01*
X85090000Y-86360000D02*
X85090000Y-91478000D01*
X116845787Y-83240000D02*
X111760000Y-83240000D01*
X118260000Y-83240000D02*
X116845787Y-83240000D01*
X110760001Y-84239999D02*
X111760000Y-83240000D01*
X109894001Y-85105999D02*
X110760001Y-84239999D01*
X86344001Y-85105999D02*
X109894001Y-85105999D01*
X85090000Y-86360000D02*
X86344001Y-85105999D01*
D29*
G04 #@! TO.N,Net-(C1-Pad1)*
X82550000Y-135890000D02*
X76835000Y-135890000D01*
D31*
G04 #@! TO.N,Net-(J12-Pad1)*
X118110000Y-142240000D02*
X118110000Y-139700000D01*
X116840000Y-138430000D02*
X114300000Y-138430000D01*
X118110000Y-139700000D02*
X116840000Y-138430000D01*
G04 #@! TD*
D29*
G04 #@! TO.N,GND*
G36*
X122455001Y-156137608D02*
X122455000Y-156137613D01*
X122455000Y-156745000D01*
X52805000Y-156745000D01*
X52805000Y-147605750D01*
X64555000Y-147605750D01*
X64555000Y-148296309D01*
X64651673Y-148529698D01*
X64830301Y-148708327D01*
X65063690Y-148805000D01*
X65754250Y-148805000D01*
X65913000Y-148646250D01*
X65913000Y-147447000D01*
X66167000Y-147447000D01*
X66167000Y-148646250D01*
X66325750Y-148805000D01*
X67016310Y-148805000D01*
X67249699Y-148708327D01*
X67428327Y-148529698D01*
X67515136Y-148320122D01*
X67813076Y-148591645D01*
X68223110Y-148761476D01*
X68453000Y-148640155D01*
X68453000Y-147447000D01*
X68707000Y-147447000D01*
X68707000Y-148640155D01*
X68936890Y-148761476D01*
X69346924Y-148591645D01*
X69775183Y-148201358D01*
X69850000Y-148042046D01*
X69924817Y-148201358D01*
X70353076Y-148591645D01*
X70763110Y-148761476D01*
X70993000Y-148640155D01*
X70993000Y-147447000D01*
X71247000Y-147447000D01*
X71247000Y-148640155D01*
X71476890Y-148761476D01*
X71886924Y-148591645D01*
X72176499Y-148327745D01*
X77911861Y-148327745D01*
X77985995Y-148573864D01*
X78523223Y-148766965D01*
X79093454Y-148739778D01*
X79494005Y-148573864D01*
X79568139Y-148327745D01*
X78740000Y-147499605D01*
X77911861Y-148327745D01*
X72176499Y-148327745D01*
X72315183Y-148201358D01*
X72561486Y-147676892D01*
X72440819Y-147447000D01*
X71247000Y-147447000D01*
X70993000Y-147447000D01*
X68707000Y-147447000D01*
X68453000Y-147447000D01*
X66167000Y-147447000D01*
X65913000Y-147447000D01*
X64713750Y-147447000D01*
X64555000Y-147605750D01*
X52805000Y-147605750D01*
X52805000Y-146343691D01*
X64555000Y-146343691D01*
X64555000Y-147034250D01*
X64713750Y-147193000D01*
X65913000Y-147193000D01*
X65913000Y-145993750D01*
X66167000Y-145993750D01*
X66167000Y-147193000D01*
X68453000Y-147193000D01*
X68453000Y-145999845D01*
X68707000Y-145999845D01*
X68707000Y-147193000D01*
X70993000Y-147193000D01*
X70993000Y-145999845D01*
X71247000Y-145999845D01*
X71247000Y-147193000D01*
X72440819Y-147193000D01*
X72487941Y-147103223D01*
X77293035Y-147103223D01*
X77320222Y-147673454D01*
X77486136Y-148074005D01*
X77732255Y-148148139D01*
X78560395Y-147320000D01*
X77732255Y-146491861D01*
X77486136Y-146565995D01*
X77293035Y-147103223D01*
X72487941Y-147103223D01*
X72561486Y-146963108D01*
X72315183Y-146438642D01*
X72176500Y-146312255D01*
X77911861Y-146312255D01*
X78740000Y-147140395D01*
X79568139Y-146312255D01*
X79494005Y-146066136D01*
X78956777Y-145873035D01*
X78386546Y-145900222D01*
X77985995Y-146066136D01*
X77911861Y-146312255D01*
X72176500Y-146312255D01*
X71886924Y-146048355D01*
X71476890Y-145878524D01*
X71247000Y-145999845D01*
X70993000Y-145999845D01*
X70763110Y-145878524D01*
X70353076Y-146048355D01*
X69924817Y-146438642D01*
X69850000Y-146597954D01*
X69775183Y-146438642D01*
X69346924Y-146048355D01*
X68936890Y-145878524D01*
X68707000Y-145999845D01*
X68453000Y-145999845D01*
X68223110Y-145878524D01*
X67813076Y-146048355D01*
X67515136Y-146319878D01*
X67428327Y-146110302D01*
X67249699Y-145931673D01*
X67016310Y-145835000D01*
X66325750Y-145835000D01*
X66167000Y-145993750D01*
X65913000Y-145993750D01*
X65754250Y-145835000D01*
X65063690Y-145835000D01*
X64830301Y-145931673D01*
X64651673Y-146110302D01*
X64555000Y-146343691D01*
X52805000Y-146343691D01*
X52805000Y-125730000D01*
X53833073Y-125730000D01*
X53848001Y-125805048D01*
X53848000Y-142164957D01*
X53833073Y-142240000D01*
X53848000Y-142315043D01*
X53848000Y-142315047D01*
X53892212Y-142537316D01*
X54060629Y-142789371D01*
X54124253Y-142831883D01*
X55288117Y-143995748D01*
X55330629Y-144059371D01*
X55394251Y-144101882D01*
X55582681Y-144227787D01*
X55582682Y-144227787D01*
X55582683Y-144227788D01*
X55804952Y-144272000D01*
X55804956Y-144272000D01*
X55879999Y-144286927D01*
X55955042Y-144272000D01*
X57143158Y-144272000D01*
X57349375Y-144580625D01*
X57840582Y-144908839D01*
X58273744Y-144995000D01*
X58566256Y-144995000D01*
X58999418Y-144908839D01*
X59490625Y-144580625D01*
X59818839Y-144089418D01*
X59934092Y-143510000D01*
X59818839Y-142930582D01*
X59490625Y-142439375D01*
X59192239Y-142240000D01*
X59490625Y-142040625D01*
X59818839Y-141549418D01*
X59934092Y-140970000D01*
X59818839Y-140390582D01*
X59490625Y-139899375D01*
X59192239Y-139700000D01*
X59490625Y-139500625D01*
X59696842Y-139192000D01*
X78664957Y-139192000D01*
X78740000Y-139206927D01*
X78815043Y-139192000D01*
X78815048Y-139192000D01*
X79037317Y-139147788D01*
X79289371Y-138979371D01*
X79331883Y-138915747D01*
X80468630Y-137779001D01*
X81259124Y-137779001D01*
X81198260Y-137870091D01*
X81086887Y-138430000D01*
X81150843Y-138751527D01*
X79524254Y-140378116D01*
X79460629Y-140420629D01*
X79292212Y-140672684D01*
X79248000Y-140894953D01*
X79248000Y-140894957D01*
X79233073Y-140970000D01*
X79248000Y-141045043D01*
X79248001Y-143434952D01*
X79233073Y-143510000D01*
X79248001Y-143585048D01*
X79292213Y-143807317D01*
X79460630Y-144059371D01*
X79524251Y-144101881D01*
X80695368Y-145272998D01*
X80732071Y-145327929D01*
X80787001Y-145364632D01*
X80794251Y-145371882D01*
X80982681Y-145497787D01*
X81279999Y-145556927D01*
X81365097Y-145540000D01*
X87442870Y-145540000D01*
X86798879Y-145806750D01*
X86296750Y-146308879D01*
X86193561Y-146558000D01*
X82477602Y-146558000D01*
X82456534Y-146507138D01*
X82052862Y-146103466D01*
X81525439Y-145885000D01*
X80954561Y-145885000D01*
X80427138Y-146103466D01*
X80023466Y-146507138D01*
X79996475Y-146572299D01*
X79993864Y-146565995D01*
X79747745Y-146491861D01*
X78919605Y-147320000D01*
X79747745Y-148148139D01*
X79993864Y-148074005D01*
X79996290Y-148067254D01*
X80023466Y-148132862D01*
X80427138Y-148536534D01*
X80954561Y-148755000D01*
X81525439Y-148755000D01*
X82052862Y-148536534D01*
X82456534Y-148132862D01*
X82477602Y-148082000D01*
X86193561Y-148082000D01*
X86296750Y-148331121D01*
X86798879Y-148833250D01*
X87438042Y-149098000D01*
X80711711Y-149098000D01*
X80596280Y-148982569D01*
X80215874Y-148825000D01*
X79804126Y-148825000D01*
X79423720Y-148982569D01*
X79132569Y-149273720D01*
X78975000Y-149654126D01*
X78975000Y-150065874D01*
X79100144Y-150368000D01*
X78981047Y-150368000D01*
X78906000Y-150353072D01*
X78830953Y-150368000D01*
X78830952Y-150368000D01*
X78608683Y-150412212D01*
X78356629Y-150580629D01*
X78314118Y-150644251D01*
X76984251Y-151974119D01*
X76920630Y-152016629D01*
X76878119Y-152080251D01*
X76878118Y-152080252D01*
X76816440Y-152172560D01*
X76620000Y-152172560D01*
X76372235Y-152221843D01*
X76162191Y-152362191D01*
X76021843Y-152572235D01*
X75972560Y-152820000D01*
X75972560Y-154520000D01*
X76021843Y-154767765D01*
X76162191Y-154977809D01*
X76372235Y-155118157D01*
X76620000Y-155167440D01*
X78320000Y-155167440D01*
X78567765Y-155118157D01*
X78777809Y-154977809D01*
X78918157Y-154767765D01*
X78927184Y-154722381D01*
X78939375Y-154740625D01*
X79430582Y-155068839D01*
X79863744Y-155155000D01*
X80156256Y-155155000D01*
X80589418Y-155068839D01*
X81080625Y-154740625D01*
X81280000Y-154442239D01*
X81479375Y-154740625D01*
X81970582Y-155068839D01*
X82403744Y-155155000D01*
X82696256Y-155155000D01*
X83129418Y-155068839D01*
X83620625Y-154740625D01*
X83948839Y-154249418D01*
X84064092Y-153670000D01*
X83948839Y-153090582D01*
X83620625Y-152599375D01*
X83129418Y-152271161D01*
X82696256Y-152185000D01*
X82403744Y-152185000D01*
X81970582Y-152271161D01*
X81479375Y-152599375D01*
X81280000Y-152897761D01*
X81080625Y-152599375D01*
X80589418Y-152271161D01*
X80156256Y-152185000D01*
X79863744Y-152185000D01*
X79430582Y-152271161D01*
X78939375Y-152599375D01*
X78927184Y-152617619D01*
X78918157Y-152572235D01*
X78777809Y-152362191D01*
X78762002Y-152351629D01*
X79221631Y-151892000D01*
X88584370Y-151892000D01*
X88864930Y-152172560D01*
X88050000Y-152172560D01*
X87802235Y-152221843D01*
X87592191Y-152362191D01*
X87451843Y-152572235D01*
X87402560Y-152820000D01*
X87402560Y-154520000D01*
X87451843Y-154767765D01*
X87592191Y-154977809D01*
X87802235Y-155118157D01*
X88050000Y-155167440D01*
X89750000Y-155167440D01*
X89997765Y-155118157D01*
X90207809Y-154977809D01*
X90348157Y-154767765D01*
X90357184Y-154722381D01*
X90369375Y-154740625D01*
X90860582Y-155068839D01*
X91293744Y-155155000D01*
X91586256Y-155155000D01*
X92019418Y-155068839D01*
X92510625Y-154740625D01*
X92723843Y-154421522D01*
X92784817Y-154551358D01*
X93213076Y-154941645D01*
X93623110Y-155111476D01*
X93853000Y-154990155D01*
X93853000Y-153797000D01*
X93833000Y-153797000D01*
X93833000Y-153543000D01*
X93853000Y-153543000D01*
X93853000Y-152349845D01*
X94107000Y-152349845D01*
X94107000Y-153543000D01*
X94127000Y-153543000D01*
X94127000Y-153797000D01*
X94107000Y-153797000D01*
X94107000Y-154990155D01*
X94336890Y-155111476D01*
X94746924Y-154941645D01*
X95175183Y-154551358D01*
X95236157Y-154421522D01*
X95449375Y-154740625D01*
X95940582Y-155068839D01*
X96373744Y-155155000D01*
X96666256Y-155155000D01*
X97099418Y-155068839D01*
X97590625Y-154740625D01*
X97790000Y-154442239D01*
X97989375Y-154740625D01*
X98480582Y-155068839D01*
X98913744Y-155155000D01*
X99206256Y-155155000D01*
X99639418Y-155068839D01*
X100130625Y-154740625D01*
X100330000Y-154442239D01*
X100529375Y-154740625D01*
X101020582Y-155068839D01*
X101453744Y-155155000D01*
X101746256Y-155155000D01*
X102179418Y-155068839D01*
X102670625Y-154740625D01*
X102998839Y-154249418D01*
X103114092Y-153670000D01*
X102998839Y-153090582D01*
X102670625Y-152599375D01*
X102179418Y-152271161D01*
X101746256Y-152185000D01*
X101453744Y-152185000D01*
X101020582Y-152271161D01*
X100529375Y-152599375D01*
X100330000Y-152897761D01*
X100130625Y-152599375D01*
X99639418Y-152271161D01*
X99206256Y-152185000D01*
X98913744Y-152185000D01*
X98480582Y-152271161D01*
X97989375Y-152599375D01*
X97790000Y-152897761D01*
X97590625Y-152599375D01*
X97099418Y-152271161D01*
X96666256Y-152185000D01*
X96373744Y-152185000D01*
X95940582Y-152271161D01*
X95449375Y-152599375D01*
X95236157Y-152918478D01*
X95175183Y-152788642D01*
X94746924Y-152398355D01*
X94336890Y-152228524D01*
X94107000Y-152349845D01*
X93853000Y-152349845D01*
X93623110Y-152228524D01*
X93213076Y-152398355D01*
X92784817Y-152788642D01*
X92723843Y-152918478D01*
X92510625Y-152599375D01*
X92019418Y-152271161D01*
X91586256Y-152185000D01*
X91293744Y-152185000D01*
X91075952Y-152228321D01*
X90655748Y-151808118D01*
X89491884Y-150644254D01*
X89477014Y-150622000D01*
X108978957Y-150622000D01*
X109054000Y-150636927D01*
X109129043Y-150622000D01*
X109129048Y-150622000D01*
X109351317Y-150577788D01*
X109603371Y-150409371D01*
X109645883Y-150345747D01*
X110975750Y-149015881D01*
X111039371Y-148973371D01*
X111143561Y-148817440D01*
X111340000Y-148817440D01*
X111587765Y-148768157D01*
X111797809Y-148627809D01*
X111938157Y-148417765D01*
X111947184Y-148372381D01*
X111959375Y-148390625D01*
X112450582Y-148718839D01*
X112883744Y-148805000D01*
X113176256Y-148805000D01*
X113609418Y-148718839D01*
X114100625Y-148390625D01*
X114300000Y-148092239D01*
X114499375Y-148390625D01*
X114990582Y-148718839D01*
X115423744Y-148805000D01*
X115716256Y-148805000D01*
X116149418Y-148718839D01*
X116640625Y-148390625D01*
X116968839Y-147899418D01*
X117084092Y-147320000D01*
X116968839Y-146740582D01*
X116640625Y-146249375D01*
X116149418Y-145921161D01*
X115716256Y-145835000D01*
X115423744Y-145835000D01*
X114990582Y-145921161D01*
X114499375Y-146249375D01*
X114300000Y-146547761D01*
X114100625Y-146249375D01*
X113609418Y-145921161D01*
X113176256Y-145835000D01*
X112883744Y-145835000D01*
X112450582Y-145921161D01*
X111959375Y-146249375D01*
X111947184Y-146267619D01*
X111938157Y-146222235D01*
X111797809Y-146012191D01*
X111587765Y-145871843D01*
X111340000Y-145822560D01*
X109640000Y-145822560D01*
X109392235Y-145871843D01*
X109182191Y-146012191D01*
X109041843Y-146222235D01*
X108992560Y-146470000D01*
X108992560Y-148170000D01*
X109041843Y-148417765D01*
X109182191Y-148627809D01*
X109197998Y-148638371D01*
X108738370Y-149098000D01*
X93081958Y-149098000D01*
X93721121Y-148833250D01*
X94223250Y-148331121D01*
X94326439Y-148082000D01*
X96592398Y-148082000D01*
X96613466Y-148132862D01*
X97017138Y-148536534D01*
X97544561Y-148755000D01*
X98115439Y-148755000D01*
X98642862Y-148536534D01*
X98851651Y-148327745D01*
X99501861Y-148327745D01*
X99575995Y-148573864D01*
X100113223Y-148766965D01*
X100683454Y-148739778D01*
X101084005Y-148573864D01*
X101158139Y-148327745D01*
X100330000Y-147499605D01*
X99501861Y-148327745D01*
X98851651Y-148327745D01*
X99046534Y-148132862D01*
X99073525Y-148067701D01*
X99076136Y-148074005D01*
X99322255Y-148148139D01*
X100150395Y-147320000D01*
X100509605Y-147320000D01*
X101337745Y-148148139D01*
X101583864Y-148074005D01*
X101776965Y-147536777D01*
X101749778Y-146966546D01*
X101583864Y-146565995D01*
X101337745Y-146491861D01*
X100509605Y-147320000D01*
X100150395Y-147320000D01*
X99322255Y-146491861D01*
X99076136Y-146565995D01*
X99073710Y-146572746D01*
X99046534Y-146507138D01*
X98851651Y-146312255D01*
X99501861Y-146312255D01*
X100330000Y-147140395D01*
X101158139Y-146312255D01*
X101084005Y-146066136D01*
X100546777Y-145873035D01*
X99976546Y-145900222D01*
X99575995Y-146066136D01*
X99501861Y-146312255D01*
X98851651Y-146312255D01*
X98642862Y-146103466D01*
X98115439Y-145885000D01*
X97544561Y-145885000D01*
X97017138Y-146103466D01*
X96613466Y-146507138D01*
X96592398Y-146558000D01*
X94326439Y-146558000D01*
X94223250Y-146308879D01*
X93721121Y-145806750D01*
X93077130Y-145540000D01*
X110415153Y-145540000D01*
X110490000Y-145554888D01*
X110564847Y-145540000D01*
X110564852Y-145540000D01*
X110786537Y-145495904D01*
X111037929Y-145327929D01*
X111080331Y-145264470D01*
X113514476Y-142830327D01*
X113577929Y-142787929D01*
X113620327Y-142724476D01*
X113620329Y-142724474D01*
X113704102Y-142599098D01*
X113745904Y-142536537D01*
X113790000Y-142314852D01*
X113790000Y-142314848D01*
X113804888Y-142240001D01*
X113790000Y-142165154D01*
X113790000Y-139927440D01*
X115150000Y-139927440D01*
X115397765Y-139878157D01*
X115607809Y-139737809D01*
X115748157Y-139527765D01*
X115797440Y-139280000D01*
X115797440Y-139190000D01*
X116525199Y-139190000D01*
X117350001Y-140014803D01*
X117350000Y-141001570D01*
X117297138Y-141023466D01*
X116893466Y-141427138D01*
X116675000Y-141954561D01*
X116675000Y-142525439D01*
X116893466Y-143052862D01*
X117297138Y-143456534D01*
X117824561Y-143675000D01*
X118395439Y-143675000D01*
X118922862Y-143456534D01*
X119326534Y-143052862D01*
X119545000Y-142525439D01*
X119545000Y-141954561D01*
X119326534Y-141427138D01*
X118922862Y-141023466D01*
X118870000Y-141001570D01*
X118870000Y-139774846D01*
X118884888Y-139699999D01*
X118870000Y-139625152D01*
X118870000Y-139625148D01*
X118825904Y-139403463D01*
X118657929Y-139152071D01*
X118594473Y-139109671D01*
X117430331Y-137945530D01*
X117387929Y-137882071D01*
X117136537Y-137714096D01*
X116914852Y-137670000D01*
X116914847Y-137670000D01*
X116840000Y-137655112D01*
X116765153Y-137670000D01*
X115797440Y-137670000D01*
X115797440Y-137580000D01*
X115748157Y-137332235D01*
X115607809Y-137122191D01*
X115397765Y-136981843D01*
X115352381Y-136972816D01*
X115370625Y-136960625D01*
X115578178Y-136650000D01*
X116612560Y-136650000D01*
X116612560Y-136740000D01*
X116661843Y-136987765D01*
X116802191Y-137197809D01*
X117012235Y-137338157D01*
X117260000Y-137387440D01*
X118960000Y-137387440D01*
X119207765Y-137338157D01*
X119417809Y-137197809D01*
X119558157Y-136987765D01*
X119607440Y-136740000D01*
X119607440Y-135040000D01*
X119558157Y-134792235D01*
X119417809Y-134582191D01*
X119207765Y-134441843D01*
X119162381Y-134432816D01*
X119180625Y-134420625D01*
X119508839Y-133929418D01*
X119624092Y-133350000D01*
X119508839Y-132770582D01*
X119180625Y-132279375D01*
X118882239Y-132080000D01*
X119180625Y-131880625D01*
X119508839Y-131389418D01*
X119624092Y-130810000D01*
X119508839Y-130230582D01*
X119180625Y-129739375D01*
X118882239Y-129540000D01*
X119180625Y-129340625D01*
X119508839Y-128849418D01*
X119624092Y-128270000D01*
X119508839Y-127690582D01*
X119180625Y-127199375D01*
X118882239Y-127000000D01*
X119180625Y-126800625D01*
X119508839Y-126309418D01*
X119624092Y-125730000D01*
X119508839Y-125150582D01*
X119180625Y-124659375D01*
X118882239Y-124460000D01*
X119180625Y-124260625D01*
X119508839Y-123769418D01*
X119624092Y-123190000D01*
X119508839Y-122610582D01*
X119180625Y-122119375D01*
X118882239Y-121920000D01*
X119180625Y-121720625D01*
X119508839Y-121229418D01*
X119624092Y-120650000D01*
X119508839Y-120070582D01*
X119180625Y-119579375D01*
X118882239Y-119380000D01*
X119180625Y-119180625D01*
X119508839Y-118689418D01*
X119624092Y-118110000D01*
X119508839Y-117530582D01*
X119180625Y-117039375D01*
X118689418Y-116711161D01*
X118256256Y-116625000D01*
X117963744Y-116625000D01*
X117530582Y-116711161D01*
X117039375Y-117039375D01*
X116831822Y-117350000D01*
X99008043Y-117350000D01*
X98824577Y-117075423D01*
X98440892Y-116819053D01*
X98645134Y-116722389D01*
X99021041Y-116307423D01*
X99181904Y-115919039D01*
X99059915Y-115697000D01*
X97917000Y-115697000D01*
X97917000Y-115717000D01*
X97663000Y-115717000D01*
X97663000Y-115697000D01*
X96520085Y-115697000D01*
X96398096Y-115919039D01*
X96558959Y-116307423D01*
X96934866Y-116722389D01*
X97139108Y-116819053D01*
X96755423Y-117075423D01*
X96438260Y-117550091D01*
X96326887Y-118110000D01*
X96438260Y-118669909D01*
X96755423Y-119144577D01*
X97107758Y-119380000D01*
X96755423Y-119615423D01*
X96438260Y-120090091D01*
X96326887Y-120650000D01*
X96438260Y-121209909D01*
X96755423Y-121684577D01*
X97107758Y-121920000D01*
X96755423Y-122155423D01*
X96438260Y-122630091D01*
X96326887Y-123190000D01*
X96438260Y-123749909D01*
X96755423Y-124224577D01*
X97107758Y-124460000D01*
X96755423Y-124695423D01*
X96438260Y-125170091D01*
X96327010Y-125729380D01*
X94571883Y-123974253D01*
X94529371Y-123910629D01*
X94277317Y-123742212D01*
X94055048Y-123698000D01*
X94055043Y-123698000D01*
X93980000Y-123683073D01*
X93904957Y-123698000D01*
X83912065Y-123698000D01*
X84013113Y-123190000D01*
X83901740Y-122630091D01*
X83584577Y-122155423D01*
X83200892Y-121899053D01*
X83405134Y-121802389D01*
X83781041Y-121387423D01*
X83941904Y-120999039D01*
X83819915Y-120777000D01*
X82677000Y-120777000D01*
X82677000Y-120797000D01*
X82423000Y-120797000D01*
X82423000Y-120777000D01*
X81280085Y-120777000D01*
X81158096Y-120999039D01*
X81318959Y-121387423D01*
X81694866Y-121802389D01*
X81899108Y-121899053D01*
X81515423Y-122155423D01*
X81198260Y-122630091D01*
X81086887Y-123190000D01*
X81187935Y-123698000D01*
X55955042Y-123698000D01*
X55879999Y-123683073D01*
X55804956Y-123698000D01*
X55804952Y-123698000D01*
X55582683Y-123742212D01*
X55582682Y-123742213D01*
X55582681Y-123742213D01*
X55541966Y-123769418D01*
X55330629Y-123910629D01*
X55288118Y-123974251D01*
X54124252Y-125138118D01*
X54060630Y-125180629D01*
X54018119Y-125244251D01*
X54018118Y-125244252D01*
X53892213Y-125432683D01*
X53833073Y-125730000D01*
X52805000Y-125730000D01*
X52805000Y-97790000D01*
X56905908Y-97790000D01*
X57021161Y-98369418D01*
X57349375Y-98860625D01*
X57647761Y-99060000D01*
X57349375Y-99259375D01*
X57021161Y-99750582D01*
X56905908Y-100330000D01*
X57021161Y-100909418D01*
X57349375Y-101400625D01*
X57647761Y-101600000D01*
X57349375Y-101799375D01*
X57021161Y-102290582D01*
X56905908Y-102870000D01*
X57021161Y-103449418D01*
X57349375Y-103940625D01*
X57647761Y-104140000D01*
X57349375Y-104339375D01*
X57021161Y-104830582D01*
X56905908Y-105410000D01*
X57021161Y-105989418D01*
X57349375Y-106480625D01*
X57647761Y-106680000D01*
X57349375Y-106879375D01*
X57021161Y-107370582D01*
X56905908Y-107950000D01*
X57021161Y-108529418D01*
X57349375Y-109020625D01*
X57647761Y-109220000D01*
X57349375Y-109419375D01*
X57021161Y-109910582D01*
X56905908Y-110490000D01*
X57021161Y-111069418D01*
X57349375Y-111560625D01*
X57840582Y-111888839D01*
X58273744Y-111975000D01*
X58566256Y-111975000D01*
X58999418Y-111888839D01*
X59490625Y-111560625D01*
X59696842Y-111252000D01*
X67878289Y-111252000D01*
X67944329Y-111318040D01*
X63184370Y-116078000D01*
X59917440Y-116078000D01*
X59917440Y-115990000D01*
X59868157Y-115742235D01*
X59727809Y-115532191D01*
X59517765Y-115391843D01*
X59270000Y-115342560D01*
X57570000Y-115342560D01*
X57322235Y-115391843D01*
X57112191Y-115532191D01*
X56971843Y-115742235D01*
X56922560Y-115990000D01*
X56922560Y-117690000D01*
X56971843Y-117937765D01*
X57112191Y-118147809D01*
X57322235Y-118288157D01*
X57367619Y-118297184D01*
X57349375Y-118309375D01*
X57021161Y-118800582D01*
X56905908Y-119380000D01*
X57021161Y-119959418D01*
X57349375Y-120450625D01*
X57647761Y-120650000D01*
X57349375Y-120849375D01*
X57021161Y-121340582D01*
X56905908Y-121920000D01*
X57021161Y-122499418D01*
X57349375Y-122990625D01*
X57840582Y-123318839D01*
X58273744Y-123405000D01*
X58566256Y-123405000D01*
X58999418Y-123318839D01*
X59490625Y-122990625D01*
X59696842Y-122682000D01*
X65964957Y-122682000D01*
X66040000Y-122696927D01*
X66115043Y-122682000D01*
X66115048Y-122682000D01*
X66337317Y-122637788D01*
X66589371Y-122469371D01*
X66631883Y-122405747D01*
X72705631Y-116332000D01*
X81333293Y-116332000D01*
X81515423Y-116604577D01*
X81867758Y-116840000D01*
X81515423Y-117075423D01*
X81333293Y-117348000D01*
X78815047Y-117348000D01*
X78740000Y-117333072D01*
X78664953Y-117348000D01*
X78664952Y-117348000D01*
X78442683Y-117392212D01*
X78190629Y-117560629D01*
X78148118Y-117624251D01*
X74887370Y-120885000D01*
X74724126Y-120885000D01*
X74343720Y-121042569D01*
X74052569Y-121333720D01*
X73895000Y-121714126D01*
X73895000Y-122125874D01*
X74052569Y-122506280D01*
X74343720Y-122797431D01*
X74724126Y-122955000D01*
X75135874Y-122955000D01*
X75516280Y-122797431D01*
X75807431Y-122506280D01*
X75965000Y-122125874D01*
X75965000Y-121962630D01*
X79055631Y-118872000D01*
X81333293Y-118872000D01*
X81515423Y-119144577D01*
X81899108Y-119400947D01*
X81694866Y-119497611D01*
X81318959Y-119912577D01*
X81158096Y-120300961D01*
X81280085Y-120523000D01*
X82423000Y-120523000D01*
X82423000Y-120503000D01*
X82677000Y-120503000D01*
X82677000Y-120523000D01*
X83819915Y-120523000D01*
X83941904Y-120300961D01*
X83781041Y-119912577D01*
X83405134Y-119497611D01*
X83200892Y-119400947D01*
X83584577Y-119144577D01*
X83766707Y-118872000D01*
X86284957Y-118872000D01*
X86360000Y-118886927D01*
X86435043Y-118872000D01*
X86435048Y-118872000D01*
X86657317Y-118827788D01*
X86909371Y-118659371D01*
X86951883Y-118595747D01*
X91755631Y-113792000D01*
X96573293Y-113792000D01*
X96755423Y-114064577D01*
X97139108Y-114320947D01*
X96934866Y-114417611D01*
X96558959Y-114832577D01*
X96398096Y-115220961D01*
X96520085Y-115443000D01*
X97663000Y-115443000D01*
X97663000Y-115423000D01*
X97917000Y-115423000D01*
X97917000Y-115443000D01*
X99059915Y-115443000D01*
X99181904Y-115220961D01*
X99021041Y-114832577D01*
X98645134Y-114417611D01*
X98440892Y-114320947D01*
X98824577Y-114064577D01*
X99141740Y-113589909D01*
X99253113Y-113030000D01*
X99141740Y-112470091D01*
X98824577Y-111995423D01*
X98472242Y-111760000D01*
X98824577Y-111524577D01*
X99006707Y-111252000D01*
X116612560Y-111252000D01*
X116612560Y-111340000D01*
X116661843Y-111587765D01*
X116802191Y-111797809D01*
X117012235Y-111938157D01*
X117260000Y-111987440D01*
X118960000Y-111987440D01*
X119207765Y-111938157D01*
X119417809Y-111797809D01*
X119558157Y-111587765D01*
X119607440Y-111340000D01*
X119607440Y-109640000D01*
X119558157Y-109392235D01*
X119417809Y-109182191D01*
X119207765Y-109041843D01*
X119162381Y-109032816D01*
X119180625Y-109020625D01*
X119508839Y-108529418D01*
X119624092Y-107950000D01*
X119508839Y-107370582D01*
X119180625Y-106879375D01*
X118882239Y-106680000D01*
X119180625Y-106480625D01*
X119508839Y-105989418D01*
X119624092Y-105410000D01*
X119508839Y-104830582D01*
X119180625Y-104339375D01*
X118882239Y-104140000D01*
X119180625Y-103940625D01*
X119508839Y-103449418D01*
X119624092Y-102870000D01*
X119508839Y-102290582D01*
X119180625Y-101799375D01*
X118882239Y-101600000D01*
X119180625Y-101400625D01*
X119508839Y-100909418D01*
X119624092Y-100330000D01*
X119508839Y-99750582D01*
X119180625Y-99259375D01*
X118882239Y-99060000D01*
X119180625Y-98860625D01*
X119508839Y-98369418D01*
X119624092Y-97790000D01*
X119508839Y-97210582D01*
X119180625Y-96719375D01*
X118882239Y-96520000D01*
X119180625Y-96320625D01*
X119508839Y-95829418D01*
X119624092Y-95250000D01*
X119508839Y-94670582D01*
X119180625Y-94179375D01*
X118882239Y-93980000D01*
X119180625Y-93780625D01*
X119508839Y-93289418D01*
X119624092Y-92710000D01*
X119508839Y-92130582D01*
X119180625Y-91639375D01*
X118689418Y-91311161D01*
X118256256Y-91225000D01*
X117963744Y-91225000D01*
X117530582Y-91311161D01*
X117039375Y-91639375D01*
X116833158Y-91948000D01*
X99006707Y-91948000D01*
X98824577Y-91675423D01*
X98349909Y-91358260D01*
X97931333Y-91275000D01*
X97648667Y-91275000D01*
X97230091Y-91358260D01*
X96755423Y-91675423D01*
X96438260Y-92150091D01*
X96326887Y-92710000D01*
X96438260Y-93269909D01*
X96755423Y-93744577D01*
X97107758Y-93980000D01*
X96755423Y-94215423D01*
X96438260Y-94690091D01*
X96326887Y-95250000D01*
X96438260Y-95809909D01*
X96755423Y-96284577D01*
X97107758Y-96520000D01*
X96755423Y-96755423D01*
X96438260Y-97230091D01*
X96326887Y-97790000D01*
X96438260Y-98349909D01*
X96755423Y-98824577D01*
X97107758Y-99060000D01*
X96755423Y-99295423D01*
X96438260Y-99770091D01*
X96326887Y-100330000D01*
X96438260Y-100889909D01*
X96755423Y-101364577D01*
X97107758Y-101600000D01*
X96755423Y-101835423D01*
X96438260Y-102310091D01*
X96326887Y-102870000D01*
X96438260Y-103429909D01*
X96755423Y-103904577D01*
X97107758Y-104140000D01*
X96755423Y-104375423D01*
X96438260Y-104850091D01*
X96326887Y-105410000D01*
X96438260Y-105969909D01*
X96755423Y-106444577D01*
X97107758Y-106680000D01*
X96755423Y-106915423D01*
X96438260Y-107390091D01*
X96326887Y-107950000D01*
X96438260Y-108509909D01*
X96755423Y-108984577D01*
X97107758Y-109220000D01*
X96755423Y-109455423D01*
X96438260Y-109930091D01*
X96326887Y-110490000D01*
X96438260Y-111049909D01*
X96755423Y-111524577D01*
X97107758Y-111760000D01*
X96755423Y-111995423D01*
X96573293Y-112268000D01*
X93287014Y-112268000D01*
X93427788Y-112057317D01*
X93472000Y-111835048D01*
X93472000Y-111835044D01*
X93486927Y-111760001D01*
X93472000Y-111684958D01*
X93472000Y-87597602D01*
X93522862Y-87576534D01*
X93926534Y-87172862D01*
X94145000Y-86645439D01*
X94145000Y-86074561D01*
X94112044Y-85994999D01*
X109806446Y-85994999D01*
X109894001Y-86012415D01*
X109981556Y-85994999D01*
X109981557Y-85994999D01*
X110240871Y-85943418D01*
X110534934Y-85746932D01*
X110584532Y-85672703D01*
X111397625Y-84859611D01*
X111434778Y-84875000D01*
X112085222Y-84875000D01*
X112686153Y-84626086D01*
X113146086Y-84166153D01*
X113161475Y-84129000D01*
X116858525Y-84129000D01*
X116873914Y-84166153D01*
X117333847Y-84626086D01*
X117934778Y-84875000D01*
X118585222Y-84875000D01*
X119186153Y-84626086D01*
X119646086Y-84166153D01*
X119895000Y-83565222D01*
X119895000Y-82914778D01*
X119646086Y-82313847D01*
X119186153Y-81853914D01*
X118585222Y-81605000D01*
X117934778Y-81605000D01*
X117333847Y-81853914D01*
X116873914Y-82313847D01*
X116858525Y-82351000D01*
X113161475Y-82351000D01*
X113146086Y-82313847D01*
X112686153Y-81853914D01*
X112085222Y-81605000D01*
X111434778Y-81605000D01*
X110833847Y-81853914D01*
X110373914Y-82313847D01*
X110125000Y-82914778D01*
X110125000Y-83565222D01*
X110140389Y-83602375D01*
X109525766Y-84216999D01*
X92300236Y-84216999D01*
X93808280Y-82708956D01*
X93838667Y-82715000D01*
X94121333Y-82715000D01*
X94151720Y-82708956D01*
X94543472Y-83100708D01*
X94593068Y-83174934D01*
X94887131Y-83371420D01*
X95146445Y-83423001D01*
X95146449Y-83423001D01*
X95234000Y-83440416D01*
X95321551Y-83423001D01*
X105924366Y-83423001D01*
X106011921Y-83440417D01*
X106099476Y-83423001D01*
X106099477Y-83423001D01*
X106358791Y-83371420D01*
X106652854Y-83174934D01*
X106702452Y-83100705D01*
X107230708Y-82572450D01*
X107304934Y-82522854D01*
X107501420Y-82228791D01*
X107553001Y-81969477D01*
X107553001Y-81969473D01*
X107570416Y-81881922D01*
X107553001Y-81794371D01*
X107553001Y-79892532D01*
X110787073Y-79892532D01*
X110885736Y-80159387D01*
X111495461Y-80385908D01*
X112145460Y-80361856D01*
X112634264Y-80159387D01*
X112732927Y-79892532D01*
X117287073Y-79892532D01*
X117385736Y-80159387D01*
X117995461Y-80385908D01*
X118645460Y-80361856D01*
X119134264Y-80159387D01*
X119232927Y-79892532D01*
X118260000Y-78919605D01*
X117287073Y-79892532D01*
X112732927Y-79892532D01*
X111760000Y-78919605D01*
X110787073Y-79892532D01*
X107553001Y-79892532D01*
X107553001Y-78475461D01*
X110114092Y-78475461D01*
X110138144Y-79125460D01*
X110340613Y-79614264D01*
X110607468Y-79712927D01*
X111580395Y-78740000D01*
X111939605Y-78740000D01*
X112912532Y-79712927D01*
X113179387Y-79614264D01*
X113405908Y-79004539D01*
X113386331Y-78475461D01*
X116614092Y-78475461D01*
X116638144Y-79125460D01*
X116840613Y-79614264D01*
X117107468Y-79712927D01*
X118080395Y-78740000D01*
X118439605Y-78740000D01*
X119412532Y-79712927D01*
X119679387Y-79614264D01*
X119905908Y-79004539D01*
X119881856Y-78354540D01*
X119679387Y-77865736D01*
X119412532Y-77767073D01*
X118439605Y-78740000D01*
X118080395Y-78740000D01*
X117107468Y-77767073D01*
X116840613Y-77865736D01*
X116614092Y-78475461D01*
X113386331Y-78475461D01*
X113381856Y-78354540D01*
X113179387Y-77865736D01*
X112912532Y-77767073D01*
X111939605Y-78740000D01*
X111580395Y-78740000D01*
X110607468Y-77767073D01*
X110340613Y-77865736D01*
X110114092Y-78475461D01*
X107553001Y-78475461D01*
X107553001Y-77587468D01*
X110787073Y-77587468D01*
X111760000Y-78560395D01*
X112732927Y-77587468D01*
X117287073Y-77587468D01*
X118260000Y-78560395D01*
X119232927Y-77587468D01*
X119134264Y-77320613D01*
X118524539Y-77094092D01*
X117874540Y-77118144D01*
X117385736Y-77320613D01*
X117287073Y-77587468D01*
X112732927Y-77587468D01*
X112634264Y-77320613D01*
X112024539Y-77094092D01*
X111374540Y-77118144D01*
X110885736Y-77320613D01*
X110787073Y-77587468D01*
X107553001Y-77587468D01*
X107553001Y-75001556D01*
X107570417Y-74914001D01*
X107549107Y-74806869D01*
X107501420Y-74567131D01*
X107304934Y-74273068D01*
X107230705Y-74223470D01*
X106900530Y-73893295D01*
X106900528Y-73893292D01*
X106838956Y-73831720D01*
X106873113Y-73660000D01*
X106761740Y-73100091D01*
X106444577Y-72625423D01*
X106299000Y-72528152D01*
X106299000Y-71207556D01*
X106316416Y-71120000D01*
X106247419Y-70773129D01*
X106100529Y-70553293D01*
X106050933Y-70479067D01*
X105976707Y-70429471D01*
X104285043Y-68737807D01*
X104453454Y-68729778D01*
X104854005Y-68563864D01*
X104928139Y-68317745D01*
X104100000Y-67489605D01*
X104085858Y-67503748D01*
X103906253Y-67324143D01*
X103920395Y-67310000D01*
X103092255Y-66481861D01*
X102846136Y-66555995D01*
X102843710Y-66562746D01*
X102816534Y-66497138D01*
X102412862Y-66093466D01*
X101885439Y-65875000D01*
X101422236Y-65875000D01*
X101206236Y-65659000D01*
X103047687Y-65659000D01*
X103415877Y-66027190D01*
X103345995Y-66056136D01*
X103271861Y-66302255D01*
X104100000Y-67130395D01*
X104114143Y-67116253D01*
X104293748Y-67295858D01*
X104279605Y-67310000D01*
X105107745Y-68138139D01*
X105353864Y-68064005D01*
X105379994Y-67991308D01*
X107646990Y-70258304D01*
X107646990Y-70641163D01*
X107629574Y-70728718D01*
X107646990Y-70816273D01*
X107646990Y-70816274D01*
X107698572Y-71075588D01*
X107895058Y-71369651D01*
X107969284Y-71419247D01*
X109506743Y-72956707D01*
X109556339Y-73030933D01*
X109630565Y-73080529D01*
X109850401Y-73227419D01*
X110197272Y-73296416D01*
X110284828Y-73279000D01*
X112522560Y-73279000D01*
X112522560Y-73890000D01*
X112571843Y-74137765D01*
X112712191Y-74347809D01*
X112922235Y-74488157D01*
X113170000Y-74537440D01*
X117970000Y-74537440D01*
X118217765Y-74488157D01*
X118427809Y-74347809D01*
X118568157Y-74137765D01*
X118617440Y-73890000D01*
X118617440Y-70890000D01*
X118568157Y-70642235D01*
X118427809Y-70432191D01*
X118217765Y-70291843D01*
X117970000Y-70242560D01*
X113170000Y-70242560D01*
X112922235Y-70291843D01*
X112712191Y-70432191D01*
X112625000Y-70562681D01*
X112625000Y-68865750D01*
X112466250Y-68707000D01*
X110617000Y-68707000D01*
X110617000Y-68727000D01*
X110363000Y-68727000D01*
X110363000Y-68707000D01*
X110343000Y-68707000D01*
X110343000Y-68453000D01*
X110363000Y-68453000D01*
X110363000Y-65703750D01*
X110617000Y-65703750D01*
X110617000Y-68453000D01*
X112466250Y-68453000D01*
X112625000Y-68294250D01*
X112625000Y-68133588D01*
X112631673Y-68149698D01*
X112810301Y-68328327D01*
X113043690Y-68425000D01*
X115284250Y-68425000D01*
X115443000Y-68266250D01*
X115443000Y-66417000D01*
X115697000Y-66417000D01*
X115697000Y-68266250D01*
X115855750Y-68425000D01*
X118096310Y-68425000D01*
X118329699Y-68328327D01*
X118508327Y-68149698D01*
X118605000Y-67916309D01*
X118605000Y-66575750D01*
X118446250Y-66417000D01*
X115697000Y-66417000D01*
X115443000Y-66417000D01*
X115423000Y-66417000D01*
X115423000Y-66163000D01*
X115443000Y-66163000D01*
X115443000Y-64313750D01*
X115697000Y-64313750D01*
X115697000Y-66163000D01*
X118446250Y-66163000D01*
X118605000Y-66004250D01*
X118605000Y-64663691D01*
X118508327Y-64430302D01*
X118329699Y-64251673D01*
X118096310Y-64155000D01*
X115855750Y-64155000D01*
X115697000Y-64313750D01*
X115443000Y-64313750D01*
X115284250Y-64155000D01*
X113043690Y-64155000D01*
X112810301Y-64251673D01*
X112631673Y-64430302D01*
X112535000Y-64663691D01*
X112535000Y-65836412D01*
X112528327Y-65820302D01*
X112349699Y-65641673D01*
X112116310Y-65545000D01*
X110775750Y-65545000D01*
X110617000Y-65703750D01*
X110363000Y-65703750D01*
X110204250Y-65545000D01*
X108863690Y-65545000D01*
X108630301Y-65641673D01*
X108451673Y-65820302D01*
X108355000Y-66053691D01*
X108355000Y-68294250D01*
X108513748Y-68452998D01*
X108356156Y-68452998D01*
X104106453Y-64203296D01*
X104056855Y-64129067D01*
X103762792Y-63932581D01*
X103503478Y-63881000D01*
X103503477Y-63881000D01*
X103415922Y-63863584D01*
X103328367Y-63881000D01*
X83860050Y-63881000D01*
X83772499Y-63863585D01*
X83684948Y-63881000D01*
X83684944Y-63881000D01*
X83425630Y-63932581D01*
X83131567Y-64129067D01*
X83081971Y-64203293D01*
X81622705Y-65662560D01*
X80327500Y-65662560D01*
X80079735Y-65711843D01*
X79869691Y-65852191D01*
X79729343Y-66062235D01*
X79680060Y-66310000D01*
X79680060Y-68310000D01*
X79729343Y-68557765D01*
X79869691Y-68767809D01*
X80079735Y-68908157D01*
X80327500Y-68957440D01*
X82232500Y-68957440D01*
X82480265Y-68908157D01*
X82690309Y-68767809D01*
X82808509Y-68590912D01*
X83200590Y-68852891D01*
X83820000Y-68976100D01*
X84121410Y-68916146D01*
X84589970Y-69384706D01*
X84639567Y-69458933D01*
X84856944Y-69604179D01*
X85471001Y-70218237D01*
X85471000Y-72528151D01*
X85325423Y-72625423D01*
X85008260Y-73100091D01*
X84896887Y-73660000D01*
X85008260Y-74219909D01*
X85325423Y-74694577D01*
X85800091Y-75011740D01*
X86218667Y-75095000D01*
X86501333Y-75095000D01*
X86919909Y-75011740D01*
X87394577Y-74694577D01*
X87711740Y-74219909D01*
X87766273Y-73945750D01*
X92545000Y-73945750D01*
X92545000Y-74586310D01*
X92641673Y-74819699D01*
X92820302Y-74998327D01*
X93053691Y-75095000D01*
X93694250Y-75095000D01*
X93853000Y-74936250D01*
X93853000Y-73787000D01*
X94107000Y-73787000D01*
X94107000Y-74936250D01*
X94265750Y-75095000D01*
X94906309Y-75095000D01*
X95139698Y-74998327D01*
X95318327Y-74819699D01*
X95415000Y-74586310D01*
X95415000Y-73945750D01*
X95256250Y-73787000D01*
X94107000Y-73787000D01*
X93853000Y-73787000D01*
X92703750Y-73787000D01*
X92545000Y-73945750D01*
X87766273Y-73945750D01*
X87823113Y-73660000D01*
X87711740Y-73100091D01*
X87466919Y-72733690D01*
X92545000Y-72733690D01*
X92545000Y-73374250D01*
X92703750Y-73533000D01*
X93853000Y-73533000D01*
X93853000Y-72383750D01*
X94107000Y-72383750D01*
X94107000Y-73533000D01*
X95256250Y-73533000D01*
X95415000Y-73374250D01*
X95415000Y-72860000D01*
X96342560Y-72860000D01*
X96342560Y-74460000D01*
X96391843Y-74707765D01*
X96532191Y-74917809D01*
X96742235Y-75058157D01*
X96901001Y-75089737D01*
X96901000Y-76329604D01*
X96573466Y-76657138D01*
X96355000Y-77184561D01*
X96355000Y-77755439D01*
X96573466Y-78282862D01*
X96977138Y-78686534D01*
X97504561Y-78905000D01*
X98075439Y-78905000D01*
X98602862Y-78686534D01*
X99006534Y-78282862D01*
X99225000Y-77755439D01*
X99225000Y-77184561D01*
X99006534Y-76657138D01*
X98679000Y-76329604D01*
X98679000Y-75089737D01*
X98837765Y-75058157D01*
X99047809Y-74917809D01*
X99188157Y-74707765D01*
X99237440Y-74460000D01*
X99237440Y-72860000D01*
X99188157Y-72612235D01*
X99047809Y-72402191D01*
X98837765Y-72261843D01*
X98590000Y-72212560D01*
X96990000Y-72212560D01*
X96742235Y-72261843D01*
X96532191Y-72402191D01*
X96391843Y-72612235D01*
X96342560Y-72860000D01*
X95415000Y-72860000D01*
X95415000Y-72733690D01*
X95318327Y-72500301D01*
X95139698Y-72321673D01*
X94906309Y-72225000D01*
X94265750Y-72225000D01*
X94107000Y-72383750D01*
X93853000Y-72383750D01*
X93694250Y-72225000D01*
X93053691Y-72225000D01*
X92820302Y-72321673D01*
X92641673Y-72500301D01*
X92545000Y-72733690D01*
X87466919Y-72733690D01*
X87394577Y-72625423D01*
X87249000Y-72528152D01*
X87249000Y-69937550D01*
X87266415Y-69849999D01*
X87249000Y-69762448D01*
X87249000Y-69762444D01*
X87197419Y-69503130D01*
X87000933Y-69209067D01*
X86926706Y-69159471D01*
X86679736Y-68912500D01*
X86979411Y-68852891D01*
X87504523Y-68502023D01*
X87855391Y-67976910D01*
X87931208Y-67595750D01*
X91175000Y-67595750D01*
X91175000Y-68336310D01*
X91271673Y-68569699D01*
X91450302Y-68748327D01*
X91683691Y-68845000D01*
X92424250Y-68845000D01*
X92583000Y-68686250D01*
X92583000Y-67437000D01*
X91333750Y-67437000D01*
X91175000Y-67595750D01*
X87931208Y-67595750D01*
X87947500Y-67513849D01*
X87947500Y-67106150D01*
X87918646Y-66961090D01*
X88188736Y-66691000D01*
X91175000Y-66691000D01*
X91175000Y-67024250D01*
X91333750Y-67183000D01*
X92583000Y-67183000D01*
X92583000Y-67163000D01*
X92837000Y-67163000D01*
X92837000Y-67183000D01*
X92857000Y-67183000D01*
X92857000Y-67437000D01*
X92837000Y-67437000D01*
X92837000Y-68686250D01*
X92995750Y-68845000D01*
X93736309Y-68845000D01*
X93969698Y-68748327D01*
X94148327Y-68569699D01*
X94204139Y-68434956D01*
X94380493Y-68611310D01*
X94944670Y-68845000D01*
X95555330Y-68845000D01*
X96119507Y-68611310D01*
X96531817Y-68199000D01*
X96901000Y-68199000D01*
X96901001Y-69762441D01*
X96883584Y-69850000D01*
X96946035Y-70163958D01*
X96952582Y-70196870D01*
X97149068Y-70490933D01*
X97223294Y-70540529D01*
X103981044Y-77298280D01*
X103946887Y-77470000D01*
X104058260Y-78029909D01*
X104375423Y-78504577D01*
X104850091Y-78821740D01*
X105268667Y-78905000D01*
X105551333Y-78905000D01*
X105775001Y-78860510D01*
X105775001Y-79895640D01*
X105759041Y-79888086D01*
X105537000Y-80009371D01*
X105537000Y-81153000D01*
X105557000Y-81153000D01*
X105557000Y-81407000D01*
X105537000Y-81407000D01*
X105537000Y-81427000D01*
X105283000Y-81427000D01*
X105283000Y-81407000D01*
X104140085Y-81407000D01*
X104018096Y-81629039D01*
X104024707Y-81645001D01*
X99192044Y-81645001D01*
X99225000Y-81565439D01*
X99225000Y-80994561D01*
X99198656Y-80930961D01*
X104018096Y-80930961D01*
X104140085Y-81153000D01*
X105283000Y-81153000D01*
X105283000Y-80009371D01*
X105060959Y-79888086D01*
X104554866Y-80127611D01*
X104178959Y-80542577D01*
X104018096Y-80930961D01*
X99198656Y-80930961D01*
X99006534Y-80467138D01*
X98602862Y-80063466D01*
X98075439Y-79845000D01*
X97612235Y-79845000D01*
X97210531Y-79443296D01*
X97160933Y-79369067D01*
X96866870Y-79172581D01*
X96607556Y-79121000D01*
X96607555Y-79121000D01*
X96520000Y-79103584D01*
X96432445Y-79121000D01*
X89268236Y-79121000D01*
X88624981Y-78477745D01*
X93151861Y-78477745D01*
X93225995Y-78723864D01*
X93763223Y-78916965D01*
X94333454Y-78889778D01*
X94734005Y-78723864D01*
X94808139Y-78477745D01*
X93980000Y-77649605D01*
X93151861Y-78477745D01*
X88624981Y-78477745D01*
X87850530Y-77703295D01*
X87850528Y-77703292D01*
X87788956Y-77641720D01*
X87823113Y-77470000D01*
X87779994Y-77253223D01*
X92533035Y-77253223D01*
X92560222Y-77823454D01*
X92726136Y-78224005D01*
X92972255Y-78298139D01*
X93800395Y-77470000D01*
X94159605Y-77470000D01*
X94987745Y-78298139D01*
X95233864Y-78224005D01*
X95426965Y-77686777D01*
X95399778Y-77116546D01*
X95233864Y-76715995D01*
X94987745Y-76641861D01*
X94159605Y-77470000D01*
X93800395Y-77470000D01*
X92972255Y-76641861D01*
X92726136Y-76715995D01*
X92533035Y-77253223D01*
X87779994Y-77253223D01*
X87711740Y-76910091D01*
X87412506Y-76462255D01*
X93151861Y-76462255D01*
X93980000Y-77290395D01*
X94808139Y-76462255D01*
X94734005Y-76216136D01*
X94196777Y-76023035D01*
X93626546Y-76050222D01*
X93225995Y-76216136D01*
X93151861Y-76462255D01*
X87412506Y-76462255D01*
X87394577Y-76435423D01*
X86919909Y-76118260D01*
X86501333Y-76035000D01*
X86218667Y-76035000D01*
X85800091Y-76118260D01*
X85325423Y-76435423D01*
X85228152Y-76581000D01*
X80390236Y-76581000D01*
X78677351Y-74868115D01*
X78677809Y-74867809D01*
X78818157Y-74657765D01*
X78856469Y-74465156D01*
X79225460Y-74834147D01*
X79734506Y-75045000D01*
X80285494Y-75045000D01*
X80794540Y-74834147D01*
X81184147Y-74444540D01*
X81280000Y-74213130D01*
X81375853Y-74444540D01*
X81765460Y-74834147D01*
X82274506Y-75045000D01*
X82825494Y-75045000D01*
X83334540Y-74834147D01*
X83724147Y-74444540D01*
X83935000Y-73935494D01*
X83935000Y-73384506D01*
X83724147Y-72875460D01*
X83334540Y-72485853D01*
X82825494Y-72275000D01*
X82422236Y-72275000D01*
X79430531Y-69283296D01*
X79380933Y-69209067D01*
X79086870Y-69012581D01*
X78827556Y-68961000D01*
X78827555Y-68961000D01*
X78740000Y-68943584D01*
X78652445Y-68961000D01*
X71488236Y-68961000D01*
X71149940Y-68622704D01*
X71596591Y-68800956D01*
X72545323Y-68788641D01*
X73364636Y-68449271D01*
X73554923Y-68104528D01*
X72040000Y-66589605D01*
X72025858Y-66603748D01*
X71846253Y-66424143D01*
X71860395Y-66410000D01*
X72219605Y-66410000D01*
X73734528Y-67924923D01*
X74079271Y-67734636D01*
X74430956Y-66853409D01*
X74418641Y-65904677D01*
X74079271Y-65085364D01*
X73734528Y-64895077D01*
X72219605Y-66410000D01*
X71860395Y-66410000D01*
X70345472Y-64895077D01*
X70000729Y-65085364D01*
X69649044Y-65966591D01*
X69661359Y-66915323D01*
X69816074Y-67288839D01*
X69270531Y-66743296D01*
X69220933Y-66669067D01*
X68926870Y-66472581D01*
X68667556Y-66421000D01*
X68667555Y-66421000D01*
X68580000Y-66403584D01*
X68492445Y-66421000D01*
X63587550Y-66421000D01*
X63499999Y-66403585D01*
X63412448Y-66421000D01*
X63412444Y-66421000D01*
X63153130Y-66472581D01*
X62859067Y-66669067D01*
X62809471Y-66743293D01*
X62186138Y-67366626D01*
X62390956Y-66853409D01*
X62378641Y-65904677D01*
X62039271Y-65085364D01*
X61694528Y-64895077D01*
X60179605Y-66410000D01*
X60193748Y-66424143D01*
X60014143Y-66603748D01*
X60000000Y-66589605D01*
X58485077Y-68104528D01*
X58675364Y-68449271D01*
X59556591Y-68800956D01*
X60505323Y-68788641D01*
X61324636Y-68449271D01*
X61363647Y-68378596D01*
X61323584Y-68580000D01*
X61341001Y-68667559D01*
X61341000Y-73534445D01*
X61323584Y-73622000D01*
X61341000Y-73709555D01*
X61392581Y-73968869D01*
X61589067Y-74262933D01*
X61663296Y-74312531D01*
X66082622Y-78731858D01*
X66052191Y-78752191D01*
X65911843Y-78962235D01*
X65865307Y-79196187D01*
X65817745Y-79181861D01*
X64989605Y-80010000D01*
X65817745Y-80838139D01*
X65865307Y-80823813D01*
X65911843Y-81057765D01*
X66052191Y-81267809D01*
X66262235Y-81408157D01*
X66510000Y-81457440D01*
X68110000Y-81457440D01*
X68357765Y-81408157D01*
X68567809Y-81267809D01*
X68704510Y-81063223D01*
X73483035Y-81063223D01*
X73510222Y-81633454D01*
X73676136Y-82034005D01*
X73922255Y-82108139D01*
X74750395Y-81280000D01*
X75109605Y-81280000D01*
X75937745Y-82108139D01*
X76183864Y-82034005D01*
X76376965Y-81496777D01*
X76349778Y-80926546D01*
X76183864Y-80525995D01*
X75937745Y-80451861D01*
X75109605Y-81280000D01*
X74750395Y-81280000D01*
X73922255Y-80451861D01*
X73676136Y-80525995D01*
X73483035Y-81063223D01*
X68704510Y-81063223D01*
X68708157Y-81057765D01*
X68757440Y-80810000D01*
X68757440Y-80272255D01*
X74101861Y-80272255D01*
X74930000Y-81100395D01*
X75758139Y-80272255D01*
X75684005Y-80026136D01*
X75146777Y-79833035D01*
X74576546Y-79860222D01*
X74175995Y-80026136D01*
X74101861Y-80272255D01*
X68757440Y-80272255D01*
X68757440Y-79210000D01*
X68708157Y-78962235D01*
X68567809Y-78752191D01*
X68357765Y-78611843D01*
X68191921Y-78578855D01*
X68147419Y-78355130D01*
X67950933Y-78061067D01*
X67876707Y-78011471D01*
X63119000Y-73253765D01*
X63119000Y-68948235D01*
X63328685Y-68738550D01*
X63273282Y-68891279D01*
X63299685Y-69481458D01*
X63446442Y-69835761D01*
X63321843Y-70022235D01*
X63272560Y-70270000D01*
X63272560Y-71970000D01*
X63321843Y-72217765D01*
X63462191Y-72427809D01*
X63672235Y-72568157D01*
X63890139Y-72611500D01*
X63932581Y-72824869D01*
X64129067Y-73118933D01*
X64203296Y-73168531D01*
X65261471Y-74226706D01*
X65311067Y-74300933D01*
X65605130Y-74497419D01*
X65864444Y-74549000D01*
X65864448Y-74549000D01*
X65951999Y-74566415D01*
X66039550Y-74549000D01*
X76100209Y-74549000D01*
X76121843Y-74657765D01*
X76262191Y-74867809D01*
X76472235Y-75008157D01*
X76586020Y-75030790D01*
X76632581Y-75264869D01*
X76829067Y-75558933D01*
X76903296Y-75608531D01*
X79331470Y-78036706D01*
X79381067Y-78110933D01*
X79675130Y-78307419D01*
X79934444Y-78359000D01*
X80021999Y-78376416D01*
X80109554Y-78359000D01*
X85228152Y-78359000D01*
X85325423Y-78504577D01*
X85800091Y-78821740D01*
X86218667Y-78905000D01*
X86501333Y-78905000D01*
X86531720Y-78898956D01*
X86593292Y-78960528D01*
X86593295Y-78960530D01*
X88209470Y-80576706D01*
X88259067Y-80650933D01*
X88553130Y-80847419D01*
X88812444Y-80899000D01*
X88899999Y-80916416D01*
X88987554Y-80899000D01*
X92592673Y-80899000D01*
X92516887Y-81280000D01*
X92551044Y-81451720D01*
X91071765Y-82931000D01*
X85458236Y-82931000D01*
X83978956Y-81451720D01*
X84013113Y-81280000D01*
X83956336Y-80994561D01*
X84925000Y-80994561D01*
X84925000Y-81565439D01*
X85143466Y-82092862D01*
X85547138Y-82496534D01*
X86074561Y-82715000D01*
X86645439Y-82715000D01*
X87172862Y-82496534D01*
X87576534Y-82092862D01*
X87795000Y-81565439D01*
X87795000Y-80994561D01*
X87576534Y-80467138D01*
X87172862Y-80063466D01*
X86645439Y-79845000D01*
X86074561Y-79845000D01*
X85547138Y-80063466D01*
X85143466Y-80467138D01*
X84925000Y-80994561D01*
X83956336Y-80994561D01*
X83901740Y-80720091D01*
X83584577Y-80245423D01*
X83109909Y-79928260D01*
X82691333Y-79845000D01*
X82408667Y-79845000D01*
X81990091Y-79928260D01*
X81515423Y-80245423D01*
X81198260Y-80720091D01*
X81086887Y-81280000D01*
X81198260Y-81839909D01*
X81515423Y-82314577D01*
X81990091Y-82631740D01*
X82408667Y-82715000D01*
X82691333Y-82715000D01*
X82721720Y-82708956D01*
X84399471Y-84386707D01*
X84449067Y-84460933D01*
X84743130Y-84657419D01*
X85002444Y-84709000D01*
X85002448Y-84709000D01*
X85089999Y-84726415D01*
X85177550Y-84709000D01*
X85483764Y-84709000D01*
X85261720Y-84931044D01*
X85231333Y-84925000D01*
X84948667Y-84925000D01*
X84530091Y-85008260D01*
X84055423Y-85325423D01*
X83738260Y-85800091D01*
X83626887Y-86360000D01*
X83738260Y-86919909D01*
X84055423Y-87394577D01*
X84201000Y-87491849D01*
X84201001Y-91109763D01*
X83828143Y-91482622D01*
X83807809Y-91452191D01*
X83597765Y-91311843D01*
X83350000Y-91262560D01*
X81750000Y-91262560D01*
X81502235Y-91311843D01*
X81292191Y-91452191D01*
X81151843Y-91662235D01*
X81102560Y-91910000D01*
X81102560Y-93510000D01*
X81151843Y-93757765D01*
X81292191Y-93967809D01*
X81502235Y-94108157D01*
X81636106Y-94134785D01*
X81515423Y-94215423D01*
X81333293Y-94488000D01*
X59917440Y-94488000D01*
X59917440Y-94400000D01*
X59868157Y-94152235D01*
X59727809Y-93942191D01*
X59517765Y-93801843D01*
X59270000Y-93752560D01*
X57570000Y-93752560D01*
X57322235Y-93801843D01*
X57112191Y-93942191D01*
X56971843Y-94152235D01*
X56922560Y-94400000D01*
X56922560Y-96100000D01*
X56971843Y-96347765D01*
X57112191Y-96557809D01*
X57322235Y-96698157D01*
X57367619Y-96707184D01*
X57349375Y-96719375D01*
X57021161Y-97210582D01*
X56905908Y-97790000D01*
X52805000Y-97790000D01*
X52805000Y-82287745D01*
X74101861Y-82287745D01*
X74175995Y-82533864D01*
X74713223Y-82726965D01*
X75283454Y-82699778D01*
X75684005Y-82533864D01*
X75758139Y-82287745D01*
X74930000Y-81459605D01*
X74101861Y-82287745D01*
X52805000Y-82287745D01*
X52805000Y-81017745D01*
X63981861Y-81017745D01*
X64055995Y-81263864D01*
X64593223Y-81456965D01*
X65163454Y-81429778D01*
X65564005Y-81263864D01*
X65638139Y-81017745D01*
X64810000Y-80189605D01*
X63981861Y-81017745D01*
X52805000Y-81017745D01*
X52805000Y-79793223D01*
X63363035Y-79793223D01*
X63390222Y-80363454D01*
X63556136Y-80764005D01*
X63802255Y-80838139D01*
X64630395Y-80010000D01*
X63802255Y-79181861D01*
X63556136Y-79255995D01*
X63363035Y-79793223D01*
X52805000Y-79793223D01*
X52805000Y-79002255D01*
X63981861Y-79002255D01*
X64810000Y-79830395D01*
X65638139Y-79002255D01*
X65564005Y-78756136D01*
X65026777Y-78563035D01*
X64456546Y-78590222D01*
X64055995Y-78756136D01*
X63981861Y-79002255D01*
X52805000Y-79002255D01*
X52805000Y-65966591D01*
X57609044Y-65966591D01*
X57621359Y-66915323D01*
X57960729Y-67734636D01*
X58305472Y-67924923D01*
X59820395Y-66410000D01*
X58305472Y-64895077D01*
X57960729Y-65085364D01*
X57609044Y-65966591D01*
X52805000Y-65966591D01*
X52805000Y-64715472D01*
X58485077Y-64715472D01*
X60000000Y-66230395D01*
X61514923Y-64715472D01*
X70525077Y-64715472D01*
X72040000Y-66230395D01*
X73554923Y-64715472D01*
X73364636Y-64370729D01*
X72483409Y-64019044D01*
X71534677Y-64031359D01*
X70715364Y-64370729D01*
X70525077Y-64715472D01*
X61514923Y-64715472D01*
X61324636Y-64370729D01*
X60443409Y-64019044D01*
X59494677Y-64031359D01*
X58675364Y-64370729D01*
X58485077Y-64715472D01*
X52805000Y-64715472D01*
X52805000Y-62965000D01*
X122455000Y-62965000D01*
X122455001Y-156137608D01*
X122455001Y-156137608D01*
G37*
X122455001Y-156137608D02*
X122455000Y-156137613D01*
X122455000Y-156745000D01*
X52805000Y-156745000D01*
X52805000Y-147605750D01*
X64555000Y-147605750D01*
X64555000Y-148296309D01*
X64651673Y-148529698D01*
X64830301Y-148708327D01*
X65063690Y-148805000D01*
X65754250Y-148805000D01*
X65913000Y-148646250D01*
X65913000Y-147447000D01*
X66167000Y-147447000D01*
X66167000Y-148646250D01*
X66325750Y-148805000D01*
X67016310Y-148805000D01*
X67249699Y-148708327D01*
X67428327Y-148529698D01*
X67515136Y-148320122D01*
X67813076Y-148591645D01*
X68223110Y-148761476D01*
X68453000Y-148640155D01*
X68453000Y-147447000D01*
X68707000Y-147447000D01*
X68707000Y-148640155D01*
X68936890Y-148761476D01*
X69346924Y-148591645D01*
X69775183Y-148201358D01*
X69850000Y-148042046D01*
X69924817Y-148201358D01*
X70353076Y-148591645D01*
X70763110Y-148761476D01*
X70993000Y-148640155D01*
X70993000Y-147447000D01*
X71247000Y-147447000D01*
X71247000Y-148640155D01*
X71476890Y-148761476D01*
X71886924Y-148591645D01*
X72176499Y-148327745D01*
X77911861Y-148327745D01*
X77985995Y-148573864D01*
X78523223Y-148766965D01*
X79093454Y-148739778D01*
X79494005Y-148573864D01*
X79568139Y-148327745D01*
X78740000Y-147499605D01*
X77911861Y-148327745D01*
X72176499Y-148327745D01*
X72315183Y-148201358D01*
X72561486Y-147676892D01*
X72440819Y-147447000D01*
X71247000Y-147447000D01*
X70993000Y-147447000D01*
X68707000Y-147447000D01*
X68453000Y-147447000D01*
X66167000Y-147447000D01*
X65913000Y-147447000D01*
X64713750Y-147447000D01*
X64555000Y-147605750D01*
X52805000Y-147605750D01*
X52805000Y-146343691D01*
X64555000Y-146343691D01*
X64555000Y-147034250D01*
X64713750Y-147193000D01*
X65913000Y-147193000D01*
X65913000Y-145993750D01*
X66167000Y-145993750D01*
X66167000Y-147193000D01*
X68453000Y-147193000D01*
X68453000Y-145999845D01*
X68707000Y-145999845D01*
X68707000Y-147193000D01*
X70993000Y-147193000D01*
X70993000Y-145999845D01*
X71247000Y-145999845D01*
X71247000Y-147193000D01*
X72440819Y-147193000D01*
X72487941Y-147103223D01*
X77293035Y-147103223D01*
X77320222Y-147673454D01*
X77486136Y-148074005D01*
X77732255Y-148148139D01*
X78560395Y-147320000D01*
X77732255Y-146491861D01*
X77486136Y-146565995D01*
X77293035Y-147103223D01*
X72487941Y-147103223D01*
X72561486Y-146963108D01*
X72315183Y-146438642D01*
X72176500Y-146312255D01*
X77911861Y-146312255D01*
X78740000Y-147140395D01*
X79568139Y-146312255D01*
X79494005Y-146066136D01*
X78956777Y-145873035D01*
X78386546Y-145900222D01*
X77985995Y-146066136D01*
X77911861Y-146312255D01*
X72176500Y-146312255D01*
X71886924Y-146048355D01*
X71476890Y-145878524D01*
X71247000Y-145999845D01*
X70993000Y-145999845D01*
X70763110Y-145878524D01*
X70353076Y-146048355D01*
X69924817Y-146438642D01*
X69850000Y-146597954D01*
X69775183Y-146438642D01*
X69346924Y-146048355D01*
X68936890Y-145878524D01*
X68707000Y-145999845D01*
X68453000Y-145999845D01*
X68223110Y-145878524D01*
X67813076Y-146048355D01*
X67515136Y-146319878D01*
X67428327Y-146110302D01*
X67249699Y-145931673D01*
X67016310Y-145835000D01*
X66325750Y-145835000D01*
X66167000Y-145993750D01*
X65913000Y-145993750D01*
X65754250Y-145835000D01*
X65063690Y-145835000D01*
X64830301Y-145931673D01*
X64651673Y-146110302D01*
X64555000Y-146343691D01*
X52805000Y-146343691D01*
X52805000Y-125730000D01*
X53833073Y-125730000D01*
X53848001Y-125805048D01*
X53848000Y-142164957D01*
X53833073Y-142240000D01*
X53848000Y-142315043D01*
X53848000Y-142315047D01*
X53892212Y-142537316D01*
X54060629Y-142789371D01*
X54124253Y-142831883D01*
X55288117Y-143995748D01*
X55330629Y-144059371D01*
X55394251Y-144101882D01*
X55582681Y-144227787D01*
X55582682Y-144227787D01*
X55582683Y-144227788D01*
X55804952Y-144272000D01*
X55804956Y-144272000D01*
X55879999Y-144286927D01*
X55955042Y-144272000D01*
X57143158Y-144272000D01*
X57349375Y-144580625D01*
X57840582Y-144908839D01*
X58273744Y-144995000D01*
X58566256Y-144995000D01*
X58999418Y-144908839D01*
X59490625Y-144580625D01*
X59818839Y-144089418D01*
X59934092Y-143510000D01*
X59818839Y-142930582D01*
X59490625Y-142439375D01*
X59192239Y-142240000D01*
X59490625Y-142040625D01*
X59818839Y-141549418D01*
X59934092Y-140970000D01*
X59818839Y-140390582D01*
X59490625Y-139899375D01*
X59192239Y-139700000D01*
X59490625Y-139500625D01*
X59696842Y-139192000D01*
X78664957Y-139192000D01*
X78740000Y-139206927D01*
X78815043Y-139192000D01*
X78815048Y-139192000D01*
X79037317Y-139147788D01*
X79289371Y-138979371D01*
X79331883Y-138915747D01*
X80468630Y-137779001D01*
X81259124Y-137779001D01*
X81198260Y-137870091D01*
X81086887Y-138430000D01*
X81150843Y-138751527D01*
X79524254Y-140378116D01*
X79460629Y-140420629D01*
X79292212Y-140672684D01*
X79248000Y-140894953D01*
X79248000Y-140894957D01*
X79233073Y-140970000D01*
X79248000Y-141045043D01*
X79248001Y-143434952D01*
X79233073Y-143510000D01*
X79248001Y-143585048D01*
X79292213Y-143807317D01*
X79460630Y-144059371D01*
X79524251Y-144101881D01*
X80695368Y-145272998D01*
X80732071Y-145327929D01*
X80787001Y-145364632D01*
X80794251Y-145371882D01*
X80982681Y-145497787D01*
X81279999Y-145556927D01*
X81365097Y-145540000D01*
X87442870Y-145540000D01*
X86798879Y-145806750D01*
X86296750Y-146308879D01*
X86193561Y-146558000D01*
X82477602Y-146558000D01*
X82456534Y-146507138D01*
X82052862Y-146103466D01*
X81525439Y-145885000D01*
X80954561Y-145885000D01*
X80427138Y-146103466D01*
X80023466Y-146507138D01*
X79996475Y-146572299D01*
X79993864Y-146565995D01*
X79747745Y-146491861D01*
X78919605Y-147320000D01*
X79747745Y-148148139D01*
X79993864Y-148074005D01*
X79996290Y-148067254D01*
X80023466Y-148132862D01*
X80427138Y-148536534D01*
X80954561Y-148755000D01*
X81525439Y-148755000D01*
X82052862Y-148536534D01*
X82456534Y-148132862D01*
X82477602Y-148082000D01*
X86193561Y-148082000D01*
X86296750Y-148331121D01*
X86798879Y-148833250D01*
X87438042Y-149098000D01*
X80711711Y-149098000D01*
X80596280Y-148982569D01*
X80215874Y-148825000D01*
X79804126Y-148825000D01*
X79423720Y-148982569D01*
X79132569Y-149273720D01*
X78975000Y-149654126D01*
X78975000Y-150065874D01*
X79100144Y-150368000D01*
X78981047Y-150368000D01*
X78906000Y-150353072D01*
X78830953Y-150368000D01*
X78830952Y-150368000D01*
X78608683Y-150412212D01*
X78356629Y-150580629D01*
X78314118Y-150644251D01*
X76984251Y-151974119D01*
X76920630Y-152016629D01*
X76878119Y-152080251D01*
X76878118Y-152080252D01*
X76816440Y-152172560D01*
X76620000Y-152172560D01*
X76372235Y-152221843D01*
X76162191Y-152362191D01*
X76021843Y-152572235D01*
X75972560Y-152820000D01*
X75972560Y-154520000D01*
X76021843Y-154767765D01*
X76162191Y-154977809D01*
X76372235Y-155118157D01*
X76620000Y-155167440D01*
X78320000Y-155167440D01*
X78567765Y-155118157D01*
X78777809Y-154977809D01*
X78918157Y-154767765D01*
X78927184Y-154722381D01*
X78939375Y-154740625D01*
X79430582Y-155068839D01*
X79863744Y-155155000D01*
X80156256Y-155155000D01*
X80589418Y-155068839D01*
X81080625Y-154740625D01*
X81280000Y-154442239D01*
X81479375Y-154740625D01*
X81970582Y-155068839D01*
X82403744Y-155155000D01*
X82696256Y-155155000D01*
X83129418Y-155068839D01*
X83620625Y-154740625D01*
X83948839Y-154249418D01*
X84064092Y-153670000D01*
X83948839Y-153090582D01*
X83620625Y-152599375D01*
X83129418Y-152271161D01*
X82696256Y-152185000D01*
X82403744Y-152185000D01*
X81970582Y-152271161D01*
X81479375Y-152599375D01*
X81280000Y-152897761D01*
X81080625Y-152599375D01*
X80589418Y-152271161D01*
X80156256Y-152185000D01*
X79863744Y-152185000D01*
X79430582Y-152271161D01*
X78939375Y-152599375D01*
X78927184Y-152617619D01*
X78918157Y-152572235D01*
X78777809Y-152362191D01*
X78762002Y-152351629D01*
X79221631Y-151892000D01*
X88584370Y-151892000D01*
X88864930Y-152172560D01*
X88050000Y-152172560D01*
X87802235Y-152221843D01*
X87592191Y-152362191D01*
X87451843Y-152572235D01*
X87402560Y-152820000D01*
X87402560Y-154520000D01*
X87451843Y-154767765D01*
X87592191Y-154977809D01*
X87802235Y-155118157D01*
X88050000Y-155167440D01*
X89750000Y-155167440D01*
X89997765Y-155118157D01*
X90207809Y-154977809D01*
X90348157Y-154767765D01*
X90357184Y-154722381D01*
X90369375Y-154740625D01*
X90860582Y-155068839D01*
X91293744Y-155155000D01*
X91586256Y-155155000D01*
X92019418Y-155068839D01*
X92510625Y-154740625D01*
X92723843Y-154421522D01*
X92784817Y-154551358D01*
X93213076Y-154941645D01*
X93623110Y-155111476D01*
X93853000Y-154990155D01*
X93853000Y-153797000D01*
X93833000Y-153797000D01*
X93833000Y-153543000D01*
X93853000Y-153543000D01*
X93853000Y-152349845D01*
X94107000Y-152349845D01*
X94107000Y-153543000D01*
X94127000Y-153543000D01*
X94127000Y-153797000D01*
X94107000Y-153797000D01*
X94107000Y-154990155D01*
X94336890Y-155111476D01*
X94746924Y-154941645D01*
X95175183Y-154551358D01*
X95236157Y-154421522D01*
X95449375Y-154740625D01*
X95940582Y-155068839D01*
X96373744Y-155155000D01*
X96666256Y-155155000D01*
X97099418Y-155068839D01*
X97590625Y-154740625D01*
X97790000Y-154442239D01*
X97989375Y-154740625D01*
X98480582Y-155068839D01*
X98913744Y-155155000D01*
X99206256Y-155155000D01*
X99639418Y-155068839D01*
X100130625Y-154740625D01*
X100330000Y-154442239D01*
X100529375Y-154740625D01*
X101020582Y-155068839D01*
X101453744Y-155155000D01*
X101746256Y-155155000D01*
X102179418Y-155068839D01*
X102670625Y-154740625D01*
X102998839Y-154249418D01*
X103114092Y-153670000D01*
X102998839Y-153090582D01*
X102670625Y-152599375D01*
X102179418Y-152271161D01*
X101746256Y-152185000D01*
X101453744Y-152185000D01*
X101020582Y-152271161D01*
X100529375Y-152599375D01*
X100330000Y-152897761D01*
X100130625Y-152599375D01*
X99639418Y-152271161D01*
X99206256Y-152185000D01*
X98913744Y-152185000D01*
X98480582Y-152271161D01*
X97989375Y-152599375D01*
X97790000Y-152897761D01*
X97590625Y-152599375D01*
X97099418Y-152271161D01*
X96666256Y-152185000D01*
X96373744Y-152185000D01*
X95940582Y-152271161D01*
X95449375Y-152599375D01*
X95236157Y-152918478D01*
X95175183Y-152788642D01*
X94746924Y-152398355D01*
X94336890Y-152228524D01*
X94107000Y-152349845D01*
X93853000Y-152349845D01*
X93623110Y-152228524D01*
X93213076Y-152398355D01*
X92784817Y-152788642D01*
X92723843Y-152918478D01*
X92510625Y-152599375D01*
X92019418Y-152271161D01*
X91586256Y-152185000D01*
X91293744Y-152185000D01*
X91075952Y-152228321D01*
X90655748Y-151808118D01*
X89491884Y-150644254D01*
X89477014Y-150622000D01*
X108978957Y-150622000D01*
X109054000Y-150636927D01*
X109129043Y-150622000D01*
X109129048Y-150622000D01*
X109351317Y-150577788D01*
X109603371Y-150409371D01*
X109645883Y-150345747D01*
X110975750Y-149015881D01*
X111039371Y-148973371D01*
X111143561Y-148817440D01*
X111340000Y-148817440D01*
X111587765Y-148768157D01*
X111797809Y-148627809D01*
X111938157Y-148417765D01*
X111947184Y-148372381D01*
X111959375Y-148390625D01*
X112450582Y-148718839D01*
X112883744Y-148805000D01*
X113176256Y-148805000D01*
X113609418Y-148718839D01*
X114100625Y-148390625D01*
X114300000Y-148092239D01*
X114499375Y-148390625D01*
X114990582Y-148718839D01*
X115423744Y-148805000D01*
X115716256Y-148805000D01*
X116149418Y-148718839D01*
X116640625Y-148390625D01*
X116968839Y-147899418D01*
X117084092Y-147320000D01*
X116968839Y-146740582D01*
X116640625Y-146249375D01*
X116149418Y-145921161D01*
X115716256Y-145835000D01*
X115423744Y-145835000D01*
X114990582Y-145921161D01*
X114499375Y-146249375D01*
X114300000Y-146547761D01*
X114100625Y-146249375D01*
X113609418Y-145921161D01*
X113176256Y-145835000D01*
X112883744Y-145835000D01*
X112450582Y-145921161D01*
X111959375Y-146249375D01*
X111947184Y-146267619D01*
X111938157Y-146222235D01*
X111797809Y-146012191D01*
X111587765Y-145871843D01*
X111340000Y-145822560D01*
X109640000Y-145822560D01*
X109392235Y-145871843D01*
X109182191Y-146012191D01*
X109041843Y-146222235D01*
X108992560Y-146470000D01*
X108992560Y-148170000D01*
X109041843Y-148417765D01*
X109182191Y-148627809D01*
X109197998Y-148638371D01*
X108738370Y-149098000D01*
X93081958Y-149098000D01*
X93721121Y-148833250D01*
X94223250Y-148331121D01*
X94326439Y-148082000D01*
X96592398Y-148082000D01*
X96613466Y-148132862D01*
X97017138Y-148536534D01*
X97544561Y-148755000D01*
X98115439Y-148755000D01*
X98642862Y-148536534D01*
X98851651Y-148327745D01*
X99501861Y-148327745D01*
X99575995Y-148573864D01*
X100113223Y-148766965D01*
X100683454Y-148739778D01*
X101084005Y-148573864D01*
X101158139Y-148327745D01*
X100330000Y-147499605D01*
X99501861Y-148327745D01*
X98851651Y-148327745D01*
X99046534Y-148132862D01*
X99073525Y-148067701D01*
X99076136Y-148074005D01*
X99322255Y-148148139D01*
X100150395Y-147320000D01*
X100509605Y-147320000D01*
X101337745Y-148148139D01*
X101583864Y-148074005D01*
X101776965Y-147536777D01*
X101749778Y-146966546D01*
X101583864Y-146565995D01*
X101337745Y-146491861D01*
X100509605Y-147320000D01*
X100150395Y-147320000D01*
X99322255Y-146491861D01*
X99076136Y-146565995D01*
X99073710Y-146572746D01*
X99046534Y-146507138D01*
X98851651Y-146312255D01*
X99501861Y-146312255D01*
X100330000Y-147140395D01*
X101158139Y-146312255D01*
X101084005Y-146066136D01*
X100546777Y-145873035D01*
X99976546Y-145900222D01*
X99575995Y-146066136D01*
X99501861Y-146312255D01*
X98851651Y-146312255D01*
X98642862Y-146103466D01*
X98115439Y-145885000D01*
X97544561Y-145885000D01*
X97017138Y-146103466D01*
X96613466Y-146507138D01*
X96592398Y-146558000D01*
X94326439Y-146558000D01*
X94223250Y-146308879D01*
X93721121Y-145806750D01*
X93077130Y-145540000D01*
X110415153Y-145540000D01*
X110490000Y-145554888D01*
X110564847Y-145540000D01*
X110564852Y-145540000D01*
X110786537Y-145495904D01*
X111037929Y-145327929D01*
X111080331Y-145264470D01*
X113514476Y-142830327D01*
X113577929Y-142787929D01*
X113620327Y-142724476D01*
X113620329Y-142724474D01*
X113704102Y-142599098D01*
X113745904Y-142536537D01*
X113790000Y-142314852D01*
X113790000Y-142314848D01*
X113804888Y-142240001D01*
X113790000Y-142165154D01*
X113790000Y-139927440D01*
X115150000Y-139927440D01*
X115397765Y-139878157D01*
X115607809Y-139737809D01*
X115748157Y-139527765D01*
X115797440Y-139280000D01*
X115797440Y-139190000D01*
X116525199Y-139190000D01*
X117350001Y-140014803D01*
X117350000Y-141001570D01*
X117297138Y-141023466D01*
X116893466Y-141427138D01*
X116675000Y-141954561D01*
X116675000Y-142525439D01*
X116893466Y-143052862D01*
X117297138Y-143456534D01*
X117824561Y-143675000D01*
X118395439Y-143675000D01*
X118922862Y-143456534D01*
X119326534Y-143052862D01*
X119545000Y-142525439D01*
X119545000Y-141954561D01*
X119326534Y-141427138D01*
X118922862Y-141023466D01*
X118870000Y-141001570D01*
X118870000Y-139774846D01*
X118884888Y-139699999D01*
X118870000Y-139625152D01*
X118870000Y-139625148D01*
X118825904Y-139403463D01*
X118657929Y-139152071D01*
X118594473Y-139109671D01*
X117430331Y-137945530D01*
X117387929Y-137882071D01*
X117136537Y-137714096D01*
X116914852Y-137670000D01*
X116914847Y-137670000D01*
X116840000Y-137655112D01*
X116765153Y-137670000D01*
X115797440Y-137670000D01*
X115797440Y-137580000D01*
X115748157Y-137332235D01*
X115607809Y-137122191D01*
X115397765Y-136981843D01*
X115352381Y-136972816D01*
X115370625Y-136960625D01*
X115578178Y-136650000D01*
X116612560Y-136650000D01*
X116612560Y-136740000D01*
X116661843Y-136987765D01*
X116802191Y-137197809D01*
X117012235Y-137338157D01*
X117260000Y-137387440D01*
X118960000Y-137387440D01*
X119207765Y-137338157D01*
X119417809Y-137197809D01*
X119558157Y-136987765D01*
X119607440Y-136740000D01*
X119607440Y-135040000D01*
X119558157Y-134792235D01*
X119417809Y-134582191D01*
X119207765Y-134441843D01*
X119162381Y-134432816D01*
X119180625Y-134420625D01*
X119508839Y-133929418D01*
X119624092Y-133350000D01*
X119508839Y-132770582D01*
X119180625Y-132279375D01*
X118882239Y-132080000D01*
X119180625Y-131880625D01*
X119508839Y-131389418D01*
X119624092Y-130810000D01*
X119508839Y-130230582D01*
X119180625Y-129739375D01*
X118882239Y-129540000D01*
X119180625Y-129340625D01*
X119508839Y-128849418D01*
X119624092Y-128270000D01*
X119508839Y-127690582D01*
X119180625Y-127199375D01*
X118882239Y-127000000D01*
X119180625Y-126800625D01*
X119508839Y-126309418D01*
X119624092Y-125730000D01*
X119508839Y-125150582D01*
X119180625Y-124659375D01*
X118882239Y-124460000D01*
X119180625Y-124260625D01*
X119508839Y-123769418D01*
X119624092Y-123190000D01*
X119508839Y-122610582D01*
X119180625Y-122119375D01*
X118882239Y-121920000D01*
X119180625Y-121720625D01*
X119508839Y-121229418D01*
X119624092Y-120650000D01*
X119508839Y-120070582D01*
X119180625Y-119579375D01*
X118882239Y-119380000D01*
X119180625Y-119180625D01*
X119508839Y-118689418D01*
X119624092Y-118110000D01*
X119508839Y-117530582D01*
X119180625Y-117039375D01*
X118689418Y-116711161D01*
X118256256Y-116625000D01*
X117963744Y-116625000D01*
X117530582Y-116711161D01*
X117039375Y-117039375D01*
X116831822Y-117350000D01*
X99008043Y-117350000D01*
X98824577Y-117075423D01*
X98440892Y-116819053D01*
X98645134Y-116722389D01*
X99021041Y-116307423D01*
X99181904Y-115919039D01*
X99059915Y-115697000D01*
X97917000Y-115697000D01*
X97917000Y-115717000D01*
X97663000Y-115717000D01*
X97663000Y-115697000D01*
X96520085Y-115697000D01*
X96398096Y-115919039D01*
X96558959Y-116307423D01*
X96934866Y-116722389D01*
X97139108Y-116819053D01*
X96755423Y-117075423D01*
X96438260Y-117550091D01*
X96326887Y-118110000D01*
X96438260Y-118669909D01*
X96755423Y-119144577D01*
X97107758Y-119380000D01*
X96755423Y-119615423D01*
X96438260Y-120090091D01*
X96326887Y-120650000D01*
X96438260Y-121209909D01*
X96755423Y-121684577D01*
X97107758Y-121920000D01*
X96755423Y-122155423D01*
X96438260Y-122630091D01*
X96326887Y-123190000D01*
X96438260Y-123749909D01*
X96755423Y-124224577D01*
X97107758Y-124460000D01*
X96755423Y-124695423D01*
X96438260Y-125170091D01*
X96327010Y-125729380D01*
X94571883Y-123974253D01*
X94529371Y-123910629D01*
X94277317Y-123742212D01*
X94055048Y-123698000D01*
X94055043Y-123698000D01*
X93980000Y-123683073D01*
X93904957Y-123698000D01*
X83912065Y-123698000D01*
X84013113Y-123190000D01*
X83901740Y-122630091D01*
X83584577Y-122155423D01*
X83200892Y-121899053D01*
X83405134Y-121802389D01*
X83781041Y-121387423D01*
X83941904Y-120999039D01*
X83819915Y-120777000D01*
X82677000Y-120777000D01*
X82677000Y-120797000D01*
X82423000Y-120797000D01*
X82423000Y-120777000D01*
X81280085Y-120777000D01*
X81158096Y-120999039D01*
X81318959Y-121387423D01*
X81694866Y-121802389D01*
X81899108Y-121899053D01*
X81515423Y-122155423D01*
X81198260Y-122630091D01*
X81086887Y-123190000D01*
X81187935Y-123698000D01*
X55955042Y-123698000D01*
X55879999Y-123683073D01*
X55804956Y-123698000D01*
X55804952Y-123698000D01*
X55582683Y-123742212D01*
X55582682Y-123742213D01*
X55582681Y-123742213D01*
X55541966Y-123769418D01*
X55330629Y-123910629D01*
X55288118Y-123974251D01*
X54124252Y-125138118D01*
X54060630Y-125180629D01*
X54018119Y-125244251D01*
X54018118Y-125244252D01*
X53892213Y-125432683D01*
X53833073Y-125730000D01*
X52805000Y-125730000D01*
X52805000Y-97790000D01*
X56905908Y-97790000D01*
X57021161Y-98369418D01*
X57349375Y-98860625D01*
X57647761Y-99060000D01*
X57349375Y-99259375D01*
X57021161Y-99750582D01*
X56905908Y-100330000D01*
X57021161Y-100909418D01*
X57349375Y-101400625D01*
X57647761Y-101600000D01*
X57349375Y-101799375D01*
X57021161Y-102290582D01*
X56905908Y-102870000D01*
X57021161Y-103449418D01*
X57349375Y-103940625D01*
X57647761Y-104140000D01*
X57349375Y-104339375D01*
X57021161Y-104830582D01*
X56905908Y-105410000D01*
X57021161Y-105989418D01*
X57349375Y-106480625D01*
X57647761Y-106680000D01*
X57349375Y-106879375D01*
X57021161Y-107370582D01*
X56905908Y-107950000D01*
X57021161Y-108529418D01*
X57349375Y-109020625D01*
X57647761Y-109220000D01*
X57349375Y-109419375D01*
X57021161Y-109910582D01*
X56905908Y-110490000D01*
X57021161Y-111069418D01*
X57349375Y-111560625D01*
X57840582Y-111888839D01*
X58273744Y-111975000D01*
X58566256Y-111975000D01*
X58999418Y-111888839D01*
X59490625Y-111560625D01*
X59696842Y-111252000D01*
X67878289Y-111252000D01*
X67944329Y-111318040D01*
X63184370Y-116078000D01*
X59917440Y-116078000D01*
X59917440Y-115990000D01*
X59868157Y-115742235D01*
X59727809Y-115532191D01*
X59517765Y-115391843D01*
X59270000Y-115342560D01*
X57570000Y-115342560D01*
X57322235Y-115391843D01*
X57112191Y-115532191D01*
X56971843Y-115742235D01*
X56922560Y-115990000D01*
X56922560Y-117690000D01*
X56971843Y-117937765D01*
X57112191Y-118147809D01*
X57322235Y-118288157D01*
X57367619Y-118297184D01*
X57349375Y-118309375D01*
X57021161Y-118800582D01*
X56905908Y-119380000D01*
X57021161Y-119959418D01*
X57349375Y-120450625D01*
X57647761Y-120650000D01*
X57349375Y-120849375D01*
X57021161Y-121340582D01*
X56905908Y-121920000D01*
X57021161Y-122499418D01*
X57349375Y-122990625D01*
X57840582Y-123318839D01*
X58273744Y-123405000D01*
X58566256Y-123405000D01*
X58999418Y-123318839D01*
X59490625Y-122990625D01*
X59696842Y-122682000D01*
X65964957Y-122682000D01*
X66040000Y-122696927D01*
X66115043Y-122682000D01*
X66115048Y-122682000D01*
X66337317Y-122637788D01*
X66589371Y-122469371D01*
X66631883Y-122405747D01*
X72705631Y-116332000D01*
X81333293Y-116332000D01*
X81515423Y-116604577D01*
X81867758Y-116840000D01*
X81515423Y-117075423D01*
X81333293Y-117348000D01*
X78815047Y-117348000D01*
X78740000Y-117333072D01*
X78664953Y-117348000D01*
X78664952Y-117348000D01*
X78442683Y-117392212D01*
X78190629Y-117560629D01*
X78148118Y-117624251D01*
X74887370Y-120885000D01*
X74724126Y-120885000D01*
X74343720Y-121042569D01*
X74052569Y-121333720D01*
X73895000Y-121714126D01*
X73895000Y-122125874D01*
X74052569Y-122506280D01*
X74343720Y-122797431D01*
X74724126Y-122955000D01*
X75135874Y-122955000D01*
X75516280Y-122797431D01*
X75807431Y-122506280D01*
X75965000Y-122125874D01*
X75965000Y-121962630D01*
X79055631Y-118872000D01*
X81333293Y-118872000D01*
X81515423Y-119144577D01*
X81899108Y-119400947D01*
X81694866Y-119497611D01*
X81318959Y-119912577D01*
X81158096Y-120300961D01*
X81280085Y-120523000D01*
X82423000Y-120523000D01*
X82423000Y-120503000D01*
X82677000Y-120503000D01*
X82677000Y-120523000D01*
X83819915Y-120523000D01*
X83941904Y-120300961D01*
X83781041Y-119912577D01*
X83405134Y-119497611D01*
X83200892Y-119400947D01*
X83584577Y-119144577D01*
X83766707Y-118872000D01*
X86284957Y-118872000D01*
X86360000Y-118886927D01*
X86435043Y-118872000D01*
X86435048Y-118872000D01*
X86657317Y-118827788D01*
X86909371Y-118659371D01*
X86951883Y-118595747D01*
X91755631Y-113792000D01*
X96573293Y-113792000D01*
X96755423Y-114064577D01*
X97139108Y-114320947D01*
X96934866Y-114417611D01*
X96558959Y-114832577D01*
X96398096Y-115220961D01*
X96520085Y-115443000D01*
X97663000Y-115443000D01*
X97663000Y-115423000D01*
X97917000Y-115423000D01*
X97917000Y-115443000D01*
X99059915Y-115443000D01*
X99181904Y-115220961D01*
X99021041Y-114832577D01*
X98645134Y-114417611D01*
X98440892Y-114320947D01*
X98824577Y-114064577D01*
X99141740Y-113589909D01*
X99253113Y-113030000D01*
X99141740Y-112470091D01*
X98824577Y-111995423D01*
X98472242Y-111760000D01*
X98824577Y-111524577D01*
X99006707Y-111252000D01*
X116612560Y-111252000D01*
X116612560Y-111340000D01*
X116661843Y-111587765D01*
X116802191Y-111797809D01*
X117012235Y-111938157D01*
X117260000Y-111987440D01*
X118960000Y-111987440D01*
X119207765Y-111938157D01*
X119417809Y-111797809D01*
X119558157Y-111587765D01*
X119607440Y-111340000D01*
X119607440Y-109640000D01*
X119558157Y-109392235D01*
X119417809Y-109182191D01*
X119207765Y-109041843D01*
X119162381Y-109032816D01*
X119180625Y-109020625D01*
X119508839Y-108529418D01*
X119624092Y-107950000D01*
X119508839Y-107370582D01*
X119180625Y-106879375D01*
X118882239Y-106680000D01*
X119180625Y-106480625D01*
X119508839Y-105989418D01*
X119624092Y-105410000D01*
X119508839Y-104830582D01*
X119180625Y-104339375D01*
X118882239Y-104140000D01*
X119180625Y-103940625D01*
X119508839Y-103449418D01*
X119624092Y-102870000D01*
X119508839Y-102290582D01*
X119180625Y-101799375D01*
X118882239Y-101600000D01*
X119180625Y-101400625D01*
X119508839Y-100909418D01*
X119624092Y-100330000D01*
X119508839Y-99750582D01*
X119180625Y-99259375D01*
X118882239Y-99060000D01*
X119180625Y-98860625D01*
X119508839Y-98369418D01*
X119624092Y-97790000D01*
X119508839Y-97210582D01*
X119180625Y-96719375D01*
X118882239Y-96520000D01*
X119180625Y-96320625D01*
X119508839Y-95829418D01*
X119624092Y-95250000D01*
X119508839Y-94670582D01*
X119180625Y-94179375D01*
X118882239Y-93980000D01*
X119180625Y-93780625D01*
X119508839Y-93289418D01*
X119624092Y-92710000D01*
X119508839Y-92130582D01*
X119180625Y-91639375D01*
X118689418Y-91311161D01*
X118256256Y-91225000D01*
X117963744Y-91225000D01*
X117530582Y-91311161D01*
X117039375Y-91639375D01*
X116833158Y-91948000D01*
X99006707Y-91948000D01*
X98824577Y-91675423D01*
X98349909Y-91358260D01*
X97931333Y-91275000D01*
X97648667Y-91275000D01*
X97230091Y-91358260D01*
X96755423Y-91675423D01*
X96438260Y-92150091D01*
X96326887Y-92710000D01*
X96438260Y-93269909D01*
X96755423Y-93744577D01*
X97107758Y-93980000D01*
X96755423Y-94215423D01*
X96438260Y-94690091D01*
X96326887Y-95250000D01*
X96438260Y-95809909D01*
X96755423Y-96284577D01*
X97107758Y-96520000D01*
X96755423Y-96755423D01*
X96438260Y-97230091D01*
X96326887Y-97790000D01*
X96438260Y-98349909D01*
X96755423Y-98824577D01*
X97107758Y-99060000D01*
X96755423Y-99295423D01*
X96438260Y-99770091D01*
X96326887Y-100330000D01*
X96438260Y-100889909D01*
X96755423Y-101364577D01*
X97107758Y-101600000D01*
X96755423Y-101835423D01*
X96438260Y-102310091D01*
X96326887Y-102870000D01*
X96438260Y-103429909D01*
X96755423Y-103904577D01*
X97107758Y-104140000D01*
X96755423Y-104375423D01*
X96438260Y-104850091D01*
X96326887Y-105410000D01*
X96438260Y-105969909D01*
X96755423Y-106444577D01*
X97107758Y-106680000D01*
X96755423Y-106915423D01*
X96438260Y-107390091D01*
X96326887Y-107950000D01*
X96438260Y-108509909D01*
X96755423Y-108984577D01*
X97107758Y-109220000D01*
X96755423Y-109455423D01*
X96438260Y-109930091D01*
X96326887Y-110490000D01*
X96438260Y-111049909D01*
X96755423Y-111524577D01*
X97107758Y-111760000D01*
X96755423Y-111995423D01*
X96573293Y-112268000D01*
X93287014Y-112268000D01*
X93427788Y-112057317D01*
X93472000Y-111835048D01*
X93472000Y-111835044D01*
X93486927Y-111760001D01*
X93472000Y-111684958D01*
X93472000Y-87597602D01*
X93522862Y-87576534D01*
X93926534Y-87172862D01*
X94145000Y-86645439D01*
X94145000Y-86074561D01*
X94112044Y-85994999D01*
X109806446Y-85994999D01*
X109894001Y-86012415D01*
X109981556Y-85994999D01*
X109981557Y-85994999D01*
X110240871Y-85943418D01*
X110534934Y-85746932D01*
X110584532Y-85672703D01*
X111397625Y-84859611D01*
X111434778Y-84875000D01*
X112085222Y-84875000D01*
X112686153Y-84626086D01*
X113146086Y-84166153D01*
X113161475Y-84129000D01*
X116858525Y-84129000D01*
X116873914Y-84166153D01*
X117333847Y-84626086D01*
X117934778Y-84875000D01*
X118585222Y-84875000D01*
X119186153Y-84626086D01*
X119646086Y-84166153D01*
X119895000Y-83565222D01*
X119895000Y-82914778D01*
X119646086Y-82313847D01*
X119186153Y-81853914D01*
X118585222Y-81605000D01*
X117934778Y-81605000D01*
X117333847Y-81853914D01*
X116873914Y-82313847D01*
X116858525Y-82351000D01*
X113161475Y-82351000D01*
X113146086Y-82313847D01*
X112686153Y-81853914D01*
X112085222Y-81605000D01*
X111434778Y-81605000D01*
X110833847Y-81853914D01*
X110373914Y-82313847D01*
X110125000Y-82914778D01*
X110125000Y-83565222D01*
X110140389Y-83602375D01*
X109525766Y-84216999D01*
X92300236Y-84216999D01*
X93808280Y-82708956D01*
X93838667Y-82715000D01*
X94121333Y-82715000D01*
X94151720Y-82708956D01*
X94543472Y-83100708D01*
X94593068Y-83174934D01*
X94887131Y-83371420D01*
X95146445Y-83423001D01*
X95146449Y-83423001D01*
X95234000Y-83440416D01*
X95321551Y-83423001D01*
X105924366Y-83423001D01*
X106011921Y-83440417D01*
X106099476Y-83423001D01*
X106099477Y-83423001D01*
X106358791Y-83371420D01*
X106652854Y-83174934D01*
X106702452Y-83100705D01*
X107230708Y-82572450D01*
X107304934Y-82522854D01*
X107501420Y-82228791D01*
X107553001Y-81969477D01*
X107553001Y-81969473D01*
X107570416Y-81881922D01*
X107553001Y-81794371D01*
X107553001Y-79892532D01*
X110787073Y-79892532D01*
X110885736Y-80159387D01*
X111495461Y-80385908D01*
X112145460Y-80361856D01*
X112634264Y-80159387D01*
X112732927Y-79892532D01*
X117287073Y-79892532D01*
X117385736Y-80159387D01*
X117995461Y-80385908D01*
X118645460Y-80361856D01*
X119134264Y-80159387D01*
X119232927Y-79892532D01*
X118260000Y-78919605D01*
X117287073Y-79892532D01*
X112732927Y-79892532D01*
X111760000Y-78919605D01*
X110787073Y-79892532D01*
X107553001Y-79892532D01*
X107553001Y-78475461D01*
X110114092Y-78475461D01*
X110138144Y-79125460D01*
X110340613Y-79614264D01*
X110607468Y-79712927D01*
X111580395Y-78740000D01*
X111939605Y-78740000D01*
X112912532Y-79712927D01*
X113179387Y-79614264D01*
X113405908Y-79004539D01*
X113386331Y-78475461D01*
X116614092Y-78475461D01*
X116638144Y-79125460D01*
X116840613Y-79614264D01*
X117107468Y-79712927D01*
X118080395Y-78740000D01*
X118439605Y-78740000D01*
X119412532Y-79712927D01*
X119679387Y-79614264D01*
X119905908Y-79004539D01*
X119881856Y-78354540D01*
X119679387Y-77865736D01*
X119412532Y-77767073D01*
X118439605Y-78740000D01*
X118080395Y-78740000D01*
X117107468Y-77767073D01*
X116840613Y-77865736D01*
X116614092Y-78475461D01*
X113386331Y-78475461D01*
X113381856Y-78354540D01*
X113179387Y-77865736D01*
X112912532Y-77767073D01*
X111939605Y-78740000D01*
X111580395Y-78740000D01*
X110607468Y-77767073D01*
X110340613Y-77865736D01*
X110114092Y-78475461D01*
X107553001Y-78475461D01*
X107553001Y-77587468D01*
X110787073Y-77587468D01*
X111760000Y-78560395D01*
X112732927Y-77587468D01*
X117287073Y-77587468D01*
X118260000Y-78560395D01*
X119232927Y-77587468D01*
X119134264Y-77320613D01*
X118524539Y-77094092D01*
X117874540Y-77118144D01*
X117385736Y-77320613D01*
X117287073Y-77587468D01*
X112732927Y-77587468D01*
X112634264Y-77320613D01*
X112024539Y-77094092D01*
X111374540Y-77118144D01*
X110885736Y-77320613D01*
X110787073Y-77587468D01*
X107553001Y-77587468D01*
X107553001Y-75001556D01*
X107570417Y-74914001D01*
X107549107Y-74806869D01*
X107501420Y-74567131D01*
X107304934Y-74273068D01*
X107230705Y-74223470D01*
X106900530Y-73893295D01*
X106900528Y-73893292D01*
X106838956Y-73831720D01*
X106873113Y-73660000D01*
X106761740Y-73100091D01*
X106444577Y-72625423D01*
X106299000Y-72528152D01*
X106299000Y-71207556D01*
X106316416Y-71120000D01*
X106247419Y-70773129D01*
X106100529Y-70553293D01*
X106050933Y-70479067D01*
X105976707Y-70429471D01*
X104285043Y-68737807D01*
X104453454Y-68729778D01*
X104854005Y-68563864D01*
X104928139Y-68317745D01*
X104100000Y-67489605D01*
X104085858Y-67503748D01*
X103906253Y-67324143D01*
X103920395Y-67310000D01*
X103092255Y-66481861D01*
X102846136Y-66555995D01*
X102843710Y-66562746D01*
X102816534Y-66497138D01*
X102412862Y-66093466D01*
X101885439Y-65875000D01*
X101422236Y-65875000D01*
X101206236Y-65659000D01*
X103047687Y-65659000D01*
X103415877Y-66027190D01*
X103345995Y-66056136D01*
X103271861Y-66302255D01*
X104100000Y-67130395D01*
X104114143Y-67116253D01*
X104293748Y-67295858D01*
X104279605Y-67310000D01*
X105107745Y-68138139D01*
X105353864Y-68064005D01*
X105379994Y-67991308D01*
X107646990Y-70258304D01*
X107646990Y-70641163D01*
X107629574Y-70728718D01*
X107646990Y-70816273D01*
X107646990Y-70816274D01*
X107698572Y-71075588D01*
X107895058Y-71369651D01*
X107969284Y-71419247D01*
X109506743Y-72956707D01*
X109556339Y-73030933D01*
X109630565Y-73080529D01*
X109850401Y-73227419D01*
X110197272Y-73296416D01*
X110284828Y-73279000D01*
X112522560Y-73279000D01*
X112522560Y-73890000D01*
X112571843Y-74137765D01*
X112712191Y-74347809D01*
X112922235Y-74488157D01*
X113170000Y-74537440D01*
X117970000Y-74537440D01*
X118217765Y-74488157D01*
X118427809Y-74347809D01*
X118568157Y-74137765D01*
X118617440Y-73890000D01*
X118617440Y-70890000D01*
X118568157Y-70642235D01*
X118427809Y-70432191D01*
X118217765Y-70291843D01*
X117970000Y-70242560D01*
X113170000Y-70242560D01*
X112922235Y-70291843D01*
X112712191Y-70432191D01*
X112625000Y-70562681D01*
X112625000Y-68865750D01*
X112466250Y-68707000D01*
X110617000Y-68707000D01*
X110617000Y-68727000D01*
X110363000Y-68727000D01*
X110363000Y-68707000D01*
X110343000Y-68707000D01*
X110343000Y-68453000D01*
X110363000Y-68453000D01*
X110363000Y-65703750D01*
X110617000Y-65703750D01*
X110617000Y-68453000D01*
X112466250Y-68453000D01*
X112625000Y-68294250D01*
X112625000Y-68133588D01*
X112631673Y-68149698D01*
X112810301Y-68328327D01*
X113043690Y-68425000D01*
X115284250Y-68425000D01*
X115443000Y-68266250D01*
X115443000Y-66417000D01*
X115697000Y-66417000D01*
X115697000Y-68266250D01*
X115855750Y-68425000D01*
X118096310Y-68425000D01*
X118329699Y-68328327D01*
X118508327Y-68149698D01*
X118605000Y-67916309D01*
X118605000Y-66575750D01*
X118446250Y-66417000D01*
X115697000Y-66417000D01*
X115443000Y-66417000D01*
X115423000Y-66417000D01*
X115423000Y-66163000D01*
X115443000Y-66163000D01*
X115443000Y-64313750D01*
X115697000Y-64313750D01*
X115697000Y-66163000D01*
X118446250Y-66163000D01*
X118605000Y-66004250D01*
X118605000Y-64663691D01*
X118508327Y-64430302D01*
X118329699Y-64251673D01*
X118096310Y-64155000D01*
X115855750Y-64155000D01*
X115697000Y-64313750D01*
X115443000Y-64313750D01*
X115284250Y-64155000D01*
X113043690Y-64155000D01*
X112810301Y-64251673D01*
X112631673Y-64430302D01*
X112535000Y-64663691D01*
X112535000Y-65836412D01*
X112528327Y-65820302D01*
X112349699Y-65641673D01*
X112116310Y-65545000D01*
X110775750Y-65545000D01*
X110617000Y-65703750D01*
X110363000Y-65703750D01*
X110204250Y-65545000D01*
X108863690Y-65545000D01*
X108630301Y-65641673D01*
X108451673Y-65820302D01*
X108355000Y-66053691D01*
X108355000Y-68294250D01*
X108513748Y-68452998D01*
X108356156Y-68452998D01*
X104106453Y-64203296D01*
X104056855Y-64129067D01*
X103762792Y-63932581D01*
X103503478Y-63881000D01*
X103503477Y-63881000D01*
X103415922Y-63863584D01*
X103328367Y-63881000D01*
X83860050Y-63881000D01*
X83772499Y-63863585D01*
X83684948Y-63881000D01*
X83684944Y-63881000D01*
X83425630Y-63932581D01*
X83131567Y-64129067D01*
X83081971Y-64203293D01*
X81622705Y-65662560D01*
X80327500Y-65662560D01*
X80079735Y-65711843D01*
X79869691Y-65852191D01*
X79729343Y-66062235D01*
X79680060Y-66310000D01*
X79680060Y-68310000D01*
X79729343Y-68557765D01*
X79869691Y-68767809D01*
X80079735Y-68908157D01*
X80327500Y-68957440D01*
X82232500Y-68957440D01*
X82480265Y-68908157D01*
X82690309Y-68767809D01*
X82808509Y-68590912D01*
X83200590Y-68852891D01*
X83820000Y-68976100D01*
X84121410Y-68916146D01*
X84589970Y-69384706D01*
X84639567Y-69458933D01*
X84856944Y-69604179D01*
X85471001Y-70218237D01*
X85471000Y-72528151D01*
X85325423Y-72625423D01*
X85008260Y-73100091D01*
X84896887Y-73660000D01*
X85008260Y-74219909D01*
X85325423Y-74694577D01*
X85800091Y-75011740D01*
X86218667Y-75095000D01*
X86501333Y-75095000D01*
X86919909Y-75011740D01*
X87394577Y-74694577D01*
X87711740Y-74219909D01*
X87766273Y-73945750D01*
X92545000Y-73945750D01*
X92545000Y-74586310D01*
X92641673Y-74819699D01*
X92820302Y-74998327D01*
X93053691Y-75095000D01*
X93694250Y-75095000D01*
X93853000Y-74936250D01*
X93853000Y-73787000D01*
X94107000Y-73787000D01*
X94107000Y-74936250D01*
X94265750Y-75095000D01*
X94906309Y-75095000D01*
X95139698Y-74998327D01*
X95318327Y-74819699D01*
X95415000Y-74586310D01*
X95415000Y-73945750D01*
X95256250Y-73787000D01*
X94107000Y-73787000D01*
X93853000Y-73787000D01*
X92703750Y-73787000D01*
X92545000Y-73945750D01*
X87766273Y-73945750D01*
X87823113Y-73660000D01*
X87711740Y-73100091D01*
X87466919Y-72733690D01*
X92545000Y-72733690D01*
X92545000Y-73374250D01*
X92703750Y-73533000D01*
X93853000Y-73533000D01*
X93853000Y-72383750D01*
X94107000Y-72383750D01*
X94107000Y-73533000D01*
X95256250Y-73533000D01*
X95415000Y-73374250D01*
X95415000Y-72860000D01*
X96342560Y-72860000D01*
X96342560Y-74460000D01*
X96391843Y-74707765D01*
X96532191Y-74917809D01*
X96742235Y-75058157D01*
X96901001Y-75089737D01*
X96901000Y-76329604D01*
X96573466Y-76657138D01*
X96355000Y-77184561D01*
X96355000Y-77755439D01*
X96573466Y-78282862D01*
X96977138Y-78686534D01*
X97504561Y-78905000D01*
X98075439Y-78905000D01*
X98602862Y-78686534D01*
X99006534Y-78282862D01*
X99225000Y-77755439D01*
X99225000Y-77184561D01*
X99006534Y-76657138D01*
X98679000Y-76329604D01*
X98679000Y-75089737D01*
X98837765Y-75058157D01*
X99047809Y-74917809D01*
X99188157Y-74707765D01*
X99237440Y-74460000D01*
X99237440Y-72860000D01*
X99188157Y-72612235D01*
X99047809Y-72402191D01*
X98837765Y-72261843D01*
X98590000Y-72212560D01*
X96990000Y-72212560D01*
X96742235Y-72261843D01*
X96532191Y-72402191D01*
X96391843Y-72612235D01*
X96342560Y-72860000D01*
X95415000Y-72860000D01*
X95415000Y-72733690D01*
X95318327Y-72500301D01*
X95139698Y-72321673D01*
X94906309Y-72225000D01*
X94265750Y-72225000D01*
X94107000Y-72383750D01*
X93853000Y-72383750D01*
X93694250Y-72225000D01*
X93053691Y-72225000D01*
X92820302Y-72321673D01*
X92641673Y-72500301D01*
X92545000Y-72733690D01*
X87466919Y-72733690D01*
X87394577Y-72625423D01*
X87249000Y-72528152D01*
X87249000Y-69937550D01*
X87266415Y-69849999D01*
X87249000Y-69762448D01*
X87249000Y-69762444D01*
X87197419Y-69503130D01*
X87000933Y-69209067D01*
X86926706Y-69159471D01*
X86679736Y-68912500D01*
X86979411Y-68852891D01*
X87504523Y-68502023D01*
X87855391Y-67976910D01*
X87931208Y-67595750D01*
X91175000Y-67595750D01*
X91175000Y-68336310D01*
X91271673Y-68569699D01*
X91450302Y-68748327D01*
X91683691Y-68845000D01*
X92424250Y-68845000D01*
X92583000Y-68686250D01*
X92583000Y-67437000D01*
X91333750Y-67437000D01*
X91175000Y-67595750D01*
X87931208Y-67595750D01*
X87947500Y-67513849D01*
X87947500Y-67106150D01*
X87918646Y-66961090D01*
X88188736Y-66691000D01*
X91175000Y-66691000D01*
X91175000Y-67024250D01*
X91333750Y-67183000D01*
X92583000Y-67183000D01*
X92583000Y-67163000D01*
X92837000Y-67163000D01*
X92837000Y-67183000D01*
X92857000Y-67183000D01*
X92857000Y-67437000D01*
X92837000Y-67437000D01*
X92837000Y-68686250D01*
X92995750Y-68845000D01*
X93736309Y-68845000D01*
X93969698Y-68748327D01*
X94148327Y-68569699D01*
X94204139Y-68434956D01*
X94380493Y-68611310D01*
X94944670Y-68845000D01*
X95555330Y-68845000D01*
X96119507Y-68611310D01*
X96531817Y-68199000D01*
X96901000Y-68199000D01*
X96901001Y-69762441D01*
X96883584Y-69850000D01*
X96946035Y-70163958D01*
X96952582Y-70196870D01*
X97149068Y-70490933D01*
X97223294Y-70540529D01*
X103981044Y-77298280D01*
X103946887Y-77470000D01*
X104058260Y-78029909D01*
X104375423Y-78504577D01*
X104850091Y-78821740D01*
X105268667Y-78905000D01*
X105551333Y-78905000D01*
X105775001Y-78860510D01*
X105775001Y-79895640D01*
X105759041Y-79888086D01*
X105537000Y-80009371D01*
X105537000Y-81153000D01*
X105557000Y-81153000D01*
X105557000Y-81407000D01*
X105537000Y-81407000D01*
X105537000Y-81427000D01*
X105283000Y-81427000D01*
X105283000Y-81407000D01*
X104140085Y-81407000D01*
X104018096Y-81629039D01*
X104024707Y-81645001D01*
X99192044Y-81645001D01*
X99225000Y-81565439D01*
X99225000Y-80994561D01*
X99198656Y-80930961D01*
X104018096Y-80930961D01*
X104140085Y-81153000D01*
X105283000Y-81153000D01*
X105283000Y-80009371D01*
X105060959Y-79888086D01*
X104554866Y-80127611D01*
X104178959Y-80542577D01*
X104018096Y-80930961D01*
X99198656Y-80930961D01*
X99006534Y-80467138D01*
X98602862Y-80063466D01*
X98075439Y-79845000D01*
X97612235Y-79845000D01*
X97210531Y-79443296D01*
X97160933Y-79369067D01*
X96866870Y-79172581D01*
X96607556Y-79121000D01*
X96607555Y-79121000D01*
X96520000Y-79103584D01*
X96432445Y-79121000D01*
X89268236Y-79121000D01*
X88624981Y-78477745D01*
X93151861Y-78477745D01*
X93225995Y-78723864D01*
X93763223Y-78916965D01*
X94333454Y-78889778D01*
X94734005Y-78723864D01*
X94808139Y-78477745D01*
X93980000Y-77649605D01*
X93151861Y-78477745D01*
X88624981Y-78477745D01*
X87850530Y-77703295D01*
X87850528Y-77703292D01*
X87788956Y-77641720D01*
X87823113Y-77470000D01*
X87779994Y-77253223D01*
X92533035Y-77253223D01*
X92560222Y-77823454D01*
X92726136Y-78224005D01*
X92972255Y-78298139D01*
X93800395Y-77470000D01*
X94159605Y-77470000D01*
X94987745Y-78298139D01*
X95233864Y-78224005D01*
X95426965Y-77686777D01*
X95399778Y-77116546D01*
X95233864Y-76715995D01*
X94987745Y-76641861D01*
X94159605Y-77470000D01*
X93800395Y-77470000D01*
X92972255Y-76641861D01*
X92726136Y-76715995D01*
X92533035Y-77253223D01*
X87779994Y-77253223D01*
X87711740Y-76910091D01*
X87412506Y-76462255D01*
X93151861Y-76462255D01*
X93980000Y-77290395D01*
X94808139Y-76462255D01*
X94734005Y-76216136D01*
X94196777Y-76023035D01*
X93626546Y-76050222D01*
X93225995Y-76216136D01*
X93151861Y-76462255D01*
X87412506Y-76462255D01*
X87394577Y-76435423D01*
X86919909Y-76118260D01*
X86501333Y-76035000D01*
X86218667Y-76035000D01*
X85800091Y-76118260D01*
X85325423Y-76435423D01*
X85228152Y-76581000D01*
X80390236Y-76581000D01*
X78677351Y-74868115D01*
X78677809Y-74867809D01*
X78818157Y-74657765D01*
X78856469Y-74465156D01*
X79225460Y-74834147D01*
X79734506Y-75045000D01*
X80285494Y-75045000D01*
X80794540Y-74834147D01*
X81184147Y-74444540D01*
X81280000Y-74213130D01*
X81375853Y-74444540D01*
X81765460Y-74834147D01*
X82274506Y-75045000D01*
X82825494Y-75045000D01*
X83334540Y-74834147D01*
X83724147Y-74444540D01*
X83935000Y-73935494D01*
X83935000Y-73384506D01*
X83724147Y-72875460D01*
X83334540Y-72485853D01*
X82825494Y-72275000D01*
X82422236Y-72275000D01*
X79430531Y-69283296D01*
X79380933Y-69209067D01*
X79086870Y-69012581D01*
X78827556Y-68961000D01*
X78827555Y-68961000D01*
X78740000Y-68943584D01*
X78652445Y-68961000D01*
X71488236Y-68961000D01*
X71149940Y-68622704D01*
X71596591Y-68800956D01*
X72545323Y-68788641D01*
X73364636Y-68449271D01*
X73554923Y-68104528D01*
X72040000Y-66589605D01*
X72025858Y-66603748D01*
X71846253Y-66424143D01*
X71860395Y-66410000D01*
X72219605Y-66410000D01*
X73734528Y-67924923D01*
X74079271Y-67734636D01*
X74430956Y-66853409D01*
X74418641Y-65904677D01*
X74079271Y-65085364D01*
X73734528Y-64895077D01*
X72219605Y-66410000D01*
X71860395Y-66410000D01*
X70345472Y-64895077D01*
X70000729Y-65085364D01*
X69649044Y-65966591D01*
X69661359Y-66915323D01*
X69816074Y-67288839D01*
X69270531Y-66743296D01*
X69220933Y-66669067D01*
X68926870Y-66472581D01*
X68667556Y-66421000D01*
X68667555Y-66421000D01*
X68580000Y-66403584D01*
X68492445Y-66421000D01*
X63587550Y-66421000D01*
X63499999Y-66403585D01*
X63412448Y-66421000D01*
X63412444Y-66421000D01*
X63153130Y-66472581D01*
X62859067Y-66669067D01*
X62809471Y-66743293D01*
X62186138Y-67366626D01*
X62390956Y-66853409D01*
X62378641Y-65904677D01*
X62039271Y-65085364D01*
X61694528Y-64895077D01*
X60179605Y-66410000D01*
X60193748Y-66424143D01*
X60014143Y-66603748D01*
X60000000Y-66589605D01*
X58485077Y-68104528D01*
X58675364Y-68449271D01*
X59556591Y-68800956D01*
X60505323Y-68788641D01*
X61324636Y-68449271D01*
X61363647Y-68378596D01*
X61323584Y-68580000D01*
X61341001Y-68667559D01*
X61341000Y-73534445D01*
X61323584Y-73622000D01*
X61341000Y-73709555D01*
X61392581Y-73968869D01*
X61589067Y-74262933D01*
X61663296Y-74312531D01*
X66082622Y-78731858D01*
X66052191Y-78752191D01*
X65911843Y-78962235D01*
X65865307Y-79196187D01*
X65817745Y-79181861D01*
X64989605Y-80010000D01*
X65817745Y-80838139D01*
X65865307Y-80823813D01*
X65911843Y-81057765D01*
X66052191Y-81267809D01*
X66262235Y-81408157D01*
X66510000Y-81457440D01*
X68110000Y-81457440D01*
X68357765Y-81408157D01*
X68567809Y-81267809D01*
X68704510Y-81063223D01*
X73483035Y-81063223D01*
X73510222Y-81633454D01*
X73676136Y-82034005D01*
X73922255Y-82108139D01*
X74750395Y-81280000D01*
X75109605Y-81280000D01*
X75937745Y-82108139D01*
X76183864Y-82034005D01*
X76376965Y-81496777D01*
X76349778Y-80926546D01*
X76183864Y-80525995D01*
X75937745Y-80451861D01*
X75109605Y-81280000D01*
X74750395Y-81280000D01*
X73922255Y-80451861D01*
X73676136Y-80525995D01*
X73483035Y-81063223D01*
X68704510Y-81063223D01*
X68708157Y-81057765D01*
X68757440Y-80810000D01*
X68757440Y-80272255D01*
X74101861Y-80272255D01*
X74930000Y-81100395D01*
X75758139Y-80272255D01*
X75684005Y-80026136D01*
X75146777Y-79833035D01*
X74576546Y-79860222D01*
X74175995Y-80026136D01*
X74101861Y-80272255D01*
X68757440Y-80272255D01*
X68757440Y-79210000D01*
X68708157Y-78962235D01*
X68567809Y-78752191D01*
X68357765Y-78611843D01*
X68191921Y-78578855D01*
X68147419Y-78355130D01*
X67950933Y-78061067D01*
X67876707Y-78011471D01*
X63119000Y-73253765D01*
X63119000Y-68948235D01*
X63328685Y-68738550D01*
X63273282Y-68891279D01*
X63299685Y-69481458D01*
X63446442Y-69835761D01*
X63321843Y-70022235D01*
X63272560Y-70270000D01*
X63272560Y-71970000D01*
X63321843Y-72217765D01*
X63462191Y-72427809D01*
X63672235Y-72568157D01*
X63890139Y-72611500D01*
X63932581Y-72824869D01*
X64129067Y-73118933D01*
X64203296Y-73168531D01*
X65261471Y-74226706D01*
X65311067Y-74300933D01*
X65605130Y-74497419D01*
X65864444Y-74549000D01*
X65864448Y-74549000D01*
X65951999Y-74566415D01*
X66039550Y-74549000D01*
X76100209Y-74549000D01*
X76121843Y-74657765D01*
X76262191Y-74867809D01*
X76472235Y-75008157D01*
X76586020Y-75030790D01*
X76632581Y-75264869D01*
X76829067Y-75558933D01*
X76903296Y-75608531D01*
X79331470Y-78036706D01*
X79381067Y-78110933D01*
X79675130Y-78307419D01*
X79934444Y-78359000D01*
X80021999Y-78376416D01*
X80109554Y-78359000D01*
X85228152Y-78359000D01*
X85325423Y-78504577D01*
X85800091Y-78821740D01*
X86218667Y-78905000D01*
X86501333Y-78905000D01*
X86531720Y-78898956D01*
X86593292Y-78960528D01*
X86593295Y-78960530D01*
X88209470Y-80576706D01*
X88259067Y-80650933D01*
X88553130Y-80847419D01*
X88812444Y-80899000D01*
X88899999Y-80916416D01*
X88987554Y-80899000D01*
X92592673Y-80899000D01*
X92516887Y-81280000D01*
X92551044Y-81451720D01*
X91071765Y-82931000D01*
X85458236Y-82931000D01*
X83978956Y-81451720D01*
X84013113Y-81280000D01*
X83956336Y-80994561D01*
X84925000Y-80994561D01*
X84925000Y-81565439D01*
X85143466Y-82092862D01*
X85547138Y-82496534D01*
X86074561Y-82715000D01*
X86645439Y-82715000D01*
X87172862Y-82496534D01*
X87576534Y-82092862D01*
X87795000Y-81565439D01*
X87795000Y-80994561D01*
X87576534Y-80467138D01*
X87172862Y-80063466D01*
X86645439Y-79845000D01*
X86074561Y-79845000D01*
X85547138Y-80063466D01*
X85143466Y-80467138D01*
X84925000Y-80994561D01*
X83956336Y-80994561D01*
X83901740Y-80720091D01*
X83584577Y-80245423D01*
X83109909Y-79928260D01*
X82691333Y-79845000D01*
X82408667Y-79845000D01*
X81990091Y-79928260D01*
X81515423Y-80245423D01*
X81198260Y-80720091D01*
X81086887Y-81280000D01*
X81198260Y-81839909D01*
X81515423Y-82314577D01*
X81990091Y-82631740D01*
X82408667Y-82715000D01*
X82691333Y-82715000D01*
X82721720Y-82708956D01*
X84399471Y-84386707D01*
X84449067Y-84460933D01*
X84743130Y-84657419D01*
X85002444Y-84709000D01*
X85002448Y-84709000D01*
X85089999Y-84726415D01*
X85177550Y-84709000D01*
X85483764Y-84709000D01*
X85261720Y-84931044D01*
X85231333Y-84925000D01*
X84948667Y-84925000D01*
X84530091Y-85008260D01*
X84055423Y-85325423D01*
X83738260Y-85800091D01*
X83626887Y-86360000D01*
X83738260Y-86919909D01*
X84055423Y-87394577D01*
X84201000Y-87491849D01*
X84201001Y-91109763D01*
X83828143Y-91482622D01*
X83807809Y-91452191D01*
X83597765Y-91311843D01*
X83350000Y-91262560D01*
X81750000Y-91262560D01*
X81502235Y-91311843D01*
X81292191Y-91452191D01*
X81151843Y-91662235D01*
X81102560Y-91910000D01*
X81102560Y-93510000D01*
X81151843Y-93757765D01*
X81292191Y-93967809D01*
X81502235Y-94108157D01*
X81636106Y-94134785D01*
X81515423Y-94215423D01*
X81333293Y-94488000D01*
X59917440Y-94488000D01*
X59917440Y-94400000D01*
X59868157Y-94152235D01*
X59727809Y-93942191D01*
X59517765Y-93801843D01*
X59270000Y-93752560D01*
X57570000Y-93752560D01*
X57322235Y-93801843D01*
X57112191Y-93942191D01*
X56971843Y-94152235D01*
X56922560Y-94400000D01*
X56922560Y-96100000D01*
X56971843Y-96347765D01*
X57112191Y-96557809D01*
X57322235Y-96698157D01*
X57367619Y-96707184D01*
X57349375Y-96719375D01*
X57021161Y-97210582D01*
X56905908Y-97790000D01*
X52805000Y-97790000D01*
X52805000Y-82287745D01*
X74101861Y-82287745D01*
X74175995Y-82533864D01*
X74713223Y-82726965D01*
X75283454Y-82699778D01*
X75684005Y-82533864D01*
X75758139Y-82287745D01*
X74930000Y-81459605D01*
X74101861Y-82287745D01*
X52805000Y-82287745D01*
X52805000Y-81017745D01*
X63981861Y-81017745D01*
X64055995Y-81263864D01*
X64593223Y-81456965D01*
X65163454Y-81429778D01*
X65564005Y-81263864D01*
X65638139Y-81017745D01*
X64810000Y-80189605D01*
X63981861Y-81017745D01*
X52805000Y-81017745D01*
X52805000Y-79793223D01*
X63363035Y-79793223D01*
X63390222Y-80363454D01*
X63556136Y-80764005D01*
X63802255Y-80838139D01*
X64630395Y-80010000D01*
X63802255Y-79181861D01*
X63556136Y-79255995D01*
X63363035Y-79793223D01*
X52805000Y-79793223D01*
X52805000Y-79002255D01*
X63981861Y-79002255D01*
X64810000Y-79830395D01*
X65638139Y-79002255D01*
X65564005Y-78756136D01*
X65026777Y-78563035D01*
X64456546Y-78590222D01*
X64055995Y-78756136D01*
X63981861Y-79002255D01*
X52805000Y-79002255D01*
X52805000Y-65966591D01*
X57609044Y-65966591D01*
X57621359Y-66915323D01*
X57960729Y-67734636D01*
X58305472Y-67924923D01*
X59820395Y-66410000D01*
X58305472Y-64895077D01*
X57960729Y-65085364D01*
X57609044Y-65966591D01*
X52805000Y-65966591D01*
X52805000Y-64715472D01*
X58485077Y-64715472D01*
X60000000Y-66230395D01*
X61514923Y-64715472D01*
X70525077Y-64715472D01*
X72040000Y-66230395D01*
X73554923Y-64715472D01*
X73364636Y-64370729D01*
X72483409Y-64019044D01*
X71534677Y-64031359D01*
X70715364Y-64370729D01*
X70525077Y-64715472D01*
X61514923Y-64715472D01*
X61324636Y-64370729D01*
X60443409Y-64019044D01*
X59494677Y-64031359D01*
X58675364Y-64370729D01*
X58485077Y-64715472D01*
X52805000Y-64715472D01*
X52805000Y-62965000D01*
X122455000Y-62965000D01*
X122455001Y-156137608D01*
G36*
X117039375Y-134420625D02*
X117057619Y-134432816D01*
X117012235Y-134441843D01*
X116802191Y-134582191D01*
X116661843Y-134792235D01*
X116612560Y-135040000D01*
X116612560Y-135130000D01*
X115578178Y-135130000D01*
X115370625Y-134819375D01*
X114879418Y-134491161D01*
X114446256Y-134405000D01*
X114153744Y-134405000D01*
X113720582Y-134491161D01*
X113229375Y-134819375D01*
X112901161Y-135310582D01*
X112785908Y-135890000D01*
X112858791Y-136256408D01*
X112545528Y-136569671D01*
X112482072Y-136612071D01*
X112439672Y-136675527D01*
X112439671Y-136675528D01*
X112314097Y-136863463D01*
X112255112Y-137160000D01*
X112270001Y-137234852D01*
X112270000Y-141925197D01*
X111952595Y-142242602D01*
X111953113Y-142240000D01*
X111841740Y-141680091D01*
X111524577Y-141205423D01*
X111049909Y-140888260D01*
X110631333Y-140805000D01*
X110348667Y-140805000D01*
X109930091Y-140888260D01*
X109455423Y-141205423D01*
X109271957Y-141480000D01*
X108026669Y-141480000D01*
X107981310Y-141370493D01*
X107549507Y-140938690D01*
X106985330Y-140705000D01*
X106374670Y-140705000D01*
X105810493Y-140938690D01*
X105634139Y-141115044D01*
X105578327Y-140980301D01*
X105399698Y-140801673D01*
X105166309Y-140705000D01*
X104425750Y-140705000D01*
X104267000Y-140863750D01*
X104267000Y-142113000D01*
X104287000Y-142113000D01*
X104287000Y-142367000D01*
X104267000Y-142367000D01*
X104267000Y-143616250D01*
X104425750Y-143775000D01*
X105166309Y-143775000D01*
X105399698Y-143678327D01*
X105578327Y-143499699D01*
X105634139Y-143364956D01*
X105810493Y-143541310D01*
X106374670Y-143775000D01*
X106985330Y-143775000D01*
X107549507Y-143541310D01*
X107981310Y-143109507D01*
X108026669Y-143000000D01*
X109271957Y-143000000D01*
X109455423Y-143274577D01*
X109930091Y-143591740D01*
X110348667Y-143675000D01*
X110520199Y-143675000D01*
X110175199Y-144020000D01*
X81597631Y-144020000D01*
X80772000Y-143194370D01*
X80772000Y-141285630D01*
X81087010Y-140970620D01*
X81198260Y-141529909D01*
X81515423Y-142004577D01*
X81990091Y-142321740D01*
X82408667Y-142405000D01*
X82691333Y-142405000D01*
X82871527Y-142369157D01*
X83228117Y-142725748D01*
X83270629Y-142789371D01*
X83334251Y-142831882D01*
X83522681Y-142957787D01*
X83522682Y-142957787D01*
X83522683Y-142957788D01*
X83744952Y-143002000D01*
X83744956Y-143002000D01*
X83819999Y-143016927D01*
X83895042Y-143002000D01*
X100406355Y-143002000D01*
X100481398Y-143016927D01*
X100556441Y-143002000D01*
X100556446Y-143002000D01*
X100778715Y-142957788D01*
X101030769Y-142789371D01*
X101073281Y-142725747D01*
X101273278Y-142525750D01*
X102605000Y-142525750D01*
X102605000Y-143266310D01*
X102701673Y-143499699D01*
X102880302Y-143678327D01*
X103113691Y-143775000D01*
X103854250Y-143775000D01*
X104013000Y-143616250D01*
X104013000Y-142367000D01*
X102763750Y-142367000D01*
X102605000Y-142525750D01*
X101273278Y-142525750D01*
X102618903Y-141180125D01*
X102605000Y-141213690D01*
X102605000Y-141954250D01*
X102763750Y-142113000D01*
X104013000Y-142113000D01*
X104013000Y-140863750D01*
X103854250Y-140705000D01*
X103113691Y-140705000D01*
X103080125Y-140718904D01*
X109687029Y-134112000D01*
X116833158Y-134112000D01*
X117039375Y-134420625D01*
X117039375Y-134420625D01*
G37*
X117039375Y-134420625D02*
X117057619Y-134432816D01*
X117012235Y-134441843D01*
X116802191Y-134582191D01*
X116661843Y-134792235D01*
X116612560Y-135040000D01*
X116612560Y-135130000D01*
X115578178Y-135130000D01*
X115370625Y-134819375D01*
X114879418Y-134491161D01*
X114446256Y-134405000D01*
X114153744Y-134405000D01*
X113720582Y-134491161D01*
X113229375Y-134819375D01*
X112901161Y-135310582D01*
X112785908Y-135890000D01*
X112858791Y-136256408D01*
X112545528Y-136569671D01*
X112482072Y-136612071D01*
X112439672Y-136675527D01*
X112439671Y-136675528D01*
X112314097Y-136863463D01*
X112255112Y-137160000D01*
X112270001Y-137234852D01*
X112270000Y-141925197D01*
X111952595Y-142242602D01*
X111953113Y-142240000D01*
X111841740Y-141680091D01*
X111524577Y-141205423D01*
X111049909Y-140888260D01*
X110631333Y-140805000D01*
X110348667Y-140805000D01*
X109930091Y-140888260D01*
X109455423Y-141205423D01*
X109271957Y-141480000D01*
X108026669Y-141480000D01*
X107981310Y-141370493D01*
X107549507Y-140938690D01*
X106985330Y-140705000D01*
X106374670Y-140705000D01*
X105810493Y-140938690D01*
X105634139Y-141115044D01*
X105578327Y-140980301D01*
X105399698Y-140801673D01*
X105166309Y-140705000D01*
X104425750Y-140705000D01*
X104267000Y-140863750D01*
X104267000Y-142113000D01*
X104287000Y-142113000D01*
X104287000Y-142367000D01*
X104267000Y-142367000D01*
X104267000Y-143616250D01*
X104425750Y-143775000D01*
X105166309Y-143775000D01*
X105399698Y-143678327D01*
X105578327Y-143499699D01*
X105634139Y-143364956D01*
X105810493Y-143541310D01*
X106374670Y-143775000D01*
X106985330Y-143775000D01*
X107549507Y-143541310D01*
X107981310Y-143109507D01*
X108026669Y-143000000D01*
X109271957Y-143000000D01*
X109455423Y-143274577D01*
X109930091Y-143591740D01*
X110348667Y-143675000D01*
X110520199Y-143675000D01*
X110175199Y-144020000D01*
X81597631Y-144020000D01*
X80772000Y-143194370D01*
X80772000Y-141285630D01*
X81087010Y-140970620D01*
X81198260Y-141529909D01*
X81515423Y-142004577D01*
X81990091Y-142321740D01*
X82408667Y-142405000D01*
X82691333Y-142405000D01*
X82871527Y-142369157D01*
X83228117Y-142725748D01*
X83270629Y-142789371D01*
X83334251Y-142831882D01*
X83522681Y-142957787D01*
X83522682Y-142957787D01*
X83522683Y-142957788D01*
X83744952Y-143002000D01*
X83744956Y-143002000D01*
X83819999Y-143016927D01*
X83895042Y-143002000D01*
X100406355Y-143002000D01*
X100481398Y-143016927D01*
X100556441Y-143002000D01*
X100556446Y-143002000D01*
X100778715Y-142957788D01*
X101030769Y-142789371D01*
X101073281Y-142725747D01*
X101273278Y-142525750D01*
X102605000Y-142525750D01*
X102605000Y-143266310D01*
X102701673Y-143499699D01*
X102880302Y-143678327D01*
X103113691Y-143775000D01*
X103854250Y-143775000D01*
X104013000Y-143616250D01*
X104013000Y-142367000D01*
X102763750Y-142367000D01*
X102605000Y-142525750D01*
X101273278Y-142525750D01*
X102618903Y-141180125D01*
X102605000Y-141213690D01*
X102605000Y-141954250D01*
X102763750Y-142113000D01*
X104013000Y-142113000D01*
X104013000Y-140863750D01*
X103854250Y-140705000D01*
X103113691Y-140705000D01*
X103080125Y-140718904D01*
X109687029Y-134112000D01*
X116833158Y-134112000D01*
X117039375Y-134420625D01*
G36*
X72888035Y-135673223D02*
X72915222Y-136243454D01*
X73081136Y-136644005D01*
X73327255Y-136718139D01*
X74155395Y-135890000D01*
X74141252Y-135875858D01*
X74320858Y-135696253D01*
X74335000Y-135710395D01*
X74349143Y-135696253D01*
X74528748Y-135875858D01*
X74514605Y-135890000D01*
X75342745Y-136718139D01*
X75390307Y-136703813D01*
X75436843Y-136937765D01*
X75577191Y-137147809D01*
X75787235Y-137288157D01*
X76035000Y-137337440D01*
X77635000Y-137337440D01*
X77882765Y-137288157D01*
X78092809Y-137147809D01*
X78233157Y-136937765D01*
X78282440Y-136690000D01*
X78282440Y-136652000D01*
X79440369Y-136652000D01*
X78424370Y-137668000D01*
X59696842Y-137668000D01*
X59490625Y-137359375D01*
X59192239Y-137160000D01*
X59490625Y-136960625D01*
X59532640Y-136897745D01*
X73506861Y-136897745D01*
X73580995Y-137143864D01*
X74118223Y-137336965D01*
X74688454Y-137309778D01*
X75089005Y-137143864D01*
X75163139Y-136897745D01*
X74335000Y-136069605D01*
X73506861Y-136897745D01*
X59532640Y-136897745D01*
X59818839Y-136469418D01*
X59934092Y-135890000D01*
X59861679Y-135525952D01*
X60005631Y-135382000D01*
X72992712Y-135382000D01*
X72888035Y-135673223D01*
X72888035Y-135673223D01*
G37*
X72888035Y-135673223D02*
X72915222Y-136243454D01*
X73081136Y-136644005D01*
X73327255Y-136718139D01*
X74155395Y-135890000D01*
X74141252Y-135875858D01*
X74320858Y-135696253D01*
X74335000Y-135710395D01*
X74349143Y-135696253D01*
X74528748Y-135875858D01*
X74514605Y-135890000D01*
X75342745Y-136718139D01*
X75390307Y-136703813D01*
X75436843Y-136937765D01*
X75577191Y-137147809D01*
X75787235Y-137288157D01*
X76035000Y-137337440D01*
X77635000Y-137337440D01*
X77882765Y-137288157D01*
X78092809Y-137147809D01*
X78233157Y-136937765D01*
X78282440Y-136690000D01*
X78282440Y-136652000D01*
X79440369Y-136652000D01*
X78424370Y-137668000D01*
X59696842Y-137668000D01*
X59490625Y-137359375D01*
X59192239Y-137160000D01*
X59490625Y-136960625D01*
X59532640Y-136897745D01*
X73506861Y-136897745D01*
X73580995Y-137143864D01*
X74118223Y-137336965D01*
X74688454Y-137309778D01*
X75089005Y-137143864D01*
X75163139Y-136897745D01*
X74335000Y-136069605D01*
X73506861Y-136897745D01*
X59532640Y-136897745D01*
X59818839Y-136469418D01*
X59934092Y-135890000D01*
X59861679Y-135525952D01*
X60005631Y-135382000D01*
X72992712Y-135382000D01*
X72888035Y-135673223D01*
G36*
X64963748Y-69105858D02*
X64949605Y-69120000D01*
X64963748Y-69134143D01*
X64784143Y-69313748D01*
X64770000Y-69299605D01*
X64755858Y-69313748D01*
X64576253Y-69134143D01*
X64590395Y-69120000D01*
X64576253Y-69105858D01*
X64755858Y-68926253D01*
X64770000Y-68940395D01*
X64784143Y-68926253D01*
X64963748Y-69105858D01*
X64963748Y-69105858D01*
G37*
X64963748Y-69105858D02*
X64949605Y-69120000D01*
X64963748Y-69134143D01*
X64784143Y-69313748D01*
X64770000Y-69299605D01*
X64755858Y-69313748D01*
X64576253Y-69134143D01*
X64590395Y-69120000D01*
X64576253Y-69105858D01*
X64755858Y-68926253D01*
X64770000Y-68940395D01*
X64784143Y-68926253D01*
X64963748Y-69105858D01*
G04 #@! TD*
M02*
