M48
;DRILL file {KiCad (5.0.0)} date 11/28/18 10:02:59
;FORMAT={3:3/ absolute / metric / keep zeros}
FMAT,2
METRIC,TZ
T1C0.400
T2C0.750
T3C0.800
T4C0.900
T5C0.920
T6C1.000
T7C1.020
T8C1.100
T9C1.500
T10C2.330
%
G90
G05
M71
T1
X068580Y-110490
X074930Y-121920
X080010Y-149860
X092710Y-125730
T2
X080010Y-073660
X081280Y-073660
X082550Y-073660
T3
X082550Y-092710
X082550Y-095250
X082550Y-097790
X082550Y-100330
X082550Y-102870
X082550Y-105410
X082550Y-107950
X082550Y-110490
X082550Y-113030
X082550Y-115570
X082550Y-118110
X082550Y-120650
X082550Y-123190
X082550Y-125730
X082550Y-128270
X082550Y-130810
X082550Y-133350
X082550Y-135890
X082550Y-138430
X082550Y-140970
X097790Y-092710
X097790Y-095250
X097790Y-097790
X097790Y-100330
X097790Y-102870
X097790Y-105410
X097790Y-107950
X097790Y-110490
X097790Y-113030
X097790Y-115570
X097790Y-118110
X097790Y-120650
X097790Y-123190
X097790Y-125730
X097790Y-128270
X097790Y-130810
X097790Y-133350
X097790Y-135890
X097790Y-138430
X097790Y-140970
X101600Y-067310
X104100Y-067310
X110490Y-140970
X118110Y-140970
X064810Y-080010
X067310Y-080010
X085090Y-086360
X092710Y-086360
X086360Y-073660
X093980Y-073660
X097790Y-077470
X105410Y-077470
X074930Y-081280
X082550Y-081280
X097830Y-147320
X100330Y-147320
X078740Y-147320
X081240Y-147320
X086360Y-077470
X093980Y-077470
X074930Y-135890
X077430Y-135890
X097790Y-073660
X105410Y-073660
X086360Y-081280
X093980Y-081280
X097790Y-081280
X105410Y-081280
T4
X092710Y-067310
X095250Y-067310
X104140Y-140970
X106680Y-140970
T5
X064770Y-069120
X064770Y-071120
X067270Y-069120
X067270Y-071120
T6
X066040Y-147320
X068580Y-147320
X071120Y-147320
X058420Y-128270
X058420Y-130810
X058420Y-133350
X058420Y-135890
X058420Y-138430
X058420Y-140970
X058420Y-143510
X110490Y-147320
X113030Y-147320
X115570Y-147320
X088900Y-153670
X091440Y-153670
X093980Y-153670
X096520Y-153670
X099060Y-153670
X101600Y-153670
X077470Y-153670
X080010Y-153670
X082550Y-153670
X058420Y-095250
X058420Y-097790
X058420Y-100330
X058420Y-102870
X058420Y-105410
X058420Y-107950
X058420Y-110490
X118110Y-092710
X118110Y-095250
X118110Y-097790
X118110Y-100330
X118110Y-102870
X118110Y-105410
X118110Y-107950
X118110Y-110490
X118110Y-118110
X118110Y-120650
X118110Y-123190
X118110Y-125730
X118110Y-128270
X118110Y-130810
X118110Y-133350
X118110Y-135890
X058420Y-116840
X058420Y-119380
X058420Y-121920
T8
X081280Y-067310
X083820Y-067310
X086360Y-067310
X111760Y-078740
X111760Y-083240
X118260Y-078740
X118260Y-083240
T9
X087810Y-147320
X092710Y-147320
T10
X060000Y-066410
X072040Y-066410
T7
X110490Y-067820G85X110490Y-069340
G05
X116330Y-066290G85X114810Y-066290
G05
X116330Y-072390G85X114810Y-072390
G05
T0
M30
