G04 #@! TF.GenerationSoftware,KiCad,Pcbnew,(5.0.0)*
G04 #@! TF.CreationDate,2019-04-13T21:59:49-05:00*
G04 #@! TF.ProjectId,Placa_PIC18F4550,506C6163615F50494331384634353530,rev?*
G04 #@! TF.SameCoordinates,Original*
G04 #@! TF.FileFunction,Legend,Top*
G04 #@! TF.FilePolarity,Positive*
%FSLAX46Y46*%
G04 Gerber Fmt 4.6, Leading zero omitted, Abs format (unit mm)*
G04 Created by KiCad (PCBNEW (5.0.0)) date 04/13/19 21:59:49*
%MOMM*%
%LPD*%
G01*
G04 APERTURE LIST*
%ADD10C,0.300000*%
%ADD11C,0.120000*%
%ADD12C,0.010000*%
%ADD13C,0.150000*%
G04 APERTURE END LIST*
D10*
X79061428Y-92215714D02*
X79061428Y-93287142D01*
X79704285Y-92644285D02*
X77775714Y-92215714D01*
X78418571Y-93144285D02*
X78418571Y-92072857D01*
X77775714Y-92715714D02*
X79704285Y-93144285D01*
X78061428Y-93787142D02*
X79561428Y-93787142D01*
X79561428Y-94358571D01*
X79490000Y-94501428D01*
X79418571Y-94572857D01*
X79275714Y-94644285D01*
X79061428Y-94644285D01*
X78918571Y-94572857D01*
X78847142Y-94501428D01*
X78775714Y-94358571D01*
X78775714Y-93787142D01*
X78061428Y-95287142D02*
X79061428Y-95287142D01*
X78775714Y-95287142D02*
X78918571Y-95358571D01*
X78990000Y-95430000D01*
X79061428Y-95572857D01*
X79061428Y-95715714D01*
X78061428Y-96430000D02*
X78132857Y-96287142D01*
X78204285Y-96215714D01*
X78347142Y-96144285D01*
X78775714Y-96144285D01*
X78918571Y-96215714D01*
X78990000Y-96287142D01*
X79061428Y-96430000D01*
X79061428Y-96644285D01*
X78990000Y-96787142D01*
X78918571Y-96858571D01*
X78775714Y-96930000D01*
X78347142Y-96930000D01*
X78204285Y-96858571D01*
X78132857Y-96787142D01*
X78061428Y-96644285D01*
X78061428Y-96430000D01*
X79061428Y-98215714D02*
X77847142Y-98215714D01*
X77704285Y-98144285D01*
X77632857Y-98072857D01*
X77561428Y-97930000D01*
X77561428Y-97715714D01*
X77632857Y-97572857D01*
X78132857Y-98215714D02*
X78061428Y-98072857D01*
X78061428Y-97787142D01*
X78132857Y-97644285D01*
X78204285Y-97572857D01*
X78347142Y-97501428D01*
X78775714Y-97501428D01*
X78918571Y-97572857D01*
X78990000Y-97644285D01*
X79061428Y-97787142D01*
X79061428Y-98072857D01*
X78990000Y-98215714D01*
X78061428Y-98930000D02*
X79061428Y-98930000D01*
X78775714Y-98930000D02*
X78918571Y-99001428D01*
X78990000Y-99072857D01*
X79061428Y-99215714D01*
X79061428Y-99358571D01*
X78061428Y-100501428D02*
X78847142Y-100501428D01*
X78990000Y-100430000D01*
X79061428Y-100287142D01*
X79061428Y-100001428D01*
X78990000Y-99858571D01*
X78132857Y-100501428D02*
X78061428Y-100358571D01*
X78061428Y-100001428D01*
X78132857Y-99858571D01*
X78275714Y-99787142D01*
X78418571Y-99787142D01*
X78561428Y-99858571D01*
X78632857Y-100001428D01*
X78632857Y-100358571D01*
X78704285Y-100501428D01*
X78061428Y-101215714D02*
X79061428Y-101215714D01*
X78918571Y-101215714D02*
X78990000Y-101287142D01*
X79061428Y-101430000D01*
X79061428Y-101644285D01*
X78990000Y-101787142D01*
X78847142Y-101858571D01*
X78061428Y-101858571D01*
X78847142Y-101858571D02*
X78990000Y-101930000D01*
X79061428Y-102072857D01*
X79061428Y-102287142D01*
X78990000Y-102430000D01*
X78847142Y-102501428D01*
X78061428Y-102501428D01*
X78061428Y-103858571D02*
X78847142Y-103858571D01*
X78990000Y-103787142D01*
X79061428Y-103644285D01*
X79061428Y-103358571D01*
X78990000Y-103215714D01*
X78132857Y-103858571D02*
X78061428Y-103715714D01*
X78061428Y-103358571D01*
X78132857Y-103215714D01*
X78275714Y-103144285D01*
X78418571Y-103144285D01*
X78561428Y-103215714D01*
X78632857Y-103358571D01*
X78632857Y-103715714D01*
X78704285Y-103858571D01*
X79061428Y-104572857D02*
X78061428Y-104572857D01*
X78918571Y-104572857D02*
X78990000Y-104644285D01*
X79061428Y-104787142D01*
X79061428Y-105001428D01*
X78990000Y-105144285D01*
X78847142Y-105215714D01*
X78061428Y-105215714D01*
X78061428Y-106572857D02*
X79561428Y-106572857D01*
X78132857Y-106572857D02*
X78061428Y-106430000D01*
X78061428Y-106144285D01*
X78132857Y-106001428D01*
X78204285Y-105930000D01*
X78347142Y-105858571D01*
X78775714Y-105858571D01*
X78918571Y-105930000D01*
X78990000Y-106001428D01*
X79061428Y-106144285D01*
X79061428Y-106430000D01*
X78990000Y-106572857D01*
X78061428Y-107501428D02*
X78132857Y-107358571D01*
X78204285Y-107287142D01*
X78347142Y-107215714D01*
X78775714Y-107215714D01*
X78918571Y-107287142D01*
X78990000Y-107358571D01*
X79061428Y-107501428D01*
X79061428Y-107715714D01*
X78990000Y-107858571D01*
X78918571Y-107930000D01*
X78775714Y-108001428D01*
X78347142Y-108001428D01*
X78204285Y-107930000D01*
X78132857Y-107858571D01*
X78061428Y-107715714D01*
X78061428Y-107501428D01*
X78204285Y-109501428D02*
X78132857Y-109430000D01*
X78061428Y-109215714D01*
X78061428Y-109072857D01*
X78132857Y-108858571D01*
X78275714Y-108715714D01*
X78418571Y-108644285D01*
X78704285Y-108572857D01*
X78918571Y-108572857D01*
X79204285Y-108644285D01*
X79347142Y-108715714D01*
X79490000Y-108858571D01*
X79561428Y-109072857D01*
X79561428Y-109215714D01*
X79490000Y-109430000D01*
X79418571Y-109501428D01*
X78061428Y-110358571D02*
X78132857Y-110215714D01*
X78204285Y-110144285D01*
X78347142Y-110072857D01*
X78775714Y-110072857D01*
X78918571Y-110144285D01*
X78990000Y-110215714D01*
X79061428Y-110358571D01*
X79061428Y-110572857D01*
X78990000Y-110715714D01*
X78918571Y-110787142D01*
X78775714Y-110858571D01*
X78347142Y-110858571D01*
X78204285Y-110787142D01*
X78132857Y-110715714D01*
X78061428Y-110572857D01*
X78061428Y-110358571D01*
X79061428Y-111501428D02*
X78061428Y-111501428D01*
X78918571Y-111501428D02*
X78990000Y-111572857D01*
X79061428Y-111715714D01*
X79061428Y-111930000D01*
X78990000Y-112072857D01*
X78847142Y-112144285D01*
X78061428Y-112144285D01*
X79561428Y-112715714D02*
X79561428Y-113644285D01*
X78990000Y-113144285D01*
X78990000Y-113358571D01*
X78918571Y-113501428D01*
X78847142Y-113572857D01*
X78704285Y-113644285D01*
X78347142Y-113644285D01*
X78204285Y-113572857D01*
X78132857Y-113501428D01*
X78061428Y-113358571D01*
X78061428Y-112930000D01*
X78132857Y-112787142D01*
X78204285Y-112715714D01*
X78061428Y-114358571D02*
X78061428Y-114644285D01*
X78132857Y-114787142D01*
X78204285Y-114858571D01*
X78418571Y-115001428D01*
X78704285Y-115072857D01*
X79275714Y-115072857D01*
X79418571Y-115001428D01*
X79490000Y-114930000D01*
X79561428Y-114787142D01*
X79561428Y-114501428D01*
X79490000Y-114358571D01*
X79418571Y-114287142D01*
X79275714Y-114215714D01*
X78918571Y-114215714D01*
X78775714Y-114287142D01*
X78704285Y-114358571D01*
X78632857Y-114501428D01*
X78632857Y-114787142D01*
X78704285Y-114930000D01*
X78775714Y-115001428D01*
X78918571Y-115072857D01*
X78061428Y-115715714D02*
X79561428Y-115715714D01*
X79561428Y-116287142D01*
X79490000Y-116430000D01*
X79418571Y-116501428D01*
X79275714Y-116572857D01*
X79061428Y-116572857D01*
X78918571Y-116501428D01*
X78847142Y-116430000D01*
X78775714Y-116287142D01*
X78775714Y-115715714D01*
X78061428Y-117215714D02*
X79061428Y-117215714D01*
X79561428Y-117215714D02*
X79490000Y-117144285D01*
X79418571Y-117215714D01*
X79490000Y-117287142D01*
X79561428Y-117215714D01*
X79418571Y-117215714D01*
X79061428Y-117930000D02*
X78061428Y-117930000D01*
X78918571Y-117930000D02*
X78990000Y-118001428D01*
X79061428Y-118144285D01*
X79061428Y-118358571D01*
X78990000Y-118501428D01*
X78847142Y-118572857D01*
X78061428Y-118572857D01*
X78132857Y-119858571D02*
X78061428Y-119715714D01*
X78061428Y-119430000D01*
X78132857Y-119287142D01*
X78275714Y-119215714D01*
X78847142Y-119215714D01*
X78990000Y-119287142D01*
X79061428Y-119430000D01*
X79061428Y-119715714D01*
X78990000Y-119858571D01*
X78847142Y-119930000D01*
X78704285Y-119930000D01*
X78561428Y-119215714D01*
X78132857Y-120501428D02*
X78061428Y-120644285D01*
X78061428Y-120930000D01*
X78132857Y-121072857D01*
X78275714Y-121144285D01*
X78347142Y-121144285D01*
X78490000Y-121072857D01*
X78561428Y-120930000D01*
X78561428Y-120715714D01*
X78632857Y-120572857D01*
X78775714Y-120501428D01*
X78847142Y-120501428D01*
X78990000Y-120572857D01*
X79061428Y-120715714D01*
X79061428Y-120930000D01*
X78990000Y-121072857D01*
X115931428Y-154348571D02*
X115931428Y-152848571D01*
X116502857Y-152848571D01*
X116645714Y-152920000D01*
X116717142Y-152991428D01*
X116788571Y-153134285D01*
X116788571Y-153348571D01*
X116717142Y-153491428D01*
X116645714Y-153562857D01*
X116502857Y-153634285D01*
X115931428Y-153634285D01*
X118002857Y-154277142D02*
X117860000Y-154348571D01*
X117574285Y-154348571D01*
X117431428Y-154277142D01*
X117360000Y-154134285D01*
X117360000Y-153562857D01*
X117431428Y-153420000D01*
X117574285Y-153348571D01*
X117860000Y-153348571D01*
X118002857Y-153420000D01*
X118074285Y-153562857D01*
X118074285Y-153705714D01*
X117360000Y-153848571D01*
X118717142Y-154348571D02*
X118717142Y-153348571D01*
X118717142Y-153634285D02*
X118788571Y-153491428D01*
X118860000Y-153420000D01*
X119002857Y-153348571D01*
X119145714Y-153348571D01*
X120288571Y-153348571D02*
X120288571Y-154348571D01*
X119645714Y-153348571D02*
X119645714Y-154134285D01*
X119717142Y-154277142D01*
X119860000Y-154348571D01*
X120074285Y-154348571D01*
X120217142Y-154277142D01*
X120288571Y-154205714D01*
X54781428Y-152991428D02*
X54852857Y-152920000D01*
X54995714Y-152848571D01*
X55352857Y-152848571D01*
X55495714Y-152920000D01*
X55567142Y-152991428D01*
X55638571Y-153134285D01*
X55638571Y-153277142D01*
X55567142Y-153491428D01*
X54710000Y-154348571D01*
X55638571Y-154348571D01*
X56924285Y-152848571D02*
X56638571Y-152848571D01*
X56495714Y-152920000D01*
X56424285Y-152991428D01*
X56281428Y-153205714D01*
X56210000Y-153491428D01*
X56210000Y-154062857D01*
X56281428Y-154205714D01*
X56352857Y-154277142D01*
X56495714Y-154348571D01*
X56781428Y-154348571D01*
X56924285Y-154277142D01*
X56995714Y-154205714D01*
X57067142Y-154062857D01*
X57067142Y-153705714D01*
X56995714Y-153562857D01*
X56924285Y-153491428D01*
X56781428Y-153420000D01*
X56495714Y-153420000D01*
X56352857Y-153491428D01*
X56281428Y-153562857D01*
X56210000Y-153705714D01*
X58781428Y-152777142D02*
X57495714Y-154705714D01*
X59281428Y-154348571D02*
X59281428Y-152848571D01*
X60138571Y-154348571D01*
X60138571Y-152848571D01*
X61067142Y-154348571D02*
X60924285Y-154277142D01*
X60852857Y-154205714D01*
X60781428Y-154062857D01*
X60781428Y-153634285D01*
X60852857Y-153491428D01*
X60924285Y-153420000D01*
X61067142Y-153348571D01*
X61281428Y-153348571D01*
X61424285Y-153420000D01*
X61495714Y-153491428D01*
X61567142Y-153634285D01*
X61567142Y-154062857D01*
X61495714Y-154205714D01*
X61424285Y-154277142D01*
X61281428Y-154348571D01*
X61067142Y-154348571D01*
X62067142Y-153348571D02*
X62424285Y-154348571D01*
X62781428Y-153348571D01*
X64424285Y-152777142D02*
X63138571Y-154705714D01*
X65710000Y-154348571D02*
X64852857Y-154348571D01*
X65281428Y-154348571D02*
X65281428Y-152848571D01*
X65138571Y-153062857D01*
X64995714Y-153205714D01*
X64852857Y-153277142D01*
X66567142Y-153491428D02*
X66424285Y-153420000D01*
X66352857Y-153348571D01*
X66281428Y-153205714D01*
X66281428Y-153134285D01*
X66352857Y-152991428D01*
X66424285Y-152920000D01*
X66567142Y-152848571D01*
X66852857Y-152848571D01*
X66995714Y-152920000D01*
X67067142Y-152991428D01*
X67138571Y-153134285D01*
X67138571Y-153205714D01*
X67067142Y-153348571D01*
X66995714Y-153420000D01*
X66852857Y-153491428D01*
X66567142Y-153491428D01*
X66424285Y-153562857D01*
X66352857Y-153634285D01*
X66281428Y-153777142D01*
X66281428Y-154062857D01*
X66352857Y-154205714D01*
X66424285Y-154277142D01*
X66567142Y-154348571D01*
X66852857Y-154348571D01*
X66995714Y-154277142D01*
X67067142Y-154205714D01*
X67138571Y-154062857D01*
X67138571Y-153777142D01*
X67067142Y-153634285D01*
X66995714Y-153562857D01*
X66852857Y-153491428D01*
X103072857Y-89568571D02*
X103072857Y-88068571D01*
X103644285Y-88068571D01*
X103787142Y-88140000D01*
X103858571Y-88211428D01*
X103930000Y-88354285D01*
X103930000Y-88568571D01*
X103858571Y-88711428D01*
X103787142Y-88782857D01*
X103644285Y-88854285D01*
X103072857Y-88854285D01*
X105287142Y-89568571D02*
X104572857Y-89568571D01*
X104572857Y-88068571D01*
X105715714Y-89140000D02*
X106430000Y-89140000D01*
X105572857Y-89568571D02*
X106072857Y-88068571D01*
X106572857Y-89568571D01*
X107930000Y-89425714D02*
X107858571Y-89497142D01*
X107644285Y-89568571D01*
X107501428Y-89568571D01*
X107287142Y-89497142D01*
X107144285Y-89354285D01*
X107072857Y-89211428D01*
X107001428Y-88925714D01*
X107001428Y-88711428D01*
X107072857Y-88425714D01*
X107144285Y-88282857D01*
X107287142Y-88140000D01*
X107501428Y-88068571D01*
X107644285Y-88068571D01*
X107858571Y-88140000D01*
X107930000Y-88211428D01*
X108501428Y-89140000D02*
X109215714Y-89140000D01*
X108358571Y-89568571D02*
X108858571Y-88068571D01*
X109358571Y-89568571D01*
X100251428Y-92118571D02*
X100251428Y-90618571D01*
X100822857Y-90618571D01*
X100965714Y-90690000D01*
X101037142Y-90761428D01*
X101108571Y-90904285D01*
X101108571Y-91118571D01*
X101037142Y-91261428D01*
X100965714Y-91332857D01*
X100822857Y-91404285D01*
X100251428Y-91404285D01*
X101751428Y-92118571D02*
X101751428Y-90618571D01*
X103322857Y-91975714D02*
X103251428Y-92047142D01*
X103037142Y-92118571D01*
X102894285Y-92118571D01*
X102680000Y-92047142D01*
X102537142Y-91904285D01*
X102465714Y-91761428D01*
X102394285Y-91475714D01*
X102394285Y-91261428D01*
X102465714Y-90975714D01*
X102537142Y-90832857D01*
X102680000Y-90690000D01*
X102894285Y-90618571D01*
X103037142Y-90618571D01*
X103251428Y-90690000D01*
X103322857Y-90761428D01*
X104751428Y-92118571D02*
X103894285Y-92118571D01*
X104322857Y-92118571D02*
X104322857Y-90618571D01*
X104180000Y-90832857D01*
X104037142Y-90975714D01*
X103894285Y-91047142D01*
X105608571Y-91261428D02*
X105465714Y-91190000D01*
X105394285Y-91118571D01*
X105322857Y-90975714D01*
X105322857Y-90904285D01*
X105394285Y-90761428D01*
X105465714Y-90690000D01*
X105608571Y-90618571D01*
X105894285Y-90618571D01*
X106037142Y-90690000D01*
X106108571Y-90761428D01*
X106180000Y-90904285D01*
X106180000Y-90975714D01*
X106108571Y-91118571D01*
X106037142Y-91190000D01*
X105894285Y-91261428D01*
X105608571Y-91261428D01*
X105465714Y-91332857D01*
X105394285Y-91404285D01*
X105322857Y-91547142D01*
X105322857Y-91832857D01*
X105394285Y-91975714D01*
X105465714Y-92047142D01*
X105608571Y-92118571D01*
X105894285Y-92118571D01*
X106037142Y-92047142D01*
X106108571Y-91975714D01*
X106180000Y-91832857D01*
X106180000Y-91547142D01*
X106108571Y-91404285D01*
X106037142Y-91332857D01*
X105894285Y-91261428D01*
X107322857Y-91332857D02*
X106822857Y-91332857D01*
X106822857Y-92118571D02*
X106822857Y-90618571D01*
X107537142Y-90618571D01*
X108751428Y-91118571D02*
X108751428Y-92118571D01*
X108394285Y-90547142D02*
X108037142Y-91618571D01*
X108965714Y-91618571D01*
X110251428Y-90618571D02*
X109537142Y-90618571D01*
X109465714Y-91332857D01*
X109537142Y-91261428D01*
X109680000Y-91190000D01*
X110037142Y-91190000D01*
X110180000Y-91261428D01*
X110251428Y-91332857D01*
X110322857Y-91475714D01*
X110322857Y-91832857D01*
X110251428Y-91975714D01*
X110180000Y-92047142D01*
X110037142Y-92118571D01*
X109680000Y-92118571D01*
X109537142Y-92047142D01*
X109465714Y-91975714D01*
X111680000Y-90618571D02*
X110965714Y-90618571D01*
X110894285Y-91332857D01*
X110965714Y-91261428D01*
X111108571Y-91190000D01*
X111465714Y-91190000D01*
X111608571Y-91261428D01*
X111680000Y-91332857D01*
X111751428Y-91475714D01*
X111751428Y-91832857D01*
X111680000Y-91975714D01*
X111608571Y-92047142D01*
X111465714Y-92118571D01*
X111108571Y-92118571D01*
X110965714Y-92047142D01*
X110894285Y-91975714D01*
X112680000Y-90618571D02*
X112822857Y-90618571D01*
X112965714Y-90690000D01*
X113037142Y-90761428D01*
X113108571Y-90904285D01*
X113180000Y-91190000D01*
X113180000Y-91547142D01*
X113108571Y-91832857D01*
X113037142Y-91975714D01*
X112965714Y-92047142D01*
X112822857Y-92118571D01*
X112680000Y-92118571D01*
X112537142Y-92047142D01*
X112465714Y-91975714D01*
X112394285Y-91832857D01*
X112322857Y-91547142D01*
X112322857Y-91190000D01*
X112394285Y-90904285D01*
X112465714Y-90761428D01*
X112537142Y-90690000D01*
X112680000Y-90618571D01*
X103108571Y-93168571D02*
X103608571Y-94668571D01*
X104108571Y-93168571D01*
X106537142Y-94668571D02*
X105680000Y-94668571D01*
X106108571Y-94668571D02*
X106108571Y-93168571D01*
X105965714Y-93382857D01*
X105822857Y-93525714D01*
X105680000Y-93597142D01*
X107180000Y-94525714D02*
X107251428Y-94597142D01*
X107180000Y-94668571D01*
X107108571Y-94597142D01*
X107180000Y-94525714D01*
X107180000Y-94668571D01*
X108180000Y-93168571D02*
X108322857Y-93168571D01*
X108465714Y-93240000D01*
X108537142Y-93311428D01*
X108608571Y-93454285D01*
X108680000Y-93740000D01*
X108680000Y-94097142D01*
X108608571Y-94382857D01*
X108537142Y-94525714D01*
X108465714Y-94597142D01*
X108322857Y-94668571D01*
X108180000Y-94668571D01*
X108037142Y-94597142D01*
X107965714Y-94525714D01*
X107894285Y-94382857D01*
X107822857Y-94097142D01*
X107822857Y-93740000D01*
X107894285Y-93454285D01*
X107965714Y-93311428D01*
X108037142Y-93240000D01*
X108180000Y-93168571D01*
X110108571Y-94668571D02*
X109251428Y-94668571D01*
X109680000Y-94668571D02*
X109680000Y-93168571D01*
X109537142Y-93382857D01*
X109394285Y-93525714D01*
X109251428Y-93597142D01*
X61980000Y-144188571D02*
X61480000Y-143474285D01*
X61122857Y-144188571D02*
X61122857Y-142688571D01*
X61694285Y-142688571D01*
X61837142Y-142760000D01*
X61908571Y-142831428D01*
X61980000Y-142974285D01*
X61980000Y-143188571D01*
X61908571Y-143331428D01*
X61837142Y-143402857D01*
X61694285Y-143474285D01*
X61122857Y-143474285D01*
X62480000Y-142688571D02*
X63480000Y-144188571D01*
X63480000Y-142688571D02*
X62480000Y-144188571D01*
X61087142Y-140148571D02*
X61944285Y-140148571D01*
X61515714Y-141648571D02*
X61515714Y-140148571D01*
X62301428Y-140148571D02*
X63301428Y-141648571D01*
X63301428Y-140148571D02*
X62301428Y-141648571D01*
X96861428Y-63948571D02*
X97147142Y-63948571D01*
X97290000Y-64020000D01*
X97432857Y-64162857D01*
X97504285Y-64448571D01*
X97504285Y-64948571D01*
X97432857Y-65234285D01*
X97290000Y-65377142D01*
X97147142Y-65448571D01*
X96861428Y-65448571D01*
X96718571Y-65377142D01*
X96575714Y-65234285D01*
X96504285Y-64948571D01*
X96504285Y-64448571D01*
X96575714Y-64162857D01*
X96718571Y-64020000D01*
X96861428Y-63948571D01*
X98147142Y-65448571D02*
X98147142Y-63948571D01*
X99004285Y-65448571D01*
X99004285Y-63948571D01*
X113391428Y-87038571D02*
X112891428Y-86324285D01*
X112534285Y-87038571D02*
X112534285Y-85538571D01*
X113105714Y-85538571D01*
X113248571Y-85610000D01*
X113320000Y-85681428D01*
X113391428Y-85824285D01*
X113391428Y-86038571D01*
X113320000Y-86181428D01*
X113248571Y-86252857D01*
X113105714Y-86324285D01*
X112534285Y-86324285D01*
X114034285Y-86252857D02*
X114534285Y-86252857D01*
X114748571Y-87038571D02*
X114034285Y-87038571D01*
X114034285Y-85538571D01*
X114748571Y-85538571D01*
X115320000Y-86967142D02*
X115534285Y-87038571D01*
X115891428Y-87038571D01*
X116034285Y-86967142D01*
X116105714Y-86895714D01*
X116177142Y-86752857D01*
X116177142Y-86610000D01*
X116105714Y-86467142D01*
X116034285Y-86395714D01*
X115891428Y-86324285D01*
X115605714Y-86252857D01*
X115462857Y-86181428D01*
X115391428Y-86110000D01*
X115320000Y-85967142D01*
X115320000Y-85824285D01*
X115391428Y-85681428D01*
X115462857Y-85610000D01*
X115605714Y-85538571D01*
X115962857Y-85538571D01*
X116177142Y-85610000D01*
X116820000Y-86252857D02*
X117320000Y-86252857D01*
X117534285Y-87038571D02*
X116820000Y-87038571D01*
X116820000Y-85538571D01*
X117534285Y-85538571D01*
X117962857Y-85538571D02*
X118820000Y-85538571D01*
X118391428Y-87038571D02*
X118391428Y-85538571D01*
X121328571Y-104850000D02*
X119828571Y-104850000D01*
X119828571Y-104278571D01*
X119900000Y-104135714D01*
X119971428Y-104064285D01*
X120114285Y-103992857D01*
X120328571Y-103992857D01*
X120471428Y-104064285D01*
X120542857Y-104135714D01*
X120614285Y-104278571D01*
X120614285Y-104850000D01*
X119828571Y-103064285D02*
X119828571Y-102778571D01*
X119900000Y-102635714D01*
X120042857Y-102492857D01*
X120328571Y-102421428D01*
X120828571Y-102421428D01*
X121114285Y-102492857D01*
X121257142Y-102635714D01*
X121328571Y-102778571D01*
X121328571Y-103064285D01*
X121257142Y-103207142D01*
X121114285Y-103350000D01*
X120828571Y-103421428D01*
X120328571Y-103421428D01*
X120042857Y-103350000D01*
X119900000Y-103207142D01*
X119828571Y-103064285D01*
X121328571Y-100921428D02*
X120614285Y-101421428D01*
X121328571Y-101778571D02*
X119828571Y-101778571D01*
X119828571Y-101207142D01*
X119900000Y-101064285D01*
X119971428Y-100992857D01*
X120114285Y-100921428D01*
X120328571Y-100921428D01*
X120471428Y-100992857D01*
X120542857Y-101064285D01*
X120614285Y-101207142D01*
X120614285Y-101778571D01*
X119828571Y-100492857D02*
X119828571Y-99635714D01*
X121328571Y-100064285D02*
X119828571Y-100064285D01*
X120542857Y-98635714D02*
X120614285Y-98421428D01*
X120685714Y-98350000D01*
X120828571Y-98278571D01*
X121042857Y-98278571D01*
X121185714Y-98350000D01*
X121257142Y-98421428D01*
X121328571Y-98564285D01*
X121328571Y-99135714D01*
X119828571Y-99135714D01*
X119828571Y-98635714D01*
X119900000Y-98492857D01*
X119971428Y-98421428D01*
X120114285Y-98350000D01*
X120257142Y-98350000D01*
X120400000Y-98421428D01*
X120471428Y-98492857D01*
X120542857Y-98635714D01*
X120542857Y-99135714D01*
X113300000Y-111168571D02*
X112800000Y-110454285D01*
X112442857Y-111168571D02*
X112442857Y-109668571D01*
X113014285Y-109668571D01*
X113157142Y-109740000D01*
X113228571Y-109811428D01*
X113300000Y-109954285D01*
X113300000Y-110168571D01*
X113228571Y-110311428D01*
X113157142Y-110382857D01*
X113014285Y-110454285D01*
X112442857Y-110454285D01*
X114442857Y-110382857D02*
X114657142Y-110454285D01*
X114728571Y-110525714D01*
X114800000Y-110668571D01*
X114800000Y-110882857D01*
X114728571Y-111025714D01*
X114657142Y-111097142D01*
X114514285Y-111168571D01*
X113942857Y-111168571D01*
X113942857Y-109668571D01*
X114442857Y-109668571D01*
X114585714Y-109740000D01*
X114657142Y-109811428D01*
X114728571Y-109954285D01*
X114728571Y-110097142D01*
X114657142Y-110240000D01*
X114585714Y-110311428D01*
X114442857Y-110382857D01*
X113942857Y-110382857D01*
X115728571Y-109668571D02*
X115871428Y-109668571D01*
X116014285Y-109740000D01*
X116085714Y-109811428D01*
X116157142Y-109954285D01*
X116228571Y-110240000D01*
X116228571Y-110597142D01*
X116157142Y-110882857D01*
X116085714Y-111025714D01*
X116014285Y-111097142D01*
X115871428Y-111168571D01*
X115728571Y-111168571D01*
X115585714Y-111097142D01*
X115514285Y-111025714D01*
X115442857Y-110882857D01*
X115371428Y-110597142D01*
X115371428Y-110240000D01*
X115442857Y-109954285D01*
X115514285Y-109811428D01*
X115585714Y-109740000D01*
X115728571Y-109668571D01*
X121328571Y-130250000D02*
X119828571Y-130250000D01*
X119828571Y-129678571D01*
X119900000Y-129535714D01*
X119971428Y-129464285D01*
X120114285Y-129392857D01*
X120328571Y-129392857D01*
X120471428Y-129464285D01*
X120542857Y-129535714D01*
X120614285Y-129678571D01*
X120614285Y-130250000D01*
X119828571Y-128464285D02*
X119828571Y-128178571D01*
X119900000Y-128035714D01*
X120042857Y-127892857D01*
X120328571Y-127821428D01*
X120828571Y-127821428D01*
X121114285Y-127892857D01*
X121257142Y-128035714D01*
X121328571Y-128178571D01*
X121328571Y-128464285D01*
X121257142Y-128607142D01*
X121114285Y-128750000D01*
X120828571Y-128821428D01*
X120328571Y-128821428D01*
X120042857Y-128750000D01*
X119900000Y-128607142D01*
X119828571Y-128464285D01*
X121328571Y-126321428D02*
X120614285Y-126821428D01*
X121328571Y-127178571D02*
X119828571Y-127178571D01*
X119828571Y-126607142D01*
X119900000Y-126464285D01*
X119971428Y-126392857D01*
X120114285Y-126321428D01*
X120328571Y-126321428D01*
X120471428Y-126392857D01*
X120542857Y-126464285D01*
X120614285Y-126607142D01*
X120614285Y-127178571D01*
X119828571Y-125892857D02*
X119828571Y-125035714D01*
X121328571Y-125464285D02*
X119828571Y-125464285D01*
X121328571Y-124535714D02*
X119828571Y-124535714D01*
X119828571Y-124178571D01*
X119900000Y-123964285D01*
X120042857Y-123821428D01*
X120185714Y-123750000D01*
X120471428Y-123678571D01*
X120685714Y-123678571D01*
X120971428Y-123750000D01*
X121114285Y-123821428D01*
X121257142Y-123964285D01*
X121328571Y-124178571D01*
X121328571Y-124535714D01*
X113300000Y-136568571D02*
X112800000Y-135854285D01*
X112442857Y-136568571D02*
X112442857Y-135068571D01*
X113014285Y-135068571D01*
X113157142Y-135140000D01*
X113228571Y-135211428D01*
X113300000Y-135354285D01*
X113300000Y-135568571D01*
X113228571Y-135711428D01*
X113157142Y-135782857D01*
X113014285Y-135854285D01*
X112442857Y-135854285D01*
X113942857Y-136568571D02*
X113942857Y-135068571D01*
X114300000Y-135068571D01*
X114514285Y-135140000D01*
X114657142Y-135282857D01*
X114728571Y-135425714D01*
X114800000Y-135711428D01*
X114800000Y-135925714D01*
X114728571Y-136211428D01*
X114657142Y-136354285D01*
X114514285Y-136497142D01*
X114300000Y-136568571D01*
X113942857Y-136568571D01*
X115728571Y-135068571D02*
X115871428Y-135068571D01*
X116014285Y-135140000D01*
X116085714Y-135211428D01*
X116157142Y-135354285D01*
X116228571Y-135640000D01*
X116228571Y-135997142D01*
X116157142Y-136282857D01*
X116085714Y-136425714D01*
X116014285Y-136497142D01*
X115871428Y-136568571D01*
X115728571Y-136568571D01*
X115585714Y-136497142D01*
X115514285Y-136425714D01*
X115442857Y-136282857D01*
X115371428Y-135997142D01*
X115371428Y-135640000D01*
X115442857Y-135354285D01*
X115514285Y-135211428D01*
X115585714Y-135140000D01*
X115728571Y-135068571D01*
X101885714Y-150308571D02*
X101600000Y-150308571D01*
X101457142Y-150380000D01*
X101385714Y-150451428D01*
X101242857Y-150665714D01*
X101171428Y-150951428D01*
X101171428Y-151522857D01*
X101242857Y-151665714D01*
X101314285Y-151737142D01*
X101457142Y-151808571D01*
X101742857Y-151808571D01*
X101885714Y-151737142D01*
X101957142Y-151665714D01*
X102028571Y-151522857D01*
X102028571Y-151165714D01*
X101957142Y-151022857D01*
X101885714Y-150951428D01*
X101742857Y-150880000D01*
X101457142Y-150880000D01*
X101314285Y-150951428D01*
X101242857Y-151022857D01*
X101171428Y-151165714D01*
X89328571Y-151808571D02*
X88471428Y-151808571D01*
X88900000Y-151808571D02*
X88900000Y-150308571D01*
X88757142Y-150522857D01*
X88614285Y-150665714D01*
X88471428Y-150737142D01*
X92071428Y-151808571D02*
X92071428Y-150308571D01*
X92642857Y-150308571D01*
X92785714Y-150380000D01*
X92857142Y-150451428D01*
X92928571Y-150594285D01*
X92928571Y-150808571D01*
X92857142Y-150951428D01*
X92785714Y-151022857D01*
X92642857Y-151094285D01*
X92071428Y-151094285D01*
X93571428Y-151808571D02*
X93571428Y-150308571D01*
X95142857Y-151665714D02*
X95071428Y-151737142D01*
X94857142Y-151808571D01*
X94714285Y-151808571D01*
X94500000Y-151737142D01*
X94357142Y-151594285D01*
X94285714Y-151451428D01*
X94214285Y-151165714D01*
X94214285Y-150951428D01*
X94285714Y-150665714D01*
X94357142Y-150522857D01*
X94500000Y-150380000D01*
X94714285Y-150308571D01*
X94857142Y-150308571D01*
X95071428Y-150380000D01*
X95142857Y-150451428D01*
X95785714Y-151808571D02*
X95785714Y-150308571D01*
X96642857Y-151808571D02*
X96000000Y-150951428D01*
X96642857Y-150308571D02*
X95785714Y-151165714D01*
X97285714Y-151808571D02*
X97285714Y-150308571D01*
X97785714Y-150308571D02*
X98642857Y-150308571D01*
X98214285Y-151808571D02*
X98214285Y-150308571D01*
X76327142Y-151808571D02*
X76327142Y-150308571D01*
X76898571Y-150308571D01*
X77041428Y-150380000D01*
X77112857Y-150451428D01*
X77184285Y-150594285D01*
X77184285Y-150808571D01*
X77112857Y-150951428D01*
X77041428Y-151022857D01*
X76898571Y-151094285D01*
X76327142Y-151094285D01*
X77827142Y-151808571D02*
X77827142Y-150308571D01*
X78684285Y-151808571D02*
X78041428Y-150951428D01*
X78684285Y-150308571D02*
X77827142Y-151165714D01*
X82121428Y-151022857D02*
X81621428Y-151022857D01*
X81621428Y-151808571D02*
X81621428Y-150308571D01*
X82335714Y-150308571D01*
X82835714Y-151380000D02*
X83550000Y-151380000D01*
X82692857Y-151808571D02*
X83192857Y-150308571D01*
X83692857Y-151808571D01*
X111030000Y-149038571D02*
X111530000Y-150538571D01*
X112030000Y-149038571D01*
X113387142Y-150395714D02*
X113315714Y-150467142D01*
X113101428Y-150538571D01*
X112958571Y-150538571D01*
X112744285Y-150467142D01*
X112601428Y-150324285D01*
X112530000Y-150181428D01*
X112458571Y-149895714D01*
X112458571Y-149681428D01*
X112530000Y-149395714D01*
X112601428Y-149252857D01*
X112744285Y-149110000D01*
X112958571Y-149038571D01*
X113101428Y-149038571D01*
X113315714Y-149110000D01*
X113387142Y-149181428D01*
X114887142Y-150395714D02*
X114815714Y-150467142D01*
X114601428Y-150538571D01*
X114458571Y-150538571D01*
X114244285Y-150467142D01*
X114101428Y-150324285D01*
X114030000Y-150181428D01*
X113958571Y-149895714D01*
X113958571Y-149681428D01*
X114030000Y-149395714D01*
X114101428Y-149252857D01*
X114244285Y-149110000D01*
X114458571Y-149038571D01*
X114601428Y-149038571D01*
X114815714Y-149110000D01*
X114887142Y-149181428D01*
X67437142Y-149110000D02*
X67294285Y-149038571D01*
X67080000Y-149038571D01*
X66865714Y-149110000D01*
X66722857Y-149252857D01*
X66651428Y-149395714D01*
X66580000Y-149681428D01*
X66580000Y-149895714D01*
X66651428Y-150181428D01*
X66722857Y-150324285D01*
X66865714Y-150467142D01*
X67080000Y-150538571D01*
X67222857Y-150538571D01*
X67437142Y-150467142D01*
X67508571Y-150395714D01*
X67508571Y-149895714D01*
X67222857Y-149895714D01*
X68151428Y-150538571D02*
X68151428Y-149038571D01*
X69008571Y-150538571D01*
X69008571Y-149038571D01*
X69722857Y-150538571D02*
X69722857Y-149038571D01*
X70080000Y-149038571D01*
X70294285Y-149110000D01*
X70437142Y-149252857D01*
X70508571Y-149395714D01*
X70580000Y-149681428D01*
X70580000Y-149895714D01*
X70508571Y-150181428D01*
X70437142Y-150324285D01*
X70294285Y-150467142D01*
X70080000Y-150538571D01*
X69722857Y-150538571D01*
X56558571Y-139140000D02*
X55058571Y-139140000D01*
X55058571Y-138568571D01*
X55130000Y-138425714D01*
X55201428Y-138354285D01*
X55344285Y-138282857D01*
X55558571Y-138282857D01*
X55701428Y-138354285D01*
X55772857Y-138425714D01*
X55844285Y-138568571D01*
X55844285Y-139140000D01*
X55058571Y-137354285D02*
X55058571Y-137068571D01*
X55130000Y-136925714D01*
X55272857Y-136782857D01*
X55558571Y-136711428D01*
X56058571Y-136711428D01*
X56344285Y-136782857D01*
X56487142Y-136925714D01*
X56558571Y-137068571D01*
X56558571Y-137354285D01*
X56487142Y-137497142D01*
X56344285Y-137640000D01*
X56058571Y-137711428D01*
X55558571Y-137711428D01*
X55272857Y-137640000D01*
X55130000Y-137497142D01*
X55058571Y-137354285D01*
X56558571Y-135211428D02*
X55844285Y-135711428D01*
X56558571Y-136068571D02*
X55058571Y-136068571D01*
X55058571Y-135497142D01*
X55130000Y-135354285D01*
X55201428Y-135282857D01*
X55344285Y-135211428D01*
X55558571Y-135211428D01*
X55701428Y-135282857D01*
X55772857Y-135354285D01*
X55844285Y-135497142D01*
X55844285Y-136068571D01*
X55058571Y-134782857D02*
X55058571Y-133925714D01*
X56558571Y-134354285D02*
X55058571Y-134354285D01*
X56415714Y-132568571D02*
X56487142Y-132640000D01*
X56558571Y-132854285D01*
X56558571Y-132997142D01*
X56487142Y-133211428D01*
X56344285Y-133354285D01*
X56201428Y-133425714D01*
X55915714Y-133497142D01*
X55701428Y-133497142D01*
X55415714Y-133425714D01*
X55272857Y-133354285D01*
X55130000Y-133211428D01*
X55058571Y-132997142D01*
X55058571Y-132854285D01*
X55130000Y-132640000D01*
X55201428Y-132568571D01*
X61230000Y-128948571D02*
X60730000Y-128234285D01*
X60372857Y-128948571D02*
X60372857Y-127448571D01*
X60944285Y-127448571D01*
X61087142Y-127520000D01*
X61158571Y-127591428D01*
X61230000Y-127734285D01*
X61230000Y-127948571D01*
X61158571Y-128091428D01*
X61087142Y-128162857D01*
X60944285Y-128234285D01*
X60372857Y-128234285D01*
X62730000Y-128805714D02*
X62658571Y-128877142D01*
X62444285Y-128948571D01*
X62301428Y-128948571D01*
X62087142Y-128877142D01*
X61944285Y-128734285D01*
X61872857Y-128591428D01*
X61801428Y-128305714D01*
X61801428Y-128091428D01*
X61872857Y-127805714D01*
X61944285Y-127662857D01*
X62087142Y-127520000D01*
X62301428Y-127448571D01*
X62444285Y-127448571D01*
X62658571Y-127520000D01*
X62730000Y-127591428D01*
X63658571Y-127448571D02*
X63801428Y-127448571D01*
X63944285Y-127520000D01*
X64015714Y-127591428D01*
X64087142Y-127734285D01*
X64158571Y-128020000D01*
X64158571Y-128377142D01*
X64087142Y-128662857D01*
X64015714Y-128805714D01*
X63944285Y-128877142D01*
X63801428Y-128948571D01*
X63658571Y-128948571D01*
X63515714Y-128877142D01*
X63444285Y-128805714D01*
X63372857Y-128662857D01*
X63301428Y-128377142D01*
X63301428Y-128020000D01*
X63372857Y-127734285D01*
X63444285Y-127591428D01*
X63515714Y-127520000D01*
X63658571Y-127448571D01*
X61301428Y-117518571D02*
X60801428Y-116804285D01*
X60444285Y-117518571D02*
X60444285Y-116018571D01*
X61015714Y-116018571D01*
X61158571Y-116090000D01*
X61230000Y-116161428D01*
X61301428Y-116304285D01*
X61301428Y-116518571D01*
X61230000Y-116661428D01*
X61158571Y-116732857D01*
X61015714Y-116804285D01*
X60444285Y-116804285D01*
X61944285Y-116732857D02*
X62444285Y-116732857D01*
X62658571Y-117518571D02*
X61944285Y-117518571D01*
X61944285Y-116018571D01*
X62658571Y-116018571D01*
X63587142Y-116018571D02*
X63730000Y-116018571D01*
X63872857Y-116090000D01*
X63944285Y-116161428D01*
X64015714Y-116304285D01*
X64087142Y-116590000D01*
X64087142Y-116947142D01*
X64015714Y-117232857D01*
X63944285Y-117375714D01*
X63872857Y-117447142D01*
X63730000Y-117518571D01*
X63587142Y-117518571D01*
X63444285Y-117447142D01*
X63372857Y-117375714D01*
X63301428Y-117232857D01*
X63230000Y-116947142D01*
X63230000Y-116590000D01*
X63301428Y-116304285D01*
X63372857Y-116161428D01*
X63444285Y-116090000D01*
X63587142Y-116018571D01*
X56558571Y-122558571D02*
X55058571Y-122558571D01*
X55058571Y-121987142D01*
X55130000Y-121844285D01*
X55201428Y-121772857D01*
X55344285Y-121701428D01*
X55558571Y-121701428D01*
X55701428Y-121772857D01*
X55772857Y-121844285D01*
X55844285Y-121987142D01*
X55844285Y-122558571D01*
X55058571Y-120772857D02*
X55058571Y-120487142D01*
X55130000Y-120344285D01*
X55272857Y-120201428D01*
X55558571Y-120130000D01*
X56058571Y-120130000D01*
X56344285Y-120201428D01*
X56487142Y-120344285D01*
X56558571Y-120487142D01*
X56558571Y-120772857D01*
X56487142Y-120915714D01*
X56344285Y-121058571D01*
X56058571Y-121130000D01*
X55558571Y-121130000D01*
X55272857Y-121058571D01*
X55130000Y-120915714D01*
X55058571Y-120772857D01*
X56558571Y-118630000D02*
X55844285Y-119130000D01*
X56558571Y-119487142D02*
X55058571Y-119487142D01*
X55058571Y-118915714D01*
X55130000Y-118772857D01*
X55201428Y-118701428D01*
X55344285Y-118630000D01*
X55558571Y-118630000D01*
X55701428Y-118701428D01*
X55772857Y-118772857D01*
X55844285Y-118915714D01*
X55844285Y-119487142D01*
X55058571Y-118201428D02*
X55058571Y-117344285D01*
X56558571Y-117772857D02*
X55058571Y-117772857D01*
X55772857Y-116844285D02*
X55772857Y-116344285D01*
X56558571Y-116130000D02*
X56558571Y-116844285D01*
X55058571Y-116844285D01*
X55058571Y-116130000D01*
X61337142Y-95928571D02*
X60837142Y-95214285D01*
X60480000Y-95928571D02*
X60480000Y-94428571D01*
X61051428Y-94428571D01*
X61194285Y-94500000D01*
X61265714Y-94571428D01*
X61337142Y-94714285D01*
X61337142Y-94928571D01*
X61265714Y-95071428D01*
X61194285Y-95142857D01*
X61051428Y-95214285D01*
X60480000Y-95214285D01*
X61908571Y-95500000D02*
X62622857Y-95500000D01*
X61765714Y-95928571D02*
X62265714Y-94428571D01*
X62765714Y-95928571D01*
X63551428Y-94428571D02*
X63694285Y-94428571D01*
X63837142Y-94500000D01*
X63908571Y-94571428D01*
X63980000Y-94714285D01*
X64051428Y-95000000D01*
X64051428Y-95357142D01*
X63980000Y-95642857D01*
X63908571Y-95785714D01*
X63837142Y-95857142D01*
X63694285Y-95928571D01*
X63551428Y-95928571D01*
X63408571Y-95857142D01*
X63337142Y-95785714D01*
X63265714Y-95642857D01*
X63194285Y-95357142D01*
X63194285Y-95000000D01*
X63265714Y-94714285D01*
X63337142Y-94571428D01*
X63408571Y-94500000D01*
X63551428Y-94428571D01*
X56558571Y-106012857D02*
X55058571Y-106012857D01*
X55058571Y-105441428D01*
X55130000Y-105298571D01*
X55201428Y-105227142D01*
X55344285Y-105155714D01*
X55558571Y-105155714D01*
X55701428Y-105227142D01*
X55772857Y-105298571D01*
X55844285Y-105441428D01*
X55844285Y-106012857D01*
X55058571Y-104227142D02*
X55058571Y-103941428D01*
X55130000Y-103798571D01*
X55272857Y-103655714D01*
X55558571Y-103584285D01*
X56058571Y-103584285D01*
X56344285Y-103655714D01*
X56487142Y-103798571D01*
X56558571Y-103941428D01*
X56558571Y-104227142D01*
X56487142Y-104370000D01*
X56344285Y-104512857D01*
X56058571Y-104584285D01*
X55558571Y-104584285D01*
X55272857Y-104512857D01*
X55130000Y-104370000D01*
X55058571Y-104227142D01*
X56558571Y-102084285D02*
X55844285Y-102584285D01*
X56558571Y-102941428D02*
X55058571Y-102941428D01*
X55058571Y-102370000D01*
X55130000Y-102227142D01*
X55201428Y-102155714D01*
X55344285Y-102084285D01*
X55558571Y-102084285D01*
X55701428Y-102155714D01*
X55772857Y-102227142D01*
X55844285Y-102370000D01*
X55844285Y-102941428D01*
X55058571Y-101655714D02*
X55058571Y-100798571D01*
X56558571Y-101227142D02*
X55058571Y-101227142D01*
X56130000Y-100370000D02*
X56130000Y-99655714D01*
X56558571Y-100512857D02*
X55058571Y-100012857D01*
X56558571Y-99512857D01*
D11*
G04 #@! TO.C,J10*
X59860000Y-68460000D02*
X59860000Y-72720000D01*
X59860000Y-72720000D02*
X72180000Y-72720000D01*
X72180000Y-72720000D02*
X72180000Y-68460000D01*
X59860000Y-64360000D02*
X59860000Y-56000000D01*
X59860000Y-56000000D02*
X72180000Y-56000000D01*
X72180000Y-56000000D02*
X72180000Y-64360000D01*
X64770000Y-72940000D02*
X64270000Y-73440000D01*
X64270000Y-73440000D02*
X65270000Y-73440000D01*
X65270000Y-73440000D02*
X64770000Y-72940000D01*
G04 #@! TO.C,C2*
X82010000Y-148115000D02*
X82010000Y-148740000D01*
X82010000Y-145900000D02*
X82010000Y-146525000D01*
X77970000Y-148115000D02*
X77970000Y-148740000D01*
X77970000Y-145900000D02*
X77970000Y-146525000D01*
X77970000Y-148740000D02*
X82010000Y-148740000D01*
X77970000Y-145900000D02*
X82010000Y-145900000D01*
G04 #@! TO.C,C3*
X101100000Y-148740000D02*
X97060000Y-148740000D01*
X101100000Y-145900000D02*
X97060000Y-145900000D01*
X101100000Y-148740000D02*
X101100000Y-148115000D01*
X101100000Y-146525000D02*
X101100000Y-145900000D01*
X97060000Y-148740000D02*
X97060000Y-148115000D01*
X97060000Y-146525000D02*
X97060000Y-145900000D01*
G04 #@! TO.C,C4*
X100830000Y-65890000D02*
X104870000Y-65890000D01*
X100830000Y-68730000D02*
X104870000Y-68730000D01*
X100830000Y-65890000D02*
X100830000Y-66515000D01*
X100830000Y-68105000D02*
X100830000Y-68730000D01*
X104870000Y-65890000D02*
X104870000Y-66515000D01*
X104870000Y-68105000D02*
X104870000Y-68730000D01*
G04 #@! TO.C,D1*
X108400000Y-142240462D02*
G75*
G03X102850000Y-140695170I-2990000J462D01*
G01*
X108400000Y-142239538D02*
G75*
G02X102850000Y-143784830I-2990000J-462D01*
G01*
X107910000Y-142240000D02*
G75*
G03X107910000Y-142240000I-2500000J0D01*
G01*
X102850000Y-140695000D02*
X102850000Y-143785000D01*
G04 #@! TO.C,D2*
X92290000Y-74780000D02*
X92290000Y-72540000D01*
X92290000Y-72540000D02*
X88050000Y-72540000D01*
X88050000Y-72540000D02*
X88050000Y-74780000D01*
X88050000Y-74780000D02*
X92290000Y-74780000D01*
X92940000Y-73660000D02*
X92290000Y-73660000D01*
X87400000Y-73660000D02*
X88050000Y-73660000D01*
X91570000Y-74780000D02*
X91570000Y-72540000D01*
X91450000Y-74780000D02*
X91450000Y-72540000D01*
X91690000Y-74780000D02*
X91690000Y-72540000D01*
G04 #@! TO.C,D3*
X100080000Y-72540000D02*
X100080000Y-74780000D01*
X100320000Y-72540000D02*
X100320000Y-74780000D01*
X100200000Y-72540000D02*
X100200000Y-74780000D01*
X104370000Y-73660000D02*
X103720000Y-73660000D01*
X98830000Y-73660000D02*
X99480000Y-73660000D01*
X103720000Y-72540000D02*
X99480000Y-72540000D01*
X103720000Y-74780000D02*
X103720000Y-72540000D01*
X99480000Y-74780000D02*
X103720000Y-74780000D01*
X99480000Y-72540000D02*
X99480000Y-74780000D01*
G04 #@! TO.C,D4*
X91420000Y-65765000D02*
X91420000Y-68855000D01*
X96480000Y-67310000D02*
G75*
G03X96480000Y-67310000I-2500000J0D01*
G01*
X96970000Y-67309538D02*
G75*
G02X91420000Y-68854830I-2990000J-462D01*
G01*
X96970000Y-67310462D02*
G75*
G03X91420000Y-65765170I-2990000J462D01*
G01*
G04 #@! TO.C,J1*
X119440000Y-134620000D02*
X116780000Y-134620000D01*
X119440000Y-134620000D02*
X119440000Y-116780000D01*
X119440000Y-116780000D02*
X116780000Y-116780000D01*
X116780000Y-134620000D02*
X116780000Y-116780000D01*
X116780000Y-137220000D02*
X116780000Y-135890000D01*
X118110000Y-137220000D02*
X116780000Y-137220000D01*
G04 #@! TO.C,J2*
X58420000Y-93920000D02*
X59750000Y-93920000D01*
X59750000Y-93920000D02*
X59750000Y-95250000D01*
X59750000Y-96520000D02*
X59750000Y-111820000D01*
X57090000Y-111820000D02*
X59750000Y-111820000D01*
X57090000Y-96520000D02*
X57090000Y-111820000D01*
X57090000Y-96520000D02*
X59750000Y-96520000D01*
G04 #@! TO.C,J3*
X57090000Y-118110000D02*
X59750000Y-118110000D01*
X57090000Y-118110000D02*
X57090000Y-123250000D01*
X57090000Y-123250000D02*
X59750000Y-123250000D01*
X59750000Y-118110000D02*
X59750000Y-123250000D01*
X59750000Y-115510000D02*
X59750000Y-116840000D01*
X58420000Y-115510000D02*
X59750000Y-115510000D01*
G04 #@! TO.C,J4*
X118110000Y-111820000D02*
X116780000Y-111820000D01*
X116780000Y-111820000D02*
X116780000Y-110490000D01*
X116780000Y-109220000D02*
X116780000Y-91380000D01*
X119440000Y-91380000D02*
X116780000Y-91380000D01*
X119440000Y-109220000D02*
X119440000Y-91380000D01*
X119440000Y-109220000D02*
X116780000Y-109220000D01*
G04 #@! TO.C,J5*
X57090000Y-129540000D02*
X59750000Y-129540000D01*
X57090000Y-129540000D02*
X57090000Y-144840000D01*
X57090000Y-144840000D02*
X59750000Y-144840000D01*
X59750000Y-129540000D02*
X59750000Y-144840000D01*
X59750000Y-126940000D02*
X59750000Y-128270000D01*
X58420000Y-126940000D02*
X59750000Y-126940000D01*
G04 #@! TO.C,J6*
X67310000Y-148650000D02*
X67310000Y-145990000D01*
X67310000Y-148650000D02*
X72450000Y-148650000D01*
X72450000Y-148650000D02*
X72450000Y-145990000D01*
X67310000Y-145990000D02*
X72450000Y-145990000D01*
X64710000Y-145990000D02*
X66040000Y-145990000D01*
X64710000Y-147320000D02*
X64710000Y-145990000D01*
G04 #@! TO.C,J7*
X109160000Y-147320000D02*
X109160000Y-145990000D01*
X109160000Y-145990000D02*
X110490000Y-145990000D01*
X111760000Y-145990000D02*
X116900000Y-145990000D01*
X116900000Y-148650000D02*
X116900000Y-145990000D01*
X111760000Y-148650000D02*
X116900000Y-148650000D01*
X111760000Y-148650000D02*
X111760000Y-145990000D01*
G04 #@! TO.C,J8*
X83880000Y-155000000D02*
X83880000Y-152340000D01*
X78740000Y-155000000D02*
X83880000Y-155000000D01*
X78740000Y-152340000D02*
X83880000Y-152340000D01*
X78740000Y-155000000D02*
X78740000Y-152340000D01*
X77470000Y-155000000D02*
X76140000Y-155000000D01*
X76140000Y-155000000D02*
X76140000Y-153670000D01*
G04 #@! TO.C,J9*
X120220000Y-72140000D02*
X118720000Y-72140000D01*
X120220000Y-70440000D02*
X120220000Y-72140000D01*
X119970000Y-62240000D02*
X111170000Y-62240000D01*
X111170000Y-66040000D02*
X111170000Y-58340000D01*
X111170000Y-58340000D02*
X119970000Y-58340000D01*
X119970000Y-58340000D02*
X119970000Y-58540000D01*
X113020000Y-71940000D02*
X111170000Y-71940000D01*
X111170000Y-71940000D02*
X111170000Y-71090000D01*
X119970000Y-58440000D02*
X119970000Y-71940000D01*
X119970000Y-71940000D02*
X118120000Y-71940000D01*
G04 #@! TO.C,R1*
X85630000Y-84990000D02*
X85630000Y-85320000D01*
X92170000Y-84990000D02*
X85630000Y-84990000D01*
X92170000Y-85320000D02*
X92170000Y-84990000D01*
X85630000Y-87730000D02*
X85630000Y-87400000D01*
X92170000Y-87730000D02*
X85630000Y-87730000D01*
X92170000Y-87400000D02*
X92170000Y-87730000D01*
G04 #@! TO.C,R2*
X117570000Y-143280000D02*
X117570000Y-143610000D01*
X117570000Y-143610000D02*
X111030000Y-143610000D01*
X111030000Y-143610000D02*
X111030000Y-143280000D01*
X117570000Y-141200000D02*
X117570000Y-140870000D01*
X117570000Y-140870000D02*
X111030000Y-140870000D01*
X111030000Y-140870000D02*
X111030000Y-141200000D01*
G04 #@! TO.C,R3*
X104870000Y-82650000D02*
X104870000Y-82320000D01*
X98330000Y-82650000D02*
X104870000Y-82650000D01*
X98330000Y-82320000D02*
X98330000Y-82650000D01*
X104870000Y-79910000D02*
X104870000Y-80240000D01*
X98330000Y-79910000D02*
X104870000Y-79910000D01*
X98330000Y-80240000D02*
X98330000Y-79910000D01*
G04 #@! TO.C,R4*
X75470000Y-80240000D02*
X75470000Y-79910000D01*
X75470000Y-79910000D02*
X82010000Y-79910000D01*
X82010000Y-79910000D02*
X82010000Y-80240000D01*
X75470000Y-82320000D02*
X75470000Y-82650000D01*
X75470000Y-82650000D02*
X82010000Y-82650000D01*
X82010000Y-82650000D02*
X82010000Y-82320000D01*
G04 #@! TO.C,R5*
X86900000Y-80240000D02*
X86900000Y-79910000D01*
X86900000Y-79910000D02*
X93440000Y-79910000D01*
X93440000Y-79910000D02*
X93440000Y-80240000D01*
X86900000Y-82320000D02*
X86900000Y-82650000D01*
X86900000Y-82650000D02*
X93440000Y-82650000D01*
X93440000Y-82650000D02*
X93440000Y-82320000D01*
G04 #@! TO.C,R6*
X86900000Y-76100000D02*
X86900000Y-76430000D01*
X93440000Y-76100000D02*
X86900000Y-76100000D01*
X93440000Y-76430000D02*
X93440000Y-76100000D01*
X86900000Y-78840000D02*
X86900000Y-78510000D01*
X93440000Y-78840000D02*
X86900000Y-78840000D01*
X93440000Y-78510000D02*
X93440000Y-78840000D01*
G04 #@! TO.C,R7*
X98330000Y-76430000D02*
X98330000Y-76100000D01*
X98330000Y-76100000D02*
X104870000Y-76100000D01*
X104870000Y-76100000D02*
X104870000Y-76430000D01*
X98330000Y-78510000D02*
X98330000Y-78840000D01*
X98330000Y-78840000D02*
X104870000Y-78840000D01*
X104870000Y-78840000D02*
X104870000Y-78510000D01*
G04 #@! TO.C,SW1*
X112760000Y-84240000D02*
X117260000Y-84240000D01*
X111510000Y-80240000D02*
X111510000Y-81740000D01*
X117260000Y-77740000D02*
X112760000Y-77740000D01*
X118510000Y-81740000D02*
X118510000Y-80240000D01*
G04 #@! TO.C,U1*
X91170000Y-91380000D02*
G75*
G02X89170000Y-91380000I-1000000J0D01*
G01*
X89170000Y-91380000D02*
X83710000Y-91380000D01*
X83710000Y-91380000D02*
X83710000Y-142300000D01*
X83710000Y-142300000D02*
X96630000Y-142300000D01*
X96630000Y-142300000D02*
X96630000Y-91380000D01*
X96630000Y-91380000D02*
X91170000Y-91380000D01*
G04 #@! TO.C,U2*
X78700000Y-64040000D02*
X88940000Y-64040000D01*
X78700000Y-68681000D02*
X88940000Y-68681000D01*
X78700000Y-64040000D02*
X78700000Y-68681000D01*
X88940000Y-64040000D02*
X88940000Y-68681000D01*
X78700000Y-65550000D02*
X88940000Y-65550000D01*
X81970000Y-64040000D02*
X81970000Y-65550000D01*
X85671000Y-64040000D02*
X85671000Y-65550000D01*
G04 #@! TO.C,Y1*
X87060000Y-144795000D02*
X93460000Y-144795000D01*
X87060000Y-149845000D02*
X93460000Y-149845000D01*
X87060000Y-149845000D02*
G75*
G02X87060000Y-144795000I0J2525000D01*
G01*
X93460000Y-149845000D02*
G75*
G03X93460000Y-144795000I0J2525000D01*
G01*
G04 #@! TO.C,C5*
X71180000Y-80010000D02*
G75*
G03X71180000Y-80010000I-5120000J0D01*
G01*
X66060000Y-85090000D02*
X66060000Y-74930000D01*
X66020000Y-85090000D02*
X66020000Y-74930000D01*
X65980000Y-85090000D02*
X65980000Y-74930000D01*
X65940000Y-85089000D02*
X65940000Y-74931000D01*
X65900000Y-85088000D02*
X65900000Y-74932000D01*
X65860000Y-85087000D02*
X65860000Y-74933000D01*
X65820000Y-85085000D02*
X65820000Y-81050000D01*
X65820000Y-78970000D02*
X65820000Y-74935000D01*
X65780000Y-85083000D02*
X65780000Y-81050000D01*
X65780000Y-78970000D02*
X65780000Y-74937000D01*
X65740000Y-85080000D02*
X65740000Y-81050000D01*
X65740000Y-78970000D02*
X65740000Y-74940000D01*
X65700000Y-85078000D02*
X65700000Y-81050000D01*
X65700000Y-78970000D02*
X65700000Y-74942000D01*
X65660000Y-85075000D02*
X65660000Y-81050000D01*
X65660000Y-78970000D02*
X65660000Y-74945000D01*
X65620000Y-85072000D02*
X65620000Y-81050000D01*
X65620000Y-78970000D02*
X65620000Y-74948000D01*
X65580000Y-85068000D02*
X65580000Y-81050000D01*
X65580000Y-78970000D02*
X65580000Y-74952000D01*
X65540000Y-85064000D02*
X65540000Y-81050000D01*
X65540000Y-78970000D02*
X65540000Y-74956000D01*
X65500000Y-85060000D02*
X65500000Y-81050000D01*
X65500000Y-78970000D02*
X65500000Y-74960000D01*
X65460000Y-85055000D02*
X65460000Y-81050000D01*
X65460000Y-78970000D02*
X65460000Y-74965000D01*
X65420000Y-85050000D02*
X65420000Y-81050000D01*
X65420000Y-78970000D02*
X65420000Y-74970000D01*
X65380000Y-85045000D02*
X65380000Y-81050000D01*
X65380000Y-78970000D02*
X65380000Y-74975000D01*
X65339000Y-85040000D02*
X65339000Y-81050000D01*
X65339000Y-78970000D02*
X65339000Y-74980000D01*
X65299000Y-85034000D02*
X65299000Y-81050000D01*
X65299000Y-78970000D02*
X65299000Y-74986000D01*
X65259000Y-85028000D02*
X65259000Y-81050000D01*
X65259000Y-78970000D02*
X65259000Y-74992000D01*
X65219000Y-85021000D02*
X65219000Y-81050000D01*
X65219000Y-78970000D02*
X65219000Y-74999000D01*
X65179000Y-85014000D02*
X65179000Y-81050000D01*
X65179000Y-78970000D02*
X65179000Y-75006000D01*
X65139000Y-85007000D02*
X65139000Y-81050000D01*
X65139000Y-78970000D02*
X65139000Y-75013000D01*
X65099000Y-85000000D02*
X65099000Y-81050000D01*
X65099000Y-78970000D02*
X65099000Y-75020000D01*
X65059000Y-84992000D02*
X65059000Y-81050000D01*
X65059000Y-78970000D02*
X65059000Y-75028000D01*
X65019000Y-84984000D02*
X65019000Y-81050000D01*
X65019000Y-78970000D02*
X65019000Y-75036000D01*
X64979000Y-84975000D02*
X64979000Y-81050000D01*
X64979000Y-78970000D02*
X64979000Y-75045000D01*
X64939000Y-84966000D02*
X64939000Y-81050000D01*
X64939000Y-78970000D02*
X64939000Y-75054000D01*
X64899000Y-84957000D02*
X64899000Y-81050000D01*
X64899000Y-78970000D02*
X64899000Y-75063000D01*
X64859000Y-84948000D02*
X64859000Y-81050000D01*
X64859000Y-78970000D02*
X64859000Y-75072000D01*
X64819000Y-84938000D02*
X64819000Y-81050000D01*
X64819000Y-78970000D02*
X64819000Y-75082000D01*
X64779000Y-84928000D02*
X64779000Y-81050000D01*
X64779000Y-78970000D02*
X64779000Y-75092000D01*
X64739000Y-84917000D02*
X64739000Y-81050000D01*
X64739000Y-78970000D02*
X64739000Y-75103000D01*
X64699000Y-84907000D02*
X64699000Y-81050000D01*
X64699000Y-78970000D02*
X64699000Y-75113000D01*
X64659000Y-84895000D02*
X64659000Y-81050000D01*
X64659000Y-78970000D02*
X64659000Y-75125000D01*
X64619000Y-84884000D02*
X64619000Y-81050000D01*
X64619000Y-78970000D02*
X64619000Y-75136000D01*
X64579000Y-84872000D02*
X64579000Y-81050000D01*
X64579000Y-78970000D02*
X64579000Y-75148000D01*
X64539000Y-84860000D02*
X64539000Y-81050000D01*
X64539000Y-78970000D02*
X64539000Y-75160000D01*
X64499000Y-84847000D02*
X64499000Y-81050000D01*
X64499000Y-78970000D02*
X64499000Y-75173000D01*
X64459000Y-84834000D02*
X64459000Y-81050000D01*
X64459000Y-78970000D02*
X64459000Y-75186000D01*
X64419000Y-84821000D02*
X64419000Y-81050000D01*
X64419000Y-78970000D02*
X64419000Y-75199000D01*
X64379000Y-84807000D02*
X64379000Y-81050000D01*
X64379000Y-78970000D02*
X64379000Y-75213000D01*
X64339000Y-84793000D02*
X64339000Y-81050000D01*
X64339000Y-78970000D02*
X64339000Y-75227000D01*
X64299000Y-84778000D02*
X64299000Y-81050000D01*
X64299000Y-78970000D02*
X64299000Y-75242000D01*
X64259000Y-84764000D02*
X64259000Y-81050000D01*
X64259000Y-78970000D02*
X64259000Y-75256000D01*
X64219000Y-84748000D02*
X64219000Y-81050000D01*
X64219000Y-78970000D02*
X64219000Y-75272000D01*
X64179000Y-84733000D02*
X64179000Y-81050000D01*
X64179000Y-78970000D02*
X64179000Y-75287000D01*
X64139000Y-84717000D02*
X64139000Y-81050000D01*
X64139000Y-78970000D02*
X64139000Y-75303000D01*
X64099000Y-84700000D02*
X64099000Y-81050000D01*
X64099000Y-78970000D02*
X64099000Y-75320000D01*
X64059000Y-84684000D02*
X64059000Y-81050000D01*
X64059000Y-78970000D02*
X64059000Y-75336000D01*
X64019000Y-84667000D02*
X64019000Y-81050000D01*
X64019000Y-78970000D02*
X64019000Y-75353000D01*
X63979000Y-84649000D02*
X63979000Y-81050000D01*
X63979000Y-78970000D02*
X63979000Y-75371000D01*
X63939000Y-84631000D02*
X63939000Y-81050000D01*
X63939000Y-78970000D02*
X63939000Y-75389000D01*
X63899000Y-84613000D02*
X63899000Y-81050000D01*
X63899000Y-78970000D02*
X63899000Y-75407000D01*
X63859000Y-84594000D02*
X63859000Y-81050000D01*
X63859000Y-78970000D02*
X63859000Y-75426000D01*
X63819000Y-84574000D02*
X63819000Y-81050000D01*
X63819000Y-78970000D02*
X63819000Y-75446000D01*
X63779000Y-84555000D02*
X63779000Y-81050000D01*
X63779000Y-78970000D02*
X63779000Y-75465000D01*
X63739000Y-84535000D02*
X63739000Y-75485000D01*
X63699000Y-84514000D02*
X63699000Y-75506000D01*
X63659000Y-84493000D02*
X63659000Y-75527000D01*
X63619000Y-84472000D02*
X63619000Y-75548000D01*
X63579000Y-84450000D02*
X63579000Y-75570000D01*
X63539000Y-84427000D02*
X63539000Y-75593000D01*
X63499000Y-84405000D02*
X63499000Y-75615000D01*
X63459000Y-84381000D02*
X63459000Y-75639000D01*
X63419000Y-84357000D02*
X63419000Y-75663000D01*
X63379000Y-84333000D02*
X63379000Y-75687000D01*
X63339000Y-84308000D02*
X63339000Y-75712000D01*
X63299000Y-84283000D02*
X63299000Y-75737000D01*
X63259000Y-84257000D02*
X63259000Y-75763000D01*
X63219000Y-84231000D02*
X63219000Y-75789000D01*
X63179000Y-84204000D02*
X63179000Y-75816000D01*
X63139000Y-84176000D02*
X63139000Y-75844000D01*
X63099000Y-84148000D02*
X63099000Y-75872000D01*
X63059000Y-84120000D02*
X63059000Y-75900000D01*
X63019000Y-84090000D02*
X63019000Y-75930000D01*
X62979000Y-84060000D02*
X62979000Y-75960000D01*
X62939000Y-84030000D02*
X62939000Y-75990000D01*
X62899000Y-83999000D02*
X62899000Y-76021000D01*
X62859000Y-83967000D02*
X62859000Y-76053000D01*
X62819000Y-83935000D02*
X62819000Y-76085000D01*
X62779000Y-83902000D02*
X62779000Y-76118000D01*
X62739000Y-83868000D02*
X62739000Y-76152000D01*
X62699000Y-83834000D02*
X62699000Y-76186000D01*
X62659000Y-83799000D02*
X62659000Y-76221000D01*
X62619000Y-83763000D02*
X62619000Y-76257000D01*
X62579000Y-83726000D02*
X62579000Y-76294000D01*
X62539000Y-83689000D02*
X62539000Y-76331000D01*
X62499000Y-83650000D02*
X62499000Y-76370000D01*
X62459000Y-83611000D02*
X62459000Y-76409000D01*
X62419000Y-83571000D02*
X62419000Y-76449000D01*
X62379000Y-83530000D02*
X62379000Y-76490000D01*
X62339000Y-83488000D02*
X62339000Y-76532000D01*
X62299000Y-83446000D02*
X62299000Y-76574000D01*
X62259000Y-83402000D02*
X62259000Y-76618000D01*
X62219000Y-83357000D02*
X62219000Y-76663000D01*
X62179000Y-83311000D02*
X62179000Y-76709000D01*
X62139000Y-83264000D02*
X62139000Y-76756000D01*
X62099000Y-83216000D02*
X62099000Y-76804000D01*
X62059000Y-83166000D02*
X62059000Y-76854000D01*
X62019000Y-83116000D02*
X62019000Y-76904000D01*
X61979000Y-83064000D02*
X61979000Y-76956000D01*
X61939000Y-83010000D02*
X61939000Y-77010000D01*
X61899000Y-82955000D02*
X61899000Y-77065000D01*
X61859000Y-82899000D02*
X61859000Y-77121000D01*
X61819000Y-82840000D02*
X61819000Y-77180000D01*
X61779000Y-82780000D02*
X61779000Y-77240000D01*
X61739000Y-82719000D02*
X61739000Y-77301000D01*
X61699000Y-82655000D02*
X61699000Y-77365000D01*
X61659000Y-82589000D02*
X61659000Y-77431000D01*
X61619000Y-82520000D02*
X61619000Y-77500000D01*
X61579000Y-82449000D02*
X61579000Y-77571000D01*
X61539000Y-82375000D02*
X61539000Y-77645000D01*
X61499000Y-82299000D02*
X61499000Y-77721000D01*
X61459000Y-82219000D02*
X61459000Y-77801000D01*
X61419000Y-82135000D02*
X61419000Y-77885000D01*
X61379000Y-82047000D02*
X61379000Y-77973000D01*
X61339000Y-81954000D02*
X61339000Y-78066000D01*
X61299000Y-81856000D02*
X61299000Y-78164000D01*
X61259000Y-81752000D02*
X61259000Y-78268000D01*
X61219000Y-81640000D02*
X61219000Y-78380000D01*
X61179000Y-81520000D02*
X61179000Y-78500000D01*
X61139000Y-81388000D02*
X61139000Y-78632000D01*
X61099000Y-81240000D02*
X61099000Y-78780000D01*
X61059000Y-81072000D02*
X61059000Y-78948000D01*
X61019000Y-80872000D02*
X61019000Y-79148000D01*
X60979000Y-80609000D02*
X60979000Y-79411000D01*
X71539646Y-82885000D02*
X70539646Y-82885000D01*
X71039646Y-83385000D02*
X71039646Y-82385000D01*
G04 #@! TO.C,J11*
X102930000Y-155000000D02*
X102930000Y-152340000D01*
X90170000Y-155000000D02*
X102930000Y-155000000D01*
X90170000Y-152340000D02*
X102930000Y-152340000D01*
X90170000Y-155000000D02*
X90170000Y-152340000D01*
X88900000Y-155000000D02*
X87570000Y-155000000D01*
X87570000Y-155000000D02*
X87570000Y-153670000D01*
G04 #@! TO.C,C1*
X78855000Y-135890000D02*
G75*
G03X78855000Y-135890000I-3270000J0D01*
G01*
X75585000Y-139120000D02*
X75585000Y-132660000D01*
X75545000Y-139120000D02*
X75545000Y-132660000D01*
X75505000Y-139120000D02*
X75505000Y-132660000D01*
X75465000Y-139118000D02*
X75465000Y-132662000D01*
X75425000Y-139117000D02*
X75425000Y-132663000D01*
X75385000Y-139114000D02*
X75385000Y-132666000D01*
X75345000Y-139112000D02*
X75345000Y-136930000D01*
X75345000Y-134850000D02*
X75345000Y-132668000D01*
X75305000Y-139108000D02*
X75305000Y-136930000D01*
X75305000Y-134850000D02*
X75305000Y-132672000D01*
X75265000Y-139105000D02*
X75265000Y-136930000D01*
X75265000Y-134850000D02*
X75265000Y-132675000D01*
X75225000Y-139101000D02*
X75225000Y-136930000D01*
X75225000Y-134850000D02*
X75225000Y-132679000D01*
X75185000Y-139096000D02*
X75185000Y-136930000D01*
X75185000Y-134850000D02*
X75185000Y-132684000D01*
X75145000Y-139091000D02*
X75145000Y-136930000D01*
X75145000Y-134850000D02*
X75145000Y-132689000D01*
X75105000Y-139085000D02*
X75105000Y-136930000D01*
X75105000Y-134850000D02*
X75105000Y-132695000D01*
X75065000Y-139079000D02*
X75065000Y-136930000D01*
X75065000Y-134850000D02*
X75065000Y-132701000D01*
X75025000Y-139072000D02*
X75025000Y-136930000D01*
X75025000Y-134850000D02*
X75025000Y-132708000D01*
X74985000Y-139065000D02*
X74985000Y-136930000D01*
X74985000Y-134850000D02*
X74985000Y-132715000D01*
X74945000Y-139057000D02*
X74945000Y-136930000D01*
X74945000Y-134850000D02*
X74945000Y-132723000D01*
X74905000Y-139049000D02*
X74905000Y-136930000D01*
X74905000Y-134850000D02*
X74905000Y-132731000D01*
X74864000Y-139040000D02*
X74864000Y-136930000D01*
X74864000Y-134850000D02*
X74864000Y-132740000D01*
X74824000Y-139031000D02*
X74824000Y-136930000D01*
X74824000Y-134850000D02*
X74824000Y-132749000D01*
X74784000Y-139021000D02*
X74784000Y-136930000D01*
X74784000Y-134850000D02*
X74784000Y-132759000D01*
X74744000Y-139011000D02*
X74744000Y-136930000D01*
X74744000Y-134850000D02*
X74744000Y-132769000D01*
X74704000Y-139000000D02*
X74704000Y-136930000D01*
X74704000Y-134850000D02*
X74704000Y-132780000D01*
X74664000Y-138988000D02*
X74664000Y-136930000D01*
X74664000Y-134850000D02*
X74664000Y-132792000D01*
X74624000Y-138976000D02*
X74624000Y-136930000D01*
X74624000Y-134850000D02*
X74624000Y-132804000D01*
X74584000Y-138964000D02*
X74584000Y-136930000D01*
X74584000Y-134850000D02*
X74584000Y-132816000D01*
X74544000Y-138951000D02*
X74544000Y-136930000D01*
X74544000Y-134850000D02*
X74544000Y-132829000D01*
X74504000Y-138937000D02*
X74504000Y-136930000D01*
X74504000Y-134850000D02*
X74504000Y-132843000D01*
X74464000Y-138923000D02*
X74464000Y-136930000D01*
X74464000Y-134850000D02*
X74464000Y-132857000D01*
X74424000Y-138908000D02*
X74424000Y-136930000D01*
X74424000Y-134850000D02*
X74424000Y-132872000D01*
X74384000Y-138892000D02*
X74384000Y-136930000D01*
X74384000Y-134850000D02*
X74384000Y-132888000D01*
X74344000Y-138876000D02*
X74344000Y-136930000D01*
X74344000Y-134850000D02*
X74344000Y-132904000D01*
X74304000Y-138860000D02*
X74304000Y-136930000D01*
X74304000Y-134850000D02*
X74304000Y-132920000D01*
X74264000Y-138842000D02*
X74264000Y-136930000D01*
X74264000Y-134850000D02*
X74264000Y-132938000D01*
X74224000Y-138824000D02*
X74224000Y-136930000D01*
X74224000Y-134850000D02*
X74224000Y-132956000D01*
X74184000Y-138806000D02*
X74184000Y-136930000D01*
X74184000Y-134850000D02*
X74184000Y-132974000D01*
X74144000Y-138786000D02*
X74144000Y-136930000D01*
X74144000Y-134850000D02*
X74144000Y-132994000D01*
X74104000Y-138766000D02*
X74104000Y-136930000D01*
X74104000Y-134850000D02*
X74104000Y-133014000D01*
X74064000Y-138746000D02*
X74064000Y-136930000D01*
X74064000Y-134850000D02*
X74064000Y-133034000D01*
X74024000Y-138724000D02*
X74024000Y-136930000D01*
X74024000Y-134850000D02*
X74024000Y-133056000D01*
X73984000Y-138702000D02*
X73984000Y-136930000D01*
X73984000Y-134850000D02*
X73984000Y-133078000D01*
X73944000Y-138680000D02*
X73944000Y-136930000D01*
X73944000Y-134850000D02*
X73944000Y-133100000D01*
X73904000Y-138656000D02*
X73904000Y-136930000D01*
X73904000Y-134850000D02*
X73904000Y-133124000D01*
X73864000Y-138632000D02*
X73864000Y-136930000D01*
X73864000Y-134850000D02*
X73864000Y-133148000D01*
X73824000Y-138606000D02*
X73824000Y-136930000D01*
X73824000Y-134850000D02*
X73824000Y-133174000D01*
X73784000Y-138580000D02*
X73784000Y-136930000D01*
X73784000Y-134850000D02*
X73784000Y-133200000D01*
X73744000Y-138554000D02*
X73744000Y-136930000D01*
X73744000Y-134850000D02*
X73744000Y-133226000D01*
X73704000Y-138526000D02*
X73704000Y-136930000D01*
X73704000Y-134850000D02*
X73704000Y-133254000D01*
X73664000Y-138497000D02*
X73664000Y-136930000D01*
X73664000Y-134850000D02*
X73664000Y-133283000D01*
X73624000Y-138468000D02*
X73624000Y-136930000D01*
X73624000Y-134850000D02*
X73624000Y-133312000D01*
X73584000Y-138438000D02*
X73584000Y-136930000D01*
X73584000Y-134850000D02*
X73584000Y-133342000D01*
X73544000Y-138406000D02*
X73544000Y-136930000D01*
X73544000Y-134850000D02*
X73544000Y-133374000D01*
X73504000Y-138374000D02*
X73504000Y-136930000D01*
X73504000Y-134850000D02*
X73504000Y-133406000D01*
X73464000Y-138340000D02*
X73464000Y-136930000D01*
X73464000Y-134850000D02*
X73464000Y-133440000D01*
X73424000Y-138306000D02*
X73424000Y-136930000D01*
X73424000Y-134850000D02*
X73424000Y-133474000D01*
X73384000Y-138270000D02*
X73384000Y-136930000D01*
X73384000Y-134850000D02*
X73384000Y-133510000D01*
X73344000Y-138233000D02*
X73344000Y-136930000D01*
X73344000Y-134850000D02*
X73344000Y-133547000D01*
X73304000Y-138195000D02*
X73304000Y-136930000D01*
X73304000Y-134850000D02*
X73304000Y-133585000D01*
X73264000Y-138155000D02*
X73264000Y-133625000D01*
X73224000Y-138114000D02*
X73224000Y-133666000D01*
X73184000Y-138072000D02*
X73184000Y-133708000D01*
X73144000Y-138027000D02*
X73144000Y-133753000D01*
X73104000Y-137982000D02*
X73104000Y-133798000D01*
X73064000Y-137934000D02*
X73064000Y-133846000D01*
X73024000Y-137885000D02*
X73024000Y-133895000D01*
X72984000Y-137834000D02*
X72984000Y-133946000D01*
X72944000Y-137780000D02*
X72944000Y-134000000D01*
X72904000Y-137724000D02*
X72904000Y-134056000D01*
X72864000Y-137666000D02*
X72864000Y-134114000D01*
X72824000Y-137604000D02*
X72824000Y-134176000D01*
X72784000Y-137540000D02*
X72784000Y-134240000D01*
X72744000Y-137471000D02*
X72744000Y-134309000D01*
X72704000Y-137399000D02*
X72704000Y-134381000D01*
X72664000Y-137322000D02*
X72664000Y-134458000D01*
X72624000Y-137240000D02*
X72624000Y-134540000D01*
X72584000Y-137152000D02*
X72584000Y-134628000D01*
X72544000Y-137055000D02*
X72544000Y-134725000D01*
X72504000Y-136949000D02*
X72504000Y-134831000D01*
X72464000Y-136830000D02*
X72464000Y-134950000D01*
X72424000Y-136692000D02*
X72424000Y-135088000D01*
X72384000Y-136523000D02*
X72384000Y-135257000D01*
X72344000Y-136292000D02*
X72344000Y-135488000D01*
X79085241Y-137729000D02*
X78455241Y-137729000D01*
X78770241Y-138044000D02*
X78770241Y-137414000D01*
G04 #@! TO.C,Q1*
X78070000Y-75360000D02*
X81920000Y-75360000D01*
X77687369Y-74782045D02*
G75*
G03X78070000Y-75360000I2322631J1122045D01*
G01*
X77653600Y-72561193D02*
G75*
G02X80010000Y-71060000I2356400J-1098807D01*
G01*
X82366400Y-72561193D02*
G75*
G03X80010000Y-71060000I-2356400J-1098807D01*
G01*
X82312383Y-74772264D02*
G75*
G02X81920000Y-75360000I-2302383J1112264D01*
G01*
G04 #@! TO.C,J12*
X115630000Y-134560000D02*
X112970000Y-134560000D01*
X115630000Y-137160000D02*
X115630000Y-134560000D01*
X112970000Y-137160000D02*
X112970000Y-134560000D01*
X115630000Y-137160000D02*
X112970000Y-137160000D01*
X115630000Y-138430000D02*
X115630000Y-139760000D01*
X115630000Y-139760000D02*
X114300000Y-139760000D01*
D12*
G04 #@! TO.C,G\002A\002A\002A*
G36*
X109777717Y-98448825D02*
X109908402Y-98520646D01*
X109988350Y-98591062D01*
X110039432Y-98647898D01*
X110069445Y-98700879D01*
X110080272Y-98762718D01*
X110073801Y-98846128D01*
X110051917Y-98963821D01*
X110047065Y-98986898D01*
X109981672Y-99205290D01*
X109881122Y-99401987D01*
X109742426Y-99580119D01*
X109562592Y-99742817D01*
X109338629Y-99893213D01*
X109067548Y-100034436D01*
X109029981Y-100051700D01*
X108928499Y-100100708D01*
X108845205Y-100146532D01*
X108790725Y-100183002D01*
X108775480Y-100199509D01*
X108767356Y-100265376D01*
X108775675Y-100358530D01*
X108796791Y-100459600D01*
X108827059Y-100549213D01*
X108849187Y-100591070D01*
X108920623Y-100655963D01*
X109017780Y-100680790D01*
X109136914Y-100666867D01*
X109274282Y-100615512D01*
X109426139Y-100528038D01*
X109588743Y-100405765D01*
X109724542Y-100283295D01*
X109798747Y-100213440D01*
X109859784Y-100159660D01*
X109898266Y-100130067D01*
X109905582Y-100126800D01*
X109936018Y-100144071D01*
X109957255Y-100165689D01*
X109965335Y-100185678D01*
X109956850Y-100213741D01*
X109927285Y-100255727D01*
X109872126Y-100317484D01*
X109786857Y-100404863D01*
X109725415Y-100466035D01*
X109603865Y-100583259D01*
X109504781Y-100670504D01*
X109417349Y-100736170D01*
X109330757Y-100788658D01*
X109270800Y-100819207D01*
X109155892Y-100873306D01*
X109073069Y-100906948D01*
X109009109Y-100922655D01*
X108950789Y-100922949D01*
X108884889Y-100910352D01*
X108845888Y-100900254D01*
X108661111Y-100827184D01*
X108510329Y-100717998D01*
X108396023Y-100576422D01*
X108320673Y-100406182D01*
X108286757Y-100211005D01*
X108288849Y-100063298D01*
X108303330Y-99977295D01*
X108816895Y-99977295D01*
X108935897Y-99908625D01*
X109031137Y-99850242D01*
X109132514Y-99783105D01*
X109169536Y-99757028D01*
X109288552Y-99659644D01*
X109408919Y-99541820D01*
X109518205Y-99417222D01*
X109603978Y-99299517D01*
X109635616Y-99244674D01*
X109671951Y-99162796D01*
X109705158Y-99070660D01*
X109731327Y-98981857D01*
X109746548Y-98909975D01*
X109746911Y-98868607D01*
X109744804Y-98865137D01*
X109711407Y-98863805D01*
X109647751Y-98884245D01*
X109566355Y-98920834D01*
X109479740Y-98967951D01*
X109401048Y-99019515D01*
X109278474Y-99129874D01*
X109155082Y-99276995D01*
X109039408Y-99447711D01*
X108939989Y-99628853D01*
X108865362Y-99807252D01*
X108842818Y-99880597D01*
X108816895Y-99977295D01*
X108303330Y-99977295D01*
X108332078Y-99806564D01*
X108415323Y-99549490D01*
X108533295Y-99300144D01*
X108680710Y-99066595D01*
X108852281Y-98856911D01*
X109042722Y-98679160D01*
X109246746Y-98541411D01*
X109305913Y-98510952D01*
X109480817Y-98444488D01*
X109636637Y-98423609D01*
X109777717Y-98448825D01*
X109777717Y-98448825D01*
G37*
X109777717Y-98448825D02*
X109908402Y-98520646D01*
X109988350Y-98591062D01*
X110039432Y-98647898D01*
X110069445Y-98700879D01*
X110080272Y-98762718D01*
X110073801Y-98846128D01*
X110051917Y-98963821D01*
X110047065Y-98986898D01*
X109981672Y-99205290D01*
X109881122Y-99401987D01*
X109742426Y-99580119D01*
X109562592Y-99742817D01*
X109338629Y-99893213D01*
X109067548Y-100034436D01*
X109029981Y-100051700D01*
X108928499Y-100100708D01*
X108845205Y-100146532D01*
X108790725Y-100183002D01*
X108775480Y-100199509D01*
X108767356Y-100265376D01*
X108775675Y-100358530D01*
X108796791Y-100459600D01*
X108827059Y-100549213D01*
X108849187Y-100591070D01*
X108920623Y-100655963D01*
X109017780Y-100680790D01*
X109136914Y-100666867D01*
X109274282Y-100615512D01*
X109426139Y-100528038D01*
X109588743Y-100405765D01*
X109724542Y-100283295D01*
X109798747Y-100213440D01*
X109859784Y-100159660D01*
X109898266Y-100130067D01*
X109905582Y-100126800D01*
X109936018Y-100144071D01*
X109957255Y-100165689D01*
X109965335Y-100185678D01*
X109956850Y-100213741D01*
X109927285Y-100255727D01*
X109872126Y-100317484D01*
X109786857Y-100404863D01*
X109725415Y-100466035D01*
X109603865Y-100583259D01*
X109504781Y-100670504D01*
X109417349Y-100736170D01*
X109330757Y-100788658D01*
X109270800Y-100819207D01*
X109155892Y-100873306D01*
X109073069Y-100906948D01*
X109009109Y-100922655D01*
X108950789Y-100922949D01*
X108884889Y-100910352D01*
X108845888Y-100900254D01*
X108661111Y-100827184D01*
X108510329Y-100717998D01*
X108396023Y-100576422D01*
X108320673Y-100406182D01*
X108286757Y-100211005D01*
X108288849Y-100063298D01*
X108303330Y-99977295D01*
X108816895Y-99977295D01*
X108935897Y-99908625D01*
X109031137Y-99850242D01*
X109132514Y-99783105D01*
X109169536Y-99757028D01*
X109288552Y-99659644D01*
X109408919Y-99541820D01*
X109518205Y-99417222D01*
X109603978Y-99299517D01*
X109635616Y-99244674D01*
X109671951Y-99162796D01*
X109705158Y-99070660D01*
X109731327Y-98981857D01*
X109746548Y-98909975D01*
X109746911Y-98868607D01*
X109744804Y-98865137D01*
X109711407Y-98863805D01*
X109647751Y-98884245D01*
X109566355Y-98920834D01*
X109479740Y-98967951D01*
X109401048Y-99019515D01*
X109278474Y-99129874D01*
X109155082Y-99276995D01*
X109039408Y-99447711D01*
X108939989Y-99628853D01*
X108865362Y-99807252D01*
X108842818Y-99880597D01*
X108816895Y-99977295D01*
X108303330Y-99977295D01*
X108332078Y-99806564D01*
X108415323Y-99549490D01*
X108533295Y-99300144D01*
X108680710Y-99066595D01*
X108852281Y-98856911D01*
X109042722Y-98679160D01*
X109246746Y-98541411D01*
X109305913Y-98510952D01*
X109480817Y-98444488D01*
X109636637Y-98423609D01*
X109777717Y-98448825D01*
G36*
X111837515Y-96661053D02*
X111907539Y-96686983D01*
X111996153Y-96727815D01*
X112091164Y-96777458D01*
X112180378Y-96829822D01*
X112251603Y-96878814D01*
X112263828Y-96888687D01*
X112343673Y-96955872D01*
X112227708Y-97098232D01*
X112130213Y-97225657D01*
X112018039Y-97384805D01*
X111899901Y-97562305D01*
X111784517Y-97744788D01*
X111680602Y-97918882D01*
X111611127Y-98044000D01*
X111477086Y-98313074D01*
X111346984Y-98605556D01*
X111223082Y-98914091D01*
X111107641Y-99231325D01*
X111002923Y-99549902D01*
X110911191Y-99862468D01*
X110834705Y-100161667D01*
X110775728Y-100440146D01*
X110736521Y-100690547D01*
X110719346Y-100905518D01*
X110718749Y-100945950D01*
X110713626Y-101035079D01*
X110695674Y-101081983D01*
X110660684Y-101086983D01*
X110604443Y-101050402D01*
X110522742Y-100972561D01*
X110512245Y-100961727D01*
X110445053Y-100888855D01*
X110389957Y-100823412D01*
X110359078Y-100779872D01*
X110339182Y-100714404D01*
X110325364Y-100612470D01*
X110318098Y-100488095D01*
X110317858Y-100355304D01*
X110325116Y-100228120D01*
X110337341Y-100135954D01*
X110384485Y-99919468D01*
X110452304Y-99666174D01*
X110537843Y-99384234D01*
X110638151Y-99081811D01*
X110750273Y-98767066D01*
X110871256Y-98448163D01*
X110998146Y-98133265D01*
X111127990Y-97830532D01*
X111257834Y-97548128D01*
X111319263Y-97422250D01*
X111395107Y-97275899D01*
X111476044Y-97129597D01*
X111557454Y-96990732D01*
X111634717Y-96866695D01*
X111703212Y-96764875D01*
X111758321Y-96692661D01*
X111795422Y-96657443D01*
X111798275Y-96656118D01*
X111837515Y-96661053D01*
X111837515Y-96661053D01*
G37*
X111837515Y-96661053D02*
X111907539Y-96686983D01*
X111996153Y-96727815D01*
X112091164Y-96777458D01*
X112180378Y-96829822D01*
X112251603Y-96878814D01*
X112263828Y-96888687D01*
X112343673Y-96955872D01*
X112227708Y-97098232D01*
X112130213Y-97225657D01*
X112018039Y-97384805D01*
X111899901Y-97562305D01*
X111784517Y-97744788D01*
X111680602Y-97918882D01*
X111611127Y-98044000D01*
X111477086Y-98313074D01*
X111346984Y-98605556D01*
X111223082Y-98914091D01*
X111107641Y-99231325D01*
X111002923Y-99549902D01*
X110911191Y-99862468D01*
X110834705Y-100161667D01*
X110775728Y-100440146D01*
X110736521Y-100690547D01*
X110719346Y-100905518D01*
X110718749Y-100945950D01*
X110713626Y-101035079D01*
X110695674Y-101081983D01*
X110660684Y-101086983D01*
X110604443Y-101050402D01*
X110522742Y-100972561D01*
X110512245Y-100961727D01*
X110445053Y-100888855D01*
X110389957Y-100823412D01*
X110359078Y-100779872D01*
X110339182Y-100714404D01*
X110325364Y-100612470D01*
X110318098Y-100488095D01*
X110317858Y-100355304D01*
X110325116Y-100228120D01*
X110337341Y-100135954D01*
X110384485Y-99919468D01*
X110452304Y-99666174D01*
X110537843Y-99384234D01*
X110638151Y-99081811D01*
X110750273Y-98767066D01*
X110871256Y-98448163D01*
X110998146Y-98133265D01*
X111127990Y-97830532D01*
X111257834Y-97548128D01*
X111319263Y-97422250D01*
X111395107Y-97275899D01*
X111476044Y-97129597D01*
X111557454Y-96990732D01*
X111634717Y-96866695D01*
X111703212Y-96764875D01*
X111758321Y-96692661D01*
X111795422Y-96657443D01*
X111798275Y-96656118D01*
X111837515Y-96661053D01*
G36*
X104546489Y-97112196D02*
X104619169Y-97133629D01*
X104714402Y-97164659D01*
X104766626Y-97182606D01*
X104903774Y-97234357D01*
X105024298Y-97287022D01*
X105120265Y-97336511D01*
X105183743Y-97378730D01*
X105206799Y-97409587D01*
X105206800Y-97409686D01*
X105200086Y-97443346D01*
X105182112Y-97513314D01*
X105156130Y-97607213D01*
X105142026Y-97656266D01*
X105083460Y-97888260D01*
X105028914Y-98166714D01*
X104979133Y-98487391D01*
X104938728Y-98811221D01*
X104928471Y-98921485D01*
X104918706Y-99061538D01*
X104909602Y-99224707D01*
X104901324Y-99404319D01*
X104894042Y-99593700D01*
X104887923Y-99786179D01*
X104883134Y-99975082D01*
X104879844Y-100153736D01*
X104878219Y-100315469D01*
X104878428Y-100453607D01*
X104880637Y-100561478D01*
X104885016Y-100632409D01*
X104891732Y-100659727D01*
X104892275Y-100659834D01*
X104920330Y-100636403D01*
X104964168Y-100569563D01*
X105021916Y-100463539D01*
X105091697Y-100322552D01*
X105171637Y-100150827D01*
X105259861Y-99952588D01*
X105354493Y-99732056D01*
X105453658Y-99493457D01*
X105555483Y-99241012D01*
X105658090Y-98978946D01*
X105759606Y-98711483D01*
X105771709Y-98679000D01*
X105829344Y-98521251D01*
X105892701Y-98343167D01*
X105958865Y-98153391D01*
X106024924Y-97960565D01*
X106087966Y-97773330D01*
X106145077Y-97600330D01*
X106193344Y-97450206D01*
X106229855Y-97331600D01*
X106249982Y-97260022D01*
X106274223Y-97182715D01*
X106299800Y-97128248D01*
X106314684Y-97112239D01*
X106359992Y-97112685D01*
X106437816Y-97130928D01*
X106537949Y-97162809D01*
X106650180Y-97204165D01*
X106764301Y-97250836D01*
X106870101Y-97298659D01*
X106957372Y-97343473D01*
X107015905Y-97381116D01*
X107035600Y-97406094D01*
X107027879Y-97439288D01*
X107007819Y-97504970D01*
X106984817Y-97574048D01*
X106950621Y-97690952D01*
X106913627Y-97847749D01*
X106875825Y-98033759D01*
X106839208Y-98238305D01*
X106805766Y-98450704D01*
X106777492Y-98660278D01*
X106769318Y-98729800D01*
X106753170Y-98891408D01*
X106738034Y-99077057D01*
X106724261Y-99278514D01*
X106712203Y-99487546D01*
X106702212Y-99695920D01*
X106694640Y-99895406D01*
X106689837Y-100077769D01*
X106688156Y-100234777D01*
X106689949Y-100358198D01*
X106695566Y-100439799D01*
X106696109Y-100443715D01*
X106718249Y-100595531D01*
X106791910Y-100405615D01*
X106901042Y-100132157D01*
X107026001Y-99832634D01*
X107162570Y-99516283D01*
X107306535Y-99192343D01*
X107453678Y-98870049D01*
X107599785Y-98558640D01*
X107740639Y-98267352D01*
X107872026Y-98005424D01*
X107986776Y-97787516D01*
X108090229Y-97599228D01*
X108173904Y-97452061D01*
X108240714Y-97341687D01*
X108293570Y-97263775D01*
X108335386Y-97213996D01*
X108369074Y-97188020D01*
X108394500Y-97181414D01*
X108467891Y-97196613D01*
X108562353Y-97236326D01*
X108660332Y-97292065D01*
X108731932Y-97344573D01*
X108815364Y-97415000D01*
X108698912Y-97532650D01*
X108592089Y-97655212D01*
X108470101Y-97821024D01*
X108335324Y-98025659D01*
X108190132Y-98264692D01*
X108036898Y-98533696D01*
X107877997Y-98828243D01*
X107715804Y-99143909D01*
X107552693Y-99476267D01*
X107391038Y-99820889D01*
X107233213Y-100173350D01*
X107081593Y-100529224D01*
X107048541Y-100609400D01*
X106866458Y-101053900D01*
X106759977Y-101091406D01*
X106697293Y-101110334D01*
X106642046Y-101115579D01*
X106575368Y-101106648D01*
X106482598Y-101084150D01*
X106378634Y-101051312D01*
X106280186Y-101010946D01*
X106218393Y-100977718D01*
X106163635Y-100936260D01*
X106131910Y-100891675D01*
X106113153Y-100825592D01*
X106104093Y-100769075D01*
X106095289Y-100672081D01*
X106089628Y-100532572D01*
X106086952Y-100358724D01*
X106087102Y-100158716D01*
X106089921Y-99940725D01*
X106095248Y-99712927D01*
X106102926Y-99483501D01*
X106112797Y-99260623D01*
X106124701Y-99052471D01*
X106138480Y-98867222D01*
X106141652Y-98831400D01*
X106155705Y-98674736D01*
X106167594Y-98536235D01*
X106176710Y-98423498D01*
X106182445Y-98344128D01*
X106184190Y-98305725D01*
X106183909Y-98303379D01*
X106174287Y-98323291D01*
X106151533Y-98382995D01*
X106118700Y-98474127D01*
X106078842Y-98588326D01*
X106063326Y-98633579D01*
X105924409Y-99029293D01*
X105780936Y-99416719D01*
X105636122Y-99787862D01*
X105493183Y-100134730D01*
X105355333Y-100449330D01*
X105225789Y-100723670D01*
X105208547Y-100758314D01*
X105145698Y-100882237D01*
X105099074Y-100968298D01*
X105062777Y-101024364D01*
X105030912Y-101058305D01*
X104997584Y-101077990D01*
X104959617Y-101090535D01*
X104866875Y-101110516D01*
X104781646Y-101112522D01*
X104684950Y-101095310D01*
X104583631Y-101065934D01*
X104463244Y-101015690D01*
X104369930Y-100953015D01*
X104355031Y-100938702D01*
X104279700Y-100860082D01*
X104280321Y-100017191D01*
X104280950Y-99768442D01*
X104282820Y-99558708D01*
X104286510Y-99376207D01*
X104292600Y-99209158D01*
X104301669Y-99045781D01*
X104314294Y-98874293D01*
X104331057Y-98682914D01*
X104352534Y-98459862D01*
X104361065Y-98374200D01*
X104381824Y-98164852D01*
X104401734Y-97960250D01*
X104419984Y-97768997D01*
X104435765Y-97599700D01*
X104448269Y-97460966D01*
X104456687Y-97361400D01*
X104458390Y-97339150D01*
X104469732Y-97218062D01*
X104483161Y-97142685D01*
X104499771Y-97107939D01*
X104508972Y-97104200D01*
X104546489Y-97112196D01*
X104546489Y-97112196D01*
G37*
X104546489Y-97112196D02*
X104619169Y-97133629D01*
X104714402Y-97164659D01*
X104766626Y-97182606D01*
X104903774Y-97234357D01*
X105024298Y-97287022D01*
X105120265Y-97336511D01*
X105183743Y-97378730D01*
X105206799Y-97409587D01*
X105206800Y-97409686D01*
X105200086Y-97443346D01*
X105182112Y-97513314D01*
X105156130Y-97607213D01*
X105142026Y-97656266D01*
X105083460Y-97888260D01*
X105028914Y-98166714D01*
X104979133Y-98487391D01*
X104938728Y-98811221D01*
X104928471Y-98921485D01*
X104918706Y-99061538D01*
X104909602Y-99224707D01*
X104901324Y-99404319D01*
X104894042Y-99593700D01*
X104887923Y-99786179D01*
X104883134Y-99975082D01*
X104879844Y-100153736D01*
X104878219Y-100315469D01*
X104878428Y-100453607D01*
X104880637Y-100561478D01*
X104885016Y-100632409D01*
X104891732Y-100659727D01*
X104892275Y-100659834D01*
X104920330Y-100636403D01*
X104964168Y-100569563D01*
X105021916Y-100463539D01*
X105091697Y-100322552D01*
X105171637Y-100150827D01*
X105259861Y-99952588D01*
X105354493Y-99732056D01*
X105453658Y-99493457D01*
X105555483Y-99241012D01*
X105658090Y-98978946D01*
X105759606Y-98711483D01*
X105771709Y-98679000D01*
X105829344Y-98521251D01*
X105892701Y-98343167D01*
X105958865Y-98153391D01*
X106024924Y-97960565D01*
X106087966Y-97773330D01*
X106145077Y-97600330D01*
X106193344Y-97450206D01*
X106229855Y-97331600D01*
X106249982Y-97260022D01*
X106274223Y-97182715D01*
X106299800Y-97128248D01*
X106314684Y-97112239D01*
X106359992Y-97112685D01*
X106437816Y-97130928D01*
X106537949Y-97162809D01*
X106650180Y-97204165D01*
X106764301Y-97250836D01*
X106870101Y-97298659D01*
X106957372Y-97343473D01*
X107015905Y-97381116D01*
X107035600Y-97406094D01*
X107027879Y-97439288D01*
X107007819Y-97504970D01*
X106984817Y-97574048D01*
X106950621Y-97690952D01*
X106913627Y-97847749D01*
X106875825Y-98033759D01*
X106839208Y-98238305D01*
X106805766Y-98450704D01*
X106777492Y-98660278D01*
X106769318Y-98729800D01*
X106753170Y-98891408D01*
X106738034Y-99077057D01*
X106724261Y-99278514D01*
X106712203Y-99487546D01*
X106702212Y-99695920D01*
X106694640Y-99895406D01*
X106689837Y-100077769D01*
X106688156Y-100234777D01*
X106689949Y-100358198D01*
X106695566Y-100439799D01*
X106696109Y-100443715D01*
X106718249Y-100595531D01*
X106791910Y-100405615D01*
X106901042Y-100132157D01*
X107026001Y-99832634D01*
X107162570Y-99516283D01*
X107306535Y-99192343D01*
X107453678Y-98870049D01*
X107599785Y-98558640D01*
X107740639Y-98267352D01*
X107872026Y-98005424D01*
X107986776Y-97787516D01*
X108090229Y-97599228D01*
X108173904Y-97452061D01*
X108240714Y-97341687D01*
X108293570Y-97263775D01*
X108335386Y-97213996D01*
X108369074Y-97188020D01*
X108394500Y-97181414D01*
X108467891Y-97196613D01*
X108562353Y-97236326D01*
X108660332Y-97292065D01*
X108731932Y-97344573D01*
X108815364Y-97415000D01*
X108698912Y-97532650D01*
X108592089Y-97655212D01*
X108470101Y-97821024D01*
X108335324Y-98025659D01*
X108190132Y-98264692D01*
X108036898Y-98533696D01*
X107877997Y-98828243D01*
X107715804Y-99143909D01*
X107552693Y-99476267D01*
X107391038Y-99820889D01*
X107233213Y-100173350D01*
X107081593Y-100529224D01*
X107048541Y-100609400D01*
X106866458Y-101053900D01*
X106759977Y-101091406D01*
X106697293Y-101110334D01*
X106642046Y-101115579D01*
X106575368Y-101106648D01*
X106482598Y-101084150D01*
X106378634Y-101051312D01*
X106280186Y-101010946D01*
X106218393Y-100977718D01*
X106163635Y-100936260D01*
X106131910Y-100891675D01*
X106113153Y-100825592D01*
X106104093Y-100769075D01*
X106095289Y-100672081D01*
X106089628Y-100532572D01*
X106086952Y-100358724D01*
X106087102Y-100158716D01*
X106089921Y-99940725D01*
X106095248Y-99712927D01*
X106102926Y-99483501D01*
X106112797Y-99260623D01*
X106124701Y-99052471D01*
X106138480Y-98867222D01*
X106141652Y-98831400D01*
X106155705Y-98674736D01*
X106167594Y-98536235D01*
X106176710Y-98423498D01*
X106182445Y-98344128D01*
X106184190Y-98305725D01*
X106183909Y-98303379D01*
X106174287Y-98323291D01*
X106151533Y-98382995D01*
X106118700Y-98474127D01*
X106078842Y-98588326D01*
X106063326Y-98633579D01*
X105924409Y-99029293D01*
X105780936Y-99416719D01*
X105636122Y-99787862D01*
X105493183Y-100134730D01*
X105355333Y-100449330D01*
X105225789Y-100723670D01*
X105208547Y-100758314D01*
X105145698Y-100882237D01*
X105099074Y-100968298D01*
X105062777Y-101024364D01*
X105030912Y-101058305D01*
X104997584Y-101077990D01*
X104959617Y-101090535D01*
X104866875Y-101110516D01*
X104781646Y-101112522D01*
X104684950Y-101095310D01*
X104583631Y-101065934D01*
X104463244Y-101015690D01*
X104369930Y-100953015D01*
X104355031Y-100938702D01*
X104279700Y-100860082D01*
X104280321Y-100017191D01*
X104280950Y-99768442D01*
X104282820Y-99558708D01*
X104286510Y-99376207D01*
X104292600Y-99209158D01*
X104301669Y-99045781D01*
X104314294Y-98874293D01*
X104331057Y-98682914D01*
X104352534Y-98459862D01*
X104361065Y-98374200D01*
X104381824Y-98164852D01*
X104401734Y-97960250D01*
X104419984Y-97768997D01*
X104435765Y-97599700D01*
X104448269Y-97460966D01*
X104456687Y-97361400D01*
X104458390Y-97339150D01*
X104469732Y-97218062D01*
X104483161Y-97142685D01*
X104499771Y-97107939D01*
X104508972Y-97104200D01*
X104546489Y-97112196D01*
G36*
X112649693Y-98214242D02*
X112720244Y-98261424D01*
X112805393Y-98330284D01*
X112895649Y-98412600D01*
X112981520Y-98500153D01*
X113053516Y-98584721D01*
X113058539Y-98591305D01*
X113114472Y-98668468D01*
X113144469Y-98723954D01*
X113154575Y-98775555D01*
X113150840Y-98841061D01*
X113148971Y-98857331D01*
X113124180Y-98982595D01*
X113083163Y-99100720D01*
X113031370Y-99201664D01*
X112974250Y-99275382D01*
X112917253Y-99311833D01*
X112901179Y-99314000D01*
X112855238Y-99297032D01*
X112845353Y-99245579D01*
X112870195Y-99161600D01*
X112899950Y-99057308D01*
X112905102Y-98958460D01*
X112885379Y-98881935D01*
X112874968Y-98866328D01*
X112824300Y-98840680D01*
X112750359Y-98841059D01*
X112671927Y-98864999D01*
X112617849Y-98900104D01*
X112538193Y-99003260D01*
X112476177Y-99152811D01*
X112431659Y-99349220D01*
X112404499Y-99592950D01*
X112404035Y-99599750D01*
X112387363Y-99847400D01*
X112568981Y-99847400D01*
X112664213Y-99848943D01*
X112719212Y-99855356D01*
X112744501Y-99869307D01*
X112750599Y-99893468D01*
X112750600Y-99893504D01*
X112737814Y-99922950D01*
X112693901Y-99950094D01*
X112610522Y-99979572D01*
X112579150Y-99988822D01*
X112407700Y-100038036D01*
X112393519Y-100317368D01*
X112377574Y-100502233D01*
X112347734Y-100649541D01*
X112299351Y-100771688D01*
X112227778Y-100881068D01*
X112148970Y-100969472D01*
X112030317Y-101068530D01*
X111893840Y-101147471D01*
X111751042Y-101202411D01*
X111613424Y-101229466D01*
X111492489Y-101224753D01*
X111440525Y-101208683D01*
X111345574Y-101152517D01*
X111248701Y-101072295D01*
X111168257Y-100984592D01*
X111133402Y-100931289D01*
X111105327Y-100825469D01*
X111105332Y-100825380D01*
X111455337Y-100825380D01*
X111468768Y-100911668D01*
X111494627Y-100959187D01*
X111534055Y-101015477D01*
X111628602Y-100967243D01*
X111695938Y-100922824D01*
X111777057Y-100855221D01*
X111844951Y-100788793D01*
X111954620Y-100648517D01*
X112041272Y-100491918D01*
X112096512Y-100335673D01*
X112109734Y-100262854D01*
X112113985Y-100191741D01*
X112103789Y-100158744D01*
X112083697Y-100152200D01*
X112034198Y-100168150D01*
X111959432Y-100210335D01*
X111871204Y-100270258D01*
X111781318Y-100339419D01*
X111701578Y-100409321D01*
X111648534Y-100465483D01*
X111543730Y-100607067D01*
X111479827Y-100725439D01*
X111455337Y-100825380D01*
X111105332Y-100825380D01*
X111113517Y-100697362D01*
X111154668Y-100556538D01*
X111225475Y-100412566D01*
X111322635Y-100275017D01*
X111382845Y-100208835D01*
X111560778Y-100065084D01*
X111764021Y-99964982D01*
X111947748Y-99916633D01*
X112114578Y-99888056D01*
X112099692Y-99785178D01*
X112087985Y-99717330D01*
X112068140Y-99615444D01*
X112043249Y-99495023D01*
X112024003Y-99405836D01*
X111987100Y-99221915D01*
X111967317Y-99074746D01*
X111965095Y-98953095D01*
X111980877Y-98845731D01*
X112015104Y-98741420D01*
X112053441Y-98657843D01*
X112125857Y-98533702D01*
X112206691Y-98428240D01*
X112250291Y-98384695D01*
X112344553Y-98312941D01*
X112445635Y-98252391D01*
X112538437Y-98211074D01*
X112603231Y-98196957D01*
X112649693Y-98214242D01*
X112649693Y-98214242D01*
G37*
X112649693Y-98214242D02*
X112720244Y-98261424D01*
X112805393Y-98330284D01*
X112895649Y-98412600D01*
X112981520Y-98500153D01*
X113053516Y-98584721D01*
X113058539Y-98591305D01*
X113114472Y-98668468D01*
X113144469Y-98723954D01*
X113154575Y-98775555D01*
X113150840Y-98841061D01*
X113148971Y-98857331D01*
X113124180Y-98982595D01*
X113083163Y-99100720D01*
X113031370Y-99201664D01*
X112974250Y-99275382D01*
X112917253Y-99311833D01*
X112901179Y-99314000D01*
X112855238Y-99297032D01*
X112845353Y-99245579D01*
X112870195Y-99161600D01*
X112899950Y-99057308D01*
X112905102Y-98958460D01*
X112885379Y-98881935D01*
X112874968Y-98866328D01*
X112824300Y-98840680D01*
X112750359Y-98841059D01*
X112671927Y-98864999D01*
X112617849Y-98900104D01*
X112538193Y-99003260D01*
X112476177Y-99152811D01*
X112431659Y-99349220D01*
X112404499Y-99592950D01*
X112404035Y-99599750D01*
X112387363Y-99847400D01*
X112568981Y-99847400D01*
X112664213Y-99848943D01*
X112719212Y-99855356D01*
X112744501Y-99869307D01*
X112750599Y-99893468D01*
X112750600Y-99893504D01*
X112737814Y-99922950D01*
X112693901Y-99950094D01*
X112610522Y-99979572D01*
X112579150Y-99988822D01*
X112407700Y-100038036D01*
X112393519Y-100317368D01*
X112377574Y-100502233D01*
X112347734Y-100649541D01*
X112299351Y-100771688D01*
X112227778Y-100881068D01*
X112148970Y-100969472D01*
X112030317Y-101068530D01*
X111893840Y-101147471D01*
X111751042Y-101202411D01*
X111613424Y-101229466D01*
X111492489Y-101224753D01*
X111440525Y-101208683D01*
X111345574Y-101152517D01*
X111248701Y-101072295D01*
X111168257Y-100984592D01*
X111133402Y-100931289D01*
X111105327Y-100825469D01*
X111105332Y-100825380D01*
X111455337Y-100825380D01*
X111468768Y-100911668D01*
X111494627Y-100959187D01*
X111534055Y-101015477D01*
X111628602Y-100967243D01*
X111695938Y-100922824D01*
X111777057Y-100855221D01*
X111844951Y-100788793D01*
X111954620Y-100648517D01*
X112041272Y-100491918D01*
X112096512Y-100335673D01*
X112109734Y-100262854D01*
X112113985Y-100191741D01*
X112103789Y-100158744D01*
X112083697Y-100152200D01*
X112034198Y-100168150D01*
X111959432Y-100210335D01*
X111871204Y-100270258D01*
X111781318Y-100339419D01*
X111701578Y-100409321D01*
X111648534Y-100465483D01*
X111543730Y-100607067D01*
X111479827Y-100725439D01*
X111455337Y-100825380D01*
X111105332Y-100825380D01*
X111113517Y-100697362D01*
X111154668Y-100556538D01*
X111225475Y-100412566D01*
X111322635Y-100275017D01*
X111382845Y-100208835D01*
X111560778Y-100065084D01*
X111764021Y-99964982D01*
X111947748Y-99916633D01*
X112114578Y-99888056D01*
X112099692Y-99785178D01*
X112087985Y-99717330D01*
X112068140Y-99615444D01*
X112043249Y-99495023D01*
X112024003Y-99405836D01*
X111987100Y-99221915D01*
X111967317Y-99074746D01*
X111965095Y-98953095D01*
X111980877Y-98845731D01*
X112015104Y-98741420D01*
X112053441Y-98657843D01*
X112125857Y-98533702D01*
X112206691Y-98428240D01*
X112250291Y-98384695D01*
X112344553Y-98312941D01*
X112445635Y-98252391D01*
X112538437Y-98211074D01*
X112603231Y-98196957D01*
X112649693Y-98214242D01*
G04 #@! TO.C,J10*
D13*
X56452380Y-65169523D02*
X57166666Y-65169523D01*
X57309523Y-65217142D01*
X57404761Y-65312380D01*
X57452380Y-65455238D01*
X57452380Y-65550476D01*
X57452380Y-64169523D02*
X57452380Y-64740952D01*
X57452380Y-64455238D02*
X56452380Y-64455238D01*
X56595238Y-64550476D01*
X56690476Y-64645714D01*
X56738095Y-64740952D01*
X56452380Y-63550476D02*
X56452380Y-63455238D01*
X56500000Y-63360000D01*
X56547619Y-63312380D01*
X56642857Y-63264761D01*
X56833333Y-63217142D01*
X57071428Y-63217142D01*
X57261904Y-63264761D01*
X57357142Y-63312380D01*
X57404761Y-63360000D01*
X57452380Y-63455238D01*
X57452380Y-63550476D01*
X57404761Y-63645714D01*
X57357142Y-63693333D01*
X57261904Y-63740952D01*
X57071428Y-63788571D01*
X56833333Y-63788571D01*
X56642857Y-63740952D01*
X56547619Y-63693333D01*
X56500000Y-63645714D01*
X56452380Y-63550476D01*
G04 #@! TO.C,C2*
X79823333Y-145127142D02*
X79775714Y-145174761D01*
X79632857Y-145222380D01*
X79537619Y-145222380D01*
X79394761Y-145174761D01*
X79299523Y-145079523D01*
X79251904Y-144984285D01*
X79204285Y-144793809D01*
X79204285Y-144650952D01*
X79251904Y-144460476D01*
X79299523Y-144365238D01*
X79394761Y-144270000D01*
X79537619Y-144222380D01*
X79632857Y-144222380D01*
X79775714Y-144270000D01*
X79823333Y-144317619D01*
X80204285Y-144317619D02*
X80251904Y-144270000D01*
X80347142Y-144222380D01*
X80585238Y-144222380D01*
X80680476Y-144270000D01*
X80728095Y-144317619D01*
X80775714Y-144412857D01*
X80775714Y-144508095D01*
X80728095Y-144650952D01*
X80156666Y-145222380D01*
X80775714Y-145222380D01*
G04 #@! TO.C,C3*
X98913333Y-150227142D02*
X98865714Y-150274761D01*
X98722857Y-150322380D01*
X98627619Y-150322380D01*
X98484761Y-150274761D01*
X98389523Y-150179523D01*
X98341904Y-150084285D01*
X98294285Y-149893809D01*
X98294285Y-149750952D01*
X98341904Y-149560476D01*
X98389523Y-149465238D01*
X98484761Y-149370000D01*
X98627619Y-149322380D01*
X98722857Y-149322380D01*
X98865714Y-149370000D01*
X98913333Y-149417619D01*
X99246666Y-149322380D02*
X99865714Y-149322380D01*
X99532380Y-149703333D01*
X99675238Y-149703333D01*
X99770476Y-149750952D01*
X99818095Y-149798571D01*
X99865714Y-149893809D01*
X99865714Y-150131904D01*
X99818095Y-150227142D01*
X99770476Y-150274761D01*
X99675238Y-150322380D01*
X99389523Y-150322380D01*
X99294285Y-150274761D01*
X99246666Y-150227142D01*
G04 #@! TO.C,C4*
X102683333Y-65117142D02*
X102635714Y-65164761D01*
X102492857Y-65212380D01*
X102397619Y-65212380D01*
X102254761Y-65164761D01*
X102159523Y-65069523D01*
X102111904Y-64974285D01*
X102064285Y-64783809D01*
X102064285Y-64640952D01*
X102111904Y-64450476D01*
X102159523Y-64355238D01*
X102254761Y-64260000D01*
X102397619Y-64212380D01*
X102492857Y-64212380D01*
X102635714Y-64260000D01*
X102683333Y-64307619D01*
X103540476Y-64545714D02*
X103540476Y-65212380D01*
X103302380Y-64164761D02*
X103064285Y-64879047D01*
X103683333Y-64879047D01*
G04 #@! TO.C,D1*
X104671904Y-138732380D02*
X104671904Y-137732380D01*
X104910000Y-137732380D01*
X105052857Y-137780000D01*
X105148095Y-137875238D01*
X105195714Y-137970476D01*
X105243333Y-138160952D01*
X105243333Y-138303809D01*
X105195714Y-138494285D01*
X105148095Y-138589523D01*
X105052857Y-138684761D01*
X104910000Y-138732380D01*
X104671904Y-138732380D01*
X106195714Y-138732380D02*
X105624285Y-138732380D01*
X105910000Y-138732380D02*
X105910000Y-137732380D01*
X105814761Y-137875238D01*
X105719523Y-137970476D01*
X105624285Y-138018095D01*
G04 #@! TO.C,D2*
X89431904Y-76232380D02*
X89431904Y-75232380D01*
X89670000Y-75232380D01*
X89812857Y-75280000D01*
X89908095Y-75375238D01*
X89955714Y-75470476D01*
X90003333Y-75660952D01*
X90003333Y-75803809D01*
X89955714Y-75994285D01*
X89908095Y-76089523D01*
X89812857Y-76184761D01*
X89670000Y-76232380D01*
X89431904Y-76232380D01*
X90384285Y-75327619D02*
X90431904Y-75280000D01*
X90527142Y-75232380D01*
X90765238Y-75232380D01*
X90860476Y-75280000D01*
X90908095Y-75327619D01*
X90955714Y-75422857D01*
X90955714Y-75518095D01*
X90908095Y-75660952D01*
X90336666Y-76232380D01*
X90955714Y-76232380D01*
X93718095Y-75912380D02*
X93718095Y-74912380D01*
X94289523Y-75912380D02*
X93860952Y-75340952D01*
X94289523Y-74912380D02*
X93718095Y-75483809D01*
G04 #@! TO.C,D3*
X100861904Y-71992380D02*
X100861904Y-70992380D01*
X101100000Y-70992380D01*
X101242857Y-71040000D01*
X101338095Y-71135238D01*
X101385714Y-71230476D01*
X101433333Y-71420952D01*
X101433333Y-71563809D01*
X101385714Y-71754285D01*
X101338095Y-71849523D01*
X101242857Y-71944761D01*
X101100000Y-71992380D01*
X100861904Y-71992380D01*
X101766666Y-70992380D02*
X102385714Y-70992380D01*
X102052380Y-71373333D01*
X102195238Y-71373333D01*
X102290476Y-71420952D01*
X102338095Y-71468571D01*
X102385714Y-71563809D01*
X102385714Y-71801904D01*
X102338095Y-71897142D01*
X102290476Y-71944761D01*
X102195238Y-71992380D01*
X101909523Y-71992380D01*
X101814285Y-71944761D01*
X101766666Y-71897142D01*
X97528095Y-72312380D02*
X97528095Y-71312380D01*
X98099523Y-72312380D02*
X97670952Y-71740952D01*
X98099523Y-71312380D02*
X97528095Y-71883809D01*
G04 #@! TO.C,D4*
X93241904Y-63802380D02*
X93241904Y-62802380D01*
X93480000Y-62802380D01*
X93622857Y-62850000D01*
X93718095Y-62945238D01*
X93765714Y-63040476D01*
X93813333Y-63230952D01*
X93813333Y-63373809D01*
X93765714Y-63564285D01*
X93718095Y-63659523D01*
X93622857Y-63754761D01*
X93480000Y-63802380D01*
X93241904Y-63802380D01*
X94670476Y-63135714D02*
X94670476Y-63802380D01*
X94432380Y-62754761D02*
X94194285Y-63469047D01*
X94813333Y-63469047D01*
G04 #@! TO.C,J1*
X117776666Y-138112380D02*
X117776666Y-138826666D01*
X117729047Y-138969523D01*
X117633809Y-139064761D01*
X117490952Y-139112380D01*
X117395714Y-139112380D01*
X118776666Y-139112380D02*
X118205238Y-139112380D01*
X118490952Y-139112380D02*
X118490952Y-138112380D01*
X118395714Y-138255238D01*
X118300476Y-138350476D01*
X118205238Y-138398095D01*
G04 #@! TO.C,J2*
X58086666Y-91932380D02*
X58086666Y-92646666D01*
X58039047Y-92789523D01*
X57943809Y-92884761D01*
X57800952Y-92932380D01*
X57705714Y-92932380D01*
X58515238Y-92027619D02*
X58562857Y-91980000D01*
X58658095Y-91932380D01*
X58896190Y-91932380D01*
X58991428Y-91980000D01*
X59039047Y-92027619D01*
X59086666Y-92122857D01*
X59086666Y-92218095D01*
X59039047Y-92360952D01*
X58467619Y-92932380D01*
X59086666Y-92932380D01*
G04 #@! TO.C,J3*
X58086666Y-113522380D02*
X58086666Y-114236666D01*
X58039047Y-114379523D01*
X57943809Y-114474761D01*
X57800952Y-114522380D01*
X57705714Y-114522380D01*
X58467619Y-113522380D02*
X59086666Y-113522380D01*
X58753333Y-113903333D01*
X58896190Y-113903333D01*
X58991428Y-113950952D01*
X59039047Y-113998571D01*
X59086666Y-114093809D01*
X59086666Y-114331904D01*
X59039047Y-114427142D01*
X58991428Y-114474761D01*
X58896190Y-114522380D01*
X58610476Y-114522380D01*
X58515238Y-114474761D01*
X58467619Y-114427142D01*
G04 #@! TO.C,J4*
X117776666Y-112712380D02*
X117776666Y-113426666D01*
X117729047Y-113569523D01*
X117633809Y-113664761D01*
X117490952Y-113712380D01*
X117395714Y-113712380D01*
X118681428Y-113045714D02*
X118681428Y-113712380D01*
X118443333Y-112664761D02*
X118205238Y-113379047D01*
X118824285Y-113379047D01*
G04 #@! TO.C,J5*
X58086666Y-124952380D02*
X58086666Y-125666666D01*
X58039047Y-125809523D01*
X57943809Y-125904761D01*
X57800952Y-125952380D01*
X57705714Y-125952380D01*
X59039047Y-124952380D02*
X58562857Y-124952380D01*
X58515238Y-125428571D01*
X58562857Y-125380952D01*
X58658095Y-125333333D01*
X58896190Y-125333333D01*
X58991428Y-125380952D01*
X59039047Y-125428571D01*
X59086666Y-125523809D01*
X59086666Y-125761904D01*
X59039047Y-125857142D01*
X58991428Y-125904761D01*
X58896190Y-125952380D01*
X58658095Y-125952380D01*
X58562857Y-125904761D01*
X58515238Y-125857142D01*
G04 #@! TO.C,J6*
X62722380Y-147653333D02*
X63436666Y-147653333D01*
X63579523Y-147700952D01*
X63674761Y-147796190D01*
X63722380Y-147939047D01*
X63722380Y-148034285D01*
X62722380Y-146748571D02*
X62722380Y-146939047D01*
X62770000Y-147034285D01*
X62817619Y-147081904D01*
X62960476Y-147177142D01*
X63150952Y-147224761D01*
X63531904Y-147224761D01*
X63627142Y-147177142D01*
X63674761Y-147129523D01*
X63722380Y-147034285D01*
X63722380Y-146843809D01*
X63674761Y-146748571D01*
X63627142Y-146700952D01*
X63531904Y-146653333D01*
X63293809Y-146653333D01*
X63198571Y-146700952D01*
X63150952Y-146748571D01*
X63103333Y-146843809D01*
X63103333Y-147034285D01*
X63150952Y-147129523D01*
X63198571Y-147177142D01*
X63293809Y-147224761D01*
G04 #@! TO.C,J7*
X107172380Y-147653333D02*
X107886666Y-147653333D01*
X108029523Y-147700952D01*
X108124761Y-147796190D01*
X108172380Y-147939047D01*
X108172380Y-148034285D01*
X107172380Y-147272380D02*
X107172380Y-146605714D01*
X108172380Y-147034285D01*
G04 #@! TO.C,J8*
X74592380Y-154003333D02*
X75306666Y-154003333D01*
X75449523Y-154050952D01*
X75544761Y-154146190D01*
X75592380Y-154289047D01*
X75592380Y-154384285D01*
X75020952Y-153384285D02*
X74973333Y-153479523D01*
X74925714Y-153527142D01*
X74830476Y-153574761D01*
X74782857Y-153574761D01*
X74687619Y-153527142D01*
X74640000Y-153479523D01*
X74592380Y-153384285D01*
X74592380Y-153193809D01*
X74640000Y-153098571D01*
X74687619Y-153050952D01*
X74782857Y-153003333D01*
X74830476Y-153003333D01*
X74925714Y-153050952D01*
X74973333Y-153098571D01*
X75020952Y-153193809D01*
X75020952Y-153384285D01*
X75068571Y-153479523D01*
X75116190Y-153527142D01*
X75211428Y-153574761D01*
X75401904Y-153574761D01*
X75497142Y-153527142D01*
X75544761Y-153479523D01*
X75592380Y-153384285D01*
X75592380Y-153193809D01*
X75544761Y-153098571D01*
X75497142Y-153050952D01*
X75401904Y-153003333D01*
X75211428Y-153003333D01*
X75116190Y-153050952D01*
X75068571Y-153098571D01*
X75020952Y-153193809D01*
G04 #@! TO.C,J9*
X120612380Y-66883333D02*
X121326666Y-66883333D01*
X121469523Y-66930952D01*
X121564761Y-67026190D01*
X121612380Y-67169047D01*
X121612380Y-67264285D01*
X121612380Y-66359523D02*
X121612380Y-66169047D01*
X121564761Y-66073809D01*
X121517142Y-66026190D01*
X121374285Y-65930952D01*
X121183809Y-65883333D01*
X120802857Y-65883333D01*
X120707619Y-65930952D01*
X120660000Y-65978571D01*
X120612380Y-66073809D01*
X120612380Y-66264285D01*
X120660000Y-66359523D01*
X120707619Y-66407142D01*
X120802857Y-66454761D01*
X121040952Y-66454761D01*
X121136190Y-66407142D01*
X121183809Y-66359523D01*
X121231428Y-66264285D01*
X121231428Y-66073809D01*
X121183809Y-65978571D01*
X121136190Y-65930952D01*
X121040952Y-65883333D01*
G04 #@! TO.C,R1*
X88733333Y-89182380D02*
X88400000Y-88706190D01*
X88161904Y-89182380D02*
X88161904Y-88182380D01*
X88542857Y-88182380D01*
X88638095Y-88230000D01*
X88685714Y-88277619D01*
X88733333Y-88372857D01*
X88733333Y-88515714D01*
X88685714Y-88610952D01*
X88638095Y-88658571D01*
X88542857Y-88706190D01*
X88161904Y-88706190D01*
X89685714Y-89182380D02*
X89114285Y-89182380D01*
X89400000Y-89182380D02*
X89400000Y-88182380D01*
X89304761Y-88325238D01*
X89209523Y-88420476D01*
X89114285Y-88468095D01*
G04 #@! TO.C,R2*
X114133333Y-145062380D02*
X113800000Y-144586190D01*
X113561904Y-145062380D02*
X113561904Y-144062380D01*
X113942857Y-144062380D01*
X114038095Y-144110000D01*
X114085714Y-144157619D01*
X114133333Y-144252857D01*
X114133333Y-144395714D01*
X114085714Y-144490952D01*
X114038095Y-144538571D01*
X113942857Y-144586190D01*
X113561904Y-144586190D01*
X114514285Y-144157619D02*
X114561904Y-144110000D01*
X114657142Y-144062380D01*
X114895238Y-144062380D01*
X114990476Y-144110000D01*
X115038095Y-144157619D01*
X115085714Y-144252857D01*
X115085714Y-144348095D01*
X115038095Y-144490952D01*
X114466666Y-145062380D01*
X115085714Y-145062380D01*
G04 #@! TO.C,R3*
X101433333Y-79362380D02*
X101100000Y-78886190D01*
X100861904Y-79362380D02*
X100861904Y-78362380D01*
X101242857Y-78362380D01*
X101338095Y-78410000D01*
X101385714Y-78457619D01*
X101433333Y-78552857D01*
X101433333Y-78695714D01*
X101385714Y-78790952D01*
X101338095Y-78838571D01*
X101242857Y-78886190D01*
X100861904Y-78886190D01*
X101766666Y-78362380D02*
X102385714Y-78362380D01*
X102052380Y-78743333D01*
X102195238Y-78743333D01*
X102290476Y-78790952D01*
X102338095Y-78838571D01*
X102385714Y-78933809D01*
X102385714Y-79171904D01*
X102338095Y-79267142D01*
X102290476Y-79314761D01*
X102195238Y-79362380D01*
X101909523Y-79362380D01*
X101814285Y-79314761D01*
X101766666Y-79267142D01*
G04 #@! TO.C,R4*
X78573333Y-79362380D02*
X78240000Y-78886190D01*
X78001904Y-79362380D02*
X78001904Y-78362380D01*
X78382857Y-78362380D01*
X78478095Y-78410000D01*
X78525714Y-78457619D01*
X78573333Y-78552857D01*
X78573333Y-78695714D01*
X78525714Y-78790952D01*
X78478095Y-78838571D01*
X78382857Y-78886190D01*
X78001904Y-78886190D01*
X79430476Y-78695714D02*
X79430476Y-79362380D01*
X79192380Y-78314761D02*
X78954285Y-79029047D01*
X79573333Y-79029047D01*
G04 #@! TO.C,R5*
X90003333Y-79362380D02*
X89670000Y-78886190D01*
X89431904Y-79362380D02*
X89431904Y-78362380D01*
X89812857Y-78362380D01*
X89908095Y-78410000D01*
X89955714Y-78457619D01*
X90003333Y-78552857D01*
X90003333Y-78695714D01*
X89955714Y-78790952D01*
X89908095Y-78838571D01*
X89812857Y-78886190D01*
X89431904Y-78886190D01*
X90908095Y-78362380D02*
X90431904Y-78362380D01*
X90384285Y-78838571D01*
X90431904Y-78790952D01*
X90527142Y-78743333D01*
X90765238Y-78743333D01*
X90860476Y-78790952D01*
X90908095Y-78838571D01*
X90955714Y-78933809D01*
X90955714Y-79171904D01*
X90908095Y-79267142D01*
X90860476Y-79314761D01*
X90765238Y-79362380D01*
X90527142Y-79362380D01*
X90431904Y-79314761D01*
X90384285Y-79267142D01*
G04 #@! TO.C,R6*
X90003333Y-80292380D02*
X89670000Y-79816190D01*
X89431904Y-80292380D02*
X89431904Y-79292380D01*
X89812857Y-79292380D01*
X89908095Y-79340000D01*
X89955714Y-79387619D01*
X90003333Y-79482857D01*
X90003333Y-79625714D01*
X89955714Y-79720952D01*
X89908095Y-79768571D01*
X89812857Y-79816190D01*
X89431904Y-79816190D01*
X90860476Y-79292380D02*
X90670000Y-79292380D01*
X90574761Y-79340000D01*
X90527142Y-79387619D01*
X90431904Y-79530476D01*
X90384285Y-79720952D01*
X90384285Y-80101904D01*
X90431904Y-80197142D01*
X90479523Y-80244761D01*
X90574761Y-80292380D01*
X90765238Y-80292380D01*
X90860476Y-80244761D01*
X90908095Y-80197142D01*
X90955714Y-80101904D01*
X90955714Y-79863809D01*
X90908095Y-79768571D01*
X90860476Y-79720952D01*
X90765238Y-79673333D01*
X90574761Y-79673333D01*
X90479523Y-79720952D01*
X90431904Y-79768571D01*
X90384285Y-79863809D01*
G04 #@! TO.C,R7*
X101433333Y-75552380D02*
X101100000Y-75076190D01*
X100861904Y-75552380D02*
X100861904Y-74552380D01*
X101242857Y-74552380D01*
X101338095Y-74600000D01*
X101385714Y-74647619D01*
X101433333Y-74742857D01*
X101433333Y-74885714D01*
X101385714Y-74980952D01*
X101338095Y-75028571D01*
X101242857Y-75076190D01*
X100861904Y-75076190D01*
X101766666Y-74552380D02*
X102433333Y-74552380D01*
X102004761Y-75552380D01*
G04 #@! TO.C,SW1*
X113676666Y-77144761D02*
X113819523Y-77192380D01*
X114057619Y-77192380D01*
X114152857Y-77144761D01*
X114200476Y-77097142D01*
X114248095Y-77001904D01*
X114248095Y-76906666D01*
X114200476Y-76811428D01*
X114152857Y-76763809D01*
X114057619Y-76716190D01*
X113867142Y-76668571D01*
X113771904Y-76620952D01*
X113724285Y-76573333D01*
X113676666Y-76478095D01*
X113676666Y-76382857D01*
X113724285Y-76287619D01*
X113771904Y-76240000D01*
X113867142Y-76192380D01*
X114105238Y-76192380D01*
X114248095Y-76240000D01*
X114581428Y-76192380D02*
X114819523Y-77192380D01*
X115010000Y-76478095D01*
X115200476Y-77192380D01*
X115438571Y-76192380D01*
X116343333Y-77192380D02*
X115771904Y-77192380D01*
X116057619Y-77192380D02*
X116057619Y-76192380D01*
X115962380Y-76335238D01*
X115867142Y-76430476D01*
X115771904Y-76478095D01*
G04 #@! TO.C,U1*
X89408095Y-89832380D02*
X89408095Y-90641904D01*
X89455714Y-90737142D01*
X89503333Y-90784761D01*
X89598571Y-90832380D01*
X89789047Y-90832380D01*
X89884285Y-90784761D01*
X89931904Y-90737142D01*
X89979523Y-90641904D01*
X89979523Y-89832380D01*
X90979523Y-90832380D02*
X90408095Y-90832380D01*
X90693809Y-90832380D02*
X90693809Y-89832380D01*
X90598571Y-89975238D01*
X90503333Y-90070476D01*
X90408095Y-90118095D01*
G04 #@! TO.C,U2*
X83058095Y-62492380D02*
X83058095Y-63301904D01*
X83105714Y-63397142D01*
X83153333Y-63444761D01*
X83248571Y-63492380D01*
X83439047Y-63492380D01*
X83534285Y-63444761D01*
X83581904Y-63397142D01*
X83629523Y-63301904D01*
X83629523Y-62492380D01*
X84058095Y-62587619D02*
X84105714Y-62540000D01*
X84200952Y-62492380D01*
X84439047Y-62492380D01*
X84534285Y-62540000D01*
X84581904Y-62587619D01*
X84629523Y-62682857D01*
X84629523Y-62778095D01*
X84581904Y-62920952D01*
X84010476Y-63492380D01*
X84629523Y-63492380D01*
G04 #@! TO.C,Y1*
X89783809Y-143771190D02*
X89783809Y-144247380D01*
X89450476Y-143247380D02*
X89783809Y-143771190D01*
X90117142Y-143247380D01*
X90974285Y-144247380D02*
X90402857Y-144247380D01*
X90688571Y-144247380D02*
X90688571Y-143247380D01*
X90593333Y-143390238D01*
X90498095Y-143485476D01*
X90402857Y-143533095D01*
G04 #@! TO.C,C5*
X65893333Y-86617142D02*
X65845714Y-86664761D01*
X65702857Y-86712380D01*
X65607619Y-86712380D01*
X65464761Y-86664761D01*
X65369523Y-86569523D01*
X65321904Y-86474285D01*
X65274285Y-86283809D01*
X65274285Y-86140952D01*
X65321904Y-85950476D01*
X65369523Y-85855238D01*
X65464761Y-85760000D01*
X65607619Y-85712380D01*
X65702857Y-85712380D01*
X65845714Y-85760000D01*
X65893333Y-85807619D01*
X66798095Y-85712380D02*
X66321904Y-85712380D01*
X66274285Y-86188571D01*
X66321904Y-86140952D01*
X66417142Y-86093333D01*
X66655238Y-86093333D01*
X66750476Y-86140952D01*
X66798095Y-86188571D01*
X66845714Y-86283809D01*
X66845714Y-86521904D01*
X66798095Y-86617142D01*
X66750476Y-86664761D01*
X66655238Y-86712380D01*
X66417142Y-86712380D01*
X66321904Y-86664761D01*
X66274285Y-86617142D01*
G04 #@! TO.C,J11*
X86022380Y-154479523D02*
X86736666Y-154479523D01*
X86879523Y-154527142D01*
X86974761Y-154622380D01*
X87022380Y-154765238D01*
X87022380Y-154860476D01*
X87022380Y-153479523D02*
X87022380Y-154050952D01*
X87022380Y-153765238D02*
X86022380Y-153765238D01*
X86165238Y-153860476D01*
X86260476Y-153955714D01*
X86308095Y-154050952D01*
X87022380Y-152527142D02*
X87022380Y-153098571D01*
X87022380Y-152812857D02*
X86022380Y-152812857D01*
X86165238Y-152908095D01*
X86260476Y-153003333D01*
X86308095Y-153098571D01*
G04 #@! TO.C,C1*
X75418333Y-140647142D02*
X75370714Y-140694761D01*
X75227857Y-140742380D01*
X75132619Y-140742380D01*
X74989761Y-140694761D01*
X74894523Y-140599523D01*
X74846904Y-140504285D01*
X74799285Y-140313809D01*
X74799285Y-140170952D01*
X74846904Y-139980476D01*
X74894523Y-139885238D01*
X74989761Y-139790000D01*
X75132619Y-139742380D01*
X75227857Y-139742380D01*
X75370714Y-139790000D01*
X75418333Y-139837619D01*
X76370714Y-140742380D02*
X75799285Y-140742380D01*
X76085000Y-140742380D02*
X76085000Y-139742380D01*
X75989761Y-139885238D01*
X75894523Y-139980476D01*
X75799285Y-140028095D01*
G04 #@! TO.C,Q1*
X79914761Y-70647619D02*
X79819523Y-70600000D01*
X79724285Y-70504761D01*
X79581428Y-70361904D01*
X79486190Y-70314285D01*
X79390952Y-70314285D01*
X79438571Y-70552380D02*
X79343333Y-70504761D01*
X79248095Y-70409523D01*
X79200476Y-70219047D01*
X79200476Y-69885714D01*
X79248095Y-69695238D01*
X79343333Y-69600000D01*
X79438571Y-69552380D01*
X79629047Y-69552380D01*
X79724285Y-69600000D01*
X79819523Y-69695238D01*
X79867142Y-69885714D01*
X79867142Y-70219047D01*
X79819523Y-70409523D01*
X79724285Y-70504761D01*
X79629047Y-70552380D01*
X79438571Y-70552380D01*
X80819523Y-70552380D02*
X80248095Y-70552380D01*
X80533809Y-70552380D02*
X80533809Y-69552380D01*
X80438571Y-69695238D01*
X80343333Y-69790476D01*
X80248095Y-69838095D01*
G04 #@! TO.C,J12*
X113490476Y-140212380D02*
X113490476Y-140926666D01*
X113442857Y-141069523D01*
X113347619Y-141164761D01*
X113204761Y-141212380D01*
X113109523Y-141212380D01*
X114490476Y-141212380D02*
X113919047Y-141212380D01*
X114204761Y-141212380D02*
X114204761Y-140212380D01*
X114109523Y-140355238D01*
X114014285Y-140450476D01*
X113919047Y-140498095D01*
X114871428Y-140307619D02*
X114919047Y-140260000D01*
X115014285Y-140212380D01*
X115252380Y-140212380D01*
X115347619Y-140260000D01*
X115395238Y-140307619D01*
X115442857Y-140402857D01*
X115442857Y-140498095D01*
X115395238Y-140640952D01*
X114823809Y-141212380D01*
X115442857Y-141212380D01*
G04 #@! TD*
M02*
