G04 #@! TF.GenerationSoftware,KiCad,Pcbnew,(5.0.0)*
G04 #@! TF.CreationDate,2018-11-28T10:02:28-05:00*
G04 #@! TF.ProjectId,Placa_PIC18F4550,506C6163615F50494331384634353530,rev?*
G04 #@! TF.SameCoordinates,Original*
G04 #@! TF.FileFunction,Soldermask,Bot*
G04 #@! TF.FilePolarity,Negative*
%FSLAX46Y46*%
G04 Gerber Fmt 4.6, Leading zero omitted, Abs format (unit mm)*
G04 Created by KiCad (PCBNEW (5.0.0)) date 11/28/18 10:02:28*
%MOMM*%
%LPD*%
G01*
G04 APERTURE LIST*
%ADD10R,2.000000X2.000000*%
%ADD11C,2.000000*%
%ADD12R,2.200000X2.200000*%
%ADD13C,2.200000*%
%ADD14O,2.000000X2.000000*%
%ADD15R,2.100000X2.100000*%
%ADD16O,2.100000X2.100000*%
%ADD17C,0.150000*%
%ADD18C,3.400000*%
%ADD19R,5.200000X3.400000*%
%ADD20C,2.100000*%
%ADD21C,3.900000*%
%ADD22O,1.450000X1.900000*%
%ADD23R,1.450000X1.900000*%
%ADD24C,2.400000*%
%ADD25R,2.305000X2.400000*%
%ADD26O,2.305000X2.400000*%
%ADD27C,2.700000*%
G04 APERTURE END LIST*
D10*
G04 #@! TO.C,C1*
X74930000Y-135890000D03*
D11*
X77430000Y-135890000D03*
G04 #@! TD*
G04 #@! TO.C,C2*
X81240000Y-147320000D03*
X78740000Y-147320000D03*
G04 #@! TD*
G04 #@! TO.C,C3*
X100330000Y-147320000D03*
X97830000Y-147320000D03*
G04 #@! TD*
G04 #@! TO.C,C4*
X101600000Y-67310000D03*
X104100000Y-67310000D03*
G04 #@! TD*
D12*
G04 #@! TO.C,D1*
X104140000Y-140970000D03*
D13*
X106680000Y-140970000D03*
G04 #@! TD*
D10*
G04 #@! TO.C,D2*
X93980000Y-73660000D03*
D14*
X86360000Y-73660000D03*
G04 #@! TD*
G04 #@! TO.C,D3*
X105410000Y-73660000D03*
D10*
X97790000Y-73660000D03*
G04 #@! TD*
D13*
G04 #@! TO.C,D4*
X95250000Y-67310000D03*
D12*
X92710000Y-67310000D03*
G04 #@! TD*
D15*
G04 #@! TO.C,J1*
X118110000Y-135890000D03*
D16*
X118110000Y-133350000D03*
X118110000Y-130810000D03*
X118110000Y-128270000D03*
X118110000Y-125730000D03*
X118110000Y-123190000D03*
X118110000Y-120650000D03*
X118110000Y-118110000D03*
G04 #@! TD*
G04 #@! TO.C,J2*
X58420000Y-110490000D03*
X58420000Y-107950000D03*
X58420000Y-105410000D03*
X58420000Y-102870000D03*
X58420000Y-100330000D03*
X58420000Y-97790000D03*
D15*
X58420000Y-95250000D03*
G04 #@! TD*
G04 #@! TO.C,J3*
X58420000Y-116840000D03*
D16*
X58420000Y-119380000D03*
X58420000Y-121920000D03*
G04 #@! TD*
G04 #@! TO.C,J4*
X118110000Y-92710000D03*
X118110000Y-95250000D03*
X118110000Y-97790000D03*
X118110000Y-100330000D03*
X118110000Y-102870000D03*
X118110000Y-105410000D03*
X118110000Y-107950000D03*
D15*
X118110000Y-110490000D03*
G04 #@! TD*
G04 #@! TO.C,J5*
X58420000Y-128270000D03*
D16*
X58420000Y-130810000D03*
X58420000Y-133350000D03*
X58420000Y-135890000D03*
X58420000Y-138430000D03*
X58420000Y-140970000D03*
X58420000Y-143510000D03*
G04 #@! TD*
D15*
G04 #@! TO.C,J6*
X66040000Y-147320000D03*
D16*
X68580000Y-147320000D03*
X71120000Y-147320000D03*
G04 #@! TD*
G04 #@! TO.C,J7*
X115570000Y-147320000D03*
X113030000Y-147320000D03*
D15*
X110490000Y-147320000D03*
G04 #@! TD*
G04 #@! TO.C,J8*
X77470000Y-153670000D03*
D16*
X80010000Y-153670000D03*
X82550000Y-153670000D03*
G04 #@! TD*
D17*
G04 #@! TO.C,J9*
G36*
X117403315Y-64594093D02*
X117485827Y-64606333D01*
X117566742Y-64626601D01*
X117645281Y-64654702D01*
X117720687Y-64690367D01*
X117792235Y-64733251D01*
X117859234Y-64782941D01*
X117921041Y-64838959D01*
X117977059Y-64900766D01*
X118026749Y-64967765D01*
X118069633Y-65039313D01*
X118105298Y-65114719D01*
X118133399Y-65193258D01*
X118153667Y-65274173D01*
X118165907Y-65356685D01*
X118170000Y-65440000D01*
X118170000Y-67140000D01*
X118165907Y-67223315D01*
X118153667Y-67305827D01*
X118133399Y-67386742D01*
X118105298Y-67465281D01*
X118069633Y-67540687D01*
X118026749Y-67612235D01*
X117977059Y-67679234D01*
X117921041Y-67741041D01*
X117859234Y-67797059D01*
X117792235Y-67846749D01*
X117720687Y-67889633D01*
X117645281Y-67925298D01*
X117566742Y-67953399D01*
X117485827Y-67973667D01*
X117403315Y-67985907D01*
X117320000Y-67990000D01*
X113820000Y-67990000D01*
X113736685Y-67985907D01*
X113654173Y-67973667D01*
X113573258Y-67953399D01*
X113494719Y-67925298D01*
X113419313Y-67889633D01*
X113347765Y-67846749D01*
X113280766Y-67797059D01*
X113218959Y-67741041D01*
X113162941Y-67679234D01*
X113113251Y-67612235D01*
X113070367Y-67540687D01*
X113034702Y-67465281D01*
X113006601Y-67386742D01*
X112986333Y-67305827D01*
X112974093Y-67223315D01*
X112970000Y-67140000D01*
X112970000Y-65440000D01*
X112974093Y-65356685D01*
X112986333Y-65274173D01*
X113006601Y-65193258D01*
X113034702Y-65114719D01*
X113070367Y-65039313D01*
X113113251Y-64967765D01*
X113162941Y-64900766D01*
X113218959Y-64838959D01*
X113280766Y-64782941D01*
X113347765Y-64733251D01*
X113419313Y-64690367D01*
X113494719Y-64654702D01*
X113573258Y-64626601D01*
X113654173Y-64606333D01*
X113736685Y-64594093D01*
X113820000Y-64590000D01*
X117320000Y-64590000D01*
X117403315Y-64594093D01*
X117403315Y-64594093D01*
G37*
D18*
X115570000Y-66290000D03*
D19*
X115570000Y-72390000D03*
D17*
G36*
X111423315Y-65984093D02*
X111505827Y-65996333D01*
X111586742Y-66016601D01*
X111665281Y-66044702D01*
X111740687Y-66080367D01*
X111812235Y-66123251D01*
X111879234Y-66172941D01*
X111941041Y-66228959D01*
X111997059Y-66290766D01*
X112046749Y-66357765D01*
X112089633Y-66429313D01*
X112125298Y-66504719D01*
X112153399Y-66583258D01*
X112173667Y-66664173D01*
X112185907Y-66746685D01*
X112190000Y-66830000D01*
X112190000Y-70330000D01*
X112185907Y-70413315D01*
X112173667Y-70495827D01*
X112153399Y-70576742D01*
X112125298Y-70655281D01*
X112089633Y-70730687D01*
X112046749Y-70802235D01*
X111997059Y-70869234D01*
X111941041Y-70931041D01*
X111879234Y-70987059D01*
X111812235Y-71036749D01*
X111740687Y-71079633D01*
X111665281Y-71115298D01*
X111586742Y-71143399D01*
X111505827Y-71163667D01*
X111423315Y-71175907D01*
X111340000Y-71180000D01*
X109640000Y-71180000D01*
X109556685Y-71175907D01*
X109474173Y-71163667D01*
X109393258Y-71143399D01*
X109314719Y-71115298D01*
X109239313Y-71079633D01*
X109167765Y-71036749D01*
X109100766Y-70987059D01*
X109038959Y-70931041D01*
X108982941Y-70869234D01*
X108933251Y-70802235D01*
X108890367Y-70730687D01*
X108854702Y-70655281D01*
X108826601Y-70576742D01*
X108806333Y-70495827D01*
X108794093Y-70413315D01*
X108790000Y-70330000D01*
X108790000Y-66830000D01*
X108794093Y-66746685D01*
X108806333Y-66664173D01*
X108826601Y-66583258D01*
X108854702Y-66504719D01*
X108890367Y-66429313D01*
X108933251Y-66357765D01*
X108982941Y-66290766D01*
X109038959Y-66228959D01*
X109100766Y-66172941D01*
X109167765Y-66123251D01*
X109239313Y-66080367D01*
X109314719Y-66044702D01*
X109393258Y-66016601D01*
X109474173Y-65996333D01*
X109556685Y-65984093D01*
X109640000Y-65980000D01*
X111340000Y-65980000D01*
X111423315Y-65984093D01*
X111423315Y-65984093D01*
G37*
D18*
X110490000Y-68580000D03*
G04 #@! TD*
D15*
G04 #@! TO.C,J10*
X64770000Y-71120000D03*
D20*
X67270000Y-71120000D03*
X67270000Y-69120000D03*
X64770000Y-69120000D03*
D21*
X60000000Y-66410000D03*
X72040000Y-66410000D03*
G04 #@! TD*
D22*
G04 #@! TO.C,Q1*
X81280000Y-73660000D03*
X82550000Y-73660000D03*
D23*
X80010000Y-73660000D03*
G04 #@! TD*
D14*
G04 #@! TO.C,R1*
X85090000Y-86360000D03*
D11*
X92710000Y-86360000D03*
G04 #@! TD*
G04 #@! TO.C,R2*
X118110000Y-140970000D03*
D14*
X110490000Y-140970000D03*
G04 #@! TD*
G04 #@! TO.C,R3*
X105410000Y-81280000D03*
D11*
X97790000Y-81280000D03*
G04 #@! TD*
G04 #@! TO.C,R4*
X74930000Y-81280000D03*
D14*
X82550000Y-81280000D03*
G04 #@! TD*
D11*
G04 #@! TO.C,R5*
X86360000Y-81280000D03*
D14*
X93980000Y-81280000D03*
G04 #@! TD*
G04 #@! TO.C,R6*
X86360000Y-77470000D03*
D11*
X93980000Y-77470000D03*
G04 #@! TD*
G04 #@! TO.C,R7*
X97790000Y-77470000D03*
D14*
X105410000Y-77470000D03*
G04 #@! TD*
D24*
G04 #@! TO.C,SW1*
X111760000Y-83240000D03*
X111760000Y-78740000D03*
X118260000Y-83240000D03*
X118260000Y-78740000D03*
G04 #@! TD*
D10*
G04 #@! TO.C,U1*
X82550000Y-92710000D03*
D14*
X97790000Y-140970000D03*
X82550000Y-95250000D03*
X97790000Y-138430000D03*
X82550000Y-97790000D03*
X97790000Y-135890000D03*
X82550000Y-100330000D03*
X97790000Y-133350000D03*
X82550000Y-102870000D03*
X97790000Y-130810000D03*
X82550000Y-105410000D03*
X97790000Y-128270000D03*
X82550000Y-107950000D03*
X97790000Y-125730000D03*
X82550000Y-110490000D03*
X97790000Y-123190000D03*
X82550000Y-113030000D03*
X97790000Y-120650000D03*
X82550000Y-115570000D03*
X97790000Y-118110000D03*
X82550000Y-118110000D03*
X97790000Y-115570000D03*
X82550000Y-120650000D03*
X97790000Y-113030000D03*
X82550000Y-123190000D03*
X97790000Y-110490000D03*
X82550000Y-125730000D03*
X97790000Y-107950000D03*
X82550000Y-128270000D03*
X97790000Y-105410000D03*
X82550000Y-130810000D03*
X97790000Y-102870000D03*
X82550000Y-133350000D03*
X97790000Y-100330000D03*
X82550000Y-135890000D03*
X97790000Y-97790000D03*
X82550000Y-138430000D03*
X97790000Y-95250000D03*
X82550000Y-140970000D03*
X97790000Y-92710000D03*
G04 #@! TD*
D25*
G04 #@! TO.C,U2*
X81280000Y-67310000D03*
D26*
X83820000Y-67310000D03*
X86360000Y-67310000D03*
G04 #@! TD*
D27*
G04 #@! TO.C,Y1*
X87810000Y-147320000D03*
X92710000Y-147320000D03*
G04 #@! TD*
D10*
G04 #@! TO.C,C5*
X67310000Y-80010000D03*
D11*
X64810000Y-80010000D03*
G04 #@! TD*
D15*
G04 #@! TO.C,J11*
X88900000Y-153670000D03*
D16*
X91440000Y-153670000D03*
X93980000Y-153670000D03*
X96520000Y-153670000D03*
X99060000Y-153670000D03*
X101600000Y-153670000D03*
G04 #@! TD*
M02*
