G04 #@! TF.GenerationSoftware,KiCad,Pcbnew,(5.0.0)*
G04 #@! TF.CreationDate,2018-11-28T10:02:28-05:00*
G04 #@! TF.ProjectId,Placa_PIC18F4550,506C6163615F50494331384634353530,rev?*
G04 #@! TF.SameCoordinates,Original*
G04 #@! TF.FileFunction,Legend,Top*
G04 #@! TF.FilePolarity,Positive*
%FSLAX46Y46*%
G04 Gerber Fmt 4.6, Leading zero omitted, Abs format (unit mm)*
G04 Created by KiCad (PCBNEW (5.0.0)) date 11/28/18 10:02:28*
%MOMM*%
%LPD*%
G01*
G04 APERTURE LIST*
%ADD10C,0.300000*%
%ADD11C,0.120000*%
%ADD12C,0.010000*%
%ADD13C,0.150000*%
G04 APERTURE END LIST*
D10*
X115931428Y-154348571D02*
X115931428Y-152848571D01*
X116502857Y-152848571D01*
X116645714Y-152920000D01*
X116717142Y-152991428D01*
X116788571Y-153134285D01*
X116788571Y-153348571D01*
X116717142Y-153491428D01*
X116645714Y-153562857D01*
X116502857Y-153634285D01*
X115931428Y-153634285D01*
X118002857Y-154277142D02*
X117860000Y-154348571D01*
X117574285Y-154348571D01*
X117431428Y-154277142D01*
X117360000Y-154134285D01*
X117360000Y-153562857D01*
X117431428Y-153420000D01*
X117574285Y-153348571D01*
X117860000Y-153348571D01*
X118002857Y-153420000D01*
X118074285Y-153562857D01*
X118074285Y-153705714D01*
X117360000Y-153848571D01*
X118717142Y-154348571D02*
X118717142Y-153348571D01*
X118717142Y-153634285D02*
X118788571Y-153491428D01*
X118860000Y-153420000D01*
X119002857Y-153348571D01*
X119145714Y-153348571D01*
X120288571Y-153348571D02*
X120288571Y-154348571D01*
X119645714Y-153348571D02*
X119645714Y-154134285D01*
X119717142Y-154277142D01*
X119860000Y-154348571D01*
X120074285Y-154348571D01*
X120217142Y-154277142D01*
X120288571Y-154205714D01*
X54781428Y-152991428D02*
X54852857Y-152920000D01*
X54995714Y-152848571D01*
X55352857Y-152848571D01*
X55495714Y-152920000D01*
X55567142Y-152991428D01*
X55638571Y-153134285D01*
X55638571Y-153277142D01*
X55567142Y-153491428D01*
X54710000Y-154348571D01*
X55638571Y-154348571D01*
X56924285Y-152848571D02*
X56638571Y-152848571D01*
X56495714Y-152920000D01*
X56424285Y-152991428D01*
X56281428Y-153205714D01*
X56210000Y-153491428D01*
X56210000Y-154062857D01*
X56281428Y-154205714D01*
X56352857Y-154277142D01*
X56495714Y-154348571D01*
X56781428Y-154348571D01*
X56924285Y-154277142D01*
X56995714Y-154205714D01*
X57067142Y-154062857D01*
X57067142Y-153705714D01*
X56995714Y-153562857D01*
X56924285Y-153491428D01*
X56781428Y-153420000D01*
X56495714Y-153420000D01*
X56352857Y-153491428D01*
X56281428Y-153562857D01*
X56210000Y-153705714D01*
X58781428Y-152777142D02*
X57495714Y-154705714D01*
X59281428Y-154348571D02*
X59281428Y-152848571D01*
X60138571Y-154348571D01*
X60138571Y-152848571D01*
X61067142Y-154348571D02*
X60924285Y-154277142D01*
X60852857Y-154205714D01*
X60781428Y-154062857D01*
X60781428Y-153634285D01*
X60852857Y-153491428D01*
X60924285Y-153420000D01*
X61067142Y-153348571D01*
X61281428Y-153348571D01*
X61424285Y-153420000D01*
X61495714Y-153491428D01*
X61567142Y-153634285D01*
X61567142Y-154062857D01*
X61495714Y-154205714D01*
X61424285Y-154277142D01*
X61281428Y-154348571D01*
X61067142Y-154348571D01*
X62067142Y-153348571D02*
X62424285Y-154348571D01*
X62781428Y-153348571D01*
X64424285Y-152777142D02*
X63138571Y-154705714D01*
X65710000Y-154348571D02*
X64852857Y-154348571D01*
X65281428Y-154348571D02*
X65281428Y-152848571D01*
X65138571Y-153062857D01*
X64995714Y-153205714D01*
X64852857Y-153277142D01*
X66567142Y-153491428D02*
X66424285Y-153420000D01*
X66352857Y-153348571D01*
X66281428Y-153205714D01*
X66281428Y-153134285D01*
X66352857Y-152991428D01*
X66424285Y-152920000D01*
X66567142Y-152848571D01*
X66852857Y-152848571D01*
X66995714Y-152920000D01*
X67067142Y-152991428D01*
X67138571Y-153134285D01*
X67138571Y-153205714D01*
X67067142Y-153348571D01*
X66995714Y-153420000D01*
X66852857Y-153491428D01*
X66567142Y-153491428D01*
X66424285Y-153562857D01*
X66352857Y-153634285D01*
X66281428Y-153777142D01*
X66281428Y-154062857D01*
X66352857Y-154205714D01*
X66424285Y-154277142D01*
X66567142Y-154348571D01*
X66852857Y-154348571D01*
X66995714Y-154277142D01*
X67067142Y-154205714D01*
X67138571Y-154062857D01*
X67138571Y-153777142D01*
X67067142Y-153634285D01*
X66995714Y-153562857D01*
X66852857Y-153491428D01*
X100532857Y-87028571D02*
X100532857Y-85528571D01*
X101104285Y-85528571D01*
X101247142Y-85600000D01*
X101318571Y-85671428D01*
X101390000Y-85814285D01*
X101390000Y-86028571D01*
X101318571Y-86171428D01*
X101247142Y-86242857D01*
X101104285Y-86314285D01*
X100532857Y-86314285D01*
X102747142Y-87028571D02*
X102032857Y-87028571D01*
X102032857Y-85528571D01*
X103175714Y-86600000D02*
X103890000Y-86600000D01*
X103032857Y-87028571D02*
X103532857Y-85528571D01*
X104032857Y-87028571D01*
X105390000Y-86885714D02*
X105318571Y-86957142D01*
X105104285Y-87028571D01*
X104961428Y-87028571D01*
X104747142Y-86957142D01*
X104604285Y-86814285D01*
X104532857Y-86671428D01*
X104461428Y-86385714D01*
X104461428Y-86171428D01*
X104532857Y-85885714D01*
X104604285Y-85742857D01*
X104747142Y-85600000D01*
X104961428Y-85528571D01*
X105104285Y-85528571D01*
X105318571Y-85600000D01*
X105390000Y-85671428D01*
X105961428Y-86600000D02*
X106675714Y-86600000D01*
X105818571Y-87028571D02*
X106318571Y-85528571D01*
X106818571Y-87028571D01*
X97711428Y-89578571D02*
X97711428Y-88078571D01*
X98282857Y-88078571D01*
X98425714Y-88150000D01*
X98497142Y-88221428D01*
X98568571Y-88364285D01*
X98568571Y-88578571D01*
X98497142Y-88721428D01*
X98425714Y-88792857D01*
X98282857Y-88864285D01*
X97711428Y-88864285D01*
X99211428Y-89578571D02*
X99211428Y-88078571D01*
X100782857Y-89435714D02*
X100711428Y-89507142D01*
X100497142Y-89578571D01*
X100354285Y-89578571D01*
X100140000Y-89507142D01*
X99997142Y-89364285D01*
X99925714Y-89221428D01*
X99854285Y-88935714D01*
X99854285Y-88721428D01*
X99925714Y-88435714D01*
X99997142Y-88292857D01*
X100140000Y-88150000D01*
X100354285Y-88078571D01*
X100497142Y-88078571D01*
X100711428Y-88150000D01*
X100782857Y-88221428D01*
X102211428Y-89578571D02*
X101354285Y-89578571D01*
X101782857Y-89578571D02*
X101782857Y-88078571D01*
X101640000Y-88292857D01*
X101497142Y-88435714D01*
X101354285Y-88507142D01*
X103068571Y-88721428D02*
X102925714Y-88650000D01*
X102854285Y-88578571D01*
X102782857Y-88435714D01*
X102782857Y-88364285D01*
X102854285Y-88221428D01*
X102925714Y-88150000D01*
X103068571Y-88078571D01*
X103354285Y-88078571D01*
X103497142Y-88150000D01*
X103568571Y-88221428D01*
X103640000Y-88364285D01*
X103640000Y-88435714D01*
X103568571Y-88578571D01*
X103497142Y-88650000D01*
X103354285Y-88721428D01*
X103068571Y-88721428D01*
X102925714Y-88792857D01*
X102854285Y-88864285D01*
X102782857Y-89007142D01*
X102782857Y-89292857D01*
X102854285Y-89435714D01*
X102925714Y-89507142D01*
X103068571Y-89578571D01*
X103354285Y-89578571D01*
X103497142Y-89507142D01*
X103568571Y-89435714D01*
X103640000Y-89292857D01*
X103640000Y-89007142D01*
X103568571Y-88864285D01*
X103497142Y-88792857D01*
X103354285Y-88721428D01*
X104782857Y-88792857D02*
X104282857Y-88792857D01*
X104282857Y-89578571D02*
X104282857Y-88078571D01*
X104997142Y-88078571D01*
X106211428Y-88578571D02*
X106211428Y-89578571D01*
X105854285Y-88007142D02*
X105497142Y-89078571D01*
X106425714Y-89078571D01*
X107711428Y-88078571D02*
X106997142Y-88078571D01*
X106925714Y-88792857D01*
X106997142Y-88721428D01*
X107140000Y-88650000D01*
X107497142Y-88650000D01*
X107640000Y-88721428D01*
X107711428Y-88792857D01*
X107782857Y-88935714D01*
X107782857Y-89292857D01*
X107711428Y-89435714D01*
X107640000Y-89507142D01*
X107497142Y-89578571D01*
X107140000Y-89578571D01*
X106997142Y-89507142D01*
X106925714Y-89435714D01*
X109140000Y-88078571D02*
X108425714Y-88078571D01*
X108354285Y-88792857D01*
X108425714Y-88721428D01*
X108568571Y-88650000D01*
X108925714Y-88650000D01*
X109068571Y-88721428D01*
X109140000Y-88792857D01*
X109211428Y-88935714D01*
X109211428Y-89292857D01*
X109140000Y-89435714D01*
X109068571Y-89507142D01*
X108925714Y-89578571D01*
X108568571Y-89578571D01*
X108425714Y-89507142D01*
X108354285Y-89435714D01*
X110140000Y-88078571D02*
X110282857Y-88078571D01*
X110425714Y-88150000D01*
X110497142Y-88221428D01*
X110568571Y-88364285D01*
X110640000Y-88650000D01*
X110640000Y-89007142D01*
X110568571Y-89292857D01*
X110497142Y-89435714D01*
X110425714Y-89507142D01*
X110282857Y-89578571D01*
X110140000Y-89578571D01*
X109997142Y-89507142D01*
X109925714Y-89435714D01*
X109854285Y-89292857D01*
X109782857Y-89007142D01*
X109782857Y-88650000D01*
X109854285Y-88364285D01*
X109925714Y-88221428D01*
X109997142Y-88150000D01*
X110140000Y-88078571D01*
X101282857Y-90628571D02*
X101782857Y-92128571D01*
X102282857Y-90628571D01*
X104711428Y-92128571D02*
X103854285Y-92128571D01*
X104282857Y-92128571D02*
X104282857Y-90628571D01*
X104140000Y-90842857D01*
X103997142Y-90985714D01*
X103854285Y-91057142D01*
X105354285Y-91985714D02*
X105425714Y-92057142D01*
X105354285Y-92128571D01*
X105282857Y-92057142D01*
X105354285Y-91985714D01*
X105354285Y-92128571D01*
X106354285Y-90628571D02*
X106497142Y-90628571D01*
X106640000Y-90700000D01*
X106711428Y-90771428D01*
X106782857Y-90914285D01*
X106854285Y-91200000D01*
X106854285Y-91557142D01*
X106782857Y-91842857D01*
X106711428Y-91985714D01*
X106640000Y-92057142D01*
X106497142Y-92128571D01*
X106354285Y-92128571D01*
X106211428Y-92057142D01*
X106140000Y-91985714D01*
X106068571Y-91842857D01*
X105997142Y-91557142D01*
X105997142Y-91200000D01*
X106068571Y-90914285D01*
X106140000Y-90771428D01*
X106211428Y-90700000D01*
X106354285Y-90628571D01*
X61980000Y-144188571D02*
X61480000Y-143474285D01*
X61122857Y-144188571D02*
X61122857Y-142688571D01*
X61694285Y-142688571D01*
X61837142Y-142760000D01*
X61908571Y-142831428D01*
X61980000Y-142974285D01*
X61980000Y-143188571D01*
X61908571Y-143331428D01*
X61837142Y-143402857D01*
X61694285Y-143474285D01*
X61122857Y-143474285D01*
X62480000Y-142688571D02*
X63480000Y-144188571D01*
X63480000Y-142688571D02*
X62480000Y-144188571D01*
X61087142Y-140148571D02*
X61944285Y-140148571D01*
X61515714Y-141648571D02*
X61515714Y-140148571D01*
X62301428Y-140148571D02*
X63301428Y-141648571D01*
X63301428Y-140148571D02*
X62301428Y-141648571D01*
X96861428Y-63948571D02*
X97147142Y-63948571D01*
X97290000Y-64020000D01*
X97432857Y-64162857D01*
X97504285Y-64448571D01*
X97504285Y-64948571D01*
X97432857Y-65234285D01*
X97290000Y-65377142D01*
X97147142Y-65448571D01*
X96861428Y-65448571D01*
X96718571Y-65377142D01*
X96575714Y-65234285D01*
X96504285Y-64948571D01*
X96504285Y-64448571D01*
X96575714Y-64162857D01*
X96718571Y-64020000D01*
X96861428Y-63948571D01*
X98147142Y-65448571D02*
X98147142Y-63948571D01*
X99004285Y-65448571D01*
X99004285Y-63948571D01*
X113391428Y-87038571D02*
X112891428Y-86324285D01*
X112534285Y-87038571D02*
X112534285Y-85538571D01*
X113105714Y-85538571D01*
X113248571Y-85610000D01*
X113320000Y-85681428D01*
X113391428Y-85824285D01*
X113391428Y-86038571D01*
X113320000Y-86181428D01*
X113248571Y-86252857D01*
X113105714Y-86324285D01*
X112534285Y-86324285D01*
X114034285Y-86252857D02*
X114534285Y-86252857D01*
X114748571Y-87038571D02*
X114034285Y-87038571D01*
X114034285Y-85538571D01*
X114748571Y-85538571D01*
X115320000Y-86967142D02*
X115534285Y-87038571D01*
X115891428Y-87038571D01*
X116034285Y-86967142D01*
X116105714Y-86895714D01*
X116177142Y-86752857D01*
X116177142Y-86610000D01*
X116105714Y-86467142D01*
X116034285Y-86395714D01*
X115891428Y-86324285D01*
X115605714Y-86252857D01*
X115462857Y-86181428D01*
X115391428Y-86110000D01*
X115320000Y-85967142D01*
X115320000Y-85824285D01*
X115391428Y-85681428D01*
X115462857Y-85610000D01*
X115605714Y-85538571D01*
X115962857Y-85538571D01*
X116177142Y-85610000D01*
X116820000Y-86252857D02*
X117320000Y-86252857D01*
X117534285Y-87038571D02*
X116820000Y-87038571D01*
X116820000Y-85538571D01*
X117534285Y-85538571D01*
X117962857Y-85538571D02*
X118820000Y-85538571D01*
X118391428Y-87038571D02*
X118391428Y-85538571D01*
X121328571Y-104850000D02*
X119828571Y-104850000D01*
X119828571Y-104278571D01*
X119900000Y-104135714D01*
X119971428Y-104064285D01*
X120114285Y-103992857D01*
X120328571Y-103992857D01*
X120471428Y-104064285D01*
X120542857Y-104135714D01*
X120614285Y-104278571D01*
X120614285Y-104850000D01*
X119828571Y-103064285D02*
X119828571Y-102778571D01*
X119900000Y-102635714D01*
X120042857Y-102492857D01*
X120328571Y-102421428D01*
X120828571Y-102421428D01*
X121114285Y-102492857D01*
X121257142Y-102635714D01*
X121328571Y-102778571D01*
X121328571Y-103064285D01*
X121257142Y-103207142D01*
X121114285Y-103350000D01*
X120828571Y-103421428D01*
X120328571Y-103421428D01*
X120042857Y-103350000D01*
X119900000Y-103207142D01*
X119828571Y-103064285D01*
X121328571Y-100921428D02*
X120614285Y-101421428D01*
X121328571Y-101778571D02*
X119828571Y-101778571D01*
X119828571Y-101207142D01*
X119900000Y-101064285D01*
X119971428Y-100992857D01*
X120114285Y-100921428D01*
X120328571Y-100921428D01*
X120471428Y-100992857D01*
X120542857Y-101064285D01*
X120614285Y-101207142D01*
X120614285Y-101778571D01*
X119828571Y-100492857D02*
X119828571Y-99635714D01*
X121328571Y-100064285D02*
X119828571Y-100064285D01*
X120542857Y-98635714D02*
X120614285Y-98421428D01*
X120685714Y-98350000D01*
X120828571Y-98278571D01*
X121042857Y-98278571D01*
X121185714Y-98350000D01*
X121257142Y-98421428D01*
X121328571Y-98564285D01*
X121328571Y-99135714D01*
X119828571Y-99135714D01*
X119828571Y-98635714D01*
X119900000Y-98492857D01*
X119971428Y-98421428D01*
X120114285Y-98350000D01*
X120257142Y-98350000D01*
X120400000Y-98421428D01*
X120471428Y-98492857D01*
X120542857Y-98635714D01*
X120542857Y-99135714D01*
X113300000Y-111168571D02*
X112800000Y-110454285D01*
X112442857Y-111168571D02*
X112442857Y-109668571D01*
X113014285Y-109668571D01*
X113157142Y-109740000D01*
X113228571Y-109811428D01*
X113300000Y-109954285D01*
X113300000Y-110168571D01*
X113228571Y-110311428D01*
X113157142Y-110382857D01*
X113014285Y-110454285D01*
X112442857Y-110454285D01*
X114442857Y-110382857D02*
X114657142Y-110454285D01*
X114728571Y-110525714D01*
X114800000Y-110668571D01*
X114800000Y-110882857D01*
X114728571Y-111025714D01*
X114657142Y-111097142D01*
X114514285Y-111168571D01*
X113942857Y-111168571D01*
X113942857Y-109668571D01*
X114442857Y-109668571D01*
X114585714Y-109740000D01*
X114657142Y-109811428D01*
X114728571Y-109954285D01*
X114728571Y-110097142D01*
X114657142Y-110240000D01*
X114585714Y-110311428D01*
X114442857Y-110382857D01*
X113942857Y-110382857D01*
X115728571Y-109668571D02*
X115871428Y-109668571D01*
X116014285Y-109740000D01*
X116085714Y-109811428D01*
X116157142Y-109954285D01*
X116228571Y-110240000D01*
X116228571Y-110597142D01*
X116157142Y-110882857D01*
X116085714Y-111025714D01*
X116014285Y-111097142D01*
X115871428Y-111168571D01*
X115728571Y-111168571D01*
X115585714Y-111097142D01*
X115514285Y-111025714D01*
X115442857Y-110882857D01*
X115371428Y-110597142D01*
X115371428Y-110240000D01*
X115442857Y-109954285D01*
X115514285Y-109811428D01*
X115585714Y-109740000D01*
X115728571Y-109668571D01*
X121328571Y-130250000D02*
X119828571Y-130250000D01*
X119828571Y-129678571D01*
X119900000Y-129535714D01*
X119971428Y-129464285D01*
X120114285Y-129392857D01*
X120328571Y-129392857D01*
X120471428Y-129464285D01*
X120542857Y-129535714D01*
X120614285Y-129678571D01*
X120614285Y-130250000D01*
X119828571Y-128464285D02*
X119828571Y-128178571D01*
X119900000Y-128035714D01*
X120042857Y-127892857D01*
X120328571Y-127821428D01*
X120828571Y-127821428D01*
X121114285Y-127892857D01*
X121257142Y-128035714D01*
X121328571Y-128178571D01*
X121328571Y-128464285D01*
X121257142Y-128607142D01*
X121114285Y-128750000D01*
X120828571Y-128821428D01*
X120328571Y-128821428D01*
X120042857Y-128750000D01*
X119900000Y-128607142D01*
X119828571Y-128464285D01*
X121328571Y-126321428D02*
X120614285Y-126821428D01*
X121328571Y-127178571D02*
X119828571Y-127178571D01*
X119828571Y-126607142D01*
X119900000Y-126464285D01*
X119971428Y-126392857D01*
X120114285Y-126321428D01*
X120328571Y-126321428D01*
X120471428Y-126392857D01*
X120542857Y-126464285D01*
X120614285Y-126607142D01*
X120614285Y-127178571D01*
X119828571Y-125892857D02*
X119828571Y-125035714D01*
X121328571Y-125464285D02*
X119828571Y-125464285D01*
X121328571Y-124535714D02*
X119828571Y-124535714D01*
X119828571Y-124178571D01*
X119900000Y-123964285D01*
X120042857Y-123821428D01*
X120185714Y-123750000D01*
X120471428Y-123678571D01*
X120685714Y-123678571D01*
X120971428Y-123750000D01*
X121114285Y-123821428D01*
X121257142Y-123964285D01*
X121328571Y-124178571D01*
X121328571Y-124535714D01*
X113300000Y-136568571D02*
X112800000Y-135854285D01*
X112442857Y-136568571D02*
X112442857Y-135068571D01*
X113014285Y-135068571D01*
X113157142Y-135140000D01*
X113228571Y-135211428D01*
X113300000Y-135354285D01*
X113300000Y-135568571D01*
X113228571Y-135711428D01*
X113157142Y-135782857D01*
X113014285Y-135854285D01*
X112442857Y-135854285D01*
X113942857Y-136568571D02*
X113942857Y-135068571D01*
X114300000Y-135068571D01*
X114514285Y-135140000D01*
X114657142Y-135282857D01*
X114728571Y-135425714D01*
X114800000Y-135711428D01*
X114800000Y-135925714D01*
X114728571Y-136211428D01*
X114657142Y-136354285D01*
X114514285Y-136497142D01*
X114300000Y-136568571D01*
X113942857Y-136568571D01*
X115728571Y-135068571D02*
X115871428Y-135068571D01*
X116014285Y-135140000D01*
X116085714Y-135211428D01*
X116157142Y-135354285D01*
X116228571Y-135640000D01*
X116228571Y-135997142D01*
X116157142Y-136282857D01*
X116085714Y-136425714D01*
X116014285Y-136497142D01*
X115871428Y-136568571D01*
X115728571Y-136568571D01*
X115585714Y-136497142D01*
X115514285Y-136425714D01*
X115442857Y-136282857D01*
X115371428Y-135997142D01*
X115371428Y-135640000D01*
X115442857Y-135354285D01*
X115514285Y-135211428D01*
X115585714Y-135140000D01*
X115728571Y-135068571D01*
X101885714Y-150308571D02*
X101600000Y-150308571D01*
X101457142Y-150380000D01*
X101385714Y-150451428D01*
X101242857Y-150665714D01*
X101171428Y-150951428D01*
X101171428Y-151522857D01*
X101242857Y-151665714D01*
X101314285Y-151737142D01*
X101457142Y-151808571D01*
X101742857Y-151808571D01*
X101885714Y-151737142D01*
X101957142Y-151665714D01*
X102028571Y-151522857D01*
X102028571Y-151165714D01*
X101957142Y-151022857D01*
X101885714Y-150951428D01*
X101742857Y-150880000D01*
X101457142Y-150880000D01*
X101314285Y-150951428D01*
X101242857Y-151022857D01*
X101171428Y-151165714D01*
X89328571Y-151808571D02*
X88471428Y-151808571D01*
X88900000Y-151808571D02*
X88900000Y-150308571D01*
X88757142Y-150522857D01*
X88614285Y-150665714D01*
X88471428Y-150737142D01*
X92071428Y-151808571D02*
X92071428Y-150308571D01*
X92642857Y-150308571D01*
X92785714Y-150380000D01*
X92857142Y-150451428D01*
X92928571Y-150594285D01*
X92928571Y-150808571D01*
X92857142Y-150951428D01*
X92785714Y-151022857D01*
X92642857Y-151094285D01*
X92071428Y-151094285D01*
X93571428Y-151808571D02*
X93571428Y-150308571D01*
X95142857Y-151665714D02*
X95071428Y-151737142D01*
X94857142Y-151808571D01*
X94714285Y-151808571D01*
X94500000Y-151737142D01*
X94357142Y-151594285D01*
X94285714Y-151451428D01*
X94214285Y-151165714D01*
X94214285Y-150951428D01*
X94285714Y-150665714D01*
X94357142Y-150522857D01*
X94500000Y-150380000D01*
X94714285Y-150308571D01*
X94857142Y-150308571D01*
X95071428Y-150380000D01*
X95142857Y-150451428D01*
X95785714Y-151808571D02*
X95785714Y-150308571D01*
X96642857Y-151808571D02*
X96000000Y-150951428D01*
X96642857Y-150308571D02*
X95785714Y-151165714D01*
X97285714Y-151808571D02*
X97285714Y-150308571D01*
X97785714Y-150308571D02*
X98642857Y-150308571D01*
X98214285Y-151808571D02*
X98214285Y-150308571D01*
X76327142Y-151808571D02*
X76327142Y-150308571D01*
X76898571Y-150308571D01*
X77041428Y-150380000D01*
X77112857Y-150451428D01*
X77184285Y-150594285D01*
X77184285Y-150808571D01*
X77112857Y-150951428D01*
X77041428Y-151022857D01*
X76898571Y-151094285D01*
X76327142Y-151094285D01*
X77827142Y-151808571D02*
X77827142Y-150308571D01*
X78684285Y-151808571D02*
X78041428Y-150951428D01*
X78684285Y-150308571D02*
X77827142Y-151165714D01*
X82121428Y-151022857D02*
X81621428Y-151022857D01*
X81621428Y-151808571D02*
X81621428Y-150308571D01*
X82335714Y-150308571D01*
X82835714Y-151380000D02*
X83550000Y-151380000D01*
X82692857Y-151808571D02*
X83192857Y-150308571D01*
X83692857Y-151808571D01*
X111030000Y-149038571D02*
X111530000Y-150538571D01*
X112030000Y-149038571D01*
X113387142Y-150395714D02*
X113315714Y-150467142D01*
X113101428Y-150538571D01*
X112958571Y-150538571D01*
X112744285Y-150467142D01*
X112601428Y-150324285D01*
X112530000Y-150181428D01*
X112458571Y-149895714D01*
X112458571Y-149681428D01*
X112530000Y-149395714D01*
X112601428Y-149252857D01*
X112744285Y-149110000D01*
X112958571Y-149038571D01*
X113101428Y-149038571D01*
X113315714Y-149110000D01*
X113387142Y-149181428D01*
X114887142Y-150395714D02*
X114815714Y-150467142D01*
X114601428Y-150538571D01*
X114458571Y-150538571D01*
X114244285Y-150467142D01*
X114101428Y-150324285D01*
X114030000Y-150181428D01*
X113958571Y-149895714D01*
X113958571Y-149681428D01*
X114030000Y-149395714D01*
X114101428Y-149252857D01*
X114244285Y-149110000D01*
X114458571Y-149038571D01*
X114601428Y-149038571D01*
X114815714Y-149110000D01*
X114887142Y-149181428D01*
X67437142Y-149110000D02*
X67294285Y-149038571D01*
X67080000Y-149038571D01*
X66865714Y-149110000D01*
X66722857Y-149252857D01*
X66651428Y-149395714D01*
X66580000Y-149681428D01*
X66580000Y-149895714D01*
X66651428Y-150181428D01*
X66722857Y-150324285D01*
X66865714Y-150467142D01*
X67080000Y-150538571D01*
X67222857Y-150538571D01*
X67437142Y-150467142D01*
X67508571Y-150395714D01*
X67508571Y-149895714D01*
X67222857Y-149895714D01*
X68151428Y-150538571D02*
X68151428Y-149038571D01*
X69008571Y-150538571D01*
X69008571Y-149038571D01*
X69722857Y-150538571D02*
X69722857Y-149038571D01*
X70080000Y-149038571D01*
X70294285Y-149110000D01*
X70437142Y-149252857D01*
X70508571Y-149395714D01*
X70580000Y-149681428D01*
X70580000Y-149895714D01*
X70508571Y-150181428D01*
X70437142Y-150324285D01*
X70294285Y-150467142D01*
X70080000Y-150538571D01*
X69722857Y-150538571D01*
X56558571Y-139140000D02*
X55058571Y-139140000D01*
X55058571Y-138568571D01*
X55130000Y-138425714D01*
X55201428Y-138354285D01*
X55344285Y-138282857D01*
X55558571Y-138282857D01*
X55701428Y-138354285D01*
X55772857Y-138425714D01*
X55844285Y-138568571D01*
X55844285Y-139140000D01*
X55058571Y-137354285D02*
X55058571Y-137068571D01*
X55130000Y-136925714D01*
X55272857Y-136782857D01*
X55558571Y-136711428D01*
X56058571Y-136711428D01*
X56344285Y-136782857D01*
X56487142Y-136925714D01*
X56558571Y-137068571D01*
X56558571Y-137354285D01*
X56487142Y-137497142D01*
X56344285Y-137640000D01*
X56058571Y-137711428D01*
X55558571Y-137711428D01*
X55272857Y-137640000D01*
X55130000Y-137497142D01*
X55058571Y-137354285D01*
X56558571Y-135211428D02*
X55844285Y-135711428D01*
X56558571Y-136068571D02*
X55058571Y-136068571D01*
X55058571Y-135497142D01*
X55130000Y-135354285D01*
X55201428Y-135282857D01*
X55344285Y-135211428D01*
X55558571Y-135211428D01*
X55701428Y-135282857D01*
X55772857Y-135354285D01*
X55844285Y-135497142D01*
X55844285Y-136068571D01*
X55058571Y-134782857D02*
X55058571Y-133925714D01*
X56558571Y-134354285D02*
X55058571Y-134354285D01*
X56415714Y-132568571D02*
X56487142Y-132640000D01*
X56558571Y-132854285D01*
X56558571Y-132997142D01*
X56487142Y-133211428D01*
X56344285Y-133354285D01*
X56201428Y-133425714D01*
X55915714Y-133497142D01*
X55701428Y-133497142D01*
X55415714Y-133425714D01*
X55272857Y-133354285D01*
X55130000Y-133211428D01*
X55058571Y-132997142D01*
X55058571Y-132854285D01*
X55130000Y-132640000D01*
X55201428Y-132568571D01*
X61230000Y-128948571D02*
X60730000Y-128234285D01*
X60372857Y-128948571D02*
X60372857Y-127448571D01*
X60944285Y-127448571D01*
X61087142Y-127520000D01*
X61158571Y-127591428D01*
X61230000Y-127734285D01*
X61230000Y-127948571D01*
X61158571Y-128091428D01*
X61087142Y-128162857D01*
X60944285Y-128234285D01*
X60372857Y-128234285D01*
X62730000Y-128805714D02*
X62658571Y-128877142D01*
X62444285Y-128948571D01*
X62301428Y-128948571D01*
X62087142Y-128877142D01*
X61944285Y-128734285D01*
X61872857Y-128591428D01*
X61801428Y-128305714D01*
X61801428Y-128091428D01*
X61872857Y-127805714D01*
X61944285Y-127662857D01*
X62087142Y-127520000D01*
X62301428Y-127448571D01*
X62444285Y-127448571D01*
X62658571Y-127520000D01*
X62730000Y-127591428D01*
X63658571Y-127448571D02*
X63801428Y-127448571D01*
X63944285Y-127520000D01*
X64015714Y-127591428D01*
X64087142Y-127734285D01*
X64158571Y-128020000D01*
X64158571Y-128377142D01*
X64087142Y-128662857D01*
X64015714Y-128805714D01*
X63944285Y-128877142D01*
X63801428Y-128948571D01*
X63658571Y-128948571D01*
X63515714Y-128877142D01*
X63444285Y-128805714D01*
X63372857Y-128662857D01*
X63301428Y-128377142D01*
X63301428Y-128020000D01*
X63372857Y-127734285D01*
X63444285Y-127591428D01*
X63515714Y-127520000D01*
X63658571Y-127448571D01*
X61301428Y-117518571D02*
X60801428Y-116804285D01*
X60444285Y-117518571D02*
X60444285Y-116018571D01*
X61015714Y-116018571D01*
X61158571Y-116090000D01*
X61230000Y-116161428D01*
X61301428Y-116304285D01*
X61301428Y-116518571D01*
X61230000Y-116661428D01*
X61158571Y-116732857D01*
X61015714Y-116804285D01*
X60444285Y-116804285D01*
X61944285Y-116732857D02*
X62444285Y-116732857D01*
X62658571Y-117518571D02*
X61944285Y-117518571D01*
X61944285Y-116018571D01*
X62658571Y-116018571D01*
X63587142Y-116018571D02*
X63730000Y-116018571D01*
X63872857Y-116090000D01*
X63944285Y-116161428D01*
X64015714Y-116304285D01*
X64087142Y-116590000D01*
X64087142Y-116947142D01*
X64015714Y-117232857D01*
X63944285Y-117375714D01*
X63872857Y-117447142D01*
X63730000Y-117518571D01*
X63587142Y-117518571D01*
X63444285Y-117447142D01*
X63372857Y-117375714D01*
X63301428Y-117232857D01*
X63230000Y-116947142D01*
X63230000Y-116590000D01*
X63301428Y-116304285D01*
X63372857Y-116161428D01*
X63444285Y-116090000D01*
X63587142Y-116018571D01*
X56558571Y-122558571D02*
X55058571Y-122558571D01*
X55058571Y-121987142D01*
X55130000Y-121844285D01*
X55201428Y-121772857D01*
X55344285Y-121701428D01*
X55558571Y-121701428D01*
X55701428Y-121772857D01*
X55772857Y-121844285D01*
X55844285Y-121987142D01*
X55844285Y-122558571D01*
X55058571Y-120772857D02*
X55058571Y-120487142D01*
X55130000Y-120344285D01*
X55272857Y-120201428D01*
X55558571Y-120130000D01*
X56058571Y-120130000D01*
X56344285Y-120201428D01*
X56487142Y-120344285D01*
X56558571Y-120487142D01*
X56558571Y-120772857D01*
X56487142Y-120915714D01*
X56344285Y-121058571D01*
X56058571Y-121130000D01*
X55558571Y-121130000D01*
X55272857Y-121058571D01*
X55130000Y-120915714D01*
X55058571Y-120772857D01*
X56558571Y-118630000D02*
X55844285Y-119130000D01*
X56558571Y-119487142D02*
X55058571Y-119487142D01*
X55058571Y-118915714D01*
X55130000Y-118772857D01*
X55201428Y-118701428D01*
X55344285Y-118630000D01*
X55558571Y-118630000D01*
X55701428Y-118701428D01*
X55772857Y-118772857D01*
X55844285Y-118915714D01*
X55844285Y-119487142D01*
X55058571Y-118201428D02*
X55058571Y-117344285D01*
X56558571Y-117772857D02*
X55058571Y-117772857D01*
X55772857Y-116844285D02*
X55772857Y-116344285D01*
X56558571Y-116130000D02*
X56558571Y-116844285D01*
X55058571Y-116844285D01*
X55058571Y-116130000D01*
X61337142Y-95928571D02*
X60837142Y-95214285D01*
X60480000Y-95928571D02*
X60480000Y-94428571D01*
X61051428Y-94428571D01*
X61194285Y-94500000D01*
X61265714Y-94571428D01*
X61337142Y-94714285D01*
X61337142Y-94928571D01*
X61265714Y-95071428D01*
X61194285Y-95142857D01*
X61051428Y-95214285D01*
X60480000Y-95214285D01*
X61908571Y-95500000D02*
X62622857Y-95500000D01*
X61765714Y-95928571D02*
X62265714Y-94428571D01*
X62765714Y-95928571D01*
X63551428Y-94428571D02*
X63694285Y-94428571D01*
X63837142Y-94500000D01*
X63908571Y-94571428D01*
X63980000Y-94714285D01*
X64051428Y-95000000D01*
X64051428Y-95357142D01*
X63980000Y-95642857D01*
X63908571Y-95785714D01*
X63837142Y-95857142D01*
X63694285Y-95928571D01*
X63551428Y-95928571D01*
X63408571Y-95857142D01*
X63337142Y-95785714D01*
X63265714Y-95642857D01*
X63194285Y-95357142D01*
X63194285Y-95000000D01*
X63265714Y-94714285D01*
X63337142Y-94571428D01*
X63408571Y-94500000D01*
X63551428Y-94428571D01*
X56558571Y-106012857D02*
X55058571Y-106012857D01*
X55058571Y-105441428D01*
X55130000Y-105298571D01*
X55201428Y-105227142D01*
X55344285Y-105155714D01*
X55558571Y-105155714D01*
X55701428Y-105227142D01*
X55772857Y-105298571D01*
X55844285Y-105441428D01*
X55844285Y-106012857D01*
X55058571Y-104227142D02*
X55058571Y-103941428D01*
X55130000Y-103798571D01*
X55272857Y-103655714D01*
X55558571Y-103584285D01*
X56058571Y-103584285D01*
X56344285Y-103655714D01*
X56487142Y-103798571D01*
X56558571Y-103941428D01*
X56558571Y-104227142D01*
X56487142Y-104370000D01*
X56344285Y-104512857D01*
X56058571Y-104584285D01*
X55558571Y-104584285D01*
X55272857Y-104512857D01*
X55130000Y-104370000D01*
X55058571Y-104227142D01*
X56558571Y-102084285D02*
X55844285Y-102584285D01*
X56558571Y-102941428D02*
X55058571Y-102941428D01*
X55058571Y-102370000D01*
X55130000Y-102227142D01*
X55201428Y-102155714D01*
X55344285Y-102084285D01*
X55558571Y-102084285D01*
X55701428Y-102155714D01*
X55772857Y-102227142D01*
X55844285Y-102370000D01*
X55844285Y-102941428D01*
X55058571Y-101655714D02*
X55058571Y-100798571D01*
X56558571Y-101227142D02*
X55058571Y-101227142D01*
X56130000Y-100370000D02*
X56130000Y-99655714D01*
X56558571Y-100512857D02*
X55058571Y-100012857D01*
X56558571Y-99512857D01*
D11*
G04 #@! TO.C,C1*
X79450000Y-135890000D02*
G75*
G03X79450000Y-135890000I-3270000J0D01*
G01*
X76180000Y-132660000D02*
X76180000Y-139120000D01*
X76220000Y-132660000D02*
X76220000Y-139120000D01*
X76260000Y-132660000D02*
X76260000Y-139120000D01*
X76300000Y-132662000D02*
X76300000Y-139118000D01*
X76340000Y-132663000D02*
X76340000Y-139117000D01*
X76380000Y-132666000D02*
X76380000Y-139114000D01*
X76420000Y-132668000D02*
X76420000Y-134850000D01*
X76420000Y-136930000D02*
X76420000Y-139112000D01*
X76460000Y-132672000D02*
X76460000Y-134850000D01*
X76460000Y-136930000D02*
X76460000Y-139108000D01*
X76500000Y-132675000D02*
X76500000Y-134850000D01*
X76500000Y-136930000D02*
X76500000Y-139105000D01*
X76540000Y-132679000D02*
X76540000Y-134850000D01*
X76540000Y-136930000D02*
X76540000Y-139101000D01*
X76580000Y-132684000D02*
X76580000Y-134850000D01*
X76580000Y-136930000D02*
X76580000Y-139096000D01*
X76620000Y-132689000D02*
X76620000Y-134850000D01*
X76620000Y-136930000D02*
X76620000Y-139091000D01*
X76660000Y-132695000D02*
X76660000Y-134850000D01*
X76660000Y-136930000D02*
X76660000Y-139085000D01*
X76700000Y-132701000D02*
X76700000Y-134850000D01*
X76700000Y-136930000D02*
X76700000Y-139079000D01*
X76740000Y-132708000D02*
X76740000Y-134850000D01*
X76740000Y-136930000D02*
X76740000Y-139072000D01*
X76780000Y-132715000D02*
X76780000Y-134850000D01*
X76780000Y-136930000D02*
X76780000Y-139065000D01*
X76820000Y-132723000D02*
X76820000Y-134850000D01*
X76820000Y-136930000D02*
X76820000Y-139057000D01*
X76860000Y-132731000D02*
X76860000Y-134850000D01*
X76860000Y-136930000D02*
X76860000Y-139049000D01*
X76901000Y-132740000D02*
X76901000Y-134850000D01*
X76901000Y-136930000D02*
X76901000Y-139040000D01*
X76941000Y-132749000D02*
X76941000Y-134850000D01*
X76941000Y-136930000D02*
X76941000Y-139031000D01*
X76981000Y-132759000D02*
X76981000Y-134850000D01*
X76981000Y-136930000D02*
X76981000Y-139021000D01*
X77021000Y-132769000D02*
X77021000Y-134850000D01*
X77021000Y-136930000D02*
X77021000Y-139011000D01*
X77061000Y-132780000D02*
X77061000Y-134850000D01*
X77061000Y-136930000D02*
X77061000Y-139000000D01*
X77101000Y-132792000D02*
X77101000Y-134850000D01*
X77101000Y-136930000D02*
X77101000Y-138988000D01*
X77141000Y-132804000D02*
X77141000Y-134850000D01*
X77141000Y-136930000D02*
X77141000Y-138976000D01*
X77181000Y-132816000D02*
X77181000Y-134850000D01*
X77181000Y-136930000D02*
X77181000Y-138964000D01*
X77221000Y-132829000D02*
X77221000Y-134850000D01*
X77221000Y-136930000D02*
X77221000Y-138951000D01*
X77261000Y-132843000D02*
X77261000Y-134850000D01*
X77261000Y-136930000D02*
X77261000Y-138937000D01*
X77301000Y-132857000D02*
X77301000Y-134850000D01*
X77301000Y-136930000D02*
X77301000Y-138923000D01*
X77341000Y-132872000D02*
X77341000Y-134850000D01*
X77341000Y-136930000D02*
X77341000Y-138908000D01*
X77381000Y-132888000D02*
X77381000Y-134850000D01*
X77381000Y-136930000D02*
X77381000Y-138892000D01*
X77421000Y-132904000D02*
X77421000Y-134850000D01*
X77421000Y-136930000D02*
X77421000Y-138876000D01*
X77461000Y-132920000D02*
X77461000Y-134850000D01*
X77461000Y-136930000D02*
X77461000Y-138860000D01*
X77501000Y-132938000D02*
X77501000Y-134850000D01*
X77501000Y-136930000D02*
X77501000Y-138842000D01*
X77541000Y-132956000D02*
X77541000Y-134850000D01*
X77541000Y-136930000D02*
X77541000Y-138824000D01*
X77581000Y-132974000D02*
X77581000Y-134850000D01*
X77581000Y-136930000D02*
X77581000Y-138806000D01*
X77621000Y-132994000D02*
X77621000Y-134850000D01*
X77621000Y-136930000D02*
X77621000Y-138786000D01*
X77661000Y-133014000D02*
X77661000Y-134850000D01*
X77661000Y-136930000D02*
X77661000Y-138766000D01*
X77701000Y-133034000D02*
X77701000Y-134850000D01*
X77701000Y-136930000D02*
X77701000Y-138746000D01*
X77741000Y-133056000D02*
X77741000Y-134850000D01*
X77741000Y-136930000D02*
X77741000Y-138724000D01*
X77781000Y-133078000D02*
X77781000Y-134850000D01*
X77781000Y-136930000D02*
X77781000Y-138702000D01*
X77821000Y-133100000D02*
X77821000Y-134850000D01*
X77821000Y-136930000D02*
X77821000Y-138680000D01*
X77861000Y-133124000D02*
X77861000Y-134850000D01*
X77861000Y-136930000D02*
X77861000Y-138656000D01*
X77901000Y-133148000D02*
X77901000Y-134850000D01*
X77901000Y-136930000D02*
X77901000Y-138632000D01*
X77941000Y-133174000D02*
X77941000Y-134850000D01*
X77941000Y-136930000D02*
X77941000Y-138606000D01*
X77981000Y-133200000D02*
X77981000Y-134850000D01*
X77981000Y-136930000D02*
X77981000Y-138580000D01*
X78021000Y-133226000D02*
X78021000Y-134850000D01*
X78021000Y-136930000D02*
X78021000Y-138554000D01*
X78061000Y-133254000D02*
X78061000Y-134850000D01*
X78061000Y-136930000D02*
X78061000Y-138526000D01*
X78101000Y-133283000D02*
X78101000Y-134850000D01*
X78101000Y-136930000D02*
X78101000Y-138497000D01*
X78141000Y-133312000D02*
X78141000Y-134850000D01*
X78141000Y-136930000D02*
X78141000Y-138468000D01*
X78181000Y-133342000D02*
X78181000Y-134850000D01*
X78181000Y-136930000D02*
X78181000Y-138438000D01*
X78221000Y-133374000D02*
X78221000Y-134850000D01*
X78221000Y-136930000D02*
X78221000Y-138406000D01*
X78261000Y-133406000D02*
X78261000Y-134850000D01*
X78261000Y-136930000D02*
X78261000Y-138374000D01*
X78301000Y-133440000D02*
X78301000Y-134850000D01*
X78301000Y-136930000D02*
X78301000Y-138340000D01*
X78341000Y-133474000D02*
X78341000Y-134850000D01*
X78341000Y-136930000D02*
X78341000Y-138306000D01*
X78381000Y-133510000D02*
X78381000Y-134850000D01*
X78381000Y-136930000D02*
X78381000Y-138270000D01*
X78421000Y-133547000D02*
X78421000Y-134850000D01*
X78421000Y-136930000D02*
X78421000Y-138233000D01*
X78461000Y-133585000D02*
X78461000Y-134850000D01*
X78461000Y-136930000D02*
X78461000Y-138195000D01*
X78501000Y-133625000D02*
X78501000Y-138155000D01*
X78541000Y-133666000D02*
X78541000Y-138114000D01*
X78581000Y-133708000D02*
X78581000Y-138072000D01*
X78621000Y-133753000D02*
X78621000Y-138027000D01*
X78661000Y-133798000D02*
X78661000Y-137982000D01*
X78701000Y-133846000D02*
X78701000Y-137934000D01*
X78741000Y-133895000D02*
X78741000Y-137885000D01*
X78781000Y-133946000D02*
X78781000Y-137834000D01*
X78821000Y-134000000D02*
X78821000Y-137780000D01*
X78861000Y-134056000D02*
X78861000Y-137724000D01*
X78901000Y-134114000D02*
X78901000Y-137666000D01*
X78941000Y-134176000D02*
X78941000Y-137604000D01*
X78981000Y-134240000D02*
X78981000Y-137540000D01*
X79021000Y-134309000D02*
X79021000Y-137471000D01*
X79061000Y-134381000D02*
X79061000Y-137399000D01*
X79101000Y-134458000D02*
X79101000Y-137322000D01*
X79141000Y-134540000D02*
X79141000Y-137240000D01*
X79181000Y-134628000D02*
X79181000Y-137152000D01*
X79221000Y-134725000D02*
X79221000Y-137055000D01*
X79261000Y-134831000D02*
X79261000Y-136949000D01*
X79301000Y-134950000D02*
X79301000Y-136830000D01*
X79341000Y-135088000D02*
X79341000Y-136692000D01*
X79381000Y-135257000D02*
X79381000Y-136523000D01*
X79421000Y-135488000D02*
X79421000Y-136292000D01*
X72679759Y-134051000D02*
X73309759Y-134051000D01*
X72994759Y-133736000D02*
X72994759Y-134366000D01*
G04 #@! TO.C,C2*
X82010000Y-148115000D02*
X82010000Y-148740000D01*
X82010000Y-145900000D02*
X82010000Y-146525000D01*
X77970000Y-148115000D02*
X77970000Y-148740000D01*
X77970000Y-145900000D02*
X77970000Y-146525000D01*
X77970000Y-148740000D02*
X82010000Y-148740000D01*
X77970000Y-145900000D02*
X82010000Y-145900000D01*
G04 #@! TO.C,C3*
X101100000Y-148740000D02*
X97060000Y-148740000D01*
X101100000Y-145900000D02*
X97060000Y-145900000D01*
X101100000Y-148740000D02*
X101100000Y-148115000D01*
X101100000Y-146525000D02*
X101100000Y-145900000D01*
X97060000Y-148740000D02*
X97060000Y-148115000D01*
X97060000Y-146525000D02*
X97060000Y-145900000D01*
G04 #@! TO.C,C4*
X100830000Y-65890000D02*
X104870000Y-65890000D01*
X100830000Y-68730000D02*
X104870000Y-68730000D01*
X100830000Y-65890000D02*
X100830000Y-66515000D01*
X100830000Y-68105000D02*
X100830000Y-68730000D01*
X104870000Y-65890000D02*
X104870000Y-66515000D01*
X104870000Y-68105000D02*
X104870000Y-68730000D01*
G04 #@! TO.C,D1*
X108400000Y-140970462D02*
G75*
G03X102850000Y-139425170I-2990000J462D01*
G01*
X108400000Y-140969538D02*
G75*
G02X102850000Y-142514830I-2990000J-462D01*
G01*
X107910000Y-140970000D02*
G75*
G03X107910000Y-140970000I-2500000J0D01*
G01*
X102850000Y-139425000D02*
X102850000Y-142515000D01*
G04 #@! TO.C,D2*
X92290000Y-74780000D02*
X92290000Y-72540000D01*
X92290000Y-72540000D02*
X88050000Y-72540000D01*
X88050000Y-72540000D02*
X88050000Y-74780000D01*
X88050000Y-74780000D02*
X92290000Y-74780000D01*
X92940000Y-73660000D02*
X92290000Y-73660000D01*
X87400000Y-73660000D02*
X88050000Y-73660000D01*
X91570000Y-74780000D02*
X91570000Y-72540000D01*
X91450000Y-74780000D02*
X91450000Y-72540000D01*
X91690000Y-74780000D02*
X91690000Y-72540000D01*
G04 #@! TO.C,D3*
X100080000Y-72540000D02*
X100080000Y-74780000D01*
X100320000Y-72540000D02*
X100320000Y-74780000D01*
X100200000Y-72540000D02*
X100200000Y-74780000D01*
X104370000Y-73660000D02*
X103720000Y-73660000D01*
X98830000Y-73660000D02*
X99480000Y-73660000D01*
X103720000Y-72540000D02*
X99480000Y-72540000D01*
X103720000Y-74780000D02*
X103720000Y-72540000D01*
X99480000Y-74780000D02*
X103720000Y-74780000D01*
X99480000Y-72540000D02*
X99480000Y-74780000D01*
G04 #@! TO.C,D4*
X91420000Y-65765000D02*
X91420000Y-68855000D01*
X96480000Y-67310000D02*
G75*
G03X96480000Y-67310000I-2500000J0D01*
G01*
X96970000Y-67309538D02*
G75*
G02X91420000Y-68854830I-2990000J-462D01*
G01*
X96970000Y-67310462D02*
G75*
G03X91420000Y-65765170I-2990000J462D01*
G01*
G04 #@! TO.C,J1*
X119440000Y-134620000D02*
X116780000Y-134620000D01*
X119440000Y-134620000D02*
X119440000Y-116780000D01*
X119440000Y-116780000D02*
X116780000Y-116780000D01*
X116780000Y-134620000D02*
X116780000Y-116780000D01*
X116780000Y-137220000D02*
X116780000Y-135890000D01*
X118110000Y-137220000D02*
X116780000Y-137220000D01*
G04 #@! TO.C,J2*
X58420000Y-93920000D02*
X59750000Y-93920000D01*
X59750000Y-93920000D02*
X59750000Y-95250000D01*
X59750000Y-96520000D02*
X59750000Y-111820000D01*
X57090000Y-111820000D02*
X59750000Y-111820000D01*
X57090000Y-96520000D02*
X57090000Y-111820000D01*
X57090000Y-96520000D02*
X59750000Y-96520000D01*
G04 #@! TO.C,J3*
X57090000Y-118110000D02*
X59750000Y-118110000D01*
X57090000Y-118110000D02*
X57090000Y-123250000D01*
X57090000Y-123250000D02*
X59750000Y-123250000D01*
X59750000Y-118110000D02*
X59750000Y-123250000D01*
X59750000Y-115510000D02*
X59750000Y-116840000D01*
X58420000Y-115510000D02*
X59750000Y-115510000D01*
G04 #@! TO.C,J4*
X118110000Y-111820000D02*
X116780000Y-111820000D01*
X116780000Y-111820000D02*
X116780000Y-110490000D01*
X116780000Y-109220000D02*
X116780000Y-91380000D01*
X119440000Y-91380000D02*
X116780000Y-91380000D01*
X119440000Y-109220000D02*
X119440000Y-91380000D01*
X119440000Y-109220000D02*
X116780000Y-109220000D01*
G04 #@! TO.C,J5*
X57090000Y-129540000D02*
X59750000Y-129540000D01*
X57090000Y-129540000D02*
X57090000Y-144840000D01*
X57090000Y-144840000D02*
X59750000Y-144840000D01*
X59750000Y-129540000D02*
X59750000Y-144840000D01*
X59750000Y-126940000D02*
X59750000Y-128270000D01*
X58420000Y-126940000D02*
X59750000Y-126940000D01*
G04 #@! TO.C,J6*
X67310000Y-148650000D02*
X67310000Y-145990000D01*
X67310000Y-148650000D02*
X72450000Y-148650000D01*
X72450000Y-148650000D02*
X72450000Y-145990000D01*
X67310000Y-145990000D02*
X72450000Y-145990000D01*
X64710000Y-145990000D02*
X66040000Y-145990000D01*
X64710000Y-147320000D02*
X64710000Y-145990000D01*
G04 #@! TO.C,J7*
X109160000Y-147320000D02*
X109160000Y-145990000D01*
X109160000Y-145990000D02*
X110490000Y-145990000D01*
X111760000Y-145990000D02*
X116900000Y-145990000D01*
X116900000Y-148650000D02*
X116900000Y-145990000D01*
X111760000Y-148650000D02*
X116900000Y-148650000D01*
X111760000Y-148650000D02*
X111760000Y-145990000D01*
G04 #@! TO.C,J8*
X83880000Y-155000000D02*
X83880000Y-152340000D01*
X78740000Y-155000000D02*
X83880000Y-155000000D01*
X78740000Y-152340000D02*
X83880000Y-152340000D01*
X78740000Y-155000000D02*
X78740000Y-152340000D01*
X77470000Y-155000000D02*
X76140000Y-155000000D01*
X76140000Y-155000000D02*
X76140000Y-153670000D01*
G04 #@! TO.C,J9*
X120220000Y-72140000D02*
X118720000Y-72140000D01*
X120220000Y-70440000D02*
X120220000Y-72140000D01*
X119970000Y-62240000D02*
X111170000Y-62240000D01*
X111170000Y-66040000D02*
X111170000Y-58340000D01*
X111170000Y-58340000D02*
X119970000Y-58340000D01*
X119970000Y-58340000D02*
X119970000Y-58540000D01*
X113020000Y-71940000D02*
X111170000Y-71940000D01*
X111170000Y-71940000D02*
X111170000Y-71090000D01*
X119970000Y-58440000D02*
X119970000Y-71940000D01*
X119970000Y-71940000D02*
X118120000Y-71940000D01*
G04 #@! TO.C,J10*
X59860000Y-68460000D02*
X59860000Y-72720000D01*
X59860000Y-72720000D02*
X72180000Y-72720000D01*
X72180000Y-72720000D02*
X72180000Y-68460000D01*
X59860000Y-64360000D02*
X59860000Y-56000000D01*
X59860000Y-56000000D02*
X72180000Y-56000000D01*
X72180000Y-56000000D02*
X72180000Y-64360000D01*
X64770000Y-72940000D02*
X64270000Y-73440000D01*
X64270000Y-73440000D02*
X65270000Y-73440000D01*
X65270000Y-73440000D02*
X64770000Y-72940000D01*
G04 #@! TO.C,Q1*
X79480000Y-75510000D02*
X83080000Y-75510000D01*
X79441522Y-75498478D02*
G75*
G02X81280000Y-71060000I1838478J1838478D01*
G01*
X83118478Y-75498478D02*
G75*
G03X81280000Y-71060000I-1838478J1838478D01*
G01*
G04 #@! TO.C,R1*
X85630000Y-84990000D02*
X85630000Y-85320000D01*
X92170000Y-84990000D02*
X85630000Y-84990000D01*
X92170000Y-85320000D02*
X92170000Y-84990000D01*
X85630000Y-87730000D02*
X85630000Y-87400000D01*
X92170000Y-87730000D02*
X85630000Y-87730000D01*
X92170000Y-87400000D02*
X92170000Y-87730000D01*
G04 #@! TO.C,R2*
X117570000Y-142010000D02*
X117570000Y-142340000D01*
X117570000Y-142340000D02*
X111030000Y-142340000D01*
X111030000Y-142340000D02*
X111030000Y-142010000D01*
X117570000Y-139930000D02*
X117570000Y-139600000D01*
X117570000Y-139600000D02*
X111030000Y-139600000D01*
X111030000Y-139600000D02*
X111030000Y-139930000D01*
G04 #@! TO.C,R3*
X104870000Y-82650000D02*
X104870000Y-82320000D01*
X98330000Y-82650000D02*
X104870000Y-82650000D01*
X98330000Y-82320000D02*
X98330000Y-82650000D01*
X104870000Y-79910000D02*
X104870000Y-80240000D01*
X98330000Y-79910000D02*
X104870000Y-79910000D01*
X98330000Y-80240000D02*
X98330000Y-79910000D01*
G04 #@! TO.C,R4*
X75470000Y-80240000D02*
X75470000Y-79910000D01*
X75470000Y-79910000D02*
X82010000Y-79910000D01*
X82010000Y-79910000D02*
X82010000Y-80240000D01*
X75470000Y-82320000D02*
X75470000Y-82650000D01*
X75470000Y-82650000D02*
X82010000Y-82650000D01*
X82010000Y-82650000D02*
X82010000Y-82320000D01*
G04 #@! TO.C,R5*
X86900000Y-80240000D02*
X86900000Y-79910000D01*
X86900000Y-79910000D02*
X93440000Y-79910000D01*
X93440000Y-79910000D02*
X93440000Y-80240000D01*
X86900000Y-82320000D02*
X86900000Y-82650000D01*
X86900000Y-82650000D02*
X93440000Y-82650000D01*
X93440000Y-82650000D02*
X93440000Y-82320000D01*
G04 #@! TO.C,R6*
X86900000Y-76100000D02*
X86900000Y-76430000D01*
X93440000Y-76100000D02*
X86900000Y-76100000D01*
X93440000Y-76430000D02*
X93440000Y-76100000D01*
X86900000Y-78840000D02*
X86900000Y-78510000D01*
X93440000Y-78840000D02*
X86900000Y-78840000D01*
X93440000Y-78510000D02*
X93440000Y-78840000D01*
G04 #@! TO.C,R7*
X98330000Y-76430000D02*
X98330000Y-76100000D01*
X98330000Y-76100000D02*
X104870000Y-76100000D01*
X104870000Y-76100000D02*
X104870000Y-76430000D01*
X98330000Y-78510000D02*
X98330000Y-78840000D01*
X98330000Y-78840000D02*
X104870000Y-78840000D01*
X104870000Y-78840000D02*
X104870000Y-78510000D01*
G04 #@! TO.C,SW1*
X112760000Y-84240000D02*
X117260000Y-84240000D01*
X111510000Y-80240000D02*
X111510000Y-81740000D01*
X117260000Y-77740000D02*
X112760000Y-77740000D01*
X118510000Y-81740000D02*
X118510000Y-80240000D01*
G04 #@! TO.C,U1*
X91170000Y-91380000D02*
G75*
G02X89170000Y-91380000I-1000000J0D01*
G01*
X89170000Y-91380000D02*
X83710000Y-91380000D01*
X83710000Y-91380000D02*
X83710000Y-142300000D01*
X83710000Y-142300000D02*
X96630000Y-142300000D01*
X96630000Y-142300000D02*
X96630000Y-91380000D01*
X96630000Y-91380000D02*
X91170000Y-91380000D01*
G04 #@! TO.C,U2*
X78700000Y-64040000D02*
X88940000Y-64040000D01*
X78700000Y-68681000D02*
X88940000Y-68681000D01*
X78700000Y-64040000D02*
X78700000Y-68681000D01*
X88940000Y-64040000D02*
X88940000Y-68681000D01*
X78700000Y-65550000D02*
X88940000Y-65550000D01*
X81970000Y-64040000D02*
X81970000Y-65550000D01*
X85671000Y-64040000D02*
X85671000Y-65550000D01*
G04 #@! TO.C,Y1*
X87060000Y-144795000D02*
X93460000Y-144795000D01*
X87060000Y-149845000D02*
X93460000Y-149845000D01*
X87060000Y-149845000D02*
G75*
G02X87060000Y-144795000I0J2525000D01*
G01*
X93460000Y-149845000D02*
G75*
G03X93460000Y-144795000I0J2525000D01*
G01*
G04 #@! TO.C,C5*
X71180000Y-80010000D02*
G75*
G03X71180000Y-80010000I-5120000J0D01*
G01*
X66060000Y-85090000D02*
X66060000Y-74930000D01*
X66020000Y-85090000D02*
X66020000Y-74930000D01*
X65980000Y-85090000D02*
X65980000Y-74930000D01*
X65940000Y-85089000D02*
X65940000Y-74931000D01*
X65900000Y-85088000D02*
X65900000Y-74932000D01*
X65860000Y-85087000D02*
X65860000Y-74933000D01*
X65820000Y-85085000D02*
X65820000Y-81050000D01*
X65820000Y-78970000D02*
X65820000Y-74935000D01*
X65780000Y-85083000D02*
X65780000Y-81050000D01*
X65780000Y-78970000D02*
X65780000Y-74937000D01*
X65740000Y-85080000D02*
X65740000Y-81050000D01*
X65740000Y-78970000D02*
X65740000Y-74940000D01*
X65700000Y-85078000D02*
X65700000Y-81050000D01*
X65700000Y-78970000D02*
X65700000Y-74942000D01*
X65660000Y-85075000D02*
X65660000Y-81050000D01*
X65660000Y-78970000D02*
X65660000Y-74945000D01*
X65620000Y-85072000D02*
X65620000Y-81050000D01*
X65620000Y-78970000D02*
X65620000Y-74948000D01*
X65580000Y-85068000D02*
X65580000Y-81050000D01*
X65580000Y-78970000D02*
X65580000Y-74952000D01*
X65540000Y-85064000D02*
X65540000Y-81050000D01*
X65540000Y-78970000D02*
X65540000Y-74956000D01*
X65500000Y-85060000D02*
X65500000Y-81050000D01*
X65500000Y-78970000D02*
X65500000Y-74960000D01*
X65460000Y-85055000D02*
X65460000Y-81050000D01*
X65460000Y-78970000D02*
X65460000Y-74965000D01*
X65420000Y-85050000D02*
X65420000Y-81050000D01*
X65420000Y-78970000D02*
X65420000Y-74970000D01*
X65380000Y-85045000D02*
X65380000Y-81050000D01*
X65380000Y-78970000D02*
X65380000Y-74975000D01*
X65339000Y-85040000D02*
X65339000Y-81050000D01*
X65339000Y-78970000D02*
X65339000Y-74980000D01*
X65299000Y-85034000D02*
X65299000Y-81050000D01*
X65299000Y-78970000D02*
X65299000Y-74986000D01*
X65259000Y-85028000D02*
X65259000Y-81050000D01*
X65259000Y-78970000D02*
X65259000Y-74992000D01*
X65219000Y-85021000D02*
X65219000Y-81050000D01*
X65219000Y-78970000D02*
X65219000Y-74999000D01*
X65179000Y-85014000D02*
X65179000Y-81050000D01*
X65179000Y-78970000D02*
X65179000Y-75006000D01*
X65139000Y-85007000D02*
X65139000Y-81050000D01*
X65139000Y-78970000D02*
X65139000Y-75013000D01*
X65099000Y-85000000D02*
X65099000Y-81050000D01*
X65099000Y-78970000D02*
X65099000Y-75020000D01*
X65059000Y-84992000D02*
X65059000Y-81050000D01*
X65059000Y-78970000D02*
X65059000Y-75028000D01*
X65019000Y-84984000D02*
X65019000Y-81050000D01*
X65019000Y-78970000D02*
X65019000Y-75036000D01*
X64979000Y-84975000D02*
X64979000Y-81050000D01*
X64979000Y-78970000D02*
X64979000Y-75045000D01*
X64939000Y-84966000D02*
X64939000Y-81050000D01*
X64939000Y-78970000D02*
X64939000Y-75054000D01*
X64899000Y-84957000D02*
X64899000Y-81050000D01*
X64899000Y-78970000D02*
X64899000Y-75063000D01*
X64859000Y-84948000D02*
X64859000Y-81050000D01*
X64859000Y-78970000D02*
X64859000Y-75072000D01*
X64819000Y-84938000D02*
X64819000Y-81050000D01*
X64819000Y-78970000D02*
X64819000Y-75082000D01*
X64779000Y-84928000D02*
X64779000Y-81050000D01*
X64779000Y-78970000D02*
X64779000Y-75092000D01*
X64739000Y-84917000D02*
X64739000Y-81050000D01*
X64739000Y-78970000D02*
X64739000Y-75103000D01*
X64699000Y-84907000D02*
X64699000Y-81050000D01*
X64699000Y-78970000D02*
X64699000Y-75113000D01*
X64659000Y-84895000D02*
X64659000Y-81050000D01*
X64659000Y-78970000D02*
X64659000Y-75125000D01*
X64619000Y-84884000D02*
X64619000Y-81050000D01*
X64619000Y-78970000D02*
X64619000Y-75136000D01*
X64579000Y-84872000D02*
X64579000Y-81050000D01*
X64579000Y-78970000D02*
X64579000Y-75148000D01*
X64539000Y-84860000D02*
X64539000Y-81050000D01*
X64539000Y-78970000D02*
X64539000Y-75160000D01*
X64499000Y-84847000D02*
X64499000Y-81050000D01*
X64499000Y-78970000D02*
X64499000Y-75173000D01*
X64459000Y-84834000D02*
X64459000Y-81050000D01*
X64459000Y-78970000D02*
X64459000Y-75186000D01*
X64419000Y-84821000D02*
X64419000Y-81050000D01*
X64419000Y-78970000D02*
X64419000Y-75199000D01*
X64379000Y-84807000D02*
X64379000Y-81050000D01*
X64379000Y-78970000D02*
X64379000Y-75213000D01*
X64339000Y-84793000D02*
X64339000Y-81050000D01*
X64339000Y-78970000D02*
X64339000Y-75227000D01*
X64299000Y-84778000D02*
X64299000Y-81050000D01*
X64299000Y-78970000D02*
X64299000Y-75242000D01*
X64259000Y-84764000D02*
X64259000Y-81050000D01*
X64259000Y-78970000D02*
X64259000Y-75256000D01*
X64219000Y-84748000D02*
X64219000Y-81050000D01*
X64219000Y-78970000D02*
X64219000Y-75272000D01*
X64179000Y-84733000D02*
X64179000Y-81050000D01*
X64179000Y-78970000D02*
X64179000Y-75287000D01*
X64139000Y-84717000D02*
X64139000Y-81050000D01*
X64139000Y-78970000D02*
X64139000Y-75303000D01*
X64099000Y-84700000D02*
X64099000Y-81050000D01*
X64099000Y-78970000D02*
X64099000Y-75320000D01*
X64059000Y-84684000D02*
X64059000Y-81050000D01*
X64059000Y-78970000D02*
X64059000Y-75336000D01*
X64019000Y-84667000D02*
X64019000Y-81050000D01*
X64019000Y-78970000D02*
X64019000Y-75353000D01*
X63979000Y-84649000D02*
X63979000Y-81050000D01*
X63979000Y-78970000D02*
X63979000Y-75371000D01*
X63939000Y-84631000D02*
X63939000Y-81050000D01*
X63939000Y-78970000D02*
X63939000Y-75389000D01*
X63899000Y-84613000D02*
X63899000Y-81050000D01*
X63899000Y-78970000D02*
X63899000Y-75407000D01*
X63859000Y-84594000D02*
X63859000Y-81050000D01*
X63859000Y-78970000D02*
X63859000Y-75426000D01*
X63819000Y-84574000D02*
X63819000Y-81050000D01*
X63819000Y-78970000D02*
X63819000Y-75446000D01*
X63779000Y-84555000D02*
X63779000Y-81050000D01*
X63779000Y-78970000D02*
X63779000Y-75465000D01*
X63739000Y-84535000D02*
X63739000Y-75485000D01*
X63699000Y-84514000D02*
X63699000Y-75506000D01*
X63659000Y-84493000D02*
X63659000Y-75527000D01*
X63619000Y-84472000D02*
X63619000Y-75548000D01*
X63579000Y-84450000D02*
X63579000Y-75570000D01*
X63539000Y-84427000D02*
X63539000Y-75593000D01*
X63499000Y-84405000D02*
X63499000Y-75615000D01*
X63459000Y-84381000D02*
X63459000Y-75639000D01*
X63419000Y-84357000D02*
X63419000Y-75663000D01*
X63379000Y-84333000D02*
X63379000Y-75687000D01*
X63339000Y-84308000D02*
X63339000Y-75712000D01*
X63299000Y-84283000D02*
X63299000Y-75737000D01*
X63259000Y-84257000D02*
X63259000Y-75763000D01*
X63219000Y-84231000D02*
X63219000Y-75789000D01*
X63179000Y-84204000D02*
X63179000Y-75816000D01*
X63139000Y-84176000D02*
X63139000Y-75844000D01*
X63099000Y-84148000D02*
X63099000Y-75872000D01*
X63059000Y-84120000D02*
X63059000Y-75900000D01*
X63019000Y-84090000D02*
X63019000Y-75930000D01*
X62979000Y-84060000D02*
X62979000Y-75960000D01*
X62939000Y-84030000D02*
X62939000Y-75990000D01*
X62899000Y-83999000D02*
X62899000Y-76021000D01*
X62859000Y-83967000D02*
X62859000Y-76053000D01*
X62819000Y-83935000D02*
X62819000Y-76085000D01*
X62779000Y-83902000D02*
X62779000Y-76118000D01*
X62739000Y-83868000D02*
X62739000Y-76152000D01*
X62699000Y-83834000D02*
X62699000Y-76186000D01*
X62659000Y-83799000D02*
X62659000Y-76221000D01*
X62619000Y-83763000D02*
X62619000Y-76257000D01*
X62579000Y-83726000D02*
X62579000Y-76294000D01*
X62539000Y-83689000D02*
X62539000Y-76331000D01*
X62499000Y-83650000D02*
X62499000Y-76370000D01*
X62459000Y-83611000D02*
X62459000Y-76409000D01*
X62419000Y-83571000D02*
X62419000Y-76449000D01*
X62379000Y-83530000D02*
X62379000Y-76490000D01*
X62339000Y-83488000D02*
X62339000Y-76532000D01*
X62299000Y-83446000D02*
X62299000Y-76574000D01*
X62259000Y-83402000D02*
X62259000Y-76618000D01*
X62219000Y-83357000D02*
X62219000Y-76663000D01*
X62179000Y-83311000D02*
X62179000Y-76709000D01*
X62139000Y-83264000D02*
X62139000Y-76756000D01*
X62099000Y-83216000D02*
X62099000Y-76804000D01*
X62059000Y-83166000D02*
X62059000Y-76854000D01*
X62019000Y-83116000D02*
X62019000Y-76904000D01*
X61979000Y-83064000D02*
X61979000Y-76956000D01*
X61939000Y-83010000D02*
X61939000Y-77010000D01*
X61899000Y-82955000D02*
X61899000Y-77065000D01*
X61859000Y-82899000D02*
X61859000Y-77121000D01*
X61819000Y-82840000D02*
X61819000Y-77180000D01*
X61779000Y-82780000D02*
X61779000Y-77240000D01*
X61739000Y-82719000D02*
X61739000Y-77301000D01*
X61699000Y-82655000D02*
X61699000Y-77365000D01*
X61659000Y-82589000D02*
X61659000Y-77431000D01*
X61619000Y-82520000D02*
X61619000Y-77500000D01*
X61579000Y-82449000D02*
X61579000Y-77571000D01*
X61539000Y-82375000D02*
X61539000Y-77645000D01*
X61499000Y-82299000D02*
X61499000Y-77721000D01*
X61459000Y-82219000D02*
X61459000Y-77801000D01*
X61419000Y-82135000D02*
X61419000Y-77885000D01*
X61379000Y-82047000D02*
X61379000Y-77973000D01*
X61339000Y-81954000D02*
X61339000Y-78066000D01*
X61299000Y-81856000D02*
X61299000Y-78164000D01*
X61259000Y-81752000D02*
X61259000Y-78268000D01*
X61219000Y-81640000D02*
X61219000Y-78380000D01*
X61179000Y-81520000D02*
X61179000Y-78500000D01*
X61139000Y-81388000D02*
X61139000Y-78632000D01*
X61099000Y-81240000D02*
X61099000Y-78780000D01*
X61059000Y-81072000D02*
X61059000Y-78948000D01*
X61019000Y-80872000D02*
X61019000Y-79148000D01*
X60979000Y-80609000D02*
X60979000Y-79411000D01*
X71539646Y-82885000D02*
X70539646Y-82885000D01*
X71039646Y-83385000D02*
X71039646Y-82385000D01*
G04 #@! TO.C,J11*
X102930000Y-155000000D02*
X102930000Y-152340000D01*
X90170000Y-155000000D02*
X102930000Y-155000000D01*
X90170000Y-152340000D02*
X102930000Y-152340000D01*
X90170000Y-155000000D02*
X90170000Y-152340000D01*
X88900000Y-155000000D02*
X87570000Y-155000000D01*
X87570000Y-155000000D02*
X87570000Y-153670000D01*
D12*
G04 #@! TO.C,G\002A\002A\002A*
G36*
X111047717Y-94638825D02*
X111178402Y-94710646D01*
X111258350Y-94781062D01*
X111309432Y-94837898D01*
X111339445Y-94890879D01*
X111350272Y-94952718D01*
X111343801Y-95036128D01*
X111321917Y-95153821D01*
X111317065Y-95176898D01*
X111251672Y-95395290D01*
X111151122Y-95591987D01*
X111012426Y-95770119D01*
X110832592Y-95932817D01*
X110608629Y-96083213D01*
X110337548Y-96224436D01*
X110299981Y-96241700D01*
X110198499Y-96290708D01*
X110115205Y-96336532D01*
X110060725Y-96373002D01*
X110045480Y-96389509D01*
X110037356Y-96455376D01*
X110045675Y-96548530D01*
X110066791Y-96649600D01*
X110097059Y-96739213D01*
X110119187Y-96781070D01*
X110190623Y-96845963D01*
X110287780Y-96870790D01*
X110406914Y-96856867D01*
X110544282Y-96805512D01*
X110696139Y-96718038D01*
X110858743Y-96595765D01*
X110994542Y-96473295D01*
X111068747Y-96403440D01*
X111129784Y-96349660D01*
X111168266Y-96320067D01*
X111175582Y-96316800D01*
X111206018Y-96334071D01*
X111227255Y-96355689D01*
X111235335Y-96375678D01*
X111226850Y-96403741D01*
X111197285Y-96445727D01*
X111142126Y-96507484D01*
X111056857Y-96594863D01*
X110995415Y-96656035D01*
X110873865Y-96773259D01*
X110774781Y-96860504D01*
X110687349Y-96926170D01*
X110600757Y-96978658D01*
X110540800Y-97009207D01*
X110425892Y-97063306D01*
X110343069Y-97096948D01*
X110279109Y-97112655D01*
X110220789Y-97112949D01*
X110154889Y-97100352D01*
X110115888Y-97090254D01*
X109931111Y-97017184D01*
X109780329Y-96907998D01*
X109666023Y-96766422D01*
X109590673Y-96596182D01*
X109556757Y-96401005D01*
X109558849Y-96253298D01*
X109573330Y-96167295D01*
X110086895Y-96167295D01*
X110205897Y-96098625D01*
X110301137Y-96040242D01*
X110402514Y-95973105D01*
X110439536Y-95947028D01*
X110558552Y-95849644D01*
X110678919Y-95731820D01*
X110788205Y-95607222D01*
X110873978Y-95489517D01*
X110905616Y-95434674D01*
X110941951Y-95352796D01*
X110975158Y-95260660D01*
X111001327Y-95171857D01*
X111016548Y-95099975D01*
X111016911Y-95058607D01*
X111014804Y-95055137D01*
X110981407Y-95053805D01*
X110917751Y-95074245D01*
X110836355Y-95110834D01*
X110749740Y-95157951D01*
X110671048Y-95209515D01*
X110548474Y-95319874D01*
X110425082Y-95466995D01*
X110309408Y-95637711D01*
X110209989Y-95818853D01*
X110135362Y-95997252D01*
X110112818Y-96070597D01*
X110086895Y-96167295D01*
X109573330Y-96167295D01*
X109602078Y-95996564D01*
X109685323Y-95739490D01*
X109803295Y-95490144D01*
X109950710Y-95256595D01*
X110122281Y-95046911D01*
X110312722Y-94869160D01*
X110516746Y-94731411D01*
X110575913Y-94700952D01*
X110750817Y-94634488D01*
X110906637Y-94613609D01*
X111047717Y-94638825D01*
X111047717Y-94638825D01*
G37*
X111047717Y-94638825D02*
X111178402Y-94710646D01*
X111258350Y-94781062D01*
X111309432Y-94837898D01*
X111339445Y-94890879D01*
X111350272Y-94952718D01*
X111343801Y-95036128D01*
X111321917Y-95153821D01*
X111317065Y-95176898D01*
X111251672Y-95395290D01*
X111151122Y-95591987D01*
X111012426Y-95770119D01*
X110832592Y-95932817D01*
X110608629Y-96083213D01*
X110337548Y-96224436D01*
X110299981Y-96241700D01*
X110198499Y-96290708D01*
X110115205Y-96336532D01*
X110060725Y-96373002D01*
X110045480Y-96389509D01*
X110037356Y-96455376D01*
X110045675Y-96548530D01*
X110066791Y-96649600D01*
X110097059Y-96739213D01*
X110119187Y-96781070D01*
X110190623Y-96845963D01*
X110287780Y-96870790D01*
X110406914Y-96856867D01*
X110544282Y-96805512D01*
X110696139Y-96718038D01*
X110858743Y-96595765D01*
X110994542Y-96473295D01*
X111068747Y-96403440D01*
X111129784Y-96349660D01*
X111168266Y-96320067D01*
X111175582Y-96316800D01*
X111206018Y-96334071D01*
X111227255Y-96355689D01*
X111235335Y-96375678D01*
X111226850Y-96403741D01*
X111197285Y-96445727D01*
X111142126Y-96507484D01*
X111056857Y-96594863D01*
X110995415Y-96656035D01*
X110873865Y-96773259D01*
X110774781Y-96860504D01*
X110687349Y-96926170D01*
X110600757Y-96978658D01*
X110540800Y-97009207D01*
X110425892Y-97063306D01*
X110343069Y-97096948D01*
X110279109Y-97112655D01*
X110220789Y-97112949D01*
X110154889Y-97100352D01*
X110115888Y-97090254D01*
X109931111Y-97017184D01*
X109780329Y-96907998D01*
X109666023Y-96766422D01*
X109590673Y-96596182D01*
X109556757Y-96401005D01*
X109558849Y-96253298D01*
X109573330Y-96167295D01*
X110086895Y-96167295D01*
X110205897Y-96098625D01*
X110301137Y-96040242D01*
X110402514Y-95973105D01*
X110439536Y-95947028D01*
X110558552Y-95849644D01*
X110678919Y-95731820D01*
X110788205Y-95607222D01*
X110873978Y-95489517D01*
X110905616Y-95434674D01*
X110941951Y-95352796D01*
X110975158Y-95260660D01*
X111001327Y-95171857D01*
X111016548Y-95099975D01*
X111016911Y-95058607D01*
X111014804Y-95055137D01*
X110981407Y-95053805D01*
X110917751Y-95074245D01*
X110836355Y-95110834D01*
X110749740Y-95157951D01*
X110671048Y-95209515D01*
X110548474Y-95319874D01*
X110425082Y-95466995D01*
X110309408Y-95637711D01*
X110209989Y-95818853D01*
X110135362Y-95997252D01*
X110112818Y-96070597D01*
X110086895Y-96167295D01*
X109573330Y-96167295D01*
X109602078Y-95996564D01*
X109685323Y-95739490D01*
X109803295Y-95490144D01*
X109950710Y-95256595D01*
X110122281Y-95046911D01*
X110312722Y-94869160D01*
X110516746Y-94731411D01*
X110575913Y-94700952D01*
X110750817Y-94634488D01*
X110906637Y-94613609D01*
X111047717Y-94638825D01*
G36*
X113107515Y-92851053D02*
X113177539Y-92876983D01*
X113266153Y-92917815D01*
X113361164Y-92967458D01*
X113450378Y-93019822D01*
X113521603Y-93068814D01*
X113533828Y-93078687D01*
X113613673Y-93145872D01*
X113497708Y-93288232D01*
X113400213Y-93415657D01*
X113288039Y-93574805D01*
X113169901Y-93752305D01*
X113054517Y-93934788D01*
X112950602Y-94108882D01*
X112881127Y-94234000D01*
X112747086Y-94503074D01*
X112616984Y-94795556D01*
X112493082Y-95104091D01*
X112377641Y-95421325D01*
X112272923Y-95739902D01*
X112181191Y-96052468D01*
X112104705Y-96351667D01*
X112045728Y-96630146D01*
X112006521Y-96880547D01*
X111989346Y-97095518D01*
X111988749Y-97135950D01*
X111983626Y-97225079D01*
X111965674Y-97271983D01*
X111930684Y-97276983D01*
X111874443Y-97240402D01*
X111792742Y-97162561D01*
X111782245Y-97151727D01*
X111715053Y-97078855D01*
X111659957Y-97013412D01*
X111629078Y-96969872D01*
X111609182Y-96904404D01*
X111595364Y-96802470D01*
X111588098Y-96678095D01*
X111587858Y-96545304D01*
X111595116Y-96418120D01*
X111607341Y-96325954D01*
X111654485Y-96109468D01*
X111722304Y-95856174D01*
X111807843Y-95574234D01*
X111908151Y-95271811D01*
X112020273Y-94957066D01*
X112141256Y-94638163D01*
X112268146Y-94323265D01*
X112397990Y-94020532D01*
X112527834Y-93738128D01*
X112589263Y-93612250D01*
X112665107Y-93465899D01*
X112746044Y-93319597D01*
X112827454Y-93180732D01*
X112904717Y-93056695D01*
X112973212Y-92954875D01*
X113028321Y-92882661D01*
X113065422Y-92847443D01*
X113068275Y-92846118D01*
X113107515Y-92851053D01*
X113107515Y-92851053D01*
G37*
X113107515Y-92851053D02*
X113177539Y-92876983D01*
X113266153Y-92917815D01*
X113361164Y-92967458D01*
X113450378Y-93019822D01*
X113521603Y-93068814D01*
X113533828Y-93078687D01*
X113613673Y-93145872D01*
X113497708Y-93288232D01*
X113400213Y-93415657D01*
X113288039Y-93574805D01*
X113169901Y-93752305D01*
X113054517Y-93934788D01*
X112950602Y-94108882D01*
X112881127Y-94234000D01*
X112747086Y-94503074D01*
X112616984Y-94795556D01*
X112493082Y-95104091D01*
X112377641Y-95421325D01*
X112272923Y-95739902D01*
X112181191Y-96052468D01*
X112104705Y-96351667D01*
X112045728Y-96630146D01*
X112006521Y-96880547D01*
X111989346Y-97095518D01*
X111988749Y-97135950D01*
X111983626Y-97225079D01*
X111965674Y-97271983D01*
X111930684Y-97276983D01*
X111874443Y-97240402D01*
X111792742Y-97162561D01*
X111782245Y-97151727D01*
X111715053Y-97078855D01*
X111659957Y-97013412D01*
X111629078Y-96969872D01*
X111609182Y-96904404D01*
X111595364Y-96802470D01*
X111588098Y-96678095D01*
X111587858Y-96545304D01*
X111595116Y-96418120D01*
X111607341Y-96325954D01*
X111654485Y-96109468D01*
X111722304Y-95856174D01*
X111807843Y-95574234D01*
X111908151Y-95271811D01*
X112020273Y-94957066D01*
X112141256Y-94638163D01*
X112268146Y-94323265D01*
X112397990Y-94020532D01*
X112527834Y-93738128D01*
X112589263Y-93612250D01*
X112665107Y-93465899D01*
X112746044Y-93319597D01*
X112827454Y-93180732D01*
X112904717Y-93056695D01*
X112973212Y-92954875D01*
X113028321Y-92882661D01*
X113065422Y-92847443D01*
X113068275Y-92846118D01*
X113107515Y-92851053D01*
G36*
X105816489Y-93302196D02*
X105889169Y-93323629D01*
X105984402Y-93354659D01*
X106036626Y-93372606D01*
X106173774Y-93424357D01*
X106294298Y-93477022D01*
X106390265Y-93526511D01*
X106453743Y-93568730D01*
X106476799Y-93599587D01*
X106476800Y-93599686D01*
X106470086Y-93633346D01*
X106452112Y-93703314D01*
X106426130Y-93797213D01*
X106412026Y-93846266D01*
X106353460Y-94078260D01*
X106298914Y-94356714D01*
X106249133Y-94677391D01*
X106208728Y-95001221D01*
X106198471Y-95111485D01*
X106188706Y-95251538D01*
X106179602Y-95414707D01*
X106171324Y-95594319D01*
X106164042Y-95783700D01*
X106157923Y-95976179D01*
X106153134Y-96165082D01*
X106149844Y-96343736D01*
X106148219Y-96505469D01*
X106148428Y-96643607D01*
X106150637Y-96751478D01*
X106155016Y-96822409D01*
X106161732Y-96849727D01*
X106162275Y-96849834D01*
X106190330Y-96826403D01*
X106234168Y-96759563D01*
X106291916Y-96653539D01*
X106361697Y-96512552D01*
X106441637Y-96340827D01*
X106529861Y-96142588D01*
X106624493Y-95922056D01*
X106723658Y-95683457D01*
X106825483Y-95431012D01*
X106928090Y-95168946D01*
X107029606Y-94901483D01*
X107041709Y-94869000D01*
X107099344Y-94711251D01*
X107162701Y-94533167D01*
X107228865Y-94343391D01*
X107294924Y-94150565D01*
X107357966Y-93963330D01*
X107415077Y-93790330D01*
X107463344Y-93640206D01*
X107499855Y-93521600D01*
X107519982Y-93450022D01*
X107544223Y-93372715D01*
X107569800Y-93318248D01*
X107584684Y-93302239D01*
X107629992Y-93302685D01*
X107707816Y-93320928D01*
X107807949Y-93352809D01*
X107920180Y-93394165D01*
X108034301Y-93440836D01*
X108140101Y-93488659D01*
X108227372Y-93533473D01*
X108285905Y-93571116D01*
X108305600Y-93596094D01*
X108297879Y-93629288D01*
X108277819Y-93694970D01*
X108254817Y-93764048D01*
X108220621Y-93880952D01*
X108183627Y-94037749D01*
X108145825Y-94223759D01*
X108109208Y-94428305D01*
X108075766Y-94640704D01*
X108047492Y-94850278D01*
X108039318Y-94919800D01*
X108023170Y-95081408D01*
X108008034Y-95267057D01*
X107994261Y-95468514D01*
X107982203Y-95677546D01*
X107972212Y-95885920D01*
X107964640Y-96085406D01*
X107959837Y-96267769D01*
X107958156Y-96424777D01*
X107959949Y-96548198D01*
X107965566Y-96629799D01*
X107966109Y-96633715D01*
X107988249Y-96785531D01*
X108061910Y-96595615D01*
X108171042Y-96322157D01*
X108296001Y-96022634D01*
X108432570Y-95706283D01*
X108576535Y-95382343D01*
X108723678Y-95060049D01*
X108869785Y-94748640D01*
X109010639Y-94457352D01*
X109142026Y-94195424D01*
X109256776Y-93977516D01*
X109360229Y-93789228D01*
X109443904Y-93642061D01*
X109510714Y-93531687D01*
X109563570Y-93453775D01*
X109605386Y-93403996D01*
X109639074Y-93378020D01*
X109664500Y-93371414D01*
X109737891Y-93386613D01*
X109832353Y-93426326D01*
X109930332Y-93482065D01*
X110001932Y-93534573D01*
X110085364Y-93605000D01*
X109968912Y-93722650D01*
X109862089Y-93845212D01*
X109740101Y-94011024D01*
X109605324Y-94215659D01*
X109460132Y-94454692D01*
X109306898Y-94723696D01*
X109147997Y-95018243D01*
X108985804Y-95333909D01*
X108822693Y-95666267D01*
X108661038Y-96010889D01*
X108503213Y-96363350D01*
X108351593Y-96719224D01*
X108318541Y-96799400D01*
X108136458Y-97243900D01*
X108029977Y-97281406D01*
X107967293Y-97300334D01*
X107912046Y-97305579D01*
X107845368Y-97296648D01*
X107752598Y-97274150D01*
X107648634Y-97241312D01*
X107550186Y-97200946D01*
X107488393Y-97167718D01*
X107433635Y-97126260D01*
X107401910Y-97081675D01*
X107383153Y-97015592D01*
X107374093Y-96959075D01*
X107365289Y-96862081D01*
X107359628Y-96722572D01*
X107356952Y-96548724D01*
X107357102Y-96348716D01*
X107359921Y-96130725D01*
X107365248Y-95902927D01*
X107372926Y-95673501D01*
X107382797Y-95450623D01*
X107394701Y-95242471D01*
X107408480Y-95057222D01*
X107411652Y-95021400D01*
X107425705Y-94864736D01*
X107437594Y-94726235D01*
X107446710Y-94613498D01*
X107452445Y-94534128D01*
X107454190Y-94495725D01*
X107453909Y-94493379D01*
X107444287Y-94513291D01*
X107421533Y-94572995D01*
X107388700Y-94664127D01*
X107348842Y-94778326D01*
X107333326Y-94823579D01*
X107194409Y-95219293D01*
X107050936Y-95606719D01*
X106906122Y-95977862D01*
X106763183Y-96324730D01*
X106625333Y-96639330D01*
X106495789Y-96913670D01*
X106478547Y-96948314D01*
X106415698Y-97072237D01*
X106369074Y-97158298D01*
X106332777Y-97214364D01*
X106300912Y-97248305D01*
X106267584Y-97267990D01*
X106229617Y-97280535D01*
X106136875Y-97300516D01*
X106051646Y-97302522D01*
X105954950Y-97285310D01*
X105853631Y-97255934D01*
X105733244Y-97205690D01*
X105639930Y-97143015D01*
X105625031Y-97128702D01*
X105549700Y-97050082D01*
X105550321Y-96207191D01*
X105550950Y-95958442D01*
X105552820Y-95748708D01*
X105556510Y-95566207D01*
X105562600Y-95399158D01*
X105571669Y-95235781D01*
X105584294Y-95064293D01*
X105601057Y-94872914D01*
X105622534Y-94649862D01*
X105631065Y-94564200D01*
X105651824Y-94354852D01*
X105671734Y-94150250D01*
X105689984Y-93958997D01*
X105705765Y-93789700D01*
X105718269Y-93650966D01*
X105726687Y-93551400D01*
X105728390Y-93529150D01*
X105739732Y-93408062D01*
X105753161Y-93332685D01*
X105769771Y-93297939D01*
X105778972Y-93294200D01*
X105816489Y-93302196D01*
X105816489Y-93302196D01*
G37*
X105816489Y-93302196D02*
X105889169Y-93323629D01*
X105984402Y-93354659D01*
X106036626Y-93372606D01*
X106173774Y-93424357D01*
X106294298Y-93477022D01*
X106390265Y-93526511D01*
X106453743Y-93568730D01*
X106476799Y-93599587D01*
X106476800Y-93599686D01*
X106470086Y-93633346D01*
X106452112Y-93703314D01*
X106426130Y-93797213D01*
X106412026Y-93846266D01*
X106353460Y-94078260D01*
X106298914Y-94356714D01*
X106249133Y-94677391D01*
X106208728Y-95001221D01*
X106198471Y-95111485D01*
X106188706Y-95251538D01*
X106179602Y-95414707D01*
X106171324Y-95594319D01*
X106164042Y-95783700D01*
X106157923Y-95976179D01*
X106153134Y-96165082D01*
X106149844Y-96343736D01*
X106148219Y-96505469D01*
X106148428Y-96643607D01*
X106150637Y-96751478D01*
X106155016Y-96822409D01*
X106161732Y-96849727D01*
X106162275Y-96849834D01*
X106190330Y-96826403D01*
X106234168Y-96759563D01*
X106291916Y-96653539D01*
X106361697Y-96512552D01*
X106441637Y-96340827D01*
X106529861Y-96142588D01*
X106624493Y-95922056D01*
X106723658Y-95683457D01*
X106825483Y-95431012D01*
X106928090Y-95168946D01*
X107029606Y-94901483D01*
X107041709Y-94869000D01*
X107099344Y-94711251D01*
X107162701Y-94533167D01*
X107228865Y-94343391D01*
X107294924Y-94150565D01*
X107357966Y-93963330D01*
X107415077Y-93790330D01*
X107463344Y-93640206D01*
X107499855Y-93521600D01*
X107519982Y-93450022D01*
X107544223Y-93372715D01*
X107569800Y-93318248D01*
X107584684Y-93302239D01*
X107629992Y-93302685D01*
X107707816Y-93320928D01*
X107807949Y-93352809D01*
X107920180Y-93394165D01*
X108034301Y-93440836D01*
X108140101Y-93488659D01*
X108227372Y-93533473D01*
X108285905Y-93571116D01*
X108305600Y-93596094D01*
X108297879Y-93629288D01*
X108277819Y-93694970D01*
X108254817Y-93764048D01*
X108220621Y-93880952D01*
X108183627Y-94037749D01*
X108145825Y-94223759D01*
X108109208Y-94428305D01*
X108075766Y-94640704D01*
X108047492Y-94850278D01*
X108039318Y-94919800D01*
X108023170Y-95081408D01*
X108008034Y-95267057D01*
X107994261Y-95468514D01*
X107982203Y-95677546D01*
X107972212Y-95885920D01*
X107964640Y-96085406D01*
X107959837Y-96267769D01*
X107958156Y-96424777D01*
X107959949Y-96548198D01*
X107965566Y-96629799D01*
X107966109Y-96633715D01*
X107988249Y-96785531D01*
X108061910Y-96595615D01*
X108171042Y-96322157D01*
X108296001Y-96022634D01*
X108432570Y-95706283D01*
X108576535Y-95382343D01*
X108723678Y-95060049D01*
X108869785Y-94748640D01*
X109010639Y-94457352D01*
X109142026Y-94195424D01*
X109256776Y-93977516D01*
X109360229Y-93789228D01*
X109443904Y-93642061D01*
X109510714Y-93531687D01*
X109563570Y-93453775D01*
X109605386Y-93403996D01*
X109639074Y-93378020D01*
X109664500Y-93371414D01*
X109737891Y-93386613D01*
X109832353Y-93426326D01*
X109930332Y-93482065D01*
X110001932Y-93534573D01*
X110085364Y-93605000D01*
X109968912Y-93722650D01*
X109862089Y-93845212D01*
X109740101Y-94011024D01*
X109605324Y-94215659D01*
X109460132Y-94454692D01*
X109306898Y-94723696D01*
X109147997Y-95018243D01*
X108985804Y-95333909D01*
X108822693Y-95666267D01*
X108661038Y-96010889D01*
X108503213Y-96363350D01*
X108351593Y-96719224D01*
X108318541Y-96799400D01*
X108136458Y-97243900D01*
X108029977Y-97281406D01*
X107967293Y-97300334D01*
X107912046Y-97305579D01*
X107845368Y-97296648D01*
X107752598Y-97274150D01*
X107648634Y-97241312D01*
X107550186Y-97200946D01*
X107488393Y-97167718D01*
X107433635Y-97126260D01*
X107401910Y-97081675D01*
X107383153Y-97015592D01*
X107374093Y-96959075D01*
X107365289Y-96862081D01*
X107359628Y-96722572D01*
X107356952Y-96548724D01*
X107357102Y-96348716D01*
X107359921Y-96130725D01*
X107365248Y-95902927D01*
X107372926Y-95673501D01*
X107382797Y-95450623D01*
X107394701Y-95242471D01*
X107408480Y-95057222D01*
X107411652Y-95021400D01*
X107425705Y-94864736D01*
X107437594Y-94726235D01*
X107446710Y-94613498D01*
X107452445Y-94534128D01*
X107454190Y-94495725D01*
X107453909Y-94493379D01*
X107444287Y-94513291D01*
X107421533Y-94572995D01*
X107388700Y-94664127D01*
X107348842Y-94778326D01*
X107333326Y-94823579D01*
X107194409Y-95219293D01*
X107050936Y-95606719D01*
X106906122Y-95977862D01*
X106763183Y-96324730D01*
X106625333Y-96639330D01*
X106495789Y-96913670D01*
X106478547Y-96948314D01*
X106415698Y-97072237D01*
X106369074Y-97158298D01*
X106332777Y-97214364D01*
X106300912Y-97248305D01*
X106267584Y-97267990D01*
X106229617Y-97280535D01*
X106136875Y-97300516D01*
X106051646Y-97302522D01*
X105954950Y-97285310D01*
X105853631Y-97255934D01*
X105733244Y-97205690D01*
X105639930Y-97143015D01*
X105625031Y-97128702D01*
X105549700Y-97050082D01*
X105550321Y-96207191D01*
X105550950Y-95958442D01*
X105552820Y-95748708D01*
X105556510Y-95566207D01*
X105562600Y-95399158D01*
X105571669Y-95235781D01*
X105584294Y-95064293D01*
X105601057Y-94872914D01*
X105622534Y-94649862D01*
X105631065Y-94564200D01*
X105651824Y-94354852D01*
X105671734Y-94150250D01*
X105689984Y-93958997D01*
X105705765Y-93789700D01*
X105718269Y-93650966D01*
X105726687Y-93551400D01*
X105728390Y-93529150D01*
X105739732Y-93408062D01*
X105753161Y-93332685D01*
X105769771Y-93297939D01*
X105778972Y-93294200D01*
X105816489Y-93302196D01*
G36*
X113919693Y-94404242D02*
X113990244Y-94451424D01*
X114075393Y-94520284D01*
X114165649Y-94602600D01*
X114251520Y-94690153D01*
X114323516Y-94774721D01*
X114328539Y-94781305D01*
X114384472Y-94858468D01*
X114414469Y-94913954D01*
X114424575Y-94965555D01*
X114420840Y-95031061D01*
X114418971Y-95047331D01*
X114394180Y-95172595D01*
X114353163Y-95290720D01*
X114301370Y-95391664D01*
X114244250Y-95465382D01*
X114187253Y-95501833D01*
X114171179Y-95504000D01*
X114125238Y-95487032D01*
X114115353Y-95435579D01*
X114140195Y-95351600D01*
X114169950Y-95247308D01*
X114175102Y-95148460D01*
X114155379Y-95071935D01*
X114144968Y-95056328D01*
X114094300Y-95030680D01*
X114020359Y-95031059D01*
X113941927Y-95054999D01*
X113887849Y-95090104D01*
X113808193Y-95193260D01*
X113746177Y-95342811D01*
X113701659Y-95539220D01*
X113674499Y-95782950D01*
X113674035Y-95789750D01*
X113657363Y-96037400D01*
X113838981Y-96037400D01*
X113934213Y-96038943D01*
X113989212Y-96045356D01*
X114014501Y-96059307D01*
X114020599Y-96083468D01*
X114020600Y-96083504D01*
X114007814Y-96112950D01*
X113963901Y-96140094D01*
X113880522Y-96169572D01*
X113849150Y-96178822D01*
X113677700Y-96228036D01*
X113663519Y-96507368D01*
X113647574Y-96692233D01*
X113617734Y-96839541D01*
X113569351Y-96961688D01*
X113497778Y-97071068D01*
X113418970Y-97159472D01*
X113300317Y-97258530D01*
X113163840Y-97337471D01*
X113021042Y-97392411D01*
X112883424Y-97419466D01*
X112762489Y-97414753D01*
X112710525Y-97398683D01*
X112615574Y-97342517D01*
X112518701Y-97262295D01*
X112438257Y-97174592D01*
X112403402Y-97121289D01*
X112375327Y-97015469D01*
X112375332Y-97015380D01*
X112725337Y-97015380D01*
X112738768Y-97101668D01*
X112764627Y-97149187D01*
X112804055Y-97205477D01*
X112898602Y-97157243D01*
X112965938Y-97112824D01*
X113047057Y-97045221D01*
X113114951Y-96978793D01*
X113224620Y-96838517D01*
X113311272Y-96681918D01*
X113366512Y-96525673D01*
X113379734Y-96452854D01*
X113383985Y-96381741D01*
X113373789Y-96348744D01*
X113353697Y-96342200D01*
X113304198Y-96358150D01*
X113229432Y-96400335D01*
X113141204Y-96460258D01*
X113051318Y-96529419D01*
X112971578Y-96599321D01*
X112918534Y-96655483D01*
X112813730Y-96797067D01*
X112749827Y-96915439D01*
X112725337Y-97015380D01*
X112375332Y-97015380D01*
X112383517Y-96887362D01*
X112424668Y-96746538D01*
X112495475Y-96602566D01*
X112592635Y-96465017D01*
X112652845Y-96398835D01*
X112830778Y-96255084D01*
X113034021Y-96154982D01*
X113217748Y-96106633D01*
X113384578Y-96078056D01*
X113369692Y-95975178D01*
X113357985Y-95907330D01*
X113338140Y-95805444D01*
X113313249Y-95685023D01*
X113294003Y-95595836D01*
X113257100Y-95411915D01*
X113237317Y-95264746D01*
X113235095Y-95143095D01*
X113250877Y-95035731D01*
X113285104Y-94931420D01*
X113323441Y-94847843D01*
X113395857Y-94723702D01*
X113476691Y-94618240D01*
X113520291Y-94574695D01*
X113614553Y-94502941D01*
X113715635Y-94442391D01*
X113808437Y-94401074D01*
X113873231Y-94386957D01*
X113919693Y-94404242D01*
X113919693Y-94404242D01*
G37*
X113919693Y-94404242D02*
X113990244Y-94451424D01*
X114075393Y-94520284D01*
X114165649Y-94602600D01*
X114251520Y-94690153D01*
X114323516Y-94774721D01*
X114328539Y-94781305D01*
X114384472Y-94858468D01*
X114414469Y-94913954D01*
X114424575Y-94965555D01*
X114420840Y-95031061D01*
X114418971Y-95047331D01*
X114394180Y-95172595D01*
X114353163Y-95290720D01*
X114301370Y-95391664D01*
X114244250Y-95465382D01*
X114187253Y-95501833D01*
X114171179Y-95504000D01*
X114125238Y-95487032D01*
X114115353Y-95435579D01*
X114140195Y-95351600D01*
X114169950Y-95247308D01*
X114175102Y-95148460D01*
X114155379Y-95071935D01*
X114144968Y-95056328D01*
X114094300Y-95030680D01*
X114020359Y-95031059D01*
X113941927Y-95054999D01*
X113887849Y-95090104D01*
X113808193Y-95193260D01*
X113746177Y-95342811D01*
X113701659Y-95539220D01*
X113674499Y-95782950D01*
X113674035Y-95789750D01*
X113657363Y-96037400D01*
X113838981Y-96037400D01*
X113934213Y-96038943D01*
X113989212Y-96045356D01*
X114014501Y-96059307D01*
X114020599Y-96083468D01*
X114020600Y-96083504D01*
X114007814Y-96112950D01*
X113963901Y-96140094D01*
X113880522Y-96169572D01*
X113849150Y-96178822D01*
X113677700Y-96228036D01*
X113663519Y-96507368D01*
X113647574Y-96692233D01*
X113617734Y-96839541D01*
X113569351Y-96961688D01*
X113497778Y-97071068D01*
X113418970Y-97159472D01*
X113300317Y-97258530D01*
X113163840Y-97337471D01*
X113021042Y-97392411D01*
X112883424Y-97419466D01*
X112762489Y-97414753D01*
X112710525Y-97398683D01*
X112615574Y-97342517D01*
X112518701Y-97262295D01*
X112438257Y-97174592D01*
X112403402Y-97121289D01*
X112375327Y-97015469D01*
X112375332Y-97015380D01*
X112725337Y-97015380D01*
X112738768Y-97101668D01*
X112764627Y-97149187D01*
X112804055Y-97205477D01*
X112898602Y-97157243D01*
X112965938Y-97112824D01*
X113047057Y-97045221D01*
X113114951Y-96978793D01*
X113224620Y-96838517D01*
X113311272Y-96681918D01*
X113366512Y-96525673D01*
X113379734Y-96452854D01*
X113383985Y-96381741D01*
X113373789Y-96348744D01*
X113353697Y-96342200D01*
X113304198Y-96358150D01*
X113229432Y-96400335D01*
X113141204Y-96460258D01*
X113051318Y-96529419D01*
X112971578Y-96599321D01*
X112918534Y-96655483D01*
X112813730Y-96797067D01*
X112749827Y-96915439D01*
X112725337Y-97015380D01*
X112375332Y-97015380D01*
X112383517Y-96887362D01*
X112424668Y-96746538D01*
X112495475Y-96602566D01*
X112592635Y-96465017D01*
X112652845Y-96398835D01*
X112830778Y-96255084D01*
X113034021Y-96154982D01*
X113217748Y-96106633D01*
X113384578Y-96078056D01*
X113369692Y-95975178D01*
X113357985Y-95907330D01*
X113338140Y-95805444D01*
X113313249Y-95685023D01*
X113294003Y-95595836D01*
X113257100Y-95411915D01*
X113237317Y-95264746D01*
X113235095Y-95143095D01*
X113250877Y-95035731D01*
X113285104Y-94931420D01*
X113323441Y-94847843D01*
X113395857Y-94723702D01*
X113476691Y-94618240D01*
X113520291Y-94574695D01*
X113614553Y-94502941D01*
X113715635Y-94442391D01*
X113808437Y-94401074D01*
X113873231Y-94386957D01*
X113919693Y-94404242D01*
G04 #@! TO.C,C1*
D13*
X76013333Y-131847142D02*
X75965714Y-131894761D01*
X75822857Y-131942380D01*
X75727619Y-131942380D01*
X75584761Y-131894761D01*
X75489523Y-131799523D01*
X75441904Y-131704285D01*
X75394285Y-131513809D01*
X75394285Y-131370952D01*
X75441904Y-131180476D01*
X75489523Y-131085238D01*
X75584761Y-130990000D01*
X75727619Y-130942380D01*
X75822857Y-130942380D01*
X75965714Y-130990000D01*
X76013333Y-131037619D01*
X76965714Y-131942380D02*
X76394285Y-131942380D01*
X76680000Y-131942380D02*
X76680000Y-130942380D01*
X76584761Y-131085238D01*
X76489523Y-131180476D01*
X76394285Y-131228095D01*
G04 #@! TO.C,C2*
X79823333Y-145127142D02*
X79775714Y-145174761D01*
X79632857Y-145222380D01*
X79537619Y-145222380D01*
X79394761Y-145174761D01*
X79299523Y-145079523D01*
X79251904Y-144984285D01*
X79204285Y-144793809D01*
X79204285Y-144650952D01*
X79251904Y-144460476D01*
X79299523Y-144365238D01*
X79394761Y-144270000D01*
X79537619Y-144222380D01*
X79632857Y-144222380D01*
X79775714Y-144270000D01*
X79823333Y-144317619D01*
X80204285Y-144317619D02*
X80251904Y-144270000D01*
X80347142Y-144222380D01*
X80585238Y-144222380D01*
X80680476Y-144270000D01*
X80728095Y-144317619D01*
X80775714Y-144412857D01*
X80775714Y-144508095D01*
X80728095Y-144650952D01*
X80156666Y-145222380D01*
X80775714Y-145222380D01*
G04 #@! TO.C,C3*
X98913333Y-150227142D02*
X98865714Y-150274761D01*
X98722857Y-150322380D01*
X98627619Y-150322380D01*
X98484761Y-150274761D01*
X98389523Y-150179523D01*
X98341904Y-150084285D01*
X98294285Y-149893809D01*
X98294285Y-149750952D01*
X98341904Y-149560476D01*
X98389523Y-149465238D01*
X98484761Y-149370000D01*
X98627619Y-149322380D01*
X98722857Y-149322380D01*
X98865714Y-149370000D01*
X98913333Y-149417619D01*
X99246666Y-149322380D02*
X99865714Y-149322380D01*
X99532380Y-149703333D01*
X99675238Y-149703333D01*
X99770476Y-149750952D01*
X99818095Y-149798571D01*
X99865714Y-149893809D01*
X99865714Y-150131904D01*
X99818095Y-150227142D01*
X99770476Y-150274761D01*
X99675238Y-150322380D01*
X99389523Y-150322380D01*
X99294285Y-150274761D01*
X99246666Y-150227142D01*
G04 #@! TO.C,C4*
X102683333Y-65117142D02*
X102635714Y-65164761D01*
X102492857Y-65212380D01*
X102397619Y-65212380D01*
X102254761Y-65164761D01*
X102159523Y-65069523D01*
X102111904Y-64974285D01*
X102064285Y-64783809D01*
X102064285Y-64640952D01*
X102111904Y-64450476D01*
X102159523Y-64355238D01*
X102254761Y-64260000D01*
X102397619Y-64212380D01*
X102492857Y-64212380D01*
X102635714Y-64260000D01*
X102683333Y-64307619D01*
X103540476Y-64545714D02*
X103540476Y-65212380D01*
X103302380Y-64164761D02*
X103064285Y-64879047D01*
X103683333Y-64879047D01*
G04 #@! TO.C,D1*
X104671904Y-137462380D02*
X104671904Y-136462380D01*
X104910000Y-136462380D01*
X105052857Y-136510000D01*
X105148095Y-136605238D01*
X105195714Y-136700476D01*
X105243333Y-136890952D01*
X105243333Y-137033809D01*
X105195714Y-137224285D01*
X105148095Y-137319523D01*
X105052857Y-137414761D01*
X104910000Y-137462380D01*
X104671904Y-137462380D01*
X106195714Y-137462380D02*
X105624285Y-137462380D01*
X105910000Y-137462380D02*
X105910000Y-136462380D01*
X105814761Y-136605238D01*
X105719523Y-136700476D01*
X105624285Y-136748095D01*
G04 #@! TO.C,D2*
X89431904Y-76232380D02*
X89431904Y-75232380D01*
X89670000Y-75232380D01*
X89812857Y-75280000D01*
X89908095Y-75375238D01*
X89955714Y-75470476D01*
X90003333Y-75660952D01*
X90003333Y-75803809D01*
X89955714Y-75994285D01*
X89908095Y-76089523D01*
X89812857Y-76184761D01*
X89670000Y-76232380D01*
X89431904Y-76232380D01*
X90384285Y-75327619D02*
X90431904Y-75280000D01*
X90527142Y-75232380D01*
X90765238Y-75232380D01*
X90860476Y-75280000D01*
X90908095Y-75327619D01*
X90955714Y-75422857D01*
X90955714Y-75518095D01*
X90908095Y-75660952D01*
X90336666Y-76232380D01*
X90955714Y-76232380D01*
X93718095Y-75912380D02*
X93718095Y-74912380D01*
X94289523Y-75912380D02*
X93860952Y-75340952D01*
X94289523Y-74912380D02*
X93718095Y-75483809D01*
G04 #@! TO.C,D3*
X100861904Y-71992380D02*
X100861904Y-70992380D01*
X101100000Y-70992380D01*
X101242857Y-71040000D01*
X101338095Y-71135238D01*
X101385714Y-71230476D01*
X101433333Y-71420952D01*
X101433333Y-71563809D01*
X101385714Y-71754285D01*
X101338095Y-71849523D01*
X101242857Y-71944761D01*
X101100000Y-71992380D01*
X100861904Y-71992380D01*
X101766666Y-70992380D02*
X102385714Y-70992380D01*
X102052380Y-71373333D01*
X102195238Y-71373333D01*
X102290476Y-71420952D01*
X102338095Y-71468571D01*
X102385714Y-71563809D01*
X102385714Y-71801904D01*
X102338095Y-71897142D01*
X102290476Y-71944761D01*
X102195238Y-71992380D01*
X101909523Y-71992380D01*
X101814285Y-71944761D01*
X101766666Y-71897142D01*
X97528095Y-72312380D02*
X97528095Y-71312380D01*
X98099523Y-72312380D02*
X97670952Y-71740952D01*
X98099523Y-71312380D02*
X97528095Y-71883809D01*
G04 #@! TO.C,D4*
X93241904Y-63802380D02*
X93241904Y-62802380D01*
X93480000Y-62802380D01*
X93622857Y-62850000D01*
X93718095Y-62945238D01*
X93765714Y-63040476D01*
X93813333Y-63230952D01*
X93813333Y-63373809D01*
X93765714Y-63564285D01*
X93718095Y-63659523D01*
X93622857Y-63754761D01*
X93480000Y-63802380D01*
X93241904Y-63802380D01*
X94670476Y-63135714D02*
X94670476Y-63802380D01*
X94432380Y-62754761D02*
X94194285Y-63469047D01*
X94813333Y-63469047D01*
G04 #@! TO.C,J1*
X117776666Y-138112380D02*
X117776666Y-138826666D01*
X117729047Y-138969523D01*
X117633809Y-139064761D01*
X117490952Y-139112380D01*
X117395714Y-139112380D01*
X118776666Y-139112380D02*
X118205238Y-139112380D01*
X118490952Y-139112380D02*
X118490952Y-138112380D01*
X118395714Y-138255238D01*
X118300476Y-138350476D01*
X118205238Y-138398095D01*
G04 #@! TO.C,J2*
X58086666Y-91932380D02*
X58086666Y-92646666D01*
X58039047Y-92789523D01*
X57943809Y-92884761D01*
X57800952Y-92932380D01*
X57705714Y-92932380D01*
X58515238Y-92027619D02*
X58562857Y-91980000D01*
X58658095Y-91932380D01*
X58896190Y-91932380D01*
X58991428Y-91980000D01*
X59039047Y-92027619D01*
X59086666Y-92122857D01*
X59086666Y-92218095D01*
X59039047Y-92360952D01*
X58467619Y-92932380D01*
X59086666Y-92932380D01*
G04 #@! TO.C,J3*
X58086666Y-113522380D02*
X58086666Y-114236666D01*
X58039047Y-114379523D01*
X57943809Y-114474761D01*
X57800952Y-114522380D01*
X57705714Y-114522380D01*
X58467619Y-113522380D02*
X59086666Y-113522380D01*
X58753333Y-113903333D01*
X58896190Y-113903333D01*
X58991428Y-113950952D01*
X59039047Y-113998571D01*
X59086666Y-114093809D01*
X59086666Y-114331904D01*
X59039047Y-114427142D01*
X58991428Y-114474761D01*
X58896190Y-114522380D01*
X58610476Y-114522380D01*
X58515238Y-114474761D01*
X58467619Y-114427142D01*
G04 #@! TO.C,J4*
X117776666Y-112712380D02*
X117776666Y-113426666D01*
X117729047Y-113569523D01*
X117633809Y-113664761D01*
X117490952Y-113712380D01*
X117395714Y-113712380D01*
X118681428Y-113045714D02*
X118681428Y-113712380D01*
X118443333Y-112664761D02*
X118205238Y-113379047D01*
X118824285Y-113379047D01*
G04 #@! TO.C,J5*
X58086666Y-124952380D02*
X58086666Y-125666666D01*
X58039047Y-125809523D01*
X57943809Y-125904761D01*
X57800952Y-125952380D01*
X57705714Y-125952380D01*
X59039047Y-124952380D02*
X58562857Y-124952380D01*
X58515238Y-125428571D01*
X58562857Y-125380952D01*
X58658095Y-125333333D01*
X58896190Y-125333333D01*
X58991428Y-125380952D01*
X59039047Y-125428571D01*
X59086666Y-125523809D01*
X59086666Y-125761904D01*
X59039047Y-125857142D01*
X58991428Y-125904761D01*
X58896190Y-125952380D01*
X58658095Y-125952380D01*
X58562857Y-125904761D01*
X58515238Y-125857142D01*
G04 #@! TO.C,J6*
X62722380Y-147653333D02*
X63436666Y-147653333D01*
X63579523Y-147700952D01*
X63674761Y-147796190D01*
X63722380Y-147939047D01*
X63722380Y-148034285D01*
X62722380Y-146748571D02*
X62722380Y-146939047D01*
X62770000Y-147034285D01*
X62817619Y-147081904D01*
X62960476Y-147177142D01*
X63150952Y-147224761D01*
X63531904Y-147224761D01*
X63627142Y-147177142D01*
X63674761Y-147129523D01*
X63722380Y-147034285D01*
X63722380Y-146843809D01*
X63674761Y-146748571D01*
X63627142Y-146700952D01*
X63531904Y-146653333D01*
X63293809Y-146653333D01*
X63198571Y-146700952D01*
X63150952Y-146748571D01*
X63103333Y-146843809D01*
X63103333Y-147034285D01*
X63150952Y-147129523D01*
X63198571Y-147177142D01*
X63293809Y-147224761D01*
G04 #@! TO.C,J7*
X107172380Y-147653333D02*
X107886666Y-147653333D01*
X108029523Y-147700952D01*
X108124761Y-147796190D01*
X108172380Y-147939047D01*
X108172380Y-148034285D01*
X107172380Y-147272380D02*
X107172380Y-146605714D01*
X108172380Y-147034285D01*
G04 #@! TO.C,J8*
X74592380Y-154003333D02*
X75306666Y-154003333D01*
X75449523Y-154050952D01*
X75544761Y-154146190D01*
X75592380Y-154289047D01*
X75592380Y-154384285D01*
X75020952Y-153384285D02*
X74973333Y-153479523D01*
X74925714Y-153527142D01*
X74830476Y-153574761D01*
X74782857Y-153574761D01*
X74687619Y-153527142D01*
X74640000Y-153479523D01*
X74592380Y-153384285D01*
X74592380Y-153193809D01*
X74640000Y-153098571D01*
X74687619Y-153050952D01*
X74782857Y-153003333D01*
X74830476Y-153003333D01*
X74925714Y-153050952D01*
X74973333Y-153098571D01*
X75020952Y-153193809D01*
X75020952Y-153384285D01*
X75068571Y-153479523D01*
X75116190Y-153527142D01*
X75211428Y-153574761D01*
X75401904Y-153574761D01*
X75497142Y-153527142D01*
X75544761Y-153479523D01*
X75592380Y-153384285D01*
X75592380Y-153193809D01*
X75544761Y-153098571D01*
X75497142Y-153050952D01*
X75401904Y-153003333D01*
X75211428Y-153003333D01*
X75116190Y-153050952D01*
X75068571Y-153098571D01*
X75020952Y-153193809D01*
G04 #@! TO.C,J9*
X120612380Y-66883333D02*
X121326666Y-66883333D01*
X121469523Y-66930952D01*
X121564761Y-67026190D01*
X121612380Y-67169047D01*
X121612380Y-67264285D01*
X121612380Y-66359523D02*
X121612380Y-66169047D01*
X121564761Y-66073809D01*
X121517142Y-66026190D01*
X121374285Y-65930952D01*
X121183809Y-65883333D01*
X120802857Y-65883333D01*
X120707619Y-65930952D01*
X120660000Y-65978571D01*
X120612380Y-66073809D01*
X120612380Y-66264285D01*
X120660000Y-66359523D01*
X120707619Y-66407142D01*
X120802857Y-66454761D01*
X121040952Y-66454761D01*
X121136190Y-66407142D01*
X121183809Y-66359523D01*
X121231428Y-66264285D01*
X121231428Y-66073809D01*
X121183809Y-65978571D01*
X121136190Y-65930952D01*
X121040952Y-65883333D01*
G04 #@! TO.C,J10*
X56452380Y-65169523D02*
X57166666Y-65169523D01*
X57309523Y-65217142D01*
X57404761Y-65312380D01*
X57452380Y-65455238D01*
X57452380Y-65550476D01*
X57452380Y-64169523D02*
X57452380Y-64740952D01*
X57452380Y-64455238D02*
X56452380Y-64455238D01*
X56595238Y-64550476D01*
X56690476Y-64645714D01*
X56738095Y-64740952D01*
X56452380Y-63550476D02*
X56452380Y-63455238D01*
X56500000Y-63360000D01*
X56547619Y-63312380D01*
X56642857Y-63264761D01*
X56833333Y-63217142D01*
X57071428Y-63217142D01*
X57261904Y-63264761D01*
X57357142Y-63312380D01*
X57404761Y-63360000D01*
X57452380Y-63455238D01*
X57452380Y-63550476D01*
X57404761Y-63645714D01*
X57357142Y-63693333D01*
X57261904Y-63740952D01*
X57071428Y-63788571D01*
X56833333Y-63788571D01*
X56642857Y-63740952D01*
X56547619Y-63693333D01*
X56500000Y-63645714D01*
X56452380Y-63550476D01*
G04 #@! TO.C,Q1*
X81184761Y-70647619D02*
X81089523Y-70600000D01*
X80994285Y-70504761D01*
X80851428Y-70361904D01*
X80756190Y-70314285D01*
X80660952Y-70314285D01*
X80708571Y-70552380D02*
X80613333Y-70504761D01*
X80518095Y-70409523D01*
X80470476Y-70219047D01*
X80470476Y-69885714D01*
X80518095Y-69695238D01*
X80613333Y-69600000D01*
X80708571Y-69552380D01*
X80899047Y-69552380D01*
X80994285Y-69600000D01*
X81089523Y-69695238D01*
X81137142Y-69885714D01*
X81137142Y-70219047D01*
X81089523Y-70409523D01*
X80994285Y-70504761D01*
X80899047Y-70552380D01*
X80708571Y-70552380D01*
X82089523Y-70552380D02*
X81518095Y-70552380D01*
X81803809Y-70552380D02*
X81803809Y-69552380D01*
X81708571Y-69695238D01*
X81613333Y-69790476D01*
X81518095Y-69838095D01*
G04 #@! TO.C,R1*
X88733333Y-89182380D02*
X88400000Y-88706190D01*
X88161904Y-89182380D02*
X88161904Y-88182380D01*
X88542857Y-88182380D01*
X88638095Y-88230000D01*
X88685714Y-88277619D01*
X88733333Y-88372857D01*
X88733333Y-88515714D01*
X88685714Y-88610952D01*
X88638095Y-88658571D01*
X88542857Y-88706190D01*
X88161904Y-88706190D01*
X89685714Y-89182380D02*
X89114285Y-89182380D01*
X89400000Y-89182380D02*
X89400000Y-88182380D01*
X89304761Y-88325238D01*
X89209523Y-88420476D01*
X89114285Y-88468095D01*
G04 #@! TO.C,R2*
X114133333Y-143792380D02*
X113800000Y-143316190D01*
X113561904Y-143792380D02*
X113561904Y-142792380D01*
X113942857Y-142792380D01*
X114038095Y-142840000D01*
X114085714Y-142887619D01*
X114133333Y-142982857D01*
X114133333Y-143125714D01*
X114085714Y-143220952D01*
X114038095Y-143268571D01*
X113942857Y-143316190D01*
X113561904Y-143316190D01*
X114514285Y-142887619D02*
X114561904Y-142840000D01*
X114657142Y-142792380D01*
X114895238Y-142792380D01*
X114990476Y-142840000D01*
X115038095Y-142887619D01*
X115085714Y-142982857D01*
X115085714Y-143078095D01*
X115038095Y-143220952D01*
X114466666Y-143792380D01*
X115085714Y-143792380D01*
G04 #@! TO.C,R3*
X101433333Y-79362380D02*
X101100000Y-78886190D01*
X100861904Y-79362380D02*
X100861904Y-78362380D01*
X101242857Y-78362380D01*
X101338095Y-78410000D01*
X101385714Y-78457619D01*
X101433333Y-78552857D01*
X101433333Y-78695714D01*
X101385714Y-78790952D01*
X101338095Y-78838571D01*
X101242857Y-78886190D01*
X100861904Y-78886190D01*
X101766666Y-78362380D02*
X102385714Y-78362380D01*
X102052380Y-78743333D01*
X102195238Y-78743333D01*
X102290476Y-78790952D01*
X102338095Y-78838571D01*
X102385714Y-78933809D01*
X102385714Y-79171904D01*
X102338095Y-79267142D01*
X102290476Y-79314761D01*
X102195238Y-79362380D01*
X101909523Y-79362380D01*
X101814285Y-79314761D01*
X101766666Y-79267142D01*
G04 #@! TO.C,R4*
X78573333Y-79362380D02*
X78240000Y-78886190D01*
X78001904Y-79362380D02*
X78001904Y-78362380D01*
X78382857Y-78362380D01*
X78478095Y-78410000D01*
X78525714Y-78457619D01*
X78573333Y-78552857D01*
X78573333Y-78695714D01*
X78525714Y-78790952D01*
X78478095Y-78838571D01*
X78382857Y-78886190D01*
X78001904Y-78886190D01*
X79430476Y-78695714D02*
X79430476Y-79362380D01*
X79192380Y-78314761D02*
X78954285Y-79029047D01*
X79573333Y-79029047D01*
G04 #@! TO.C,R5*
X90003333Y-79362380D02*
X89670000Y-78886190D01*
X89431904Y-79362380D02*
X89431904Y-78362380D01*
X89812857Y-78362380D01*
X89908095Y-78410000D01*
X89955714Y-78457619D01*
X90003333Y-78552857D01*
X90003333Y-78695714D01*
X89955714Y-78790952D01*
X89908095Y-78838571D01*
X89812857Y-78886190D01*
X89431904Y-78886190D01*
X90908095Y-78362380D02*
X90431904Y-78362380D01*
X90384285Y-78838571D01*
X90431904Y-78790952D01*
X90527142Y-78743333D01*
X90765238Y-78743333D01*
X90860476Y-78790952D01*
X90908095Y-78838571D01*
X90955714Y-78933809D01*
X90955714Y-79171904D01*
X90908095Y-79267142D01*
X90860476Y-79314761D01*
X90765238Y-79362380D01*
X90527142Y-79362380D01*
X90431904Y-79314761D01*
X90384285Y-79267142D01*
G04 #@! TO.C,R6*
X90003333Y-80292380D02*
X89670000Y-79816190D01*
X89431904Y-80292380D02*
X89431904Y-79292380D01*
X89812857Y-79292380D01*
X89908095Y-79340000D01*
X89955714Y-79387619D01*
X90003333Y-79482857D01*
X90003333Y-79625714D01*
X89955714Y-79720952D01*
X89908095Y-79768571D01*
X89812857Y-79816190D01*
X89431904Y-79816190D01*
X90860476Y-79292380D02*
X90670000Y-79292380D01*
X90574761Y-79340000D01*
X90527142Y-79387619D01*
X90431904Y-79530476D01*
X90384285Y-79720952D01*
X90384285Y-80101904D01*
X90431904Y-80197142D01*
X90479523Y-80244761D01*
X90574761Y-80292380D01*
X90765238Y-80292380D01*
X90860476Y-80244761D01*
X90908095Y-80197142D01*
X90955714Y-80101904D01*
X90955714Y-79863809D01*
X90908095Y-79768571D01*
X90860476Y-79720952D01*
X90765238Y-79673333D01*
X90574761Y-79673333D01*
X90479523Y-79720952D01*
X90431904Y-79768571D01*
X90384285Y-79863809D01*
G04 #@! TO.C,R7*
X101433333Y-75552380D02*
X101100000Y-75076190D01*
X100861904Y-75552380D02*
X100861904Y-74552380D01*
X101242857Y-74552380D01*
X101338095Y-74600000D01*
X101385714Y-74647619D01*
X101433333Y-74742857D01*
X101433333Y-74885714D01*
X101385714Y-74980952D01*
X101338095Y-75028571D01*
X101242857Y-75076190D01*
X100861904Y-75076190D01*
X101766666Y-74552380D02*
X102433333Y-74552380D01*
X102004761Y-75552380D01*
G04 #@! TO.C,SW1*
X113676666Y-77144761D02*
X113819523Y-77192380D01*
X114057619Y-77192380D01*
X114152857Y-77144761D01*
X114200476Y-77097142D01*
X114248095Y-77001904D01*
X114248095Y-76906666D01*
X114200476Y-76811428D01*
X114152857Y-76763809D01*
X114057619Y-76716190D01*
X113867142Y-76668571D01*
X113771904Y-76620952D01*
X113724285Y-76573333D01*
X113676666Y-76478095D01*
X113676666Y-76382857D01*
X113724285Y-76287619D01*
X113771904Y-76240000D01*
X113867142Y-76192380D01*
X114105238Y-76192380D01*
X114248095Y-76240000D01*
X114581428Y-76192380D02*
X114819523Y-77192380D01*
X115010000Y-76478095D01*
X115200476Y-77192380D01*
X115438571Y-76192380D01*
X116343333Y-77192380D02*
X115771904Y-77192380D01*
X116057619Y-77192380D02*
X116057619Y-76192380D01*
X115962380Y-76335238D01*
X115867142Y-76430476D01*
X115771904Y-76478095D01*
G04 #@! TO.C,U1*
X89408095Y-89832380D02*
X89408095Y-90641904D01*
X89455714Y-90737142D01*
X89503333Y-90784761D01*
X89598571Y-90832380D01*
X89789047Y-90832380D01*
X89884285Y-90784761D01*
X89931904Y-90737142D01*
X89979523Y-90641904D01*
X89979523Y-89832380D01*
X90979523Y-90832380D02*
X90408095Y-90832380D01*
X90693809Y-90832380D02*
X90693809Y-89832380D01*
X90598571Y-89975238D01*
X90503333Y-90070476D01*
X90408095Y-90118095D01*
G04 #@! TO.C,U2*
X83058095Y-62492380D02*
X83058095Y-63301904D01*
X83105714Y-63397142D01*
X83153333Y-63444761D01*
X83248571Y-63492380D01*
X83439047Y-63492380D01*
X83534285Y-63444761D01*
X83581904Y-63397142D01*
X83629523Y-63301904D01*
X83629523Y-62492380D01*
X84058095Y-62587619D02*
X84105714Y-62540000D01*
X84200952Y-62492380D01*
X84439047Y-62492380D01*
X84534285Y-62540000D01*
X84581904Y-62587619D01*
X84629523Y-62682857D01*
X84629523Y-62778095D01*
X84581904Y-62920952D01*
X84010476Y-63492380D01*
X84629523Y-63492380D01*
G04 #@! TO.C,Y1*
X89783809Y-143771190D02*
X89783809Y-144247380D01*
X89450476Y-143247380D02*
X89783809Y-143771190D01*
X90117142Y-143247380D01*
X90974285Y-144247380D02*
X90402857Y-144247380D01*
X90688571Y-144247380D02*
X90688571Y-143247380D01*
X90593333Y-143390238D01*
X90498095Y-143485476D01*
X90402857Y-143533095D01*
G04 #@! TO.C,C5*
X65893333Y-86617142D02*
X65845714Y-86664761D01*
X65702857Y-86712380D01*
X65607619Y-86712380D01*
X65464761Y-86664761D01*
X65369523Y-86569523D01*
X65321904Y-86474285D01*
X65274285Y-86283809D01*
X65274285Y-86140952D01*
X65321904Y-85950476D01*
X65369523Y-85855238D01*
X65464761Y-85760000D01*
X65607619Y-85712380D01*
X65702857Y-85712380D01*
X65845714Y-85760000D01*
X65893333Y-85807619D01*
X66798095Y-85712380D02*
X66321904Y-85712380D01*
X66274285Y-86188571D01*
X66321904Y-86140952D01*
X66417142Y-86093333D01*
X66655238Y-86093333D01*
X66750476Y-86140952D01*
X66798095Y-86188571D01*
X66845714Y-86283809D01*
X66845714Y-86521904D01*
X66798095Y-86617142D01*
X66750476Y-86664761D01*
X66655238Y-86712380D01*
X66417142Y-86712380D01*
X66321904Y-86664761D01*
X66274285Y-86617142D01*
G04 #@! TO.C,J11*
X86022380Y-154479523D02*
X86736666Y-154479523D01*
X86879523Y-154527142D01*
X86974761Y-154622380D01*
X87022380Y-154765238D01*
X87022380Y-154860476D01*
X87022380Y-153479523D02*
X87022380Y-154050952D01*
X87022380Y-153765238D02*
X86022380Y-153765238D01*
X86165238Y-153860476D01*
X86260476Y-153955714D01*
X86308095Y-154050952D01*
X87022380Y-152527142D02*
X87022380Y-153098571D01*
X87022380Y-152812857D02*
X86022380Y-152812857D01*
X86165238Y-152908095D01*
X86260476Y-153003333D01*
X86308095Y-153098571D01*
G04 #@! TD*
M02*
